<?xml version="1.0" encoding="UTF-8"?>
<svg width="20px" height="21px" viewBox="0 0 20 21" version="1.1" xmlns="http://www.w3.org/2000/svg" xmlns:xlink="http://www.w3.org/1999/xlink">
    <!-- Generator: Sketch 48.2 (47327) - http://www.bohemiancoding.com/sketch -->
    <title>Z</title>
    <desc>Created with Sketch.</desc>
    <defs></defs>
    <g id="⚙️/Active" stroke="none" stroke-width="1" fill="none" fill-rule="evenodd" transform="translate(-20.000000, -205.000000)">
        <g id="Group-2" transform="translate(20.000000, 203.000000)" fill="#3A3C4D">
            <path d="M18.5078125,5.93554688 C18.8815123,6.31836129 19.1708974,6.76041416 19.3759766,7.26171875 C19.5810557,7.76302334 19.6835938,8.29166389 19.6835938,8.84765625 L19.6835938,17.8710938 C19.6744791,18.4362007 19.5628266,18.9716772 19.3486328,19.4775391 C19.134439,19.983401 18.8359394,20.4277325 18.453125,20.8105469 C18.061196,21.2024759 17.6100286,21.5055328 17.0996094,21.7197266 C16.5891902,21.9339203 16.0514351,22.0410156 15.4863281,22.0410156 L4.80859375,22.0410156 C4.79036449,22.0410156 4.77669275,22.0364584 4.76757812,22.0273438 L4.71289062,22.0273438 C4.14778363,22.0182291 3.61686446,21.904298 3.12011719,21.6855469 C2.62336991,21.4667958 2.18815291,21.1614603 1.81445312,20.7695312 C1.44075334,20.3867168 1.14908959,19.944664 0.939453125,19.4433594 C0.72981666,18.9420548 0.625,18.408857 0.625,17.84375 L0.625,8.73828125 C0.643229258,8.17317426 0.763996279,7.63997646 0.987304688,7.13867188 C1.2106131,6.63736729 1.51366996,6.19987166 1.89648438,5.82617188 C2.27929879,5.45247209 2.72135166,5.16308696 3.22265625,4.95800781 C3.72396084,4.75292866 4.25715863,4.65039062 4.82226562,4.65039062 L4.82226562,4.6640625 C4.84049488,4.65494787 4.87695285,4.65039062 4.93164062,4.65039062 L5.64257812,4.65039062 L5.64257812,3.80273438 C5.64257812,3.53841014 5.73144442,3.31966232 5.90917969,3.14648438 C6.08691495,2.97330643 6.30338414,2.88671875 6.55859375,2.88671875 C6.82291799,2.88671875 7.03938718,2.97330643 7.20800781,3.14648438 C7.37662845,3.31966232 7.4609375,3.53841014 7.4609375,3.80273438 L7.4609375,4.65039062 L13.0117188,4.65039062 L13.0117188,3.80273438 C13.0117188,3.53841014 13.100585,3.31966232 13.2783203,3.14648438 C13.4560556,2.97330643 13.6725248,2.88671875 13.9277344,2.88671875 C14.1920586,2.88671875 14.4085278,2.97330643 14.5771484,3.14648438 C14.7457691,3.31966232 14.8300781,3.53841014 14.8300781,3.80273438 L14.8300781,4.65039062 L15.5,4.65039062 C15.5638024,4.65039062 15.6048176,4.65494787 15.6230469,4.6640625 C16.1790392,4.68229176 16.7076798,4.80305878 17.2089844,5.02636719 C17.710289,5.2496756 18.1432273,5.55273246 18.5078125,5.93554688 Z M17.8652344,10.7070312 L17.8652344,8.84765625 C17.8652344,8.21874686 17.6419293,7.66732008 17.1953125,7.19335938 C16.985676,6.97460828 16.7395847,6.80371155 16.4570312,6.68066406 C16.1744778,6.55761657 15.882814,6.4915365 15.5820312,6.48242188 L14.8300781,6.48242188 L14.8300781,7.31640625 C14.8300781,7.58073049 14.7412118,7.80175692 14.5634766,7.97949219 C14.3857413,8.15722745 14.1738294,8.24609375 13.9277344,8.24609375 C13.6634101,8.24609375 13.4446623,8.15722745 13.2714844,7.97949219 C13.0983064,7.80175692 13.0117188,7.58073049 13.0117188,7.31640625 L13.0117188,6.48242188 L7.4609375,6.48242188 L7.4609375,7.31640625 C7.4609375,7.58073049 7.3720712,7.80175692 7.19433594,7.97949219 C7.01660067,8.15722745 6.80468873,8.24609375 6.55859375,8.24609375 C6.29426951,8.24609375 6.0755217,8.15722745 5.90234375,7.97949219 C5.7291658,7.80175692 5.64257812,7.58073049 5.64257812,7.31640625 L5.64257812,6.48242188 L4.82226562,6.48242188 C4.50325361,6.48242188 4.20247537,6.53938745 3.91992188,6.65332031 C3.63736838,6.76725317 3.38671984,6.92903541 3.16796875,7.13867188 C2.94921766,7.34830834 2.7760423,7.59212101 2.6484375,7.87011719 C2.5208327,8.14811337 2.452474,8.44661299 2.44335938,8.765625 L2.44335938,10.7070312 L17.8652344,10.7070312 Z M17.8652344,12.2519531 L2.44335938,12.2519531 L2.44335938,17.84375 C2.44335938,18.162762 2.5048822,18.4680975 2.62792969,18.7597656 C2.75097718,19.0514338 2.92187391,19.3066395 3.140625,19.5253906 C3.35937609,19.7441417 3.61002463,19.9150384 3.89257812,20.0380859 C4.17513162,20.1611334 4.48046711,20.2226562 4.80859375,20.2226562 L15.4863281,20.2226562 C16.1243521,20.2226562 16.6757789,19.9993512 17.140625,19.5527344 C17.6145857,19.0787737 17.8561197,18.5410186 17.8652344,17.9394531 L17.8652344,12.2519531 Z" id="Z"></path>
        </g>
    </g>
</svg>