<?xml version="1.0" encoding="UTF-8"?>
<svg width="29px" height="29px" viewBox="0 0 29 29" version="1.1" xmlns="http://www.w3.org/2000/svg" xmlns:xlink="http://www.w3.org/1999/xlink">
    <!-- Generator: Sketch 49 (51002) - http://www.bohemiancoding.com/sketch -->
    <title>Group</title>
    <desc>Created with Sketch.</desc>
    <defs></defs>
    <g id="Symbols" stroke="none" stroke-width="1" fill="none" fill-rule="evenodd">
        <g id="header" transform="translate(-160.000000, -20.000000)" fill="#3A3C4D" fill-rule="nonzero">
            <g id="Group" transform="translate(161.000000, 21.000000)">
                <path d="M-0.207106781,1.20710678 C-0.597631073,0.816582489 -0.597631073,0.183417511 -0.207106781,-0.207106781 C0.183417511,-0.597631073 0.816582489,-0.597631073 1.20710678,-0.207106781 L27.2071068,25.7928932 C27.5976311,26.1834175 27.5976311,26.8165825 27.2071068,27.2071068 C26.8165825,27.5976311 26.1834175,27.5976311 25.7928932,27.2071068 L-0.207106781,1.20710678 Z" id="Line-3"></path>
                <path d="M25.7928932,-0.207106781 C26.1834175,-0.597631073 26.8165825,-0.597631073 27.2071068,-0.207106781 C27.5976311,0.183417511 27.5976311,0.816582489 27.2071068,1.20710678 L1.20710678,27.2071068 C0.816582489,27.5976311 0.183417511,27.5976311 -0.207106781,27.2071068 C-0.597631073,26.8165825 -0.597631073,26.1834175 -0.207106781,25.7928932 L25.7928932,-0.207106781 Z" id="Line-3"></path>
            </g>
        </g>
    </g>
</svg>