<?xml version="1.0" encoding="UTF-8"?>
<svg width="19px" height="19px" viewBox="0 0 19 19" version="1.1" xmlns="http://www.w3.org/2000/svg" xmlns:xlink="http://www.w3.org/1999/xlink">
    <!-- Generator: Sketch 48.2 (47327) - http://www.bohemiancoding.com/sketch -->
    <title>q</title>
    <desc>Created with Sketch.</desc>
    <defs></defs>
    <g id="⚙️/Active" stroke="none" stroke-width="1" fill="none" fill-rule="evenodd" transform="translate(-159.000000, -208.000000)">
        <g id="Group-2" transform="translate(20.000000, 203.000000)" fill="#3A3C4D">
            <path d="M144.505859,24.0136719 C144.241535,24.0045572 144.022787,23.9134123 143.849609,23.7402344 C143.676431,23.5670564 143.580729,23.3437514 143.5625,23.0703125 L143.5625,19.8574219 C142.997393,19.8483072 142.464195,19.7320975 141.962891,19.5087891 C141.461586,19.2854807 141.019533,18.9778665 140.636719,18.5859375 C140.253904,18.2031231 139.957683,17.7587916 139.748047,17.2529297 C139.53841,16.7470678 139.433594,16.2161486 139.433594,15.6601562 L139.433594,10.0273438 C139.451823,9.47135139 139.57259,8.94271084 139.795898,8.44140625 C140.019207,7.94010166 140.326821,7.50260604 140.71875,7.12890625 C141.101564,6.75520646 141.543617,6.46582134 142.044922,6.26074219 C142.546226,6.05566304 143.074867,5.953125 143.630859,5.953125 L143.644531,5.96679688 C143.662761,5.95768225 143.699218,5.953125 143.753906,5.953125 L153.474609,5.953125 C153.529297,5.953125 153.561198,5.95768225 153.570312,5.96679688 C154.135419,5.98502613 154.666339,6.10351453 155.163086,6.32226562 C155.659833,6.54101672 156.09505,6.84179496 156.46875,7.22460938 C156.84245,7.61653842 157.131835,8.06086991 157.336914,8.55761719 C157.541993,9.05436446 157.644531,9.58072639 157.644531,10.1367188 L157.644531,15.6738281 C157.644531,15.7285159 157.639974,15.7649739 157.630859,15.7832031 C157.61263,16.3391955 157.494142,16.8655574 157.275391,17.3623047 C157.05664,17.859052 156.755861,18.294269 156.373047,18.6679688 C155.981118,19.0416685 155.536786,19.3333323 155.040039,19.5429688 C154.543292,19.7526052 154.01693,19.8574219 153.460938,19.8574219 L148.839844,19.8574219 L145.353516,23.6445312 C145.171223,23.8359385 144.938803,23.9544269 144.65625,24 L144.574219,24 C144.555989,24.0091146 144.533203,24.0136719 144.505859,24.0136719 Z M147.828125,18.4492188 C148.119793,18.1575506 148.388671,18.0117188 148.634766,18.0117188 C148.671224,18.0117188 148.725911,18.0208332 148.798828,18.0390625 L153.460938,18.0390625 C153.77995,18.0390625 154.083006,17.9775397 154.370117,17.8544922 C154.657228,17.7314447 154.914712,17.5559907 155.142578,17.328125 C155.361329,17.1093739 155.529947,16.8587254 155.648438,16.5761719 C155.766928,16.2936184 155.826172,15.9928401 155.826172,15.6738281 L155.826172,10.1367188 C155.826172,9.82682137 155.766928,9.52832175 155.648438,9.24121094 C155.529947,8.95410013 155.365886,8.70117297 155.15625,8.48242188 C154.937499,8.26367078 154.689129,8.09277405 154.411133,7.96972656 C154.133137,7.84667907 153.843752,7.780599 153.542969,7.77148438 L143.630859,7.77148438 C143.311847,7.77148438 143.013348,7.82844995 142.735352,7.94238281 C142.457355,8.05631567 142.208985,8.22265516 141.990234,8.44140625 C141.516274,8.8971377 141.27474,9.43944998 141.265625,10.0683594 L141.265625,15.6601562 C141.265625,15.9791683 141.324869,16.2799465 141.443359,16.5625 C141.56185,16.8450535 141.72591,17.095702 141.935547,17.3144531 C142.145183,17.5332042 142.388996,17.7063796 142.666992,17.8339844 C142.944988,17.9615892 143.243488,18.0299479 143.5625,18.0390625 L144.492188,18.0390625 C144.756512,18.0390625 144.977538,18.1279288 145.155273,18.3056641 C145.333009,18.4833993 145.421875,18.7044258 145.421875,18.96875 L145.421875,21.0878906 L147.828125,18.4492188 Z" id="q"></path>
        </g>
    </g>
</svg>