<?xml version="1.0" encoding="UTF-8"?>
<svg width="18px" height="24px" viewBox="0 0 18 24" version="1.1" xmlns="http://www.w3.org/2000/svg" xmlns:xlink="http://www.w3.org/1999/xlink">
    <!-- Generator: Sketch 49 (51002) - http://www.bohemiancoding.com/sketch -->
    <title>Combined Shape</title>
    <desc>Created with Sketch.</desc>
    <defs></defs>
    <g id="Symbols" stroke="none" stroke-width="1" fill="none" fill-rule="evenodd">
        <g id="header" transform="translate(-92.000000, -25.000000)" fill="#3C88E9">
            <g id="Logo" transform="translate(73.000000, 25.000000)">
                <path d="M29.0395282,10.8222564 C29.3942537,13.459688 30.4253485,15.2854764 32.1328125,16.2996217 L32.1328125,20.8359375 C32.1328125,21.2695334 32.0537117,21.6796856 31.8955078,22.0664062 C31.7373039,22.4531269 31.5117202,22.7929673 31.21875,23.0859375 C30.9374986,23.3671889 30.6035176,23.5898429 30.2167969,23.7539062 C29.8300762,23.9179696 29.4316427,24 29.0214844,24 C28.5996073,24 28.1923848,23.9179696 27.7998047,23.7539062 C27.4072246,23.5898429 27.0703139,23.3671889 26.7890625,23.0859375 C26.4960923,22.8046861 26.2675789,22.4707051 26.1035156,22.0839844 C25.9394523,21.6972637 25.8574219,21.2812522 25.8574219,20.8359375 L25.8574219,16.4765625 C24.3222579,15.9843725 23.0097711,15.0937564 21.9199219,13.8046875 C21.4042943,13.1953095 20.9824235,12.5185584 20.6542969,11.7744141 C20.3261702,11.0302697 20.1152348,10.248051 20.0214844,9.42773438 C19.9863279,9.26367105 19.96875,9.09375088 19.96875,8.91796875 L19.96875,4.01367188 C19.96875,3.61523238 20.0537101,3.22558784 20.2236328,2.84472656 C20.3935555,2.46386528 20.6249985,2.12695459 20.9179688,1.83398438 C21.1992202,1.55273297 21.5361308,1.33593826 21.9287109,1.18359375 C22.321291,1.03124924 22.7285135,0.955078125 23.1503906,0.955078125 C23.9941448,0.955078125 24.7207001,1.24804395 25.3300781,1.83398438 C25.6113295,2.11523578 25.8281242,2.44628716 25.9804688,2.82714844 C26.1328133,3.20800972 26.2089844,3.60351357 26.2089844,4.01367188 L26.2089844,8.98828125 C26.2207032,9.25781385 26.291015,9.51269411 26.4199219,9.75292969 C26.5488288,9.99316526 26.7246083,10.201171 26.9472656,10.3769531 C27.1582042,10.5410164 27.3925768,10.6699214 27.6503906,10.7636719 C27.9082044,10.8574223 28.1660143,10.9042969 28.4238281,10.9042969 C28.6403484,10.9042969 28.8455815,10.8769501 29.0395282,10.8222564 Z M30.0639037,10.1678745 C30.3552032,9.83641185 30.5057757,9.44907613 30.515625,9.00585938 L30.515625,4.01367188 C30.515625,3.60351357 30.5976554,3.20800972 30.7617188,2.82714844 C30.9257821,2.44628716 31.1542954,2.11523578 31.4472656,1.83398438 C31.728517,1.55273297 32.0654277,1.33593826 32.4580078,1.18359375 C32.8505879,1.03124924 33.2578104,0.955078125 33.6796875,0.955078125 C34.1015646,0.955078125 34.5029278,1.03124924 34.8837891,1.18359375 C35.2646503,1.33593826 35.5957017,1.55273297 35.8769531,1.83398438 C36.1582045,2.11523578 36.3749992,2.44628716 36.5273438,2.82714844 C36.6796883,3.20800972 36.7558594,3.60351357 36.7558594,4.01367188 L36.7558594,8.51367188 C36.7558594,10.1543051 36.3398479,11.6484308 35.5078125,12.9960938 C35.0477729,13.7412283 34.4981751,14.3878385 33.8590135,14.9359295 C33.8577433,14.9370187 33.8564728,14.9381074 33.855202,14.9391958 C32.2907807,14.2507208 31.0270146,12.6602804 30.0639037,10.1678745 Z" id="Combined-Shape"></path>
            </g>
        </g>
    </g>
</svg>