<?xml version="1.0" encoding="UTF-8"?>
<svg width="80px" height="25px" viewBox="0 0 80 25" version="1.1" xmlns="http://www.w3.org/2000/svg" xmlns:xlink="http://www.w3.org/1999/xlink">
    <!-- Generator: Sketch 48.2 (47327) - http://www.bohemiancoding.com/sketch -->
    <title>Logo</title>
    <desc>Created with Sketch.</desc>
    <defs></defs>
    <g id="Index" stroke="none" stroke-width="1" fill="none" fill-rule="evenodd" transform="translate(-73.000000, -25.000000)">
        <g id="Logo" transform="translate(73.000000, 25.000000)" fill="#83858F">
            <path d="M12.8144531,21.2226562 C12.8144531,21.6328146 12.7324227,22.0283184 12.5683594,22.4091797 C12.4042961,22.790041 12.1757827,23.1210923 11.8828125,23.4023438 C11.5898423,23.6835952 11.2500019,23.9003899 10.8632813,24.0527344 C10.4765606,24.2050789 10.0781271,24.28125 9.66796875,24.28125 C9.25781045,24.28125 8.87109557,24.2050789 8.5078125,24.0527344 C8.14452943,23.9003899 7.82812635,23.6835952 7.55859375,23.4023438 C7.28906115,23.1210923 7.07812576,22.7929706 6.92578125,22.4179688 C6.77343674,22.0429669 6.69726562,21.6445334 6.69726562,21.2226562 L6.69726562,7.16015625 L3.25195312,7.16015625 C2.83007602,7.16015625 2.42871284,7.08105548 2.04785156,6.92285156 C1.66699028,6.76464765 1.33593891,6.54492328 1.0546875,6.26367188 C0.773436094,5.98242047 0.553711729,5.64843943 0.395507812,5.26171875 C0.237303896,4.87499807 0.158203125,4.47070523 0.158203125,4.04882812 C0.158203125,3.62695102 0.237303896,3.2285175 0.395507812,2.85351562 C0.553711729,2.47851375 0.773436094,2.15039203 1.0546875,1.86914062 C1.34765771,1.57617041 1.68163875,1.35058673 2.05664062,1.19238281 C2.4316425,1.0341789 2.83007602,0.955078125 3.25195312,0.955078125 L16.0136719,0.955078125 C16.4238302,0.955078125 16.8222637,1.03710855 17.2089844,1.20117188 C17.5957051,1.3652352 17.9296861,1.58788922 18.2109375,1.86914062 C18.5039077,2.16211084 18.7294914,2.50195119 18.8876953,2.88867188 C19.0458992,3.27539256 19.125,3.67968539 19.125,4.1015625 C19.125,4.52343961 19.0458992,4.91894347 18.8876953,5.28808594 C18.7294914,5.65722841 18.5039077,5.98242047 18.2109375,6.26367188 C17.9296861,6.54492328 17.5986347,6.76464765 17.2177734,6.92285156 C16.8369122,7.08105548 16.435549,7.16015625 16.0136719,7.16015625 L12.8144531,7.16015625 L12.8144531,21.2226562 Z M49.3242188,0.955078125 C50.531256,0.955078125 51.688471,1.18652112 52.7958984,1.64941406 C53.9033258,2.112307 54.878902,2.76562078 55.7226562,3.609375 C56.5664105,4.45312922 57.2197242,5.4287054 57.6826172,6.53613281 C58.1455101,7.64356022 58.3769531,8.80663453 58.3769531,10.0253906 C58.3769531,11.2207091 58.1425805,12.3720648 57.6738281,13.4794922 C57.2050758,14.5869196 56.5488323,15.5507771 55.7050781,16.3710938 C54.8613239,17.214848 53.8857477,17.8681617 52.7783203,18.3310547 C51.6708929,18.7939476 50.5195372,19.0253906 49.3242188,19.0253906 L45.8085938,19.0253906 L45.8085938,21.2050781 C45.8085938,21.6152364 45.7265633,22.0107403 45.5625,22.3916016 C45.3984367,22.7724628 45.1757827,23.1035142 44.8945312,23.3847656 C44.6132798,23.666017 44.2792988,23.8857414 43.8925781,24.0439453 C43.5058574,24.2021492 43.1015646,24.28125 42.6796875,24.28125 C42.2695292,24.28125 41.8740253,24.2050789 41.4931641,24.0527344 C41.1123028,23.9003899 40.7812514,23.6835952 40.5,23.4023438 C39.8789031,22.8164033 39.5683594,22.0839888 39.5683594,21.2050781 L39.5683594,4.08398438 C39.5683594,3.67382607 39.6503898,3.27539256 39.8144531,2.88867188 C39.9785164,2.50195119 40.2011705,2.16211084 40.4824219,1.86914062 C40.7636733,1.58788922 41.0976543,1.3652352 41.484375,1.20117188 C41.8710957,1.03710855 42.2695292,0.955078125 42.6796875,0.955078125 L49.3242188,0.955078125 Z M45.8085937,12.7851562 L49.4296875,12.7851562 C49.7460953,12.7851562 50.0624984,12.7119148 50.3789062,12.5654297 C50.6953141,12.4189446 50.9824206,12.2167982 51.2402344,11.9589844 C51.4980482,11.7011706 51.7060539,11.4023454 51.8642578,11.0625 C52.0224617,10.7226546 52.1015625,10.3769549 52.1015625,10.0253906 C52.1015625,9.65038875 52.0253914,9.29004079 51.8730469,8.94433594 C51.7207024,8.59863108 51.5039077,8.28515766 51.2226562,8.00390625 C50.9648425,7.75781127 50.6748063,7.56445383 50.3525391,7.42382812 C50.0302718,7.28320242 49.7109391,7.21289062 49.3945312,7.21289062 L45.8085937,7.21289062 L45.8085937,12.7851562 Z M76.5703125,3.22265625 C77.4257855,4.07812928 78.0878883,5.09179102 78.5566406,6.26367188 C79.025393,7.43555273 79.2597656,8.72460234 79.2597656,10.1308594 L79.2597656,14.8066406 C79.2597656,16.2128977 79.0283226,17.4960879 78.5654297,18.65625 C78.1025367,19.8164121 77.4375043,20.8242145 76.5703125,21.6796875 C75.7734335,22.4765665 74.8330132,23.0917947 73.7490234,23.5253906 C72.6650336,23.9589865 71.5312559,24.1757812 70.3476562,24.1757812 C69.1523378,24.1757812 68.01856,23.9619162 66.9462891,23.5341797 C65.8740181,23.1064432 64.9277385,22.4882853 64.1074219,21.6796875 C63.24023,20.8242145 62.572268,19.8164121 62.1035156,18.65625 C61.6347633,17.4960879 61.4003906,16.2128977 61.4003906,14.8066406 L61.4003906,10.1308594 C61.4003906,8.72460234 61.6347633,7.43262308 62.1035156,6.25488281 C62.572268,5.07714255 63.24023,4.06641047 64.1074219,3.22265625 C64.9277385,2.42577727 65.8769477,1.8134787 66.9550781,1.38574219 C68.0332085,0.958005674 69.1640566,0.744140625 70.3476562,0.744140625 C71.5195371,0.744140625 72.6474555,0.958005674 73.7314453,1.38574219 C74.8154351,1.8134787 75.7617147,2.42577727 76.5703125,3.22265625 Z M72.9667969,10.1484375 C72.9667969,9.02343187 72.7324242,8.22656484 72.2636719,7.7578125 C71.7949195,7.28906016 71.156254,7.0546875 70.3476562,7.0546875 C69.5156208,7.0546875 68.8652367,7.27734152 68.3964844,7.72265625 C67.927732,8.16797098 67.6933594,8.95311937 67.6933594,10.078125 L67.6933594,14.859375 C67.6933594,15.9726618 67.9306617,16.7519509 68.4052734,17.1972656 C68.8798852,17.6425804 69.5273396,17.8652344 70.3476562,17.8652344 C71.1679729,17.8652344 71.809568,17.64551 72.2724609,17.2060547 C72.7353539,16.7665994 72.9667969,15.9843806 72.9667969,14.859375 L72.9667969,10.1484375 Z" id="TYPO"></path>
            <path d="M29.0395282,10.8222564 C29.3942537,13.459688 30.4253485,15.2854764 32.1328125,16.2996217 L32.1328125,20.8359375 C32.1328125,21.2695334 32.0537117,21.6796856 31.8955078,22.0664062 C31.7373039,22.4531269 31.5117202,22.7929673 31.21875,23.0859375 C30.9374986,23.3671889 30.6035176,23.5898429 30.2167969,23.7539062 C29.8300762,23.9179696 29.4316427,24 29.0214844,24 C28.5996073,24 28.1923848,23.9179696 27.7998047,23.7539062 C27.4072246,23.5898429 27.0703139,23.3671889 26.7890625,23.0859375 C26.4960923,22.8046861 26.2675789,22.4707051 26.1035156,22.0839844 C25.9394523,21.6972637 25.8574219,21.2812522 25.8574219,20.8359375 L25.8574219,16.4765625 C24.3222579,15.9843725 23.0097711,15.0937564 21.9199219,13.8046875 C21.4042943,13.1953095 20.9824235,12.5185584 20.6542969,11.7744141 C20.3261702,11.0302697 20.1152348,10.248051 20.0214844,9.42773438 C19.9863279,9.26367105 19.96875,9.09375088 19.96875,8.91796875 L19.96875,4.01367188 C19.96875,3.61523238 20.0537101,3.22558784 20.2236328,2.84472656 C20.3935555,2.46386528 20.6249985,2.12695459 20.9179688,1.83398438 C21.1992202,1.55273297 21.5361308,1.33593826 21.9287109,1.18359375 C22.321291,1.03124924 22.7285135,0.955078125 23.1503906,0.955078125 C23.9941448,0.955078125 24.7207001,1.24804395 25.3300781,1.83398438 C25.6113295,2.11523578 25.8281242,2.44628716 25.9804688,2.82714844 C26.1328133,3.20800972 26.2089844,3.60351357 26.2089844,4.01367188 L26.2089844,8.98828125 C26.2207032,9.25781385 26.291015,9.51269411 26.4199219,9.75292969 C26.5488288,9.99316526 26.7246083,10.201171 26.9472656,10.3769531 C27.1582042,10.5410164 27.3925768,10.6699214 27.6503906,10.7636719 C27.9082044,10.8574223 28.1660143,10.9042969 28.4238281,10.9042969 C28.6403484,10.9042969 28.8455815,10.8769501 29.0395282,10.8222564 Z M30.0639037,10.1678745 C30.3552032,9.83641185 30.5057757,9.44907613 30.515625,9.00585938 L30.515625,4.01367188 C30.515625,3.60351357 30.5976554,3.20800972 30.7617188,2.82714844 C30.9257821,2.44628716 31.1542954,2.11523578 31.4472656,1.83398438 C31.728517,1.55273297 32.0654277,1.33593826 32.4580078,1.18359375 C32.8505879,1.03124924 33.2578104,0.955078125 33.6796875,0.955078125 C34.1015646,0.955078125 34.5029278,1.03124924 34.8837891,1.18359375 C35.2646503,1.33593826 35.5957017,1.55273297 35.8769531,1.83398438 C36.1582045,2.11523578 36.3749992,2.44628716 36.5273438,2.82714844 C36.6796883,3.20800972 36.7558594,3.60351357 36.7558594,4.01367188 L36.7558594,8.51367188 C36.7558594,10.1543051 36.3398479,11.6484308 35.5078125,12.9960938 C35.0477729,13.7412283 34.4981751,14.3878385 33.8590135,14.9359295 C33.8577433,14.9370187 33.8564728,14.9381074 33.855202,14.9391958 C32.2907807,14.2507208 31.0270146,12.6602804 30.0639037,10.1678745 Z" id="Combined-Shape"></path>
        </g>
    </g>
</svg>