<?xml version="1.0" encoding="UTF-8"?>
<svg width="19px" height="18px" viewBox="0 0 19 18" version="1.1" xmlns="http://www.w3.org/2000/svg" xmlns:xlink="http://www.w3.org/1999/xlink">
    <!-- Generator: Sketch 48.2 (47327) - http://www.bohemiancoding.com/sketch -->
    <title>7</title>
    <desc>Created with Sketch.</desc>
    <defs></defs>
    <g id="⚙️/Active" stroke="none" stroke-width="1" fill="none" fill-rule="evenodd" transform="translate(-223.000000, -207.000000)">
        <g id="Group-2" transform="translate(20.000000, 203.000000)" fill="#3A3C4D">
            <path d="M212.251953,21.9589844 C212.005858,21.9589844 211.782553,21.8678395 211.582031,21.6855469 L211.5,21.6035156 L205.744141,15.7792969 L205.675781,15.7109375 C204.873694,14.863277 204.25163,13.8994195 203.80957,12.8193359 C203.367511,11.7392524 203.146484,10.593105 203.146484,9.38085938 L203.160156,9.38085938 C203.160156,8.69726221 203.292316,8.05013326 203.556641,7.43945312 C203.820965,6.82877299 204.190102,6.2955752 204.664062,5.83984375 C205.138023,5.3841123 205.684893,5.02636849 206.304688,4.76660156 C206.924482,4.50683464 207.571611,4.37695312 208.246094,4.37695312 C209.057296,4.37695312 209.81152,4.55696435 210.508789,4.91699219 C211.206058,5.27702003 211.791664,5.76692398 212.265625,6.38671875 C212.7487,5.76692398 213.343421,5.27702003 214.049805,4.91699219 C214.756188,4.55696435 215.51497,4.37695312 216.326172,4.37695312 C217.000654,4.37695312 217.645505,4.50455602 218.260742,4.75976562 C218.87598,5.01497523 219.420571,5.37499768 219.894531,5.83984375 C220.359377,6.2955752 220.721678,6.82877299 220.981445,7.43945312 C221.241212,8.05013326 221.371094,8.69726221 221.371094,9.38085938 C221.371094,10.6295635 221.131838,11.8076117 220.65332,12.9150391 C220.174802,14.0224665 219.511723,14.9999958 218.664062,15.8476562 L218.609375,15.9023438 L212.908203,21.671875 C212.735025,21.8632822 212.516277,21.9589844 212.251953,21.9589844 Z M217.337891,14.6171875 C218.094405,13.8606733 218.64811,13.058598 218.999023,12.2109375 C219.349937,11.363277 219.525391,10.4199271 219.525391,9.38085938 C219.525391,8.96158645 219.441082,8.55599154 219.272461,8.1640625 C219.10384,7.77213346 218.869142,7.43034 218.568359,7.13867188 C218.267577,6.84700375 217.923505,6.61914145 217.536133,6.45507812 C217.148761,6.2910148 216.745445,6.20898438 216.326172,6.20898438 C215.979816,6.20898438 215.640301,6.26367133 215.307617,6.37304688 C214.974933,6.48242242 214.667319,6.63281154 214.384766,6.82421875 C214.102212,7.02474059 213.865235,7.26399601 213.673828,7.54199219 C213.482421,7.81998837 213.345704,8.11848799 213.263672,8.4375 C213.263672,8.72916813 213.16797,8.97298079 212.976562,9.16894531 C212.785155,9.36490983 212.548178,9.46289062 212.265625,9.46289062 C212.001301,9.46289062 211.773438,9.36946708 211.582031,9.18261719 C211.390624,8.99576729 211.285807,8.76562637 211.267578,8.4921875 C211.194661,8.16406086 211.062501,7.86100399 210.871094,7.58300781 C210.679687,7.30501163 210.447267,7.06119896 210.173828,6.8515625 C209.599607,6.42317494 208.957035,6.20898438 208.246094,6.20898438 C207.817706,6.20898438 207.407554,6.2910148 207.015625,6.45507812 C206.623696,6.61914145 206.277345,6.84700375 205.976562,7.13867188 C205.666665,7.43034 205.425131,7.77213346 205.251953,8.1640625 C205.078775,8.55599154 204.992188,8.96158645 204.992188,9.38085938 L204.978516,9.38085938 C204.978516,10.3834686 205.140298,11.2949178 205.463867,12.1152344 C205.787437,12.935551 206.295569,13.7057256 206.988281,14.4257812 L207.042969,14.4804688 L212.238281,19.7578125 L217.337891,14.6171875 Z" id="7"></path>
        </g>
    </g>
</svg>