<?xml version="1.0" encoding="UTF-8"?>
<svg width="21px" height="21px" viewBox="0 0 21 21" version="1.1" xmlns="http://www.w3.org/2000/svg" xmlns:xlink="http://www.w3.org/1999/xlink">
    <!-- Generator: Sketch 48.2 (47327) - http://www.bohemiancoding.com/sketch -->
    <title>}</title>
    <desc>Created with Sketch.</desc>
    <defs></defs>
    <g id="Index" stroke="none" stroke-width="1" fill="none" fill-rule="evenodd" transform="translate(-1360.000000, -29.000000)" fill-opacity="0.747084466">
        <path d="M1378.25682,50 C1377.95498,50 1377.65536,49.9380928 1377.35796,49.8142767 C1377.06056,49.6904605 1376.79645,49.5180049 1376.56563,49.2969046 L1376.49905,49.2305749 L1371.01268,43.7119394 C1370.51553,43.2166747 1370.26696,42.6550884 1370.26696,42.0271636 C1370.26696,41.7529993 1370.32023,41.4854719 1370.42676,41.2245736 C1370.53329,40.9636753 1370.68421,40.7271015 1370.87952,40.5148452 L1369.8941,39.5596968 C1369.36144,40.0195854 1368.76665,40.3711295 1368.1097,40.6143399 C1367.45276,40.8575502 1366.75143,40.9791535 1366.00571,40.9791535 C1365.19784,40.9791535 1364.42993,40.8243856 1363.70197,40.5148452 C1362.974,40.2053048 1362.33038,39.7763767 1361.77108,39.228048 C1361.21179,38.6797193 1360.77679,38.0407491 1360.46607,37.3111181 C1360.15536,36.5814872 1360,35.8098588 1360,34.9962097 C1360,34.1825607 1360.15536,33.4109323 1360.46607,32.6813013 C1360.77679,31.9516704 1361.21179,31.3082782 1361.77108,30.7511055 C1362.33038,30.1939328 1362.974,29.7627937 1363.70197,29.4576753 C1364.42993,29.1525569 1365.19784,29 1366.00571,29 C1366.82245,29 1367.59702,29.1525569 1368.32942,29.4576753 C1369.06183,29.7627937 1369.70323,30.1939328 1370.25365,30.7511055 C1370.80406,31.3082782 1371.2324,31.9516704 1371.53868,32.6813013 C1371.84496,33.4109323 1371.9981,34.1825607 1371.9981,34.9962097 C1371.9981,35.7214187 1371.87825,36.4090302 1371.63855,37.0590651 C1371.39886,37.7090999 1371.05707,38.3038507 1370.61319,38.8433354 L1371.58529,39.7852179 C1371.58529,39.794062 1371.58973,39.7984839 1371.5986,39.7984839 L1371.5986,39.8117498 C1372.00698,39.4756774 1372.46417,39.3076437 1372.9702,39.3076437 C1373.28979,39.3076437 1373.59829,39.3717618 1373.89569,39.5 C1374.19309,39.6282382 1374.4572,39.8029048 1374.68802,40.0240051 L1374.78123,40.1036008 L1380.22765,45.5957044 C1380.22765,45.6045484 1380.23209,45.6089703 1380.24096,45.6089703 L1380.24096,45.6222363 C1380.72924,46.1086569 1380.98224,46.6481335 1381,47.2406822 C1381,47.7713229 1380.79582,48.2621582 1380.38744,48.7132028 L1380.32086,48.7927985 L1380.30755,48.8060644 L1379.82815,49.2969046 C1379.35764,49.7656372 1378.83386,50 1378.25682,50 Z M1366.00571,39.8515477 C1366.68929,39.8515477 1367.32625,39.7255224 1367.91661,39.4734681 C1368.50698,39.2214138 1369.02853,38.8698696 1369.48129,38.418825 C1369.92518,37.9677804 1370.26918,37.4482026 1370.51332,36.8600758 C1370.75745,36.271949 1370.87952,35.6506666 1370.87952,34.9962097 C1370.87952,34.3329089 1370.75745,33.7049935 1370.51332,33.1124447 C1370.26918,32.519896 1369.92518,32.0025291 1369.48129,31.5603285 C1369.03741,31.1181279 1368.51586,30.7732167 1367.91661,30.5255843 C1367.31737,30.277952 1366.68041,30.1541377 1366.00571,30.1541377 C1365.331,30.1541377 1364.69848,30.277952 1364.10812,30.5255843 C1363.51775,30.7732167 1363.00064,31.1181279 1362.55675,31.5603285 C1362.11287,32.0113731 1361.76665,32.5331619 1361.51807,33.1257107 C1361.2695,33.7182594 1361.14521,34.3417529 1361.14521,34.9962097 C1361.14521,35.6418226 1361.2695,36.2608941 1361.51807,36.8534428 C1361.76665,37.4459916 1362.11287,37.9677804 1362.55675,38.418825 C1363.00064,38.8698696 1363.51775,39.2214138 1364.10812,39.4734681 C1364.69848,39.7255224 1365.331,39.8515477 1366.00571,39.8515477 Z M1378.0837,48.7927985 C1378.11921,48.8016425 1378.17248,48.8060644 1378.2435,48.8060644 C1378.49207,48.8060644 1378.73177,48.691094 1378.96259,48.4611497 C1378.97146,48.4611497 1378.9759,48.4567278 1378.9759,48.4478838 L1378.98922,48.4478838 L1379.42866,48.0233733 L1379.49524,47.9437776 C1379.69943,47.7403654 1379.80152,47.5192684 1379.80152,47.2804801 C1379.80152,46.9974717 1379.65948,46.7144676 1379.3754,46.4314593 L1373.84908,40.8730259 L1373.84908,40.8597599 C1373.8402,40.8597599 1373.83576,40.855338 1373.83576,40.846494 C1373.59607,40.6342377 1373.35637,40.5060015 1373.11668,40.4617814 L1372.99683,40.4485155 C1372.75713,40.4485155 1372.50856,40.559064 1372.25111,40.7801642 L1372.21116,40.8199621 L1371.74509,41.3108023 C1371.53202,41.5053705 1371.42549,41.7353114 1371.42549,42.0006317 C1371.42549,42.3013281 1371.56753,42.5931761 1371.85162,42.8761845 L1377.3513,48.4080859 C1377.57324,48.6291862 1377.81737,48.7574224 1378.0837,48.7927985 Z" id="}" fill="#000000"></path>
    </g>
</svg>