<?xml version="1.0" standalone="no"?>
<!DOCTYPE svg PUBLIC "-//W3C//DTD SVG 1.1//EN" "http://www.w3.org/Graphics/SVG/1.1/DTD/svg11.dtd" >
<svg xmlns="http://www.w3.org/2000/svg" xmlns:xlink="http://www.w3.org/1999/xlink" version="1.1">
<metadata>
Created by FontForge 20170731 at Thu May 11 19:56:18 2017
 By Aleksey,,,
Copyright (c) 2016 by Zetafonts. All rights reserved.
</metadata>
<defs>
<font id="AristaProAlternate-Light" horiz-adv-x="1079" >
  <font-face 
    font-family="Arista Pro Alternate Light"
    font-weight="300"
    font-stretch="normal"
    units-per-em="2048"
    panose-1="2 0 5 6 2 0 0 2 0 4"
    ascent="1638"
    descent="-410"
    x-height="963"
    cap-height="1311"
    bbox="-227 -645 2478 1789"
    underline-thickness="102"
    underline-position="-307"
    unicode-range="U+0020-FB06"
  />
<missing-glyph horiz-adv-x="461" 
 />
    <glyph glyph-name="ff" unicode="ff" horiz-adv-x="1224" 
d="M800 654v347q1 64 26 120t67.5 98t99 66.5t119.5 24.5q29 0 48.5 -20.5t19.5 -49.5q0 -27 -19.5 -46.5t-48.5 -19.5q-9 0 -12 1q-35 -4 -65 -19.5t-52 -39.5t-34.5 -55.5t-12.5 -67.5v-339h154q28 0 48.5 -20t20.5 -47q0 -29 -20.5 -49t-48.5 -20h-154v-480
q-1 -63 -26 -119.5t-68 -99t-99.5 -67t-120.5 -24.5q-27 0 -46.5 19.5t-19.5 48.5q0 28 19.5 47.5t46.5 19.5q3 0 7 -0.5t9 -1.5q33 4 62 19.5t51 39t35 54t14 64.5v480h-399v-473q0 -65 -24.5 -122.5t-66.5 -100.5t-99 -68.5t-123 -25.5q-27 0 -46.5 19.5t-19.5 48.5
q0 28 19.5 47.5t46.5 19.5q3 0 7 -0.5t9 -1.5q34 4 63.5 20.5t51.5 41t34.5 56t12.5 65.5v474h-96q-29 0 -48.5 20t-19.5 49q0 27 19.5 47t48.5 20h96v342q0 64 24.5 121t67 100t99 68t120.5 25q29 0 48.5 -20.5t19.5 -49.5q0 -27 -19.5 -46.5t-48.5 -19.5q-9 0 -12 1
q-34 -3 -63.5 -18t-51.5 -38.5t-35 -54t-14 -64.5v-346h399z" />
    <glyph glyph-name="fi" unicode="fi" horiz-adv-x="1022" 
d="M88 -285q-27 0 -46.5 19t-19.5 48q0 27 19.5 46.5t46.5 19.5q37 0 69 14t54.5 38t35.5 56t13 67v521h-93q-28 0 -47.5 19t-19.5 48q0 27 19.5 46.5t47.5 19.5h93v341q1 62 25.5 116.5t66 95.5t96.5 65t117 24q29 0 48.5 -19.5t19.5 -48.5q0 -27 -19.5 -46.5t-48.5 -19.5
q-36 0 -67 -13.5t-54 -36.5t-36.5 -54t-14.5 -65v-339h150q29 0 48.5 -19.5t19.5 -46.5q0 -29 -19.5 -48t-48.5 -19h-150v-521q0 -63 -23.5 -119t-65 -98t-97 -66.5t-119.5 -24.5zM693 1181q0 34 23 57t57 23t57.5 -23t23.5 -57q0 -33 -23.5 -56.5t-57.5 -23.5t-57 23.5
t-23 56.5zM705 897q0 29 20 48.5t48 19.5q29 0 47.5 -19.5t18.5 -48.5v-835q0 -28 -19.5 -47.5t-46.5 -19.5q-28 0 -48 19.5t-20 47.5v835z" />
    <glyph glyph-name="ffi" unicode="ffi" horiz-adv-x="1562" 
d="M1234 1181q0 34 23 57t57 23t57.5 -23t23.5 -57q0 -33 -23.5 -56.5t-57.5 -23.5t-57 23.5t-23 56.5zM1246 897q0 29 20 48.5t48 19.5q29 0 47.5 -19.5t18.5 -48.5v-835q0 -28 -19.5 -47.5t-46.5 -19.5q-28 0 -48 19.5t-20 47.5v835zM800 654v347q1 64 26 120t67.5 98
t99 66.5t119.5 24.5q29 0 48.5 -20.5t19.5 -49.5q0 -27 -19.5 -46.5t-48.5 -19.5q-9 0 -12 1q-35 -4 -65 -19.5t-52 -39.5t-34.5 -55.5t-12.5 -67.5v-339h154q28 0 48.5 -20t20.5 -47q0 -29 -20.5 -49t-48.5 -20h-154v-480q-1 -63 -26 -119.5t-68 -99t-99.5 -67
t-120.5 -24.5q-27 0 -46.5 19.5t-19.5 48.5q0 28 19.5 47.5t46.5 19.5q3 0 7 -0.5t9 -1.5q33 4 62 19.5t51 39t35 54t14 64.5v480h-399v-473q0 -65 -24.5 -122.5t-66.5 -100.5t-99 -68.5t-123 -25.5q-27 0 -46.5 19.5t-19.5 48.5q0 28 19.5 47.5t46.5 19.5q3 0 7 -0.5
t9 -1.5q34 4 63.5 20.5t51.5 41t34.5 56t12.5 65.5v474h-96q-29 0 -48.5 20t-19.5 49q0 27 19.5 47t48.5 20h96v342q0 64 24.5 121t67 100t99 68t120.5 25q29 0 48.5 -20.5t19.5 -49.5q0 -27 -19.5 -46.5t-48.5 -19.5q-9 0 -12 1q-34 -3 -63.5 -18t-51.5 -38.5t-35 -54
t-14 -64.5v-346h399z" />
    <glyph glyph-name="f_f_j" unicode="ffj" horiz-adv-x="1597" 
d="M1068 -225q0 29 20 49t48 20h10q35 0 66.5 13.5t55 37t37.5 54.5t14 67v879q0 29 20 49.5t46 20.5q29 0 48.5 -20.5t19.5 -49.5v-879q0 -63 -24.5 -119t-66.5 -98t-97.5 -66t-118.5 -24l-1 1q-2 -1 -9 -1q-28 0 -48 19t-20 47zM1307 1179q0 35 23.5 57.5t56.5 22.5
q34 0 56.5 -22.5t22.5 -57.5q0 -16 -6.5 -30.5t-17.5 -25.5t-26 -17.5t-32 -6.5q-32 0 -54.5 24t-22.5 56zM800 654v347q1 64 26 120t67.5 98t99 66.5t119.5 24.5q29 0 48.5 -20.5t19.5 -49.5q0 -27 -19.5 -46.5t-48.5 -19.5q-9 0 -12 1q-35 -4 -65 -19.5t-52 -39.5
t-34.5 -55.5t-12.5 -67.5v-339h154q28 0 48.5 -20t20.5 -47q0 -29 -20.5 -49t-48.5 -20h-154v-480q-1 -63 -26 -119.5t-68 -99t-99.5 -67t-120.5 -24.5q-27 0 -46.5 19.5t-19.5 48.5q0 28 19.5 47.5t46.5 19.5q3 0 7 -0.5t9 -1.5q33 4 62 19.5t51 39t35 54t14 64.5v480h-399
v-473q0 -65 -24.5 -122.5t-66.5 -100.5t-99 -68.5t-123 -25.5q-27 0 -46.5 19.5t-19.5 48.5q0 28 19.5 47.5t46.5 19.5q3 0 7 -0.5t9 -1.5q34 4 63.5 20.5t51.5 41t34.5 56t12.5 65.5v474h-96q-29 0 -48.5 20t-19.5 49q0 27 19.5 47t48.5 20h96v342q0 64 24.5 121t67 100
t99 68t120.5 25q29 0 48.5 -20.5t19.5 -49.5q0 -27 -19.5 -46.5t-48.5 -19.5q-9 0 -12 1q-34 -3 -63.5 -18t-51.5 -38.5t-35 -54t-14 -64.5v-346h399z" />
    <glyph glyph-name="f_j" unicode="fj" horiz-adv-x="1072" 
d="M88 -285q-27 0 -46.5 19t-19.5 48q0 27 19.5 46.5t46.5 19.5q37 0 69 14t54.5 38t35.5 56t13 67v521h-93q-28 0 -47.5 19t-19.5 48q0 27 19.5 46.5t47.5 19.5h93v341q1 62 25.5 116.5t66 95.5t96.5 65t117 24q29 0 48.5 -19.5t19.5 -48.5q0 -27 -19.5 -46.5t-48.5 -19.5
q-36 0 -67 -13.5t-54 -36.5t-36.5 -54t-14.5 -65v-339h150q29 0 48.5 -19.5t19.5 -46.5q0 -29 -19.5 -48t-48.5 -19h-150v-521q0 -63 -23.5 -119t-65 -98t-97 -66.5t-119.5 -24.5zM518 -225q0 29 20 49t48 20h10q35 0 66.5 13.5t55 37t37.5 54.5t14 67v879q0 29 20 49.5
t46 20.5q29 0 48.5 -20.5t19.5 -49.5v-879q0 -63 -24.5 -119t-66.5 -98t-97.5 -66t-118.5 -24l-1 1q-2 -1 -9 -1q-28 0 -48 19t-20 47zM757 1179q0 35 23.5 57.5t56.5 22.5q34 0 56.5 -22.5t22.5 -57.5q0 -16 -6.5 -30.5t-17.5 -25.5t-26 -17.5t-32 -6.5q-32 0 -54.5 24
t-22.5 56z" />
    <glyph glyph-name=".notdef" horiz-adv-x="461" 
 />
    <glyph glyph-name=".null" horiz-adv-x="0" 
 />
    <glyph glyph-name="nonmarkingreturn" horiz-adv-x="682" 
 />
    <glyph glyph-name="space" unicode=" " horiz-adv-x="461" 
 />
    <glyph glyph-name="exclam" unicode="!" horiz-adv-x="422" 
d="M133 78q0 32 22.5 54.5t55.5 22.5q15 0 29.5 -6t25 -16.5t17 -24.5t6.5 -30q0 -33 -23.5 -55.5t-54.5 -22.5q-33 0 -56 22.5t-22 55.5zM143 1243q0 28 19.5 48t47.5 20t47 -20t19 -48v-891q0 -29 -19 -49t-48 -20q-28 0 -47 20t-19 49v891z" />
    <glyph glyph-name="quotedbl" unicode="&#x22;" horiz-adv-x="604" 
d="M381 1244q0 29 19 47.5t47 18.5q29 0 48.5 -18.5t19.5 -47.5v-335q0 -26 -20 -46t-48 -20q-26 0 -46 20t-20 46v335zM90 1244v5q0 27 19.5 44t45.5 17q28 0 48 -18.5t20 -47.5v-335q0 -26 -20.5 -46t-47.5 -20q-28 0 -46.5 20t-18.5 46v335z" />
    <glyph glyph-name="numbersign" unicode="#" horiz-adv-x="1233" 
d="M228 381h-137q-29 0 -46.5 18.5t-17.5 46.5t17 49t46 21h170l75 316h-142q-27 0 -44.5 18.5t-17.5 48.5q0 29 17 49t44 20h175l71 302q5 22 25.5 36.5t44.5 14.5q30 0 49 -21t19 -50q0 -12 -3 -24l-62 -258h326l71 296q6 24 25.5 40t44.5 16q30 0 49.5 -20.5t19.5 -51.5
q0 -10 -3 -22l-62 -258h147q30 0 46.5 -19t16.5 -51q0 -26 -17.5 -46t-43.5 -20h-182l-76 -316h159q29 0 46.5 -18t17.5 -46q0 -30 -17 -50.5t-46 -20.5h-193l-79 -331q-5 -22 -23.5 -35.5t-41.5 -13.5q-33 0 -52 20.5t-19 44.5v8.5t2 8.5l71 298h-328l-79 -331
q-5 -23 -24 -35.5t-43 -12.5q-32 0 -50.5 18t-18.5 42v8t2 9zM403 516h327l75 316h-327z" />
    <glyph glyph-name="dollar" unicode="$" horiz-adv-x="972" 
d="M435 1403q0 25 17.5 42t42.5 17q23 0 39 -17t16 -42v-123h-115v123zM435 31h115v-134q0 -24 -16.5 -41t-39.5 -17q-25 0 -42 17t-17 41v134zM57 236q-5 10 -6.5 18.5t-1.5 16.5q0 29 20 47t43 18q33 0 63 -41q21 -40 53.5 -72.5t74 -55t89.5 -35t101 -12.5
q54 0 107.5 16.5t96 48.5t69 80t26.5 111q0 57 -26.5 96t-70 66.5t-98 47t-110.5 37.5q-75 17 -147 44t-128.5 69t-91 100.5t-34.5 137.5q0 81 35 145t92 109t128.5 69t145.5 24q60 0 116.5 -12.5t105.5 -36.5t89 -59.5t67 -82.5q7 -11 7 -26q0 -26 -18.5 -43.5t-43.5 -17.5
q-10 0 -20.5 3.5t-21.5 11.5q-59 72 -126 101t-153 29q-48 0 -96 -14t-86.5 -41t-62.5 -67.5t-24 -94.5t29.5 -90t74.5 -61t99 -40.5t103 -28.5q76 -24 147.5 -53.5t127 -72t89.5 -102t34 -142.5q0 -89 -35.5 -161.5t-95.5 -124t-139 -80t-166 -28.5q-73 0 -141 19t-125 53
t-99.5 79t-65.5 98z" />
    <glyph glyph-name="percent" unicode="%" horiz-adv-x="1455" 
d="M169 1008q0 -39 14.5 -73.5t40 -60t59.5 -40t73 -14.5t73.5 14.5t60 40t40.5 60t15 73.5t-15 73t-40.5 59.5t-60 40t-73.5 14.5t-73 -14.5t-59.5 -40t-40 -59.5t-14.5 -73zM356 695q-65 0 -121.5 24.5t-99 67t-67 99.5t-24.5 122q0 64 24.5 121t67 99.5t99 67t121.5 24.5
t122 -24.5t99 -67t66.5 -99.5t24.5 -121q0 -65 -24.5 -122t-66.5 -99.5t-99 -67t-122 -24.5zM912 300q0 -39 15 -73.5t40.5 -60t59.5 -40t73 -14.5t73.5 14.5t60 40t40.5 60t15 73.5t-15 73.5t-40.5 60t-60 40t-73.5 14.5t-73 -14.5t-59.5 -40t-40.5 -60t-15 -73.5z
M1100 -11q-65 0 -121.5 24.5t-98.5 66.5t-66.5 98.5t-24.5 121.5q0 64 24.5 121t66.5 100t98.5 67.5t121.5 24.5q64 0 121 -24.5t99.5 -67.5t67 -100t24.5 -121q0 -65 -24.5 -121.5t-67 -98.5t-99.5 -66.5t-121 -24.5zM949 1275q8 17 24 26.5t33 9.5q29 0 44 -19t15 -45
q0 -17 -6 -30l-557 -1184q-8 -17 -22.5 -26t-31.5 -9q-26 0 -43.5 19t-17.5 42q0 14 6 26z" />
    <glyph glyph-name="ampersand" unicode="&#x26;" horiz-adv-x="1183" 
d="M44 385q0 62 16.5 113.5t45.5 94.5t68 77t83 60l-28 26q-21 20 -43 47t-40 59t-29 67.5t-11 73.5q0 66 24.5 123.5t67.5 100.5t100.5 68t123.5 25t123.5 -24.5t99.5 -67t66.5 -100t24.5 -123.5q0 -111 -63 -189t-187 -123l315 -294l151 176q21 24 52 24q26 0 45 -20
t19 -46q1 -13 -4 -24.5t-13 -21.5l-154 -177l212 -197q30 -29 30 -56q0 -14 -7 -25t-16.5 -18.5t-20.5 -12t-20 -4.5q-21 0 -40 18l-219 201l-72 -84q-29 -33 -64 -60t-74 -46t-80.5 -29t-83.5 -10q-83 0 -155.5 31.5t-126.5 85.5t-85 126.5t-31 154.5zM720 304l-372 343
q-81 -36 -130.5 -99.5t-49.5 -154.5q0 -55 21 -105t57 -87.5t85 -60t106 -22.5q30 0 59 8t55.5 21.5t50 31t41.5 35.5l3 4zM386 786l32 8q97 27 146.5 84.5t49.5 123.5q0 39 -14 73.5t-39 60t-59.5 40.5t-75.5 15q-40 0 -74 -14.5t-58.5 -40t-38.5 -59.5t-14 -74
q0 -24 8.5 -47.5t21.5 -45.5t29 -41t30 -32l4 -3z" />
    <glyph glyph-name="quotesingle" unicode="'" horiz-adv-x="312" 
d="M89 1248q0 28 19.5 47t46.5 19q28 0 47.5 -19t19.5 -47v-336q0 -27 -20 -47t-47 -20t-46.5 20t-19.5 47v336z" />
    <glyph glyph-name="parenleft" unicode="(" horiz-adv-x="644" 
d="M134 924q2 84 32.5 155t85 122.5t132 80.5t173.5 29q29 0 47.5 -19t18.5 -47t-18.5 -47.5t-47.5 -19.5h-41q-51 0 -96.5 -21t-79 -56.5t-53.5 -83t-20 -101.5v-842q0 -52 19 -100t52 -84.5t79 -58.5t100 -22h40q29 0 47.5 -19.5t18.5 -48.5q0 -28 -18.5 -46.5
t-47.5 -18.5h-7q-97 1 -174 31t-131 82.5t-82.5 124.5t-28.5 157v853z" />
    <glyph glyph-name="parenright" unicode=")" horiz-adv-x="645" 
d="M-22 -259q0 29 19 48.5t48 19.5h40q52 0 97 21t78.5 56.5t53.5 81.5t21 97v856q-2 52 -22 99t-54 82t-78.5 55.5t-94.5 20.5h-41q-29 0 -48 19.5t-19 47.5t19 47t48 19q98 0 176.5 -30t133 -83t84 -126t29.5 -159v-848q-1 -84 -30.5 -154.5t-83.5 -122.5t-130.5 -81.5
t-172.5 -30.5h-6q-29 0 -48 18.5t-19 46.5z" />
    <glyph glyph-name="asterisk" unicode="*" horiz-adv-x="626" 
d="M185 1069l-103 62q-30 18 -30 52q0 29 20.5 49t46.5 20q23 0 40 -13l89 -53v108q0 29 20 48.5t49 19.5q28 0 46.5 -19.5t18.5 -48.5v-109l88 53q9 7 19.5 10t21.5 3q26 0 46 -19.5t20 -48.5q0 -16 -7.5 -30.5t-21.5 -22.5l-103 -61l104 -61q28 -20 28 -54
q0 -29 -20 -48.5t-46 -19.5q-23 0 -40 13l-89 53v-109q0 -29 -19 -48t-47 -19t-48 19t-20 48v108l-90 -53q-17 -13 -40 -13q-27 0 -46.5 19.5t-19.5 46.5q0 16 7.5 30.5t21.5 25.5z" />
    <glyph glyph-name="plus" unicode="+" horiz-adv-x="821" 
d="M343 567h-253q-29 0 -48.5 19.5t-19.5 47.5t19.5 48t48.5 20h253v254q0 29 19.5 48t47.5 19q29 0 48.5 -19t19.5 -48v-254h254q28 0 48 -20t20 -49q0 -28 -20 -47t-48 -19h-254v-254q0 -29 -20 -48.5t-48 -19.5t-47.5 19.5t-19.5 48.5v254z" />
    <glyph glyph-name="comma" unicode="," horiz-adv-x="379" 
d="M112 127q0 29 19.5 49.5t48.5 20.5t47.5 -20.5t18.5 -49.5v-326q0 -29 -18.5 -48.5t-47.5 -19.5t-48.5 19.5t-19.5 48.5v326z" />
    <glyph glyph-name="hyphen" unicode="-" horiz-adv-x="932" 
d="M767 632q29 0 49 -20.5t20 -47.5q0 -29 -20 -48.5t-49 -19.5h-631q-28 0 -48 20t-20 48t20 48t48 20h631z" />
    <glyph glyph-name="period" unicode="." horiz-adv-x="416" 
d="M112 55q0 36 25 61t60 25q36 0 61 -25t25 -61q0 -35 -25 -60t-61 -25q-35 0 -60 25t-25 60z" />
    <glyph glyph-name="slash" unicode="/" horiz-adv-x="559" 
d="M404 1262q8 23 26 35.5t40 12.5q30 0 48.5 -22.5t18.5 -52.5q0 -11 -3 -21l-380 -1165q-7 -22 -25.5 -34.5t-39.5 -12.5q-29 0 -48 21t-19 46q0 13 4 22z" />
    <glyph glyph-name="zero" unicode="0" horiz-adv-x="2531" 
d="M1929 721q4 -4 8.5 -9t6.5 -10q0 -6 1 -11t1 -11q0 -12 -2 -23q-2 -6 -6.5 -10t-8.5 -6q-4 -4 -8 -7t-8 -7q-12 -4 -23 -4q-6 0 -12 1t-10 3l-10.5 7t-8.5 7q-4 2 -7 6t-3 10q-4 7 -5 12t-1 11q0 10 6 22q0 5 3 10t7 9t8.5 7t10.5 5q8 4 22 4q6 0 10.5 -1t12.5 -3
q4 -2 8 -5t8 -7zM518 702q0 -2 -4 -8q-2 0 -3 -2t-5 -2q-2 -2 -8 -2h-33v47h33q4 0 8 -2q4 0 5 -1l3 -3l4 -8q2 -2 2 -10q0 -6 -2 -9zM801 721q4 -4 8 -9t6 -10q2 -6 3 -11t1 -11t-1 -11t-3 -12q-2 -6 -6 -10t-8 -6q-2 -4 -6 -7t-11 -7q-4 -2 -10 -3t-12 -1q-12 0 -23 4
q-4 4 -9 7t-9 7l-6 6t-6 10q-2 7 -4.5 12t-2.5 11q0 10 7 22q2 5 6 10t6 9q4 4 9 7t9 5q6 2 12.5 3t10.5 1q12 0 22 -4q7 -2 11 -5t6 -7zM1090 733q0 -4 1 -6t1 -4l28 -64h-59l29 64v4v6zM270 729q2 -2 3 -5t3 -5q3 -4 3 -10v-5.5t-3 -5.5q-2 -2 -3 -5t-3 -3l-8 -8h-10h-37
v53h37q6 0 10 -2q2 0 5 -2zM2478 1092v-586h-2404v586h911q0 30 5 58t18 54q12 27 27.5 51.5t37.5 42.5q37 39 90 62q29 12 56.5 17t56.5 5q33 0 61.5 -6t53.5 -18q28 -12 51.5 -28.5t42.5 -35.5q37 -37 61 -94q21 -53 21 -108h911zM1030 1192q-22 -47 -22 -100
q0 -58 22 -105q10 -22 24.5 -44.5t30.5 -41.5q19 -18 40.5 -32.5t45.5 -24.5q48 -23 105 -23q29 0 54.5 4t49.5 15q25 12 45.5 25.5t38.5 33.5q19 19 33 40.5t27 43.5q22 51 22 109q0 22 -4 45.5t-14 44.5q-12 41 -41 75q-14 17 -30.5 31.5t-33.5 24.5q-18 10 -37.5 19
t-39.5 18q-15 4 -32.5 6t-37.5 2q-29 0 -55.5 -5t-51.5 -18q-49 -18 -86 -57q-16 -18 -29.5 -41t-23.5 -45zM295 690q6 10 6 19q0 4 -1 9t-5 11q0 2 -4 6l-6 6q-2 4 -5.5 7.5t-9.5 3.5q-4 2 -9 4t-9 2h-53v-154h16v58h37q4 0 9 1t9 3q11 4 15 8q2 4 6 8t4 8zM410 758h-95
v-154h95v19h-72v47h59v20h-59v45h72v23zM559 604l-47 66q2 2 5 2t5 4q8 4 10 10q3 2 5 5t4 7v13v10t-2 8q-4 8 -11 14q-4 9 -14 9q-2 2 -7 4t-9 2h-56v-154h23v64h22l41 -56q2 -4 7 -6q2 -2 4 -2h6h14zM664 631q0 4 1 8t1 8q0 12 -4.5 20.5t-12.5 14.5q-2 0 -3 2t-5 4h-1
t-5 2h-2t-2 4q-6 0 -8 2q-7 0 -9 1l-6 3q-8 2 -8 5q-6 4 -6 6v8v8q2 0 4 2t2 4l3 1t5 1q4 2 6 2h4l2.5 -1t4.5 -1q8 0 8 -4q2 -2 4 -2h4q8 0 14 4l4 2q0 2 -2 4l-4 4q-4 2 -6 4.5t-6 4.5q-2 0 -4 1t-6 5q-6 0 -7 1t-6 1q-4 0 -9 -1t-9 -1q-4 -4 -7 -6t-7 -2q-2 -5 -5 -8
t-6 -7q-2 -4 -3 -7t-1 -9v-9t4 -8q3 -4 6 -7t3 -5q4 -2 8 -5t8 -3q4 -2 7 -4t7 -4q2 -2 5.5 -2h5.5q6 -2 7 -2t3 -2q4 -2 4 -3t2 -6q2 -2 2 -5v-7v-3t-2 -5q-2 -4 -2 -5t-4 -3q-2 -4 -5 -5t-5 -3h-5.5h-5.5h-7h-5q-2 2 -5 3t-3 5l-2 2q-6 4 -12 4h-4.5t-4.5 -2l-6 -2
q0 -4 2 -4q0 -4 4 -6q0 -2 2 -5l2 -2h3q8 -8 17 -10t19 -2h9.5t9.5 2t9 4t7 6q6 2 9.5 5.5t5.5 9.5zM838 659q2 7 2 11v10q0 12 -2 20q0 7 -3.5 11t-5.5 10q-4 6 -12 14q-4 4 -8 6t-10 9q-2 0 -6.5 2t-10.5 6q-6 0 -10 1t-10 1q-4 0 -10.5 -1t-10.5 -1q-6 -4 -10 -6t-8 -2
q-4 -7 -8 -9t-8 -6q-5 -4 -8 -7t-5 -7q-4 -6 -5 -10t-3 -11q-2 -8 -2 -20q0 -8 2 -15.5t4 -15.5q2 -6 6 -12t11 -14q6 -5 12 -9t14 -4q12 -6 29 -6h10h10q11 4 17 8q14 6 18 11q6 8 12 18q2 4 5.5 9t3.5 9zM997 758h-20v-119q0 2 -1 5l-1 3l-74 105q-4 0 -8 6h-4h-4h-15
v-154h21v129v-4l2 -2v0v-4l88 -119h16v154zM1169 604l-67 154h-23l-65 -154h12q6 0 8 2l3 3t5 3l9 27h79l11 -27q2 -4 6 -6q0 -2 8 -2h14zM1270 623h-66v135h-22v-154h88v19zM1479 758h-21v-92v-11t-2 -8q-2 -8 -10 -12q-2 -2 -5 -4t-5 -6q-6 -2 -9.5 -2h-7.5q-10 0 -14 2
q-6 4 -10 6t-4 4q-2 2 -4.5 5t-6.5 7q0 4 -1 8t-1 11v92h-20v-92v-12t2 -7q0 -8 4 -14q4 -10 12 -15q2 -2 5 -4t8 -4q2 -2 6 -3t6 -3q6 0 9 -2t9 -2q4 0 7.5 2t9.5 2q4 2 7 3t7 3l12 8q4 5 5 8t3 7q3 2 6 6t3 8v19v92zM1597 631q7 8 7 16q0 12 -4.5 20.5t-12.5 14.5
q-6 4 -6 6h-5t-5 2h-3t-5 4h-2t-5 2q-2 0 -4 1l-6 3q-8 2 -8 5q-4 2 -5 4t-3 2q0 2 -1 3t-1 5t4 8l6 6q2 0 3 1t5 1q0 2 10 2l2.5 -1t4.5 -1q2 -2 8 -4q8 -2 10 -2q6 0 8 4l6 2l-4 4l-4 4q0 2 -3 4.5t-5 4.5q-4 0 -6 1t-6 5q-4 0 -7.5 1l-3.5 1q-6 0 -10 -1t-8 -1
q-4 -4 -8 -6t-6 -2q-4 -5 -6 -8t-7 -7q0 -4 -2 -7t-2 -9t2 -9t2 -8q5 -8 11 -12q4 -2 7 -5t5 -3q6 -2 9 -4t7 -4t6.5 -2h4.5q2 -2 5 -2t5 -2t5 -3t3 -6q2 -2 2 -5v-7v-3t-2 -5q-2 -6 -8 -8q-4 -4 -6 -5t-4 -3h-6h-5h-7h-5q-4 2 -10 8v2q-6 4 -12 4h-3.5t-5.5 -2l-6 -2
q2 -2 2 -3t2 -1q0 -2 1 -3t1 -3l1 -1t1 -4q4 -2 7 -2q6 -8 15 -10t19 -2h10.5t10.5 2l8 4t8 6q2 2 5 5.5t5 9.5zM1722 758h-94v-154h94v19h-73v47h61v20h-61v45h73v23zM1966 659v11v10v11v9q-4 11 -10 21q-4 6 -12 14q-2 4 -6.5 6t-8.5 9q-4 0 -9 2t-9 6q-6 0 -10.5 1
t-10.5 1t-11 -1t-9 -1q-12 -6 -21 -8q-4 -7 -7 -9t-7 -6l-7 -7l-7 -7q-2 -6 -4 -10t-2 -11q-5 -8 -5 -20q0 -8 2.5 -15.5t4.5 -15.5q6 -14 18 -26q4 -5 10 -9t15 -4q12 -6 30 -6h10.5h10.5q4 2 9 4t9 4q4 4 8.5 6.5t6.5 4.5q8 8 12 18q6 8 10 18zM2126 758h-23v-119
q0 2 -1 5t-3 3l-74 105l-1 1t-3 5h-5h-5h-16v-154h24v129v-4v-2v-2l2 -2l86 -119h19v154zM2251 623h-66v135h-22v-154h88v19zM2374 758h-19q-4 0 -8 -4q-8 -4 -8 -9l-35 -47l-2 -2h-2v-2v2l-2 2l-37 47q-2 5 -6 9t-10 4h-17l56 -76l2 -2q0 -2 2 -2v-2v-2q0 -2 2 -2v-2v-66
h22v66v2v4q2 0 2 4v2h2zM1188 864q-19 8 -38.5 19.5t-33.5 25.5h322q-17 -14 -35.5 -25.5t-38.5 -19.5q-21 -6 -43.5 -12t-44.5 -6q-25 0 -46.5 6t-41.5 12zM1141 936l315 317q29 -39 45.5 -79.5t16.5 -81.5q0 -23 -3.5 -44.5t-11.5 -41.5q-8 -19 -18 -36.5t-23 -33.5h-321z
M1094 928q-27 35 -45 73q-7 21 -11 43.5t-4 47.5q0 20 4 40.5t11 41.5q6 18 16 35.5t25 33.5h319zM1364 1315q20 -8 38.5 -20.5t33.5 -22.5h-324q37 28 76 43q39 18 88 18t88 -18zM78 350q-4 4 -5 8t-3 9q-2 6 -3 10t-1 10t4 16q2 5 3 10t5 7l3 9t7 7q0 2 5 5t7 5q6 5 9.5 6
t9.5 3q2 0 8 1t10 1q8 0 14.5 -1t14.5 -5q8 -2 13 -6.5t9 -8.5q-2 -2 -4 -2v-4h-2h-2h-4h-6q-4 2 -8 5t-8 3h-7.5h-9.5h-10h-8q-8 -4 -12.5 -7t-8.5 -5q-4 -6 -7 -10t-5 -8q-4 -7 -4 -13v-8q0 -8 2 -14t3 -9.5t1 -7.5q2 -2 5 -4t5 -6q4 -2 6 -5t7 -3q2 -2 6 -4t8 -2
q2 -2 6 -2h6h10.5t8.5 2q4 0 9 2t9 4v29h-12h-2l-2 2l-3 3l-3 3l-1 1t-1 3v1v3v0h38v-53l-5 -5t-5 -6q-6 -2 -12 -2q-6 -2 -14 -2h-15h-10h-8q-6 2 -9.5 4.5t-9.5 6.5q-2 0 -7 3t-5 7q-6 2 -7 6t-3 8zM240 438v-45h55v-14h-55v-47h67v-17h-84v140h84v-17h-67zM369 315v123
h-45v17h106v-17h-47v-123h-14zM532 438v-49h60v-12h-60v-62h-16v140h84v-17h-68zM641 455v-86q0 -4 2 -7.5t4 -5.5q2 -6 5 -9t5 -7q0 -2 3.5 -4t5.5 -4q6 -2 10 -2h8h7t5 2q6 2 9.5 4t7.5 4q0 4 3 7t5 9q4 4 4 13v86h14v-86q0 -7 -1 -11t-3 -10t-5 -10t-7 -8t-8 -7.5
t-8 -5.5q-13 -2 -23 -2q-12 0 -25 2q-2 2 -7 5.5t-9 7.5q-6 6 -10 18q-2 6 -4 10t-2 11v86h14zM784 455v-123h62v-17h-78v140h16zM877 455v-123h65v-17h-80v140h15zM1069 315l-61 140h8q4 0 8 -2q2 -2 3 -2t3 -5l43 -104v-4q2 -2 2 -6v6l1 2l1 2q6 14 12.5 26.5t12.5 24.5
q4 17 10 29l12 24q0 5 2 5t2 2q2 2 3.5 2h5.5h8q-8 -17 -15.5 -34.5t-17.5 -33.5q-6 -20 -13 -36.5t-16 -35.5h-14zM1171 438v-45h58v-14h-58v-47h68v-17h-84v140h84v-17h-68zM1341 381q-2 -2 -10 -4l47 -62h-10q-2 0 -5 1l-3 1q-2 2 -4 3.5t-4 5.5l-39 51h-25v-62h-14v140
h51h5t7 -2q9 -2 15 -9q2 -4 4 -7t4 -7q2 -2 2 -7v-5v-9t-2 -6q0 -4 -2 -8t-4 -6l-4 -4t-9 -4zM1325 389q4 0 6 4q2 0 4 1t4 1l3 6t4 5q0 2 1 4t1 8l-1 2t-1 6q-3 2 -4 3t-3 5q-2 0 -4 1t-4 3h-6h-37v-49h37zM1452 336q2 2 4 8q2 2 3 6t1 6q0 6 -2 11q-2 0 -3 3t-3 5t-8 4
q-4 0 -6 1l-6 3q-5 0 -9 2t-4 4q-10 0 -14 6q-4 0 -5 4t-3 7v14v9t2 7q0 6 8 10q4 5 6 6t8 3q4 0 6.5 1t8.5 1q2 0 5 -1t5 -1t4 -1l6 -3q2 0 4 -2.5t2 -4.5q4 -2 5 -4t3 -2l-4 -2q-2 -2 -8 -2h-6q-4 2 -4 4h-2h-2h-2h-3h-1h-2h-9q-8 0 -8 -2q-6 -6 -6 -8q-4 0 -4 -8
q0 -6 4 -6q0 -4 2 -6t5 -3.5l3 -1.5q4 -4 6.5 -4t8.5 -4h3t3 -2h4t4 -4h2h1h1q2 0 4 -1l2 -1q4 -4 6 -7t7 -5q2 -10 2 -19v-10t-7 -8q0 -6 -8 -12q-2 -2 -6 -4.5t-8 -4.5t-8 -2h-10q-11 0 -18 2t-13 9q-2 0 -4 2l-4 4q0 2 -1 4l-1 2l2 2l1 1t5 1h2q2 0 4 -1t4 -3q4 -2 6 -4
t6 -2q0 -2 4 -2h7q8 0 10 2q8 0 12 4zM1524 455v-140h-17v140h17zM1579 336q-12 8 -18 20q-5 15 -5 31v7v9q7 11 9 17q6 8 14 16q6 6 12 10q4 5 9.5 6t9.5 3q4 0 8 1t10 1q4 0 9 -1t12 -1q4 -2 8 -3t8 -6l5 -5t7 -5q4 -4 6.5 -7t6.5 -9q2 -6 6 -17q2 -4 3 -9t1 -7
q0 -8 -2 -15t-6 -16q-2 -6 -5.5 -11t-9.5 -9q-6 -6 -11 -9t-11 -8q-10 -4 -27 -4q-8 0 -15 1t-11 3q-17 5 -23 17zM1579 408q-4 -7 -6 -13t-2 -8q0 -4 1 -8t1 -6q2 -8 8 -17q0 -2 2 -4t4 -6l5 -5t10 -3q2 -2 5 -4t5 -2q4 -2 8 -2h8h7t7 2q3 0 7 2l8 4q2 0 5 3l5 5q2 4 4 6
l4 4q2 4 3 7.5t3 9.5q0 2 1 6t1 8q0 2 -1 8t-5 13q0 4 -4 8t-6 10q-4 2 -8 5t-10 7h-9.5h-11.5h-12h-10q-4 -4 -9.5 -7t-9.5 -5q-2 -6 -5 -10t-3 -8zM1741 315h-17v140h13h5t5 -4l72 -103q2 0 2 -4l2 -2v-2v115h16v-140h-14l-82 115v4h-2v4v-123zM1956 438v-49h57v-12h-57
v-62h-14v140h83v-17h-69zM2114 381q-9 -2 -13 -4l45 -62h-12q-4 0 -8 2q0 2 -1 3.5t-3 5.5l-39 51h-25v-62h-16v140h51h6t8 -2t7.5 -4.5t5.5 -4.5q2 -4 4 -7t6 -7q0 -2 1 -7l1 -5q0 -6 -1 -9t-1 -6l-4 -8t-2 -6zM2101 393q2 0 3 1t3 1q7 8 7 11q2 4 2 12q0 2 -2 8q0 2 -7 8
q-2 0 -3 1l-3 3h-8h-35v-49h35q4 0 8 4zM2281 336q-4 -6 -10 -9t-12 -8q-6 -2 -12 -3t-15 -1q-8 0 -15 1t-13 3q-13 5 -23 17q-4 4 -8 9t-6 11q-2 9 -5 16t-3 15q0 2 1 7t3 9q2 5 3 10t3 7q4 6 7 9t5 7q4 2 8 5t9 5q4 5 8 6t8 3q6 0 9 1t9 1q4 0 9.5 -1t9.5 -1l9 -3t7 -6
q4 -2 8 -5t6 -5q3 -4 6 -7t5 -9q6 -6 8 -17q2 -4 3 -9t1 -7q0 -8 -1 -15t-5 -16q-2 -6 -6 -11t-11 -9zM2232 330h7.5t9.5 2q2 0 5 2t5 4q2 0 6 3t8 5l3 6t3 4q2 4 3.5 7.5t1.5 9.5q2 2 2 6v8q0 2 -1 8t-1 13l-6 8t-5 10q-6 2 -11 5t-9 7h-10.5h-10.5h-11h-11q-6 -4 -9 -7
t-8 -5q-6 -6 -8 -10l-4 -8q-2 -7 -2 -13v-8v-14q0 -6 1 -9.5t5 -7.5q0 -2 3 -4t5 -6q2 -2 5.5 -5t5.5 -3q2 -2 5 -4t9 -2q2 -2 6 -2h8zM2460 453q2 2 3 2h3h12v-140h-14v115l-2 -2v0v-2q-4 -8 -6 -17.5t-7 -15.5q-4 -6 -7 -12l-7 -14q-2 -9 -4 -15l-4 -12q-4 -6 -7 -11
t-5 -14h-15q-10 13 -15 27t-11 27q-4 14 -11.5 28.5t-11.5 28.5v2l-4 2v-115h-16v140h14q6 0 8 -2l2 -2v-5l49 -108q0 -2 2 -2v-4q0 2 1 4t1 4q0 4 5 8l43 98q0 5 1 5t3 2zM74 262h157v-20v-4v-5q0 -4 -2 -6l-4 -4l-106 -145h2v2h4h2h104v-37h-165v12q0 11 2 13q0 2 4 8
q2 2 2 4t2 4t3 4l3 6l94 129h-102v39zM260 262h139v-39h-100v-49h80v-41h-80v-53h100v-37h-139v219zM571 223h-59v-180h-43v180h-63v39h165v-39zM672 262l94 -219h-25q-8 0 -16 4q-4 2 -5 6t-5 8l-13 29h-100l-10 -29q-2 -4 -3 -5t-3 -1q0 -4 -1 -5t-5 -3q-2 0 -4.5 -1
t-4.5 -1q0 -2 -2 -2h-4h-24l94 219h37zM684 129l-27 68q0 2 -1 3t-1 3q0 4 -2 6v-6q0 -2 -2 -3t-2 -3l-26 -68h61zM774 262h139v-39h-100v-55h82v-39h-82v-86h-39v219zM1133 207q4 -6 6 -12.5t6 -12.5q2 -8 2 -15v-13v-17t-2 -14q-4 -6 -6 -13.5t-6 -13.5q-5 -4 -9 -10
l-8 -12q-8 -4 -12 -9.5t-10 -7.5q-7 -6 -14 -8t-13 -4q-8 -2 -15.5 -3t-15.5 -1q-10 0 -21 3t-22 5q-12 6 -19 12.5t-18 12.5q-14 16 -20 35q-6 12 -8 22t-2 23q0 6 1 13t3 15q4 17 12 25q4 8 7 13t7 11q9 5 14 9t11 8t12 6t15 6q6 0 13 1t15 1t15.5 -1t15.5 -1q6 -4 13 -6
t14 -6q6 -4 10 -8t12 -9q4 -6 8 -11t9 -13zM1104 127q2 6 3 12t1 15q0 12 -4 24q-4 10 -8 15.5t-11 9.5q-4 4 -9 8t-11 6q-12 6 -29 6q-16 0 -28 -6q-4 -2 -9.5 -6t-11.5 -8t-9 -9.5t-7 -15.5q-4 -4 -4 -11v-13v-15t4 -12q4 -8 7 -14.5t9 -10.5t11.5 -8t9.5 -8q8 -2 14 -4
t14 -2t14.5 2t14.5 4q6 4 11 8t9 8q7 4 11 10.5t8 14.5zM1329 262h39v-219h-37l-102 147q-2 0 -2 1.5t-2 3.5q-2 4 -2 6q-4 0 -4 4l-1 1t-4 3v-166h-38v219h34q4 0 8.5 -1t4.5 -3l6 -3t4 -3q10 -16 21.5 -31.5t21.5 -34.5q12 -14 23.5 -29.5t25.5 -29.5q0 -4 1 -6t1 -6
q0 -2 1 -4t1 -5v156zM1389 262h165v-39h-65v-180h-39v180h-61v39zM1690 150q2 -5 5 -9t5 -8q0 -4 2 -9t2 -13q0 -13 -6 -27l-8 -12t-9 -11q-8 -4 -12 -8t-12 -6t-15.5 -4t-13.5 -2q-8 0 -15 2t-18 4q-6 2 -11 6t-13 13q-4 2 -6 5t-4 7q-5 2 -5 12l1.5 1t3.5 3q2 0 2 1t2 1
t4 1l2 1h10h3t3 -2q6 0 10 -2q5 -4 9 -6t6 -4q2 0 6 -2t10 -2q2 0 5 1t7 3q7 2 13 6l8 8q2 4 4 6t2 7q0 8 -6 12q-4 6 -8 6q-4 4 -7.5 5t-5.5 1q-6 2 -16 8q-4 0 -9 1t-9 6q-9 2 -13 5t-8 7q-6 4 -9 8t-5 8q-6 12 -6 25q0 18 6 26q2 7 6 11t10 8q4 4 9.5 6t13.5 6q4 0 10 1
t14 1q4 0 8.5 -1t10.5 -1q4 -2 7 -4t9 -4q2 -2 6 -5t8 -7q3 -2 6 -5.5t5 -7.5l-8 -4l-6 -4t-3 -4h-8h-4h-4h-2q-6 0 -6 2l-8 4q-3 0 -4 1l-1 1h-6h-12q-4 0 -5 -1t-5 -3q-2 -2 -4 -8q-2 -2 -2 -8t2 -6q2 -2 3 -4.5t1 -6.5q4 0 7 -1t5 -1q6 -2 11 -4t7 -4l11 -2q4 -4 9 -5
t11 -7q10 -2 17 -12zM1755 80q6 0 6 -6q2 0 2 -3v-5q0 -7 -2 -11q0 -4 -6 -8q-4 0 -6 -4q-2 0 -4 -1t-6 -1q-2 0 -4 1t-4 1q-2 2 -4.5 3t-4.5 1q-2 2 -3 4t-3 4q-2 4 -2 11v5t2 3q2 4 3 5t3 1q7 6 9 6q2 2 4 3t4 1q4 0 6 -1t4 -3q2 0 6 -6zM1839 203q-8 -8 -16 -25
q-2 -4 -4 -11t-2 -13q0 -9 2 -15l4 -12q4 -8 7 -14.5t9 -10.5q4 -4 9 -8t14 -8q8 -2 14 -4t14 -2q6 0 10.5 2t10.5 2q4 2 9 5t9 7q4 0 8 2h7h6t6 -2q6 -2 10 -6l6 -10q-6 -8 -16 -14q-6 -5 -10 -8t-11 -5q-6 -4 -11 -5t-11 -3t-11.5 -3t-11.5 -1q-14 0 -24.5 3t-20.5 5
q-20 10 -35 25q-16 16 -24 35q-2 12 -5 22t-3 23q0 6 1 13t3 15q2 6 4 12.5t6 12.5q6 8 9 13t9 11q7 5 12 9t13 8q4 4 10 6t17 6q4 0 12 1t16 1h11.5t11.5 -2t11 -4t11 -4q7 -2 11 -5t10 -7q10 -9 16 -17l-6 -8l-5 -5t-5 -3h-7h-5h-8t-7 2q-4 4 -9 7t-9 5q-6 2 -10.5 2
h-10.5q-16 0 -28 -6q-9 -2 -14 -6t-9 -8zM2195 207q3 -6 6 -12.5t5 -12.5q2 -8 2 -15v-13v-17t-2 -14t-5 -13.5t-6 -13.5q-8 -10 -16 -22q-8 -4 -14 -9.5t-11 -7.5q-6 -6 -13 -8t-15 -4q-6 -2 -13.5 -3t-15.5 -1q-20 0 -43 8q-8 6 -17 12.5t-16 12.5q-8 8 -14 16t-10 19
q-4 12 -6 22t-2 23q0 6 1 13t1 15q2 6 6 12.5t6 12.5q4 8 8 13t10 11q4 5 10.5 9t12.5 8q4 4 11 6t13 6q9 0 16 1t13 1q8 0 15.5 -1t13.5 -1q8 -4 15 -6t13 -6q5 -4 11 -8t14 -9q2 -6 8 -11t8 -13zM2165 127q4 10 4 27q0 6 -1 13t-3 11q-4 10 -7.5 15.5t-7.5 9.5
q-10 10 -24 14q-6 4 -13.5 5t-15.5 1q-14 0 -26 -6q-7 -2 -12 -6t-11 -8q-4 -4 -8 -9.5t-8 -15.5q-2 -4 -3 -11t-1 -13q0 -9 1 -15t3 -12q8 -16 16 -25q6 -4 11 -8t12 -8q6 -2 14 -4t12 -2q8 0 15.5 2t13.5 4q6 4 13 8t11 8q9 9 15 25zM2433 260l1 1t5 1h39v-219h-39v160
q0 -2 -1 -4l-3 -6v-7t-2 -4q-6 -18 -14.5 -35.5t-14.5 -33.5q-6 -17 -13 -34.5t-13 -35.5h-39l-55 139q-3 2 -3 11q-2 4 -3 5t-1 3v-158h-41v219h39q4 0 6.5 -1l2.5 -1q4 -2 5 -2t3 -2l6 -4l4 -4t2 -4q4 -17 11 -32t14 -34q6 -16 13 -32.5t13 -32.5v-2v-5v-4q4 0 4 -4v4v4
q0 3 1 5l1 2l9 16l45 115q0 2 1 4t1 4q2 2 5 3l3 1q2 2 4 2t4 2z" />
    <glyph glyph-name="one" unicode="1" horiz-adv-x="2531" 
d="M1929 721q4 -4 8.5 -9t6.5 -10q0 -6 1 -11t1 -11q0 -12 -2 -23q-2 -6 -6.5 -10t-8.5 -6q-4 -4 -8 -7t-8 -7q-12 -4 -23 -4q-6 0 -12 1t-10 3l-10.5 7t-8.5 7q-4 2 -7 6t-3 10q-4 7 -5 12t-1 11q0 10 6 22q0 5 3 10t7 9t8.5 7t10.5 5q8 4 22 4q6 0 10.5 -1t12.5 -3
q4 -2 8 -5t8 -7zM518 702q0 -2 -4 -8q-2 0 -3 -2t-5 -2q-2 -2 -8 -2h-33v47h33q4 0 8 -2q4 0 5 -1l3 -3l4 -8q2 -2 2 -10q0 -6 -2 -9zM801 721q4 -4 8 -9t6 -10q2 -6 3 -11t1 -11t-1 -11t-3 -12q-2 -6 -6 -10t-8 -6q-2 -4 -6 -7t-11 -7q-4 -2 -10 -3t-12 -1q-12 0 -23 4
q-4 4 -9 7t-9 7l-6 6t-6 10q-2 7 -4.5 12t-2.5 11q0 10 7 22q2 5 6 10t6 9q4 4 9 7t9 5q6 2 12.5 3t10.5 1q12 0 22 -4q7 -2 11 -5t6 -7zM1090 733q0 -4 1 -6t1 -4l28 -64h-59l29 64v4v6zM270 729q2 -2 3 -5t3 -5q3 -4 3 -10v-5.5t-3 -5.5q-2 -2 -3 -5t-3 -3l-8 -8h-10h-37
v53h37q6 0 10 -2q2 0 5 -2zM2478 1092v-586h-2404v586h911q0 30 5 58t18 54q12 27 27.5 51.5t37.5 42.5q37 39 90 62q29 12 56.5 17t56.5 5q33 0 61.5 -6t53.5 -18q28 -12 51.5 -28.5t42.5 -35.5q37 -37 61 -94q21 -53 21 -108h911zM1030 1192q-22 -47 -22 -100
q0 -58 22 -105q10 -22 24.5 -44.5t30.5 -41.5q19 -18 40.5 -32.5t45.5 -24.5q48 -23 105 -23q29 0 54.5 4t49.5 15q25 12 45.5 25.5t38.5 33.5q19 19 33 40.5t27 43.5q22 51 22 109q0 22 -4 45.5t-14 44.5q-12 41 -41 75q-14 17 -30.5 31.5t-33.5 24.5q-18 10 -37.5 19
t-39.5 18q-15 4 -32.5 6t-37.5 2q-29 0 -55.5 -5t-51.5 -18q-49 -18 -86 -57q-16 -18 -29.5 -41t-23.5 -45zM295 690q6 10 6 19q0 4 -1 9t-5 11q0 2 -4 6l-6 6q-2 4 -5.5 7.5t-9.5 3.5q-4 2 -9 4t-9 2h-53v-154h16v58h37q4 0 9 1t9 3q11 4 15 8q2 4 6 8t4 8zM410 758h-95
v-154h95v19h-72v47h59v20h-59v45h72v23zM559 604l-47 66q2 2 5 2t5 4q8 4 10 10q3 2 5 5t4 7v13v10t-2 8q-4 8 -11 14q-4 9 -14 9q-2 2 -7 4t-9 2h-56v-154h23v64h22l41 -56q2 -4 7 -6q2 -2 4 -2h6h14zM664 631q0 4 1 8t1 8q0 12 -4.5 20.5t-12.5 14.5q-2 0 -3 2t-5 4h-1
t-5 2h-2t-2 4q-6 0 -8 2q-7 0 -9 1l-6 3q-8 2 -8 5q-6 4 -6 6v8v8q2 0 4 2t2 4l3 1t5 1q4 2 6 2h4l2.5 -1t4.5 -1q8 0 8 -4q2 -2 4 -2h4q8 0 14 4l4 2q0 2 -2 4l-4 4q-4 2 -6 4.5t-6 4.5q-2 0 -4 1t-6 5q-6 0 -7 1t-6 1q-4 0 -9 -1t-9 -1q-4 -4 -7 -6t-7 -2q-2 -5 -5 -8
t-6 -7q-2 -4 -3 -7t-1 -9v-9t4 -8q3 -4 6 -7t3 -5q4 -2 8 -5t8 -3q4 -2 7 -4t7 -4q2 -2 5.5 -2h5.5q6 -2 7 -2t3 -2q4 -2 4 -3t2 -6q2 -2 2 -5v-7v-3t-2 -5q-2 -4 -2 -5t-4 -3q-2 -4 -5 -5t-5 -3h-5.5h-5.5h-7h-5q-2 2 -5 3t-3 5l-2 2q-6 4 -12 4h-4.5t-4.5 -2l-6 -2
q0 -4 2 -4q0 -4 4 -6q0 -2 2 -5l2 -2h3q8 -8 17 -10t19 -2h9.5t9.5 2t9 4t7 6q6 2 9.5 5.5t5.5 9.5zM838 659q2 7 2 11v10q0 12 -2 20q0 7 -3.5 11t-5.5 10q-4 6 -12 14q-4 4 -8 6t-10 9q-2 0 -6.5 2t-10.5 6q-6 0 -10 1t-10 1q-4 0 -10.5 -1t-10.5 -1q-6 -4 -10 -6t-8 -2
q-4 -7 -8 -9t-8 -6q-5 -4 -8 -7t-5 -7q-4 -6 -5 -10t-3 -11q-2 -8 -2 -20q0 -8 2 -15.5t4 -15.5q2 -6 6 -12t11 -14q6 -5 12 -9t14 -4q12 -6 29 -6h10h10q11 4 17 8q14 6 18 11q6 8 12 18q2 4 5.5 9t3.5 9zM997 758h-20v-119q0 2 -1 5l-1 3l-74 105q-4 0 -8 6h-4h-4h-15
v-154h21v129v-4l2 -2v0v-4l88 -119h16v154zM1169 604l-67 154h-23l-65 -154h12q6 0 8 2l3 3t5 3l9 27h79l11 -27q2 -4 6 -6q0 -2 8 -2h14zM1270 623h-66v135h-22v-154h88v19zM1479 758h-21v-92v-11t-2 -8q-2 -8 -10 -12q-2 -2 -5 -4t-5 -6q-6 -2 -9.5 -2h-7.5q-10 0 -14 2
q-6 4 -10 6t-4 4q-2 2 -4.5 5t-6.5 7q0 4 -1 8t-1 11v92h-20v-92v-12t2 -7q0 -8 4 -14q4 -10 12 -15q2 -2 5 -4t8 -4q2 -2 6 -3t6 -3q6 0 9 -2t9 -2q4 0 7.5 2t9.5 2q4 2 7 3t7 3l12 8q4 5 5 8t3 7q3 2 6 6t3 8v19v92zM1597 631q7 8 7 16q0 12 -4.5 20.5t-12.5 14.5
q-6 4 -6 6h-5t-5 2h-3t-5 4h-2t-5 2q-2 0 -4 1l-6 3q-8 2 -8 5q-4 2 -5 4t-3 2q0 2 -1 3t-1 5t4 8l6 6q2 0 3 1t5 1q0 2 10 2l2.5 -1t4.5 -1q2 -2 8 -4q8 -2 10 -2q6 0 8 4l6 2l-4 4l-4 4q0 2 -3 4.5t-5 4.5q-4 0 -6 1t-6 5q-4 0 -7.5 1l-3.5 1q-6 0 -10 -1t-8 -1
q-4 -4 -8 -6t-6 -2q-4 -5 -6 -8t-7 -7q0 -4 -2 -7t-2 -9t2 -9t2 -8q5 -8 11 -12q4 -2 7 -5t5 -3q6 -2 9 -4t7 -4t6.5 -2h4.5q2 -2 5 -2t5 -2t5 -3t3 -6q2 -2 2 -5v-7v-3t-2 -5q-2 -6 -8 -8q-4 -4 -6 -5t-4 -3h-6h-5h-7h-5q-4 2 -10 8v2q-6 4 -12 4h-3.5t-5.5 -2l-6 -2
q2 -2 2 -3t2 -1q0 -2 1 -3t1 -3l1 -1t1 -4q4 -2 7 -2q6 -8 15 -10t19 -2h10.5t10.5 2l8 4t8 6q2 2 5 5.5t5 9.5zM1722 758h-94v-154h94v19h-73v47h61v20h-61v45h73v23zM1966 659v11v10v11v9q-4 11 -10 21q-4 6 -12 14q-2 4 -6.5 6t-8.5 9q-4 0 -9 2t-9 6q-6 0 -10.5 1
t-10.5 1t-11 -1t-9 -1q-12 -6 -21 -8q-4 -7 -7 -9t-7 -6l-7 -7l-7 -7q-2 -6 -4 -10t-2 -11q-5 -8 -5 -20q0 -8 2.5 -15.5t4.5 -15.5q6 -14 18 -26q4 -5 10 -9t15 -4q12 -6 30 -6h10.5h10.5q4 2 9 4t9 4q4 4 8.5 6.5t6.5 4.5q8 8 12 18q6 8 10 18zM2126 758h-23v-119
q0 2 -1 5t-3 3l-74 105l-1 1t-3 5h-5h-5h-16v-154h24v129v-4v-2v-2l2 -2l86 -119h19v154zM2251 623h-66v135h-22v-154h88v19zM2374 758h-19q-4 0 -8 -4q-8 -4 -8 -9l-35 -47l-2 -2h-2v-2v2l-2 2l-37 47q-2 5 -6 9t-10 4h-17l56 -76l2 -2q0 -2 2 -2v-2v-2q0 -2 2 -2v-2v-66
h22v66v2v4q2 0 2 4v2h2zM1188 864q-19 8 -38.5 19.5t-33.5 25.5h322q-17 -14 -35.5 -25.5t-38.5 -19.5q-21 -6 -43.5 -12t-44.5 -6q-25 0 -46.5 6t-41.5 12zM1141 936l315 317q29 -39 45.5 -79.5t16.5 -81.5q0 -23 -3.5 -44.5t-11.5 -41.5q-8 -19 -18 -36.5t-23 -33.5h-321z
M1094 928q-27 35 -45 73q-7 21 -11 43.5t-4 47.5q0 20 4 40.5t11 41.5q6 18 16 35.5t25 33.5h319zM1364 1315q20 -8 38.5 -20.5t33.5 -22.5h-324q37 28 76 43q39 18 88 18t88 -18zM78 350q-4 4 -5 8t-3 9q-2 6 -3 10t-1 10t4 16q2 5 3 10t5 7l3 9t7 7q0 2 5 5t7 5q6 5 9.5 6
t9.5 3q2 0 8 1t10 1q8 0 14.5 -1t14.5 -5q8 -2 13 -6.5t9 -8.5q-2 -2 -4 -2v-4h-2h-2h-4h-6q-4 2 -8 5t-8 3h-7.5h-9.5h-10h-8q-8 -4 -12.5 -7t-8.5 -5q-4 -6 -7 -10t-5 -8q-4 -7 -4 -13v-8q0 -8 2 -14t3 -9.5t1 -7.5q2 -2 5 -4t5 -6q4 -2 6 -5t7 -3q2 -2 6 -4t8 -2
q2 -2 6 -2h6h10.5t8.5 2q4 0 9 2t9 4v29h-12h-2l-2 2l-3 3l-3 3l-1 1t-1 3v1v3v0h38v-53l-5 -5t-5 -6q-6 -2 -12 -2q-6 -2 -14 -2h-15h-10h-8q-6 2 -9.5 4.5t-9.5 6.5q-2 0 -7 3t-5 7q-6 2 -7 6t-3 8zM240 438v-45h55v-14h-55v-47h67v-17h-84v140h84v-17h-67zM369 315v123
h-45v17h106v-17h-47v-123h-14zM532 438v-49h60v-12h-60v-62h-16v140h84v-17h-68zM641 455v-86q0 -4 2 -7.5t4 -5.5q2 -6 5 -9t5 -7q0 -2 3.5 -4t5.5 -4q6 -2 10 -2h8h7t5 2q6 2 9.5 4t7.5 4q0 4 3 7t5 9q4 4 4 13v86h14v-86q0 -7 -1 -11t-3 -10t-5 -10t-7 -8t-8 -7.5
t-8 -5.5q-13 -2 -23 -2q-12 0 -25 2q-2 2 -7 5.5t-9 7.5q-6 6 -10 18q-2 6 -4 10t-2 11v86h14zM784 455v-123h62v-17h-78v140h16zM877 455v-123h65v-17h-80v140h15zM1069 315l-61 140h8q4 0 8 -2q2 -2 3 -2t3 -5l43 -104v-4q2 -2 2 -6v6l1 2l1 2q6 14 12.5 26.5t12.5 24.5
q4 17 10 29l12 24q0 5 2 5t2 2q2 2 3.5 2h5.5h8q-8 -17 -15.5 -34.5t-17.5 -33.5q-6 -20 -13 -36.5t-16 -35.5h-14zM1171 438v-45h58v-14h-58v-47h68v-17h-84v140h84v-17h-68zM1341 381q-2 -2 -10 -4l47 -62h-10q-2 0 -5 1l-3 1q-2 2 -4 3.5t-4 5.5l-39 51h-25v-62h-14v140
h51h5t7 -2q9 -2 15 -9q2 -4 4 -7t4 -7q2 -2 2 -7v-5v-9t-2 -6q0 -4 -2 -8t-4 -6l-4 -4t-9 -4zM1325 389q4 0 6 4q2 0 4 1t4 1l3 6t4 5q0 2 1 4t1 8l-1 2t-1 6q-3 2 -4 3t-3 5q-2 0 -4 1t-4 3h-6h-37v-49h37zM1452 336q2 2 4 8q2 2 3 6t1 6q0 6 -2 11q-2 0 -3 3t-3 5t-8 4
q-4 0 -6 1l-6 3q-5 0 -9 2t-4 4q-10 0 -14 6q-4 0 -5 4t-3 7v14v9t2 7q0 6 8 10q4 5 6 6t8 3q4 0 6.5 1t8.5 1q2 0 5 -1t5 -1t4 -1l6 -3q2 0 4 -2.5t2 -4.5q4 -2 5 -4t3 -2l-4 -2q-2 -2 -8 -2h-6q-4 2 -4 4h-2h-2h-2h-3h-1h-2h-9q-8 0 -8 -2q-6 -6 -6 -8q-4 0 -4 -8
q0 -6 4 -6q0 -4 2 -6t5 -3.5l3 -1.5q4 -4 6.5 -4t8.5 -4h3t3 -2h4t4 -4h2h1h1q2 0 4 -1l2 -1q4 -4 6 -7t7 -5q2 -10 2 -19v-10t-7 -8q0 -6 -8 -12q-2 -2 -6 -4.5t-8 -4.5t-8 -2h-10q-11 0 -18 2t-13 9q-2 0 -4 2l-4 4q0 2 -1 4l-1 2l2 2l1 1t5 1h2q2 0 4 -1t4 -3q4 -2 6 -4
t6 -2q0 -2 4 -2h7q8 0 10 2q8 0 12 4zM1524 455v-140h-17v140h17zM1579 336q-12 8 -18 20q-5 15 -5 31v7v9q7 11 9 17q6 8 14 16q6 6 12 10q4 5 9.5 6t9.5 3q4 0 8 1t10 1q4 0 9 -1t12 -1q4 -2 8 -3t8 -6l5 -5t7 -5q4 -4 6.5 -7t6.5 -9q2 -6 6 -17q2 -4 3 -9t1 -7
q0 -8 -2 -15t-6 -16q-2 -6 -5.5 -11t-9.5 -9q-6 -6 -11 -9t-11 -8q-10 -4 -27 -4q-8 0 -15 1t-11 3q-17 5 -23 17zM1579 408q-4 -7 -6 -13t-2 -8q0 -4 1 -8t1 -6q2 -8 8 -17q0 -2 2 -4t4 -6l5 -5t10 -3q2 -2 5 -4t5 -2q4 -2 8 -2h8h7t7 2q3 0 7 2l8 4q2 0 5 3l5 5q2 4 4 6
l4 4q2 4 3 7.5t3 9.5q0 2 1 6t1 8q0 2 -1 8t-5 13q0 4 -4 8t-6 10q-4 2 -8 5t-10 7h-9.5h-11.5h-12h-10q-4 -4 -9.5 -7t-9.5 -5q-2 -6 -5 -10t-3 -8zM1741 315h-17v140h13h5t5 -4l72 -103q2 0 2 -4l2 -2v-2v115h16v-140h-14l-82 115v4h-2v4v-123zM1956 438v-49h57v-12h-57
v-62h-14v140h83v-17h-69zM2114 381q-9 -2 -13 -4l45 -62h-12q-4 0 -8 2q0 2 -1 3.5t-3 5.5l-39 51h-25v-62h-16v140h51h6t8 -2t7.5 -4.5t5.5 -4.5q2 -4 4 -7t6 -7q0 -2 1 -7l1 -5q0 -6 -1 -9t-1 -6l-4 -8t-2 -6zM2101 393q2 0 3 1t3 1q7 8 7 11q2 4 2 12q0 2 -2 8q0 2 -7 8
q-2 0 -3 1l-3 3h-8h-35v-49h35q4 0 8 4zM2281 336q-4 -6 -10 -9t-12 -8q-6 -2 -12 -3t-15 -1q-8 0 -15 1t-13 3q-13 5 -23 17q-4 4 -8 9t-6 11q-2 9 -5 16t-3 15q0 2 1 7t3 9q2 5 3 10t3 7q4 6 7 9t5 7q4 2 8 5t9 5q4 5 8 6t8 3q6 0 9 1t9 1q4 0 9.5 -1t9.5 -1l9 -3t7 -6
q4 -2 8 -5t6 -5q3 -4 6 -7t5 -9q6 -6 8 -17q2 -4 3 -9t1 -7q0 -8 -1 -15t-5 -16q-2 -6 -6 -11t-11 -9zM2232 330h7.5t9.5 2q2 0 5 2t5 4q2 0 6 3t8 5l3 6t3 4q2 4 3.5 7.5t1.5 9.5q2 2 2 6v8q0 2 -1 8t-1 13l-6 8t-5 10q-6 2 -11 5t-9 7h-10.5h-10.5h-11h-11q-6 -4 -9 -7
t-8 -5q-6 -6 -8 -10l-4 -8q-2 -7 -2 -13v-8v-14q0 -6 1 -9.5t5 -7.5q0 -2 3 -4t5 -6q2 -2 5.5 -5t5.5 -3q2 -2 5 -4t9 -2q2 -2 6 -2h8zM2460 453q2 2 3 2h3h12v-140h-14v115l-2 -2v0v-2q-4 -8 -6 -17.5t-7 -15.5q-4 -6 -7 -12l-7 -14q-2 -9 -4 -15l-4 -12q-4 -6 -7 -11
t-5 -14h-15q-10 13 -15 27t-11 27q-4 14 -11.5 28.5t-11.5 28.5v2l-4 2v-115h-16v140h14q6 0 8 -2l2 -2v-5l49 -108q0 -2 2 -2v-4q0 2 1 4t1 4q0 4 5 8l43 98q0 5 1 5t3 2zM74 262h157v-20v-4v-5q0 -4 -2 -6l-4 -4l-106 -145h2v2h4h2h104v-37h-165v12q0 11 2 13q0 2 4 8
q2 2 2 4t2 4t3 4l3 6l94 129h-102v39zM260 262h139v-39h-100v-49h80v-41h-80v-53h100v-37h-139v219zM571 223h-59v-180h-43v180h-63v39h165v-39zM672 262l94 -219h-25q-8 0 -16 4q-4 2 -5 6t-5 8l-13 29h-100l-10 -29q-2 -4 -3 -5t-3 -1q0 -4 -1 -5t-5 -3q-2 0 -4.5 -1
t-4.5 -1q0 -2 -2 -2h-4h-24l94 219h37zM684 129l-27 68q0 2 -1 3t-1 3q0 4 -2 6v-6q0 -2 -2 -3t-2 -3l-26 -68h61zM774 262h139v-39h-100v-55h82v-39h-82v-86h-39v219zM1133 207q4 -6 6 -12.5t6 -12.5q2 -8 2 -15v-13v-17t-2 -14q-4 -6 -6 -13.5t-6 -13.5q-5 -4 -9 -10
l-8 -12q-8 -4 -12 -9.5t-10 -7.5q-7 -6 -14 -8t-13 -4q-8 -2 -15.5 -3t-15.5 -1q-10 0 -21 3t-22 5q-12 6 -19 12.5t-18 12.5q-14 16 -20 35q-6 12 -8 22t-2 23q0 6 1 13t3 15q4 17 12 25q4 8 7 13t7 11q9 5 14 9t11 8t12 6t15 6q6 0 13 1t15 1t15.5 -1t15.5 -1q6 -4 13 -6
t14 -6q6 -4 10 -8t12 -9q4 -6 8 -11t9 -13zM1104 127q2 6 3 12t1 15q0 12 -4 24q-4 10 -8 15.5t-11 9.5q-4 4 -9 8t-11 6q-12 6 -29 6q-16 0 -28 -6q-4 -2 -9.5 -6t-11.5 -8t-9 -9.5t-7 -15.5q-4 -4 -4 -11v-13v-15t4 -12q4 -8 7 -14.5t9 -10.5t11.5 -8t9.5 -8q8 -2 14 -4
t14 -2t14.5 2t14.5 4q6 4 11 8t9 8q7 4 11 10.5t8 14.5zM1329 262h39v-219h-37l-102 147q-2 0 -2 1.5t-2 3.5q-2 4 -2 6q-4 0 -4 4l-1 1t-4 3v-166h-38v219h34q4 0 8.5 -1t4.5 -3l6 -3t4 -3q10 -16 21.5 -31.5t21.5 -34.5q12 -14 23.5 -29.5t25.5 -29.5q0 -4 1 -6t1 -6
q0 -2 1 -4t1 -5v156zM1389 262h165v-39h-65v-180h-39v180h-61v39zM1690 150q2 -5 5 -9t5 -8q0 -4 2 -9t2 -13q0 -13 -6 -27l-8 -12t-9 -11q-8 -4 -12 -8t-12 -6t-15.5 -4t-13.5 -2q-8 0 -15 2t-18 4q-6 2 -11 6t-13 13q-4 2 -6 5t-4 7q-5 2 -5 12l1.5 1t3.5 3q2 0 2 1t2 1
t4 1l2 1h10h3t3 -2q6 0 10 -2q5 -4 9 -6t6 -4q2 0 6 -2t10 -2q2 0 5 1t7 3q7 2 13 6l8 8q2 4 4 6t2 7q0 8 -6 12q-4 6 -8 6q-4 4 -7.5 5t-5.5 1q-6 2 -16 8q-4 0 -9 1t-9 6q-9 2 -13 5t-8 7q-6 4 -9 8t-5 8q-6 12 -6 25q0 18 6 26q2 7 6 11t10 8q4 4 9.5 6t13.5 6q4 0 10 1
t14 1q4 0 8.5 -1t10.5 -1q4 -2 7 -4t9 -4q2 -2 6 -5t8 -7q3 -2 6 -5.5t5 -7.5l-8 -4l-6 -4t-3 -4h-8h-4h-4h-2q-6 0 -6 2l-8 4q-3 0 -4 1l-1 1h-6h-12q-4 0 -5 -1t-5 -3q-2 -2 -4 -8q-2 -2 -2 -8t2 -6q2 -2 3 -4.5t1 -6.5q4 0 7 -1t5 -1q6 -2 11 -4t7 -4l11 -2q4 -4 9 -5
t11 -7q10 -2 17 -12zM1755 80q6 0 6 -6q2 0 2 -3v-5q0 -7 -2 -11q0 -4 -6 -8q-4 0 -6 -4q-2 0 -4 -1t-6 -1q-2 0 -4 1t-4 1q-2 2 -4.5 3t-4.5 1q-2 2 -3 4t-3 4q-2 4 -2 11v5t2 3q2 4 3 5t3 1q7 6 9 6q2 2 4 3t4 1q4 0 6 -1t4 -3q2 0 6 -6zM1839 203q-8 -8 -16 -25
q-2 -4 -4 -11t-2 -13q0 -9 2 -15l4 -12q4 -8 7 -14.5t9 -10.5q4 -4 9 -8t14 -8q8 -2 14 -4t14 -2q6 0 10.5 2t10.5 2q4 2 9 5t9 7q4 0 8 2h7h6t6 -2q6 -2 10 -6l6 -10q-6 -8 -16 -14q-6 -5 -10 -8t-11 -5q-6 -4 -11 -5t-11 -3t-11.5 -3t-11.5 -1q-14 0 -24.5 3t-20.5 5
q-20 10 -35 25q-16 16 -24 35q-2 12 -5 22t-3 23q0 6 1 13t3 15q2 6 4 12.5t6 12.5q6 8 9 13t9 11q7 5 12 9t13 8q4 4 10 6t17 6q4 0 12 1t16 1h11.5t11.5 -2t11 -4t11 -4q7 -2 11 -5t10 -7q10 -9 16 -17l-6 -8l-5 -5t-5 -3h-7h-5h-8t-7 2q-4 4 -9 7t-9 5q-6 2 -10.5 2
h-10.5q-16 0 -28 -6q-9 -2 -14 -6t-9 -8zM2195 207q3 -6 6 -12.5t5 -12.5q2 -8 2 -15v-13v-17t-2 -14t-5 -13.5t-6 -13.5q-8 -10 -16 -22q-8 -4 -14 -9.5t-11 -7.5q-6 -6 -13 -8t-15 -4q-6 -2 -13.5 -3t-15.5 -1q-20 0 -43 8q-8 6 -17 12.5t-16 12.5q-8 8 -14 16t-10 19
q-4 12 -6 22t-2 23q0 6 1 13t1 15q2 6 6 12.5t6 12.5q4 8 8 13t10 11q4 5 10.5 9t12.5 8q4 4 11 6t13 6q9 0 16 1t13 1q8 0 15.5 -1t13.5 -1q8 -4 15 -6t13 -6q5 -4 11 -8t14 -9q2 -6 8 -11t8 -13zM2165 127q4 10 4 27q0 6 -1 13t-3 11q-4 10 -7.5 15.5t-7.5 9.5
q-10 10 -24 14q-6 4 -13.5 5t-15.5 1q-14 0 -26 -6q-7 -2 -12 -6t-11 -8q-4 -4 -8 -9.5t-8 -15.5q-2 -4 -3 -11t-1 -13q0 -9 1 -15t3 -12q8 -16 16 -25q6 -4 11 -8t12 -8q6 -2 14 -4t12 -2q8 0 15.5 2t13.5 4q6 4 13 8t11 8q9 9 15 25zM2433 260l1 1t5 1h39v-219h-39v160
q0 -2 -1 -4l-3 -6v-7t-2 -4q-6 -18 -14.5 -35.5t-14.5 -33.5q-6 -17 -13 -34.5t-13 -35.5h-39l-55 139q-3 2 -3 11q-2 4 -3 5t-1 3v-158h-41v219h39q4 0 6.5 -1l2.5 -1q4 -2 5 -2t3 -2l6 -4l4 -4t2 -4q4 -17 11 -32t14 -34q6 -16 13 -32.5t13 -32.5v-2v-5v-4q4 0 4 -4v4v4
q0 3 1 5l1 2l9 16l45 115q0 2 1 4t1 4q2 2 5 3l3 1q2 2 4 2t4 2z" />
    <glyph glyph-name="two" unicode="2" horiz-adv-x="2531" 
d="M1929 721q4 -4 8.5 -9t6.5 -10q0 -6 1 -11t1 -11q0 -12 -2 -23q-2 -6 -6.5 -10t-8.5 -6q-4 -4 -8 -7t-8 -7q-12 -4 -23 -4q-6 0 -12 1t-10 3l-10.5 7t-8.5 7q-4 2 -7 6t-3 10q-4 7 -5 12t-1 11q0 10 6 22q0 5 3 10t7 9t8.5 7t10.5 5q8 4 22 4q6 0 10.5 -1t12.5 -3
q4 -2 8 -5t8 -7zM518 702q0 -2 -4 -8q-2 0 -3 -2t-5 -2q-2 -2 -8 -2h-33v47h33q4 0 8 -2q4 0 5 -1l3 -3l4 -8q2 -2 2 -10q0 -6 -2 -9zM801 721q4 -4 8 -9t6 -10q2 -6 3 -11t1 -11t-1 -11t-3 -12q-2 -6 -6 -10t-8 -6q-2 -4 -6 -7t-11 -7q-4 -2 -10 -3t-12 -1q-12 0 -23 4
q-4 4 -9 7t-9 7l-6 6t-6 10q-2 7 -4.5 12t-2.5 11q0 10 7 22q2 5 6 10t6 9q4 4 9 7t9 5q6 2 12.5 3t10.5 1q12 0 22 -4q7 -2 11 -5t6 -7zM1090 733q0 -4 1 -6t1 -4l28 -64h-59l29 64v4v6zM270 729q2 -2 3 -5t3 -5q3 -4 3 -10v-5.5t-3 -5.5q-2 -2 -3 -5t-3 -3l-8 -8h-10h-37
v53h37q6 0 10 -2q2 0 5 -2zM2478 1092v-586h-2404v586h911q0 30 5 58t18 54q12 27 27.5 51.5t37.5 42.5q37 39 90 62q29 12 56.5 17t56.5 5q33 0 61.5 -6t53.5 -18q28 -12 51.5 -28.5t42.5 -35.5q37 -37 61 -94q21 -53 21 -108h911zM1030 1192q-22 -47 -22 -100
q0 -58 22 -105q10 -22 24.5 -44.5t30.5 -41.5q19 -18 40.5 -32.5t45.5 -24.5q48 -23 105 -23q29 0 54.5 4t49.5 15q25 12 45.5 25.5t38.5 33.5q19 19 33 40.5t27 43.5q22 51 22 109q0 22 -4 45.5t-14 44.5q-12 41 -41 75q-14 17 -30.5 31.5t-33.5 24.5q-18 10 -37.5 19
t-39.5 18q-15 4 -32.5 6t-37.5 2q-29 0 -55.5 -5t-51.5 -18q-49 -18 -86 -57q-16 -18 -29.5 -41t-23.5 -45zM295 690q6 10 6 19q0 4 -1 9t-5 11q0 2 -4 6l-6 6q-2 4 -5.5 7.5t-9.5 3.5q-4 2 -9 4t-9 2h-53v-154h16v58h37q4 0 9 1t9 3q11 4 15 8q2 4 6 8t4 8zM410 758h-95
v-154h95v19h-72v47h59v20h-59v45h72v23zM559 604l-47 66q2 2 5 2t5 4q8 4 10 10q3 2 5 5t4 7v13v10t-2 8q-4 8 -11 14q-4 9 -14 9q-2 2 -7 4t-9 2h-56v-154h23v64h22l41 -56q2 -4 7 -6q2 -2 4 -2h6h14zM664 631q0 4 1 8t1 8q0 12 -4.5 20.5t-12.5 14.5q-2 0 -3 2t-5 4h-1
t-5 2h-2t-2 4q-6 0 -8 2q-7 0 -9 1l-6 3q-8 2 -8 5q-6 4 -6 6v8v8q2 0 4 2t2 4l3 1t5 1q4 2 6 2h4l2.5 -1t4.5 -1q8 0 8 -4q2 -2 4 -2h4q8 0 14 4l4 2q0 2 -2 4l-4 4q-4 2 -6 4.5t-6 4.5q-2 0 -4 1t-6 5q-6 0 -7 1t-6 1q-4 0 -9 -1t-9 -1q-4 -4 -7 -6t-7 -2q-2 -5 -5 -8
t-6 -7q-2 -4 -3 -7t-1 -9v-9t4 -8q3 -4 6 -7t3 -5q4 -2 8 -5t8 -3q4 -2 7 -4t7 -4q2 -2 5.5 -2h5.5q6 -2 7 -2t3 -2q4 -2 4 -3t2 -6q2 -2 2 -5v-7v-3t-2 -5q-2 -4 -2 -5t-4 -3q-2 -4 -5 -5t-5 -3h-5.5h-5.5h-7h-5q-2 2 -5 3t-3 5l-2 2q-6 4 -12 4h-4.5t-4.5 -2l-6 -2
q0 -4 2 -4q0 -4 4 -6q0 -2 2 -5l2 -2h3q8 -8 17 -10t19 -2h9.5t9.5 2t9 4t7 6q6 2 9.5 5.5t5.5 9.5zM838 659q2 7 2 11v10q0 12 -2 20q0 7 -3.5 11t-5.5 10q-4 6 -12 14q-4 4 -8 6t-10 9q-2 0 -6.5 2t-10.5 6q-6 0 -10 1t-10 1q-4 0 -10.5 -1t-10.5 -1q-6 -4 -10 -6t-8 -2
q-4 -7 -8 -9t-8 -6q-5 -4 -8 -7t-5 -7q-4 -6 -5 -10t-3 -11q-2 -8 -2 -20q0 -8 2 -15.5t4 -15.5q2 -6 6 -12t11 -14q6 -5 12 -9t14 -4q12 -6 29 -6h10h10q11 4 17 8q14 6 18 11q6 8 12 18q2 4 5.5 9t3.5 9zM997 758h-20v-119q0 2 -1 5l-1 3l-74 105q-4 0 -8 6h-4h-4h-15
v-154h21v129v-4l2 -2v0v-4l88 -119h16v154zM1169 604l-67 154h-23l-65 -154h12q6 0 8 2l3 3t5 3l9 27h79l11 -27q2 -4 6 -6q0 -2 8 -2h14zM1270 623h-66v135h-22v-154h88v19zM1479 758h-21v-92v-11t-2 -8q-2 -8 -10 -12q-2 -2 -5 -4t-5 -6q-6 -2 -9.5 -2h-7.5q-10 0 -14 2
q-6 4 -10 6t-4 4q-2 2 -4.5 5t-6.5 7q0 4 -1 8t-1 11v92h-20v-92v-12t2 -7q0 -8 4 -14q4 -10 12 -15q2 -2 5 -4t8 -4q2 -2 6 -3t6 -3q6 0 9 -2t9 -2q4 0 7.5 2t9.5 2q4 2 7 3t7 3l12 8q4 5 5 8t3 7q3 2 6 6t3 8v19v92zM1597 631q7 8 7 16q0 12 -4.5 20.5t-12.5 14.5
q-6 4 -6 6h-5t-5 2h-3t-5 4h-2t-5 2q-2 0 -4 1l-6 3q-8 2 -8 5q-4 2 -5 4t-3 2q0 2 -1 3t-1 5t4 8l6 6q2 0 3 1t5 1q0 2 10 2l2.5 -1t4.5 -1q2 -2 8 -4q8 -2 10 -2q6 0 8 4l6 2l-4 4l-4 4q0 2 -3 4.5t-5 4.5q-4 0 -6 1t-6 5q-4 0 -7.5 1l-3.5 1q-6 0 -10 -1t-8 -1
q-4 -4 -8 -6t-6 -2q-4 -5 -6 -8t-7 -7q0 -4 -2 -7t-2 -9t2 -9t2 -8q5 -8 11 -12q4 -2 7 -5t5 -3q6 -2 9 -4t7 -4t6.5 -2h4.5q2 -2 5 -2t5 -2t5 -3t3 -6q2 -2 2 -5v-7v-3t-2 -5q-2 -6 -8 -8q-4 -4 -6 -5t-4 -3h-6h-5h-7h-5q-4 2 -10 8v2q-6 4 -12 4h-3.5t-5.5 -2l-6 -2
q2 -2 2 -3t2 -1q0 -2 1 -3t1 -3l1 -1t1 -4q4 -2 7 -2q6 -8 15 -10t19 -2h10.5t10.5 2l8 4t8 6q2 2 5 5.5t5 9.5zM1722 758h-94v-154h94v19h-73v47h61v20h-61v45h73v23zM1966 659v11v10v11v9q-4 11 -10 21q-4 6 -12 14q-2 4 -6.5 6t-8.5 9q-4 0 -9 2t-9 6q-6 0 -10.5 1
t-10.5 1t-11 -1t-9 -1q-12 -6 -21 -8q-4 -7 -7 -9t-7 -6l-7 -7l-7 -7q-2 -6 -4 -10t-2 -11q-5 -8 -5 -20q0 -8 2.5 -15.5t4.5 -15.5q6 -14 18 -26q4 -5 10 -9t15 -4q12 -6 30 -6h10.5h10.5q4 2 9 4t9 4q4 4 8.5 6.5t6.5 4.5q8 8 12 18q6 8 10 18zM2126 758h-23v-119
q0 2 -1 5t-3 3l-74 105l-1 1t-3 5h-5h-5h-16v-154h24v129v-4v-2v-2l2 -2l86 -119h19v154zM2251 623h-66v135h-22v-154h88v19zM2374 758h-19q-4 0 -8 -4q-8 -4 -8 -9l-35 -47l-2 -2h-2v-2v2l-2 2l-37 47q-2 5 -6 9t-10 4h-17l56 -76l2 -2q0 -2 2 -2v-2v-2q0 -2 2 -2v-2v-66
h22v66v2v4q2 0 2 4v2h2zM1188 864q-19 8 -38.5 19.5t-33.5 25.5h322q-17 -14 -35.5 -25.5t-38.5 -19.5q-21 -6 -43.5 -12t-44.5 -6q-25 0 -46.5 6t-41.5 12zM1141 936l315 317q29 -39 45.5 -79.5t16.5 -81.5q0 -23 -3.5 -44.5t-11.5 -41.5q-8 -19 -18 -36.5t-23 -33.5h-321z
M1094 928q-27 35 -45 73q-7 21 -11 43.5t-4 47.5q0 20 4 40.5t11 41.5q6 18 16 35.5t25 33.5h319zM1364 1315q20 -8 38.5 -20.5t33.5 -22.5h-324q37 28 76 43q39 18 88 18t88 -18zM78 350q-4 4 -5 8t-3 9q-2 6 -3 10t-1 10t4 16q2 5 3 10t5 7l3 9t7 7q0 2 5 5t7 5q6 5 9.5 6
t9.5 3q2 0 8 1t10 1q8 0 14.5 -1t14.5 -5q8 -2 13 -6.5t9 -8.5q-2 -2 -4 -2v-4h-2h-2h-4h-6q-4 2 -8 5t-8 3h-7.5h-9.5h-10h-8q-8 -4 -12.5 -7t-8.5 -5q-4 -6 -7 -10t-5 -8q-4 -7 -4 -13v-8q0 -8 2 -14t3 -9.5t1 -7.5q2 -2 5 -4t5 -6q4 -2 6 -5t7 -3q2 -2 6 -4t8 -2
q2 -2 6 -2h6h10.5t8.5 2q4 0 9 2t9 4v29h-12h-2l-2 2l-3 3l-3 3l-1 1t-1 3v1v3v0h38v-53l-5 -5t-5 -6q-6 -2 -12 -2q-6 -2 -14 -2h-15h-10h-8q-6 2 -9.5 4.5t-9.5 6.5q-2 0 -7 3t-5 7q-6 2 -7 6t-3 8zM240 438v-45h55v-14h-55v-47h67v-17h-84v140h84v-17h-67zM369 315v123
h-45v17h106v-17h-47v-123h-14zM532 438v-49h60v-12h-60v-62h-16v140h84v-17h-68zM641 455v-86q0 -4 2 -7.5t4 -5.5q2 -6 5 -9t5 -7q0 -2 3.5 -4t5.5 -4q6 -2 10 -2h8h7t5 2q6 2 9.5 4t7.5 4q0 4 3 7t5 9q4 4 4 13v86h14v-86q0 -7 -1 -11t-3 -10t-5 -10t-7 -8t-8 -7.5
t-8 -5.5q-13 -2 -23 -2q-12 0 -25 2q-2 2 -7 5.5t-9 7.5q-6 6 -10 18q-2 6 -4 10t-2 11v86h14zM784 455v-123h62v-17h-78v140h16zM877 455v-123h65v-17h-80v140h15zM1069 315l-61 140h8q4 0 8 -2q2 -2 3 -2t3 -5l43 -104v-4q2 -2 2 -6v6l1 2l1 2q6 14 12.5 26.5t12.5 24.5
q4 17 10 29l12 24q0 5 2 5t2 2q2 2 3.5 2h5.5h8q-8 -17 -15.5 -34.5t-17.5 -33.5q-6 -20 -13 -36.5t-16 -35.5h-14zM1171 438v-45h58v-14h-58v-47h68v-17h-84v140h84v-17h-68zM1341 381q-2 -2 -10 -4l47 -62h-10q-2 0 -5 1l-3 1q-2 2 -4 3.5t-4 5.5l-39 51h-25v-62h-14v140
h51h5t7 -2q9 -2 15 -9q2 -4 4 -7t4 -7q2 -2 2 -7v-5v-9t-2 -6q0 -4 -2 -8t-4 -6l-4 -4t-9 -4zM1325 389q4 0 6 4q2 0 4 1t4 1l3 6t4 5q0 2 1 4t1 8l-1 2t-1 6q-3 2 -4 3t-3 5q-2 0 -4 1t-4 3h-6h-37v-49h37zM1452 336q2 2 4 8q2 2 3 6t1 6q0 6 -2 11q-2 0 -3 3t-3 5t-8 4
q-4 0 -6 1l-6 3q-5 0 -9 2t-4 4q-10 0 -14 6q-4 0 -5 4t-3 7v14v9t2 7q0 6 8 10q4 5 6 6t8 3q4 0 6.5 1t8.5 1q2 0 5 -1t5 -1t4 -1l6 -3q2 0 4 -2.5t2 -4.5q4 -2 5 -4t3 -2l-4 -2q-2 -2 -8 -2h-6q-4 2 -4 4h-2h-2h-2h-3h-1h-2h-9q-8 0 -8 -2q-6 -6 -6 -8q-4 0 -4 -8
q0 -6 4 -6q0 -4 2 -6t5 -3.5l3 -1.5q4 -4 6.5 -4t8.5 -4h3t3 -2h4t4 -4h2h1h1q2 0 4 -1l2 -1q4 -4 6 -7t7 -5q2 -10 2 -19v-10t-7 -8q0 -6 -8 -12q-2 -2 -6 -4.5t-8 -4.5t-8 -2h-10q-11 0 -18 2t-13 9q-2 0 -4 2l-4 4q0 2 -1 4l-1 2l2 2l1 1t5 1h2q2 0 4 -1t4 -3q4 -2 6 -4
t6 -2q0 -2 4 -2h7q8 0 10 2q8 0 12 4zM1524 455v-140h-17v140h17zM1579 336q-12 8 -18 20q-5 15 -5 31v7v9q7 11 9 17q6 8 14 16q6 6 12 10q4 5 9.5 6t9.5 3q4 0 8 1t10 1q4 0 9 -1t12 -1q4 -2 8 -3t8 -6l5 -5t7 -5q4 -4 6.5 -7t6.5 -9q2 -6 6 -17q2 -4 3 -9t1 -7
q0 -8 -2 -15t-6 -16q-2 -6 -5.5 -11t-9.5 -9q-6 -6 -11 -9t-11 -8q-10 -4 -27 -4q-8 0 -15 1t-11 3q-17 5 -23 17zM1579 408q-4 -7 -6 -13t-2 -8q0 -4 1 -8t1 -6q2 -8 8 -17q0 -2 2 -4t4 -6l5 -5t10 -3q2 -2 5 -4t5 -2q4 -2 8 -2h8h7t7 2q3 0 7 2l8 4q2 0 5 3l5 5q2 4 4 6
l4 4q2 4 3 7.5t3 9.5q0 2 1 6t1 8q0 2 -1 8t-5 13q0 4 -4 8t-6 10q-4 2 -8 5t-10 7h-9.5h-11.5h-12h-10q-4 -4 -9.5 -7t-9.5 -5q-2 -6 -5 -10t-3 -8zM1741 315h-17v140h13h5t5 -4l72 -103q2 0 2 -4l2 -2v-2v115h16v-140h-14l-82 115v4h-2v4v-123zM1956 438v-49h57v-12h-57
v-62h-14v140h83v-17h-69zM2114 381q-9 -2 -13 -4l45 -62h-12q-4 0 -8 2q0 2 -1 3.5t-3 5.5l-39 51h-25v-62h-16v140h51h6t8 -2t7.5 -4.5t5.5 -4.5q2 -4 4 -7t6 -7q0 -2 1 -7l1 -5q0 -6 -1 -9t-1 -6l-4 -8t-2 -6zM2101 393q2 0 3 1t3 1q7 8 7 11q2 4 2 12q0 2 -2 8q0 2 -7 8
q-2 0 -3 1l-3 3h-8h-35v-49h35q4 0 8 4zM2281 336q-4 -6 -10 -9t-12 -8q-6 -2 -12 -3t-15 -1q-8 0 -15 1t-13 3q-13 5 -23 17q-4 4 -8 9t-6 11q-2 9 -5 16t-3 15q0 2 1 7t3 9q2 5 3 10t3 7q4 6 7 9t5 7q4 2 8 5t9 5q4 5 8 6t8 3q6 0 9 1t9 1q4 0 9.5 -1t9.5 -1l9 -3t7 -6
q4 -2 8 -5t6 -5q3 -4 6 -7t5 -9q6 -6 8 -17q2 -4 3 -9t1 -7q0 -8 -1 -15t-5 -16q-2 -6 -6 -11t-11 -9zM2232 330h7.5t9.5 2q2 0 5 2t5 4q2 0 6 3t8 5l3 6t3 4q2 4 3.5 7.5t1.5 9.5q2 2 2 6v8q0 2 -1 8t-1 13l-6 8t-5 10q-6 2 -11 5t-9 7h-10.5h-10.5h-11h-11q-6 -4 -9 -7
t-8 -5q-6 -6 -8 -10l-4 -8q-2 -7 -2 -13v-8v-14q0 -6 1 -9.5t5 -7.5q0 -2 3 -4t5 -6q2 -2 5.5 -5t5.5 -3q2 -2 5 -4t9 -2q2 -2 6 -2h8zM2460 453q2 2 3 2h3h12v-140h-14v115l-2 -2v0v-2q-4 -8 -6 -17.5t-7 -15.5q-4 -6 -7 -12l-7 -14q-2 -9 -4 -15l-4 -12q-4 -6 -7 -11
t-5 -14h-15q-10 13 -15 27t-11 27q-4 14 -11.5 28.5t-11.5 28.5v2l-4 2v-115h-16v140h14q6 0 8 -2l2 -2v-5l49 -108q0 -2 2 -2v-4q0 2 1 4t1 4q0 4 5 8l43 98q0 5 1 5t3 2zM74 262h157v-20v-4v-5q0 -4 -2 -6l-4 -4l-106 -145h2v2h4h2h104v-37h-165v12q0 11 2 13q0 2 4 8
q2 2 2 4t2 4t3 4l3 6l94 129h-102v39zM260 262h139v-39h-100v-49h80v-41h-80v-53h100v-37h-139v219zM571 223h-59v-180h-43v180h-63v39h165v-39zM672 262l94 -219h-25q-8 0 -16 4q-4 2 -5 6t-5 8l-13 29h-100l-10 -29q-2 -4 -3 -5t-3 -1q0 -4 -1 -5t-5 -3q-2 0 -4.5 -1
t-4.5 -1q0 -2 -2 -2h-4h-24l94 219h37zM684 129l-27 68q0 2 -1 3t-1 3q0 4 -2 6v-6q0 -2 -2 -3t-2 -3l-26 -68h61zM774 262h139v-39h-100v-55h82v-39h-82v-86h-39v219zM1133 207q4 -6 6 -12.5t6 -12.5q2 -8 2 -15v-13v-17t-2 -14q-4 -6 -6 -13.5t-6 -13.5q-5 -4 -9 -10
l-8 -12q-8 -4 -12 -9.5t-10 -7.5q-7 -6 -14 -8t-13 -4q-8 -2 -15.5 -3t-15.5 -1q-10 0 -21 3t-22 5q-12 6 -19 12.5t-18 12.5q-14 16 -20 35q-6 12 -8 22t-2 23q0 6 1 13t3 15q4 17 12 25q4 8 7 13t7 11q9 5 14 9t11 8t12 6t15 6q6 0 13 1t15 1t15.5 -1t15.5 -1q6 -4 13 -6
t14 -6q6 -4 10 -8t12 -9q4 -6 8 -11t9 -13zM1104 127q2 6 3 12t1 15q0 12 -4 24q-4 10 -8 15.5t-11 9.5q-4 4 -9 8t-11 6q-12 6 -29 6q-16 0 -28 -6q-4 -2 -9.5 -6t-11.5 -8t-9 -9.5t-7 -15.5q-4 -4 -4 -11v-13v-15t4 -12q4 -8 7 -14.5t9 -10.5t11.5 -8t9.5 -8q8 -2 14 -4
t14 -2t14.5 2t14.5 4q6 4 11 8t9 8q7 4 11 10.5t8 14.5zM1329 262h39v-219h-37l-102 147q-2 0 -2 1.5t-2 3.5q-2 4 -2 6q-4 0 -4 4l-1 1t-4 3v-166h-38v219h34q4 0 8.5 -1t4.5 -3l6 -3t4 -3q10 -16 21.5 -31.5t21.5 -34.5q12 -14 23.5 -29.5t25.5 -29.5q0 -4 1 -6t1 -6
q0 -2 1 -4t1 -5v156zM1389 262h165v-39h-65v-180h-39v180h-61v39zM1690 150q2 -5 5 -9t5 -8q0 -4 2 -9t2 -13q0 -13 -6 -27l-8 -12t-9 -11q-8 -4 -12 -8t-12 -6t-15.5 -4t-13.5 -2q-8 0 -15 2t-18 4q-6 2 -11 6t-13 13q-4 2 -6 5t-4 7q-5 2 -5 12l1.5 1t3.5 3q2 0 2 1t2 1
t4 1l2 1h10h3t3 -2q6 0 10 -2q5 -4 9 -6t6 -4q2 0 6 -2t10 -2q2 0 5 1t7 3q7 2 13 6l8 8q2 4 4 6t2 7q0 8 -6 12q-4 6 -8 6q-4 4 -7.5 5t-5.5 1q-6 2 -16 8q-4 0 -9 1t-9 6q-9 2 -13 5t-8 7q-6 4 -9 8t-5 8q-6 12 -6 25q0 18 6 26q2 7 6 11t10 8q4 4 9.5 6t13.5 6q4 0 10 1
t14 1q4 0 8.5 -1t10.5 -1q4 -2 7 -4t9 -4q2 -2 6 -5t8 -7q3 -2 6 -5.5t5 -7.5l-8 -4l-6 -4t-3 -4h-8h-4h-4h-2q-6 0 -6 2l-8 4q-3 0 -4 1l-1 1h-6h-12q-4 0 -5 -1t-5 -3q-2 -2 -4 -8q-2 -2 -2 -8t2 -6q2 -2 3 -4.5t1 -6.5q4 0 7 -1t5 -1q6 -2 11 -4t7 -4l11 -2q4 -4 9 -5
t11 -7q10 -2 17 -12zM1755 80q6 0 6 -6q2 0 2 -3v-5q0 -7 -2 -11q0 -4 -6 -8q-4 0 -6 -4q-2 0 -4 -1t-6 -1q-2 0 -4 1t-4 1q-2 2 -4.5 3t-4.5 1q-2 2 -3 4t-3 4q-2 4 -2 11v5t2 3q2 4 3 5t3 1q7 6 9 6q2 2 4 3t4 1q4 0 6 -1t4 -3q2 0 6 -6zM1839 203q-8 -8 -16 -25
q-2 -4 -4 -11t-2 -13q0 -9 2 -15l4 -12q4 -8 7 -14.5t9 -10.5q4 -4 9 -8t14 -8q8 -2 14 -4t14 -2q6 0 10.5 2t10.5 2q4 2 9 5t9 7q4 0 8 2h7h6t6 -2q6 -2 10 -6l6 -10q-6 -8 -16 -14q-6 -5 -10 -8t-11 -5q-6 -4 -11 -5t-11 -3t-11.5 -3t-11.5 -1q-14 0 -24.5 3t-20.5 5
q-20 10 -35 25q-16 16 -24 35q-2 12 -5 22t-3 23q0 6 1 13t3 15q2 6 4 12.5t6 12.5q6 8 9 13t9 11q7 5 12 9t13 8q4 4 10 6t17 6q4 0 12 1t16 1h11.5t11.5 -2t11 -4t11 -4q7 -2 11 -5t10 -7q10 -9 16 -17l-6 -8l-5 -5t-5 -3h-7h-5h-8t-7 2q-4 4 -9 7t-9 5q-6 2 -10.5 2
h-10.5q-16 0 -28 -6q-9 -2 -14 -6t-9 -8zM2195 207q3 -6 6 -12.5t5 -12.5q2 -8 2 -15v-13v-17t-2 -14t-5 -13.5t-6 -13.5q-8 -10 -16 -22q-8 -4 -14 -9.5t-11 -7.5q-6 -6 -13 -8t-15 -4q-6 -2 -13.5 -3t-15.5 -1q-20 0 -43 8q-8 6 -17 12.5t-16 12.5q-8 8 -14 16t-10 19
q-4 12 -6 22t-2 23q0 6 1 13t1 15q2 6 6 12.5t6 12.5q4 8 8 13t10 11q4 5 10.5 9t12.5 8q4 4 11 6t13 6q9 0 16 1t13 1q8 0 15.5 -1t13.5 -1q8 -4 15 -6t13 -6q5 -4 11 -8t14 -9q2 -6 8 -11t8 -13zM2165 127q4 10 4 27q0 6 -1 13t-3 11q-4 10 -7.5 15.5t-7.5 9.5
q-10 10 -24 14q-6 4 -13.5 5t-15.5 1q-14 0 -26 -6q-7 -2 -12 -6t-11 -8q-4 -4 -8 -9.5t-8 -15.5q-2 -4 -3 -11t-1 -13q0 -9 1 -15t3 -12q8 -16 16 -25q6 -4 11 -8t12 -8q6 -2 14 -4t12 -2q8 0 15.5 2t13.5 4q6 4 13 8t11 8q9 9 15 25zM2433 260l1 1t5 1h39v-219h-39v160
q0 -2 -1 -4l-3 -6v-7t-2 -4q-6 -18 -14.5 -35.5t-14.5 -33.5q-6 -17 -13 -34.5t-13 -35.5h-39l-55 139q-3 2 -3 11q-2 4 -3 5t-1 3v-158h-41v219h39q4 0 6.5 -1l2.5 -1q4 -2 5 -2t3 -2l6 -4l4 -4t2 -4q4 -17 11 -32t14 -34q6 -16 13 -32.5t13 -32.5v-2v-5v-4q4 0 4 -4v4v4
q0 3 1 5l1 2l9 16l45 115q0 2 1 4t1 4q2 2 5 3l3 1q2 2 4 2t4 2z" />
    <glyph glyph-name="three" unicode="3" horiz-adv-x="2531" 
d="M1929 721q4 -4 8.5 -9t6.5 -10q0 -6 1 -11t1 -11q0 -12 -2 -23q-2 -6 -6.5 -10t-8.5 -6q-4 -4 -8 -7t-8 -7q-12 -4 -23 -4q-6 0 -12 1t-10 3l-10.5 7t-8.5 7q-4 2 -7 6t-3 10q-4 7 -5 12t-1 11q0 10 6 22q0 5 3 10t7 9t8.5 7t10.5 5q8 4 22 4q6 0 10.5 -1t12.5 -3
q4 -2 8 -5t8 -7zM518 702q0 -2 -4 -8q-2 0 -3 -2t-5 -2q-2 -2 -8 -2h-33v47h33q4 0 8 -2q4 0 5 -1l3 -3l4 -8q2 -2 2 -10q0 -6 -2 -9zM801 721q4 -4 8 -9t6 -10q2 -6 3 -11t1 -11t-1 -11t-3 -12q-2 -6 -6 -10t-8 -6q-2 -4 -6 -7t-11 -7q-4 -2 -10 -3t-12 -1q-12 0 -23 4
q-4 4 -9 7t-9 7l-6 6t-6 10q-2 7 -4.5 12t-2.5 11q0 10 7 22q2 5 6 10t6 9q4 4 9 7t9 5q6 2 12.5 3t10.5 1q12 0 22 -4q7 -2 11 -5t6 -7zM1090 733q0 -4 1 -6t1 -4l28 -64h-59l29 64v4v6zM270 729q2 -2 3 -5t3 -5q3 -4 3 -10v-5.5t-3 -5.5q-2 -2 -3 -5t-3 -3l-8 -8h-10h-37
v53h37q6 0 10 -2q2 0 5 -2zM2478 1092v-586h-2404v586h911q0 30 5 58t18 54q12 27 27.5 51.5t37.5 42.5q37 39 90 62q29 12 56.5 17t56.5 5q33 0 61.5 -6t53.5 -18q28 -12 51.5 -28.5t42.5 -35.5q37 -37 61 -94q21 -53 21 -108h911zM1030 1192q-22 -47 -22 -100
q0 -58 22 -105q10 -22 24.5 -44.5t30.5 -41.5q19 -18 40.5 -32.5t45.5 -24.5q48 -23 105 -23q29 0 54.5 4t49.5 15q25 12 45.5 25.5t38.5 33.5q19 19 33 40.5t27 43.5q22 51 22 109q0 22 -4 45.5t-14 44.5q-12 41 -41 75q-14 17 -30.5 31.5t-33.5 24.5q-18 10 -37.5 19
t-39.5 18q-15 4 -32.5 6t-37.5 2q-29 0 -55.5 -5t-51.5 -18q-49 -18 -86 -57q-16 -18 -29.5 -41t-23.5 -45zM295 690q6 10 6 19q0 4 -1 9t-5 11q0 2 -4 6l-6 6q-2 4 -5.5 7.5t-9.5 3.5q-4 2 -9 4t-9 2h-53v-154h16v58h37q4 0 9 1t9 3q11 4 15 8q2 4 6 8t4 8zM410 758h-95
v-154h95v19h-72v47h59v20h-59v45h72v23zM559 604l-47 66q2 2 5 2t5 4q8 4 10 10q3 2 5 5t4 7v13v10t-2 8q-4 8 -11 14q-4 9 -14 9q-2 2 -7 4t-9 2h-56v-154h23v64h22l41 -56q2 -4 7 -6q2 -2 4 -2h6h14zM664 631q0 4 1 8t1 8q0 12 -4.5 20.5t-12.5 14.5q-2 0 -3 2t-5 4h-1
t-5 2h-2t-2 4q-6 0 -8 2q-7 0 -9 1l-6 3q-8 2 -8 5q-6 4 -6 6v8v8q2 0 4 2t2 4l3 1t5 1q4 2 6 2h4l2.5 -1t4.5 -1q8 0 8 -4q2 -2 4 -2h4q8 0 14 4l4 2q0 2 -2 4l-4 4q-4 2 -6 4.5t-6 4.5q-2 0 -4 1t-6 5q-6 0 -7 1t-6 1q-4 0 -9 -1t-9 -1q-4 -4 -7 -6t-7 -2q-2 -5 -5 -8
t-6 -7q-2 -4 -3 -7t-1 -9v-9t4 -8q3 -4 6 -7t3 -5q4 -2 8 -5t8 -3q4 -2 7 -4t7 -4q2 -2 5.5 -2h5.5q6 -2 7 -2t3 -2q4 -2 4 -3t2 -6q2 -2 2 -5v-7v-3t-2 -5q-2 -4 -2 -5t-4 -3q-2 -4 -5 -5t-5 -3h-5.5h-5.5h-7h-5q-2 2 -5 3t-3 5l-2 2q-6 4 -12 4h-4.5t-4.5 -2l-6 -2
q0 -4 2 -4q0 -4 4 -6q0 -2 2 -5l2 -2h3q8 -8 17 -10t19 -2h9.5t9.5 2t9 4t7 6q6 2 9.5 5.5t5.5 9.5zM838 659q2 7 2 11v10q0 12 -2 20q0 7 -3.5 11t-5.5 10q-4 6 -12 14q-4 4 -8 6t-10 9q-2 0 -6.5 2t-10.5 6q-6 0 -10 1t-10 1q-4 0 -10.5 -1t-10.5 -1q-6 -4 -10 -6t-8 -2
q-4 -7 -8 -9t-8 -6q-5 -4 -8 -7t-5 -7q-4 -6 -5 -10t-3 -11q-2 -8 -2 -20q0 -8 2 -15.5t4 -15.5q2 -6 6 -12t11 -14q6 -5 12 -9t14 -4q12 -6 29 -6h10h10q11 4 17 8q14 6 18 11q6 8 12 18q2 4 5.5 9t3.5 9zM997 758h-20v-119q0 2 -1 5l-1 3l-74 105q-4 0 -8 6h-4h-4h-15
v-154h21v129v-4l2 -2v0v-4l88 -119h16v154zM1169 604l-67 154h-23l-65 -154h12q6 0 8 2l3 3t5 3l9 27h79l11 -27q2 -4 6 -6q0 -2 8 -2h14zM1270 623h-66v135h-22v-154h88v19zM1479 758h-21v-92v-11t-2 -8q-2 -8 -10 -12q-2 -2 -5 -4t-5 -6q-6 -2 -9.5 -2h-7.5q-10 0 -14 2
q-6 4 -10 6t-4 4q-2 2 -4.5 5t-6.5 7q0 4 -1 8t-1 11v92h-20v-92v-12t2 -7q0 -8 4 -14q4 -10 12 -15q2 -2 5 -4t8 -4q2 -2 6 -3t6 -3q6 0 9 -2t9 -2q4 0 7.5 2t9.5 2q4 2 7 3t7 3l12 8q4 5 5 8t3 7q3 2 6 6t3 8v19v92zM1597 631q7 8 7 16q0 12 -4.5 20.5t-12.5 14.5
q-6 4 -6 6h-5t-5 2h-3t-5 4h-2t-5 2q-2 0 -4 1l-6 3q-8 2 -8 5q-4 2 -5 4t-3 2q0 2 -1 3t-1 5t4 8l6 6q2 0 3 1t5 1q0 2 10 2l2.5 -1t4.5 -1q2 -2 8 -4q8 -2 10 -2q6 0 8 4l6 2l-4 4l-4 4q0 2 -3 4.5t-5 4.5q-4 0 -6 1t-6 5q-4 0 -7.5 1l-3.5 1q-6 0 -10 -1t-8 -1
q-4 -4 -8 -6t-6 -2q-4 -5 -6 -8t-7 -7q0 -4 -2 -7t-2 -9t2 -9t2 -8q5 -8 11 -12q4 -2 7 -5t5 -3q6 -2 9 -4t7 -4t6.5 -2h4.5q2 -2 5 -2t5 -2t5 -3t3 -6q2 -2 2 -5v-7v-3t-2 -5q-2 -6 -8 -8q-4 -4 -6 -5t-4 -3h-6h-5h-7h-5q-4 2 -10 8v2q-6 4 -12 4h-3.5t-5.5 -2l-6 -2
q2 -2 2 -3t2 -1q0 -2 1 -3t1 -3l1 -1t1 -4q4 -2 7 -2q6 -8 15 -10t19 -2h10.5t10.5 2l8 4t8 6q2 2 5 5.5t5 9.5zM1722 758h-94v-154h94v19h-73v47h61v20h-61v45h73v23zM1966 659v11v10v11v9q-4 11 -10 21q-4 6 -12 14q-2 4 -6.5 6t-8.5 9q-4 0 -9 2t-9 6q-6 0 -10.5 1
t-10.5 1t-11 -1t-9 -1q-12 -6 -21 -8q-4 -7 -7 -9t-7 -6l-7 -7l-7 -7q-2 -6 -4 -10t-2 -11q-5 -8 -5 -20q0 -8 2.5 -15.5t4.5 -15.5q6 -14 18 -26q4 -5 10 -9t15 -4q12 -6 30 -6h10.5h10.5q4 2 9 4t9 4q4 4 8.5 6.5t6.5 4.5q8 8 12 18q6 8 10 18zM2126 758h-23v-119
q0 2 -1 5t-3 3l-74 105l-1 1t-3 5h-5h-5h-16v-154h24v129v-4v-2v-2l2 -2l86 -119h19v154zM2251 623h-66v135h-22v-154h88v19zM2374 758h-19q-4 0 -8 -4q-8 -4 -8 -9l-35 -47l-2 -2h-2v-2v2l-2 2l-37 47q-2 5 -6 9t-10 4h-17l56 -76l2 -2q0 -2 2 -2v-2v-2q0 -2 2 -2v-2v-66
h22v66v2v4q2 0 2 4v2h2zM1188 864q-19 8 -38.5 19.5t-33.5 25.5h322q-17 -14 -35.5 -25.5t-38.5 -19.5q-21 -6 -43.5 -12t-44.5 -6q-25 0 -46.5 6t-41.5 12zM1141 936l315 317q29 -39 45.5 -79.5t16.5 -81.5q0 -23 -3.5 -44.5t-11.5 -41.5q-8 -19 -18 -36.5t-23 -33.5h-321z
M1094 928q-27 35 -45 73q-7 21 -11 43.5t-4 47.5q0 20 4 40.5t11 41.5q6 18 16 35.5t25 33.5h319zM1364 1315q20 -8 38.5 -20.5t33.5 -22.5h-324q37 28 76 43q39 18 88 18t88 -18zM78 350q-4 4 -5 8t-3 9q-2 6 -3 10t-1 10t4 16q2 5 3 10t5 7l3 9t7 7q0 2 5 5t7 5q6 5 9.5 6
t9.5 3q2 0 8 1t10 1q8 0 14.5 -1t14.5 -5q8 -2 13 -6.5t9 -8.5q-2 -2 -4 -2v-4h-2h-2h-4h-6q-4 2 -8 5t-8 3h-7.5h-9.5h-10h-8q-8 -4 -12.5 -7t-8.5 -5q-4 -6 -7 -10t-5 -8q-4 -7 -4 -13v-8q0 -8 2 -14t3 -9.5t1 -7.5q2 -2 5 -4t5 -6q4 -2 6 -5t7 -3q2 -2 6 -4t8 -2
q2 -2 6 -2h6h10.5t8.5 2q4 0 9 2t9 4v29h-12h-2l-2 2l-3 3l-3 3l-1 1t-1 3v1v3v0h38v-53l-5 -5t-5 -6q-6 -2 -12 -2q-6 -2 -14 -2h-15h-10h-8q-6 2 -9.5 4.5t-9.5 6.5q-2 0 -7 3t-5 7q-6 2 -7 6t-3 8zM240 438v-45h55v-14h-55v-47h67v-17h-84v140h84v-17h-67zM369 315v123
h-45v17h106v-17h-47v-123h-14zM532 438v-49h60v-12h-60v-62h-16v140h84v-17h-68zM641 455v-86q0 -4 2 -7.5t4 -5.5q2 -6 5 -9t5 -7q0 -2 3.5 -4t5.5 -4q6 -2 10 -2h8h7t5 2q6 2 9.5 4t7.5 4q0 4 3 7t5 9q4 4 4 13v86h14v-86q0 -7 -1 -11t-3 -10t-5 -10t-7 -8t-8 -7.5
t-8 -5.5q-13 -2 -23 -2q-12 0 -25 2q-2 2 -7 5.5t-9 7.5q-6 6 -10 18q-2 6 -4 10t-2 11v86h14zM784 455v-123h62v-17h-78v140h16zM877 455v-123h65v-17h-80v140h15zM1069 315l-61 140h8q4 0 8 -2q2 -2 3 -2t3 -5l43 -104v-4q2 -2 2 -6v6l1 2l1 2q6 14 12.5 26.5t12.5 24.5
q4 17 10 29l12 24q0 5 2 5t2 2q2 2 3.5 2h5.5h8q-8 -17 -15.5 -34.5t-17.5 -33.5q-6 -20 -13 -36.5t-16 -35.5h-14zM1171 438v-45h58v-14h-58v-47h68v-17h-84v140h84v-17h-68zM1341 381q-2 -2 -10 -4l47 -62h-10q-2 0 -5 1l-3 1q-2 2 -4 3.5t-4 5.5l-39 51h-25v-62h-14v140
h51h5t7 -2q9 -2 15 -9q2 -4 4 -7t4 -7q2 -2 2 -7v-5v-9t-2 -6q0 -4 -2 -8t-4 -6l-4 -4t-9 -4zM1325 389q4 0 6 4q2 0 4 1t4 1l3 6t4 5q0 2 1 4t1 8l-1 2t-1 6q-3 2 -4 3t-3 5q-2 0 -4 1t-4 3h-6h-37v-49h37zM1452 336q2 2 4 8q2 2 3 6t1 6q0 6 -2 11q-2 0 -3 3t-3 5t-8 4
q-4 0 -6 1l-6 3q-5 0 -9 2t-4 4q-10 0 -14 6q-4 0 -5 4t-3 7v14v9t2 7q0 6 8 10q4 5 6 6t8 3q4 0 6.5 1t8.5 1q2 0 5 -1t5 -1t4 -1l6 -3q2 0 4 -2.5t2 -4.5q4 -2 5 -4t3 -2l-4 -2q-2 -2 -8 -2h-6q-4 2 -4 4h-2h-2h-2h-3h-1h-2h-9q-8 0 -8 -2q-6 -6 -6 -8q-4 0 -4 -8
q0 -6 4 -6q0 -4 2 -6t5 -3.5l3 -1.5q4 -4 6.5 -4t8.5 -4h3t3 -2h4t4 -4h2h1h1q2 0 4 -1l2 -1q4 -4 6 -7t7 -5q2 -10 2 -19v-10t-7 -8q0 -6 -8 -12q-2 -2 -6 -4.5t-8 -4.5t-8 -2h-10q-11 0 -18 2t-13 9q-2 0 -4 2l-4 4q0 2 -1 4l-1 2l2 2l1 1t5 1h2q2 0 4 -1t4 -3q4 -2 6 -4
t6 -2q0 -2 4 -2h7q8 0 10 2q8 0 12 4zM1524 455v-140h-17v140h17zM1579 336q-12 8 -18 20q-5 15 -5 31v7v9q7 11 9 17q6 8 14 16q6 6 12 10q4 5 9.5 6t9.5 3q4 0 8 1t10 1q4 0 9 -1t12 -1q4 -2 8 -3t8 -6l5 -5t7 -5q4 -4 6.5 -7t6.5 -9q2 -6 6 -17q2 -4 3 -9t1 -7
q0 -8 -2 -15t-6 -16q-2 -6 -5.5 -11t-9.5 -9q-6 -6 -11 -9t-11 -8q-10 -4 -27 -4q-8 0 -15 1t-11 3q-17 5 -23 17zM1579 408q-4 -7 -6 -13t-2 -8q0 -4 1 -8t1 -6q2 -8 8 -17q0 -2 2 -4t4 -6l5 -5t10 -3q2 -2 5 -4t5 -2q4 -2 8 -2h8h7t7 2q3 0 7 2l8 4q2 0 5 3l5 5q2 4 4 6
l4 4q2 4 3 7.5t3 9.5q0 2 1 6t1 8q0 2 -1 8t-5 13q0 4 -4 8t-6 10q-4 2 -8 5t-10 7h-9.5h-11.5h-12h-10q-4 -4 -9.5 -7t-9.5 -5q-2 -6 -5 -10t-3 -8zM1741 315h-17v140h13h5t5 -4l72 -103q2 0 2 -4l2 -2v-2v115h16v-140h-14l-82 115v4h-2v4v-123zM1956 438v-49h57v-12h-57
v-62h-14v140h83v-17h-69zM2114 381q-9 -2 -13 -4l45 -62h-12q-4 0 -8 2q0 2 -1 3.5t-3 5.5l-39 51h-25v-62h-16v140h51h6t8 -2t7.5 -4.5t5.5 -4.5q2 -4 4 -7t6 -7q0 -2 1 -7l1 -5q0 -6 -1 -9t-1 -6l-4 -8t-2 -6zM2101 393q2 0 3 1t3 1q7 8 7 11q2 4 2 12q0 2 -2 8q0 2 -7 8
q-2 0 -3 1l-3 3h-8h-35v-49h35q4 0 8 4zM2281 336q-4 -6 -10 -9t-12 -8q-6 -2 -12 -3t-15 -1q-8 0 -15 1t-13 3q-13 5 -23 17q-4 4 -8 9t-6 11q-2 9 -5 16t-3 15q0 2 1 7t3 9q2 5 3 10t3 7q4 6 7 9t5 7q4 2 8 5t9 5q4 5 8 6t8 3q6 0 9 1t9 1q4 0 9.5 -1t9.5 -1l9 -3t7 -6
q4 -2 8 -5t6 -5q3 -4 6 -7t5 -9q6 -6 8 -17q2 -4 3 -9t1 -7q0 -8 -1 -15t-5 -16q-2 -6 -6 -11t-11 -9zM2232 330h7.5t9.5 2q2 0 5 2t5 4q2 0 6 3t8 5l3 6t3 4q2 4 3.5 7.5t1.5 9.5q2 2 2 6v8q0 2 -1 8t-1 13l-6 8t-5 10q-6 2 -11 5t-9 7h-10.5h-10.5h-11h-11q-6 -4 -9 -7
t-8 -5q-6 -6 -8 -10l-4 -8q-2 -7 -2 -13v-8v-14q0 -6 1 -9.5t5 -7.5q0 -2 3 -4t5 -6q2 -2 5.5 -5t5.5 -3q2 -2 5 -4t9 -2q2 -2 6 -2h8zM2460 453q2 2 3 2h3h12v-140h-14v115l-2 -2v0v-2q-4 -8 -6 -17.5t-7 -15.5q-4 -6 -7 -12l-7 -14q-2 -9 -4 -15l-4 -12q-4 -6 -7 -11
t-5 -14h-15q-10 13 -15 27t-11 27q-4 14 -11.5 28.5t-11.5 28.5v2l-4 2v-115h-16v140h14q6 0 8 -2l2 -2v-5l49 -108q0 -2 2 -2v-4q0 2 1 4t1 4q0 4 5 8l43 98q0 5 1 5t3 2zM74 262h157v-20v-4v-5q0 -4 -2 -6l-4 -4l-106 -145h2v2h4h2h104v-37h-165v12q0 11 2 13q0 2 4 8
q2 2 2 4t2 4t3 4l3 6l94 129h-102v39zM260 262h139v-39h-100v-49h80v-41h-80v-53h100v-37h-139v219zM571 223h-59v-180h-43v180h-63v39h165v-39zM672 262l94 -219h-25q-8 0 -16 4q-4 2 -5 6t-5 8l-13 29h-100l-10 -29q-2 -4 -3 -5t-3 -1q0 -4 -1 -5t-5 -3q-2 0 -4.5 -1
t-4.5 -1q0 -2 -2 -2h-4h-24l94 219h37zM684 129l-27 68q0 2 -1 3t-1 3q0 4 -2 6v-6q0 -2 -2 -3t-2 -3l-26 -68h61zM774 262h139v-39h-100v-55h82v-39h-82v-86h-39v219zM1133 207q4 -6 6 -12.5t6 -12.5q2 -8 2 -15v-13v-17t-2 -14q-4 -6 -6 -13.5t-6 -13.5q-5 -4 -9 -10
l-8 -12q-8 -4 -12 -9.5t-10 -7.5q-7 -6 -14 -8t-13 -4q-8 -2 -15.5 -3t-15.5 -1q-10 0 -21 3t-22 5q-12 6 -19 12.5t-18 12.5q-14 16 -20 35q-6 12 -8 22t-2 23q0 6 1 13t3 15q4 17 12 25q4 8 7 13t7 11q9 5 14 9t11 8t12 6t15 6q6 0 13 1t15 1t15.5 -1t15.5 -1q6 -4 13 -6
t14 -6q6 -4 10 -8t12 -9q4 -6 8 -11t9 -13zM1104 127q2 6 3 12t1 15q0 12 -4 24q-4 10 -8 15.5t-11 9.5q-4 4 -9 8t-11 6q-12 6 -29 6q-16 0 -28 -6q-4 -2 -9.5 -6t-11.5 -8t-9 -9.5t-7 -15.5q-4 -4 -4 -11v-13v-15t4 -12q4 -8 7 -14.5t9 -10.5t11.5 -8t9.5 -8q8 -2 14 -4
t14 -2t14.5 2t14.5 4q6 4 11 8t9 8q7 4 11 10.5t8 14.5zM1329 262h39v-219h-37l-102 147q-2 0 -2 1.5t-2 3.5q-2 4 -2 6q-4 0 -4 4l-1 1t-4 3v-166h-38v219h34q4 0 8.5 -1t4.5 -3l6 -3t4 -3q10 -16 21.5 -31.5t21.5 -34.5q12 -14 23.5 -29.5t25.5 -29.5q0 -4 1 -6t1 -6
q0 -2 1 -4t1 -5v156zM1389 262h165v-39h-65v-180h-39v180h-61v39zM1690 150q2 -5 5 -9t5 -8q0 -4 2 -9t2 -13q0 -13 -6 -27l-8 -12t-9 -11q-8 -4 -12 -8t-12 -6t-15.5 -4t-13.5 -2q-8 0 -15 2t-18 4q-6 2 -11 6t-13 13q-4 2 -6 5t-4 7q-5 2 -5 12l1.5 1t3.5 3q2 0 2 1t2 1
t4 1l2 1h10h3t3 -2q6 0 10 -2q5 -4 9 -6t6 -4q2 0 6 -2t10 -2q2 0 5 1t7 3q7 2 13 6l8 8q2 4 4 6t2 7q0 8 -6 12q-4 6 -8 6q-4 4 -7.5 5t-5.5 1q-6 2 -16 8q-4 0 -9 1t-9 6q-9 2 -13 5t-8 7q-6 4 -9 8t-5 8q-6 12 -6 25q0 18 6 26q2 7 6 11t10 8q4 4 9.5 6t13.5 6q4 0 10 1
t14 1q4 0 8.5 -1t10.5 -1q4 -2 7 -4t9 -4q2 -2 6 -5t8 -7q3 -2 6 -5.5t5 -7.5l-8 -4l-6 -4t-3 -4h-8h-4h-4h-2q-6 0 -6 2l-8 4q-3 0 -4 1l-1 1h-6h-12q-4 0 -5 -1t-5 -3q-2 -2 -4 -8q-2 -2 -2 -8t2 -6q2 -2 3 -4.5t1 -6.5q4 0 7 -1t5 -1q6 -2 11 -4t7 -4l11 -2q4 -4 9 -5
t11 -7q10 -2 17 -12zM1755 80q6 0 6 -6q2 0 2 -3v-5q0 -7 -2 -11q0 -4 -6 -8q-4 0 -6 -4q-2 0 -4 -1t-6 -1q-2 0 -4 1t-4 1q-2 2 -4.5 3t-4.5 1q-2 2 -3 4t-3 4q-2 4 -2 11v5t2 3q2 4 3 5t3 1q7 6 9 6q2 2 4 3t4 1q4 0 6 -1t4 -3q2 0 6 -6zM1839 203q-8 -8 -16 -25
q-2 -4 -4 -11t-2 -13q0 -9 2 -15l4 -12q4 -8 7 -14.5t9 -10.5q4 -4 9 -8t14 -8q8 -2 14 -4t14 -2q6 0 10.5 2t10.5 2q4 2 9 5t9 7q4 0 8 2h7h6t6 -2q6 -2 10 -6l6 -10q-6 -8 -16 -14q-6 -5 -10 -8t-11 -5q-6 -4 -11 -5t-11 -3t-11.5 -3t-11.5 -1q-14 0 -24.5 3t-20.5 5
q-20 10 -35 25q-16 16 -24 35q-2 12 -5 22t-3 23q0 6 1 13t3 15q2 6 4 12.5t6 12.5q6 8 9 13t9 11q7 5 12 9t13 8q4 4 10 6t17 6q4 0 12 1t16 1h11.5t11.5 -2t11 -4t11 -4q7 -2 11 -5t10 -7q10 -9 16 -17l-6 -8l-5 -5t-5 -3h-7h-5h-8t-7 2q-4 4 -9 7t-9 5q-6 2 -10.5 2
h-10.5q-16 0 -28 -6q-9 -2 -14 -6t-9 -8zM2195 207q3 -6 6 -12.5t5 -12.5q2 -8 2 -15v-13v-17t-2 -14t-5 -13.5t-6 -13.5q-8 -10 -16 -22q-8 -4 -14 -9.5t-11 -7.5q-6 -6 -13 -8t-15 -4q-6 -2 -13.5 -3t-15.5 -1q-20 0 -43 8q-8 6 -17 12.5t-16 12.5q-8 8 -14 16t-10 19
q-4 12 -6 22t-2 23q0 6 1 13t1 15q2 6 6 12.5t6 12.5q4 8 8 13t10 11q4 5 10.5 9t12.5 8q4 4 11 6t13 6q9 0 16 1t13 1q8 0 15.5 -1t13.5 -1q8 -4 15 -6t13 -6q5 -4 11 -8t14 -9q2 -6 8 -11t8 -13zM2165 127q4 10 4 27q0 6 -1 13t-3 11q-4 10 -7.5 15.5t-7.5 9.5
q-10 10 -24 14q-6 4 -13.5 5t-15.5 1q-14 0 -26 -6q-7 -2 -12 -6t-11 -8q-4 -4 -8 -9.5t-8 -15.5q-2 -4 -3 -11t-1 -13q0 -9 1 -15t3 -12q8 -16 16 -25q6 -4 11 -8t12 -8q6 -2 14 -4t12 -2q8 0 15.5 2t13.5 4q6 4 13 8t11 8q9 9 15 25zM2433 260l1 1t5 1h39v-219h-39v160
q0 -2 -1 -4l-3 -6v-7t-2 -4q-6 -18 -14.5 -35.5t-14.5 -33.5q-6 -17 -13 -34.5t-13 -35.5h-39l-55 139q-3 2 -3 11q-2 4 -3 5t-1 3v-158h-41v219h39q4 0 6.5 -1l2.5 -1q4 -2 5 -2t3 -2l6 -4l4 -4t2 -4q4 -17 11 -32t14 -34q6 -16 13 -32.5t13 -32.5v-2v-5v-4q4 0 4 -4v4v4
q0 3 1 5l1 2l9 16l45 115q0 2 1 4t1 4q2 2 5 3l3 1q2 2 4 2t4 2z" />
    <glyph glyph-name="four" unicode="4" horiz-adv-x="2531" 
d="M1929 721q4 -4 8.5 -9t6.5 -10q0 -6 1 -11t1 -11q0 -12 -2 -23q-2 -6 -6.5 -10t-8.5 -6q-4 -4 -8 -7t-8 -7q-12 -4 -23 -4q-6 0 -12 1t-10 3l-10.5 7t-8.5 7q-4 2 -7 6t-3 10q-4 7 -5 12t-1 11q0 10 6 22q0 5 3 10t7 9t8.5 7t10.5 5q8 4 22 4q6 0 10.5 -1t12.5 -3
q4 -2 8 -5t8 -7zM518 702q0 -2 -4 -8q-2 0 -3 -2t-5 -2q-2 -2 -8 -2h-33v47h33q4 0 8 -2q4 0 5 -1l3 -3l4 -8q2 -2 2 -10q0 -6 -2 -9zM801 721q4 -4 8 -9t6 -10q2 -6 3 -11t1 -11t-1 -11t-3 -12q-2 -6 -6 -10t-8 -6q-2 -4 -6 -7t-11 -7q-4 -2 -10 -3t-12 -1q-12 0 -23 4
q-4 4 -9 7t-9 7l-6 6t-6 10q-2 7 -4.5 12t-2.5 11q0 10 7 22q2 5 6 10t6 9q4 4 9 7t9 5q6 2 12.5 3t10.5 1q12 0 22 -4q7 -2 11 -5t6 -7zM1090 733q0 -4 1 -6t1 -4l28 -64h-59l29 64v4v6zM270 729q2 -2 3 -5t3 -5q3 -4 3 -10v-5.5t-3 -5.5q-2 -2 -3 -5t-3 -3l-8 -8h-10h-37
v53h37q6 0 10 -2q2 0 5 -2zM2478 1092v-586h-2404v586h911q0 30 5 58t18 54q12 27 27.5 51.5t37.5 42.5q37 39 90 62q29 12 56.5 17t56.5 5q33 0 61.5 -6t53.5 -18q28 -12 51.5 -28.5t42.5 -35.5q37 -37 61 -94q21 -53 21 -108h911zM1030 1192q-22 -47 -22 -100
q0 -58 22 -105q10 -22 24.5 -44.5t30.5 -41.5q19 -18 40.5 -32.5t45.5 -24.5q48 -23 105 -23q29 0 54.5 4t49.5 15q25 12 45.5 25.5t38.5 33.5q19 19 33 40.5t27 43.5q22 51 22 109q0 22 -4 45.5t-14 44.5q-12 41 -41 75q-14 17 -30.5 31.5t-33.5 24.5q-18 10 -37.5 19
t-39.5 18q-15 4 -32.5 6t-37.5 2q-29 0 -55.5 -5t-51.5 -18q-49 -18 -86 -57q-16 -18 -29.5 -41t-23.5 -45zM295 690q6 10 6 19q0 4 -1 9t-5 11q0 2 -4 6l-6 6q-2 4 -5.5 7.5t-9.5 3.5q-4 2 -9 4t-9 2h-53v-154h16v58h37q4 0 9 1t9 3q11 4 15 8q2 4 6 8t4 8zM410 758h-95
v-154h95v19h-72v47h59v20h-59v45h72v23zM559 604l-47 66q2 2 5 2t5 4q8 4 10 10q3 2 5 5t4 7v13v10t-2 8q-4 8 -11 14q-4 9 -14 9q-2 2 -7 4t-9 2h-56v-154h23v64h22l41 -56q2 -4 7 -6q2 -2 4 -2h6h14zM664 631q0 4 1 8t1 8q0 12 -4.5 20.5t-12.5 14.5q-2 0 -3 2t-5 4h-1
t-5 2h-2t-2 4q-6 0 -8 2q-7 0 -9 1l-6 3q-8 2 -8 5q-6 4 -6 6v8v8q2 0 4 2t2 4l3 1t5 1q4 2 6 2h4l2.5 -1t4.5 -1q8 0 8 -4q2 -2 4 -2h4q8 0 14 4l4 2q0 2 -2 4l-4 4q-4 2 -6 4.5t-6 4.5q-2 0 -4 1t-6 5q-6 0 -7 1t-6 1q-4 0 -9 -1t-9 -1q-4 -4 -7 -6t-7 -2q-2 -5 -5 -8
t-6 -7q-2 -4 -3 -7t-1 -9v-9t4 -8q3 -4 6 -7t3 -5q4 -2 8 -5t8 -3q4 -2 7 -4t7 -4q2 -2 5.5 -2h5.5q6 -2 7 -2t3 -2q4 -2 4 -3t2 -6q2 -2 2 -5v-7v-3t-2 -5q-2 -4 -2 -5t-4 -3q-2 -4 -5 -5t-5 -3h-5.5h-5.5h-7h-5q-2 2 -5 3t-3 5l-2 2q-6 4 -12 4h-4.5t-4.5 -2l-6 -2
q0 -4 2 -4q0 -4 4 -6q0 -2 2 -5l2 -2h3q8 -8 17 -10t19 -2h9.5t9.5 2t9 4t7 6q6 2 9.5 5.5t5.5 9.5zM838 659q2 7 2 11v10q0 12 -2 20q0 7 -3.5 11t-5.5 10q-4 6 -12 14q-4 4 -8 6t-10 9q-2 0 -6.5 2t-10.5 6q-6 0 -10 1t-10 1q-4 0 -10.5 -1t-10.5 -1q-6 -4 -10 -6t-8 -2
q-4 -7 -8 -9t-8 -6q-5 -4 -8 -7t-5 -7q-4 -6 -5 -10t-3 -11q-2 -8 -2 -20q0 -8 2 -15.5t4 -15.5q2 -6 6 -12t11 -14q6 -5 12 -9t14 -4q12 -6 29 -6h10h10q11 4 17 8q14 6 18 11q6 8 12 18q2 4 5.5 9t3.5 9zM997 758h-20v-119q0 2 -1 5l-1 3l-74 105q-4 0 -8 6h-4h-4h-15
v-154h21v129v-4l2 -2v0v-4l88 -119h16v154zM1169 604l-67 154h-23l-65 -154h12q6 0 8 2l3 3t5 3l9 27h79l11 -27q2 -4 6 -6q0 -2 8 -2h14zM1270 623h-66v135h-22v-154h88v19zM1479 758h-21v-92v-11t-2 -8q-2 -8 -10 -12q-2 -2 -5 -4t-5 -6q-6 -2 -9.5 -2h-7.5q-10 0 -14 2
q-6 4 -10 6t-4 4q-2 2 -4.5 5t-6.5 7q0 4 -1 8t-1 11v92h-20v-92v-12t2 -7q0 -8 4 -14q4 -10 12 -15q2 -2 5 -4t8 -4q2 -2 6 -3t6 -3q6 0 9 -2t9 -2q4 0 7.5 2t9.5 2q4 2 7 3t7 3l12 8q4 5 5 8t3 7q3 2 6 6t3 8v19v92zM1597 631q7 8 7 16q0 12 -4.5 20.5t-12.5 14.5
q-6 4 -6 6h-5t-5 2h-3t-5 4h-2t-5 2q-2 0 -4 1l-6 3q-8 2 -8 5q-4 2 -5 4t-3 2q0 2 -1 3t-1 5t4 8l6 6q2 0 3 1t5 1q0 2 10 2l2.5 -1t4.5 -1q2 -2 8 -4q8 -2 10 -2q6 0 8 4l6 2l-4 4l-4 4q0 2 -3 4.5t-5 4.5q-4 0 -6 1t-6 5q-4 0 -7.5 1l-3.5 1q-6 0 -10 -1t-8 -1
q-4 -4 -8 -6t-6 -2q-4 -5 -6 -8t-7 -7q0 -4 -2 -7t-2 -9t2 -9t2 -8q5 -8 11 -12q4 -2 7 -5t5 -3q6 -2 9 -4t7 -4t6.5 -2h4.5q2 -2 5 -2t5 -2t5 -3t3 -6q2 -2 2 -5v-7v-3t-2 -5q-2 -6 -8 -8q-4 -4 -6 -5t-4 -3h-6h-5h-7h-5q-4 2 -10 8v2q-6 4 -12 4h-3.5t-5.5 -2l-6 -2
q2 -2 2 -3t2 -1q0 -2 1 -3t1 -3l1 -1t1 -4q4 -2 7 -2q6 -8 15 -10t19 -2h10.5t10.5 2l8 4t8 6q2 2 5 5.5t5 9.5zM1722 758h-94v-154h94v19h-73v47h61v20h-61v45h73v23zM1966 659v11v10v11v9q-4 11 -10 21q-4 6 -12 14q-2 4 -6.5 6t-8.5 9q-4 0 -9 2t-9 6q-6 0 -10.5 1
t-10.5 1t-11 -1t-9 -1q-12 -6 -21 -8q-4 -7 -7 -9t-7 -6l-7 -7l-7 -7q-2 -6 -4 -10t-2 -11q-5 -8 -5 -20q0 -8 2.5 -15.5t4.5 -15.5q6 -14 18 -26q4 -5 10 -9t15 -4q12 -6 30 -6h10.5h10.5q4 2 9 4t9 4q4 4 8.5 6.5t6.5 4.5q8 8 12 18q6 8 10 18zM2126 758h-23v-119
q0 2 -1 5t-3 3l-74 105l-1 1t-3 5h-5h-5h-16v-154h24v129v-4v-2v-2l2 -2l86 -119h19v154zM2251 623h-66v135h-22v-154h88v19zM2374 758h-19q-4 0 -8 -4q-8 -4 -8 -9l-35 -47l-2 -2h-2v-2v2l-2 2l-37 47q-2 5 -6 9t-10 4h-17l56 -76l2 -2q0 -2 2 -2v-2v-2q0 -2 2 -2v-2v-66
h22v66v2v4q2 0 2 4v2h2zM1188 864q-19 8 -38.5 19.5t-33.5 25.5h322q-17 -14 -35.5 -25.5t-38.5 -19.5q-21 -6 -43.5 -12t-44.5 -6q-25 0 -46.5 6t-41.5 12zM1141 936l315 317q29 -39 45.5 -79.5t16.5 -81.5q0 -23 -3.5 -44.5t-11.5 -41.5q-8 -19 -18 -36.5t-23 -33.5h-321z
M1094 928q-27 35 -45 73q-7 21 -11 43.5t-4 47.5q0 20 4 40.5t11 41.5q6 18 16 35.5t25 33.5h319zM1364 1315q20 -8 38.5 -20.5t33.5 -22.5h-324q37 28 76 43q39 18 88 18t88 -18zM78 350q-4 4 -5 8t-3 9q-2 6 -3 10t-1 10t4 16q2 5 3 10t5 7l3 9t7 7q0 2 5 5t7 5q6 5 9.5 6
t9.5 3q2 0 8 1t10 1q8 0 14.5 -1t14.5 -5q8 -2 13 -6.5t9 -8.5q-2 -2 -4 -2v-4h-2h-2h-4h-6q-4 2 -8 5t-8 3h-7.5h-9.5h-10h-8q-8 -4 -12.5 -7t-8.5 -5q-4 -6 -7 -10t-5 -8q-4 -7 -4 -13v-8q0 -8 2 -14t3 -9.5t1 -7.5q2 -2 5 -4t5 -6q4 -2 6 -5t7 -3q2 -2 6 -4t8 -2
q2 -2 6 -2h6h10.5t8.5 2q4 0 9 2t9 4v29h-12h-2l-2 2l-3 3l-3 3l-1 1t-1 3v1v3v0h38v-53l-5 -5t-5 -6q-6 -2 -12 -2q-6 -2 -14 -2h-15h-10h-8q-6 2 -9.5 4.5t-9.5 6.5q-2 0 -7 3t-5 7q-6 2 -7 6t-3 8zM240 438v-45h55v-14h-55v-47h67v-17h-84v140h84v-17h-67zM369 315v123
h-45v17h106v-17h-47v-123h-14zM532 438v-49h60v-12h-60v-62h-16v140h84v-17h-68zM641 455v-86q0 -4 2 -7.5t4 -5.5q2 -6 5 -9t5 -7q0 -2 3.5 -4t5.5 -4q6 -2 10 -2h8h7t5 2q6 2 9.5 4t7.5 4q0 4 3 7t5 9q4 4 4 13v86h14v-86q0 -7 -1 -11t-3 -10t-5 -10t-7 -8t-8 -7.5
t-8 -5.5q-13 -2 -23 -2q-12 0 -25 2q-2 2 -7 5.5t-9 7.5q-6 6 -10 18q-2 6 -4 10t-2 11v86h14zM784 455v-123h62v-17h-78v140h16zM877 455v-123h65v-17h-80v140h15zM1069 315l-61 140h8q4 0 8 -2q2 -2 3 -2t3 -5l43 -104v-4q2 -2 2 -6v6l1 2l1 2q6 14 12.5 26.5t12.5 24.5
q4 17 10 29l12 24q0 5 2 5t2 2q2 2 3.5 2h5.5h8q-8 -17 -15.5 -34.5t-17.5 -33.5q-6 -20 -13 -36.5t-16 -35.5h-14zM1171 438v-45h58v-14h-58v-47h68v-17h-84v140h84v-17h-68zM1341 381q-2 -2 -10 -4l47 -62h-10q-2 0 -5 1l-3 1q-2 2 -4 3.5t-4 5.5l-39 51h-25v-62h-14v140
h51h5t7 -2q9 -2 15 -9q2 -4 4 -7t4 -7q2 -2 2 -7v-5v-9t-2 -6q0 -4 -2 -8t-4 -6l-4 -4t-9 -4zM1325 389q4 0 6 4q2 0 4 1t4 1l3 6t4 5q0 2 1 4t1 8l-1 2t-1 6q-3 2 -4 3t-3 5q-2 0 -4 1t-4 3h-6h-37v-49h37zM1452 336q2 2 4 8q2 2 3 6t1 6q0 6 -2 11q-2 0 -3 3t-3 5t-8 4
q-4 0 -6 1l-6 3q-5 0 -9 2t-4 4q-10 0 -14 6q-4 0 -5 4t-3 7v14v9t2 7q0 6 8 10q4 5 6 6t8 3q4 0 6.5 1t8.5 1q2 0 5 -1t5 -1t4 -1l6 -3q2 0 4 -2.5t2 -4.5q4 -2 5 -4t3 -2l-4 -2q-2 -2 -8 -2h-6q-4 2 -4 4h-2h-2h-2h-3h-1h-2h-9q-8 0 -8 -2q-6 -6 -6 -8q-4 0 -4 -8
q0 -6 4 -6q0 -4 2 -6t5 -3.5l3 -1.5q4 -4 6.5 -4t8.5 -4h3t3 -2h4t4 -4h2h1h1q2 0 4 -1l2 -1q4 -4 6 -7t7 -5q2 -10 2 -19v-10t-7 -8q0 -6 -8 -12q-2 -2 -6 -4.5t-8 -4.5t-8 -2h-10q-11 0 -18 2t-13 9q-2 0 -4 2l-4 4q0 2 -1 4l-1 2l2 2l1 1t5 1h2q2 0 4 -1t4 -3q4 -2 6 -4
t6 -2q0 -2 4 -2h7q8 0 10 2q8 0 12 4zM1524 455v-140h-17v140h17zM1579 336q-12 8 -18 20q-5 15 -5 31v7v9q7 11 9 17q6 8 14 16q6 6 12 10q4 5 9.5 6t9.5 3q4 0 8 1t10 1q4 0 9 -1t12 -1q4 -2 8 -3t8 -6l5 -5t7 -5q4 -4 6.5 -7t6.5 -9q2 -6 6 -17q2 -4 3 -9t1 -7
q0 -8 -2 -15t-6 -16q-2 -6 -5.5 -11t-9.5 -9q-6 -6 -11 -9t-11 -8q-10 -4 -27 -4q-8 0 -15 1t-11 3q-17 5 -23 17zM1579 408q-4 -7 -6 -13t-2 -8q0 -4 1 -8t1 -6q2 -8 8 -17q0 -2 2 -4t4 -6l5 -5t10 -3q2 -2 5 -4t5 -2q4 -2 8 -2h8h7t7 2q3 0 7 2l8 4q2 0 5 3l5 5q2 4 4 6
l4 4q2 4 3 7.5t3 9.5q0 2 1 6t1 8q0 2 -1 8t-5 13q0 4 -4 8t-6 10q-4 2 -8 5t-10 7h-9.5h-11.5h-12h-10q-4 -4 -9.5 -7t-9.5 -5q-2 -6 -5 -10t-3 -8zM1741 315h-17v140h13h5t5 -4l72 -103q2 0 2 -4l2 -2v-2v115h16v-140h-14l-82 115v4h-2v4v-123zM1956 438v-49h57v-12h-57
v-62h-14v140h83v-17h-69zM2114 381q-9 -2 -13 -4l45 -62h-12q-4 0 -8 2q0 2 -1 3.5t-3 5.5l-39 51h-25v-62h-16v140h51h6t8 -2t7.5 -4.5t5.5 -4.5q2 -4 4 -7t6 -7q0 -2 1 -7l1 -5q0 -6 -1 -9t-1 -6l-4 -8t-2 -6zM2101 393q2 0 3 1t3 1q7 8 7 11q2 4 2 12q0 2 -2 8q0 2 -7 8
q-2 0 -3 1l-3 3h-8h-35v-49h35q4 0 8 4zM2281 336q-4 -6 -10 -9t-12 -8q-6 -2 -12 -3t-15 -1q-8 0 -15 1t-13 3q-13 5 -23 17q-4 4 -8 9t-6 11q-2 9 -5 16t-3 15q0 2 1 7t3 9q2 5 3 10t3 7q4 6 7 9t5 7q4 2 8 5t9 5q4 5 8 6t8 3q6 0 9 1t9 1q4 0 9.5 -1t9.5 -1l9 -3t7 -6
q4 -2 8 -5t6 -5q3 -4 6 -7t5 -9q6 -6 8 -17q2 -4 3 -9t1 -7q0 -8 -1 -15t-5 -16q-2 -6 -6 -11t-11 -9zM2232 330h7.5t9.5 2q2 0 5 2t5 4q2 0 6 3t8 5l3 6t3 4q2 4 3.5 7.5t1.5 9.5q2 2 2 6v8q0 2 -1 8t-1 13l-6 8t-5 10q-6 2 -11 5t-9 7h-10.5h-10.5h-11h-11q-6 -4 -9 -7
t-8 -5q-6 -6 -8 -10l-4 -8q-2 -7 -2 -13v-8v-14q0 -6 1 -9.5t5 -7.5q0 -2 3 -4t5 -6q2 -2 5.5 -5t5.5 -3q2 -2 5 -4t9 -2q2 -2 6 -2h8zM2460 453q2 2 3 2h3h12v-140h-14v115l-2 -2v0v-2q-4 -8 -6 -17.5t-7 -15.5q-4 -6 -7 -12l-7 -14q-2 -9 -4 -15l-4 -12q-4 -6 -7 -11
t-5 -14h-15q-10 13 -15 27t-11 27q-4 14 -11.5 28.5t-11.5 28.5v2l-4 2v-115h-16v140h14q6 0 8 -2l2 -2v-5l49 -108q0 -2 2 -2v-4q0 2 1 4t1 4q0 4 5 8l43 98q0 5 1 5t3 2zM74 262h157v-20v-4v-5q0 -4 -2 -6l-4 -4l-106 -145h2v2h4h2h104v-37h-165v12q0 11 2 13q0 2 4 8
q2 2 2 4t2 4t3 4l3 6l94 129h-102v39zM260 262h139v-39h-100v-49h80v-41h-80v-53h100v-37h-139v219zM571 223h-59v-180h-43v180h-63v39h165v-39zM672 262l94 -219h-25q-8 0 -16 4q-4 2 -5 6t-5 8l-13 29h-100l-10 -29q-2 -4 -3 -5t-3 -1q0 -4 -1 -5t-5 -3q-2 0 -4.5 -1
t-4.5 -1q0 -2 -2 -2h-4h-24l94 219h37zM684 129l-27 68q0 2 -1 3t-1 3q0 4 -2 6v-6q0 -2 -2 -3t-2 -3l-26 -68h61zM774 262h139v-39h-100v-55h82v-39h-82v-86h-39v219zM1133 207q4 -6 6 -12.5t6 -12.5q2 -8 2 -15v-13v-17t-2 -14q-4 -6 -6 -13.5t-6 -13.5q-5 -4 -9 -10
l-8 -12q-8 -4 -12 -9.5t-10 -7.5q-7 -6 -14 -8t-13 -4q-8 -2 -15.5 -3t-15.5 -1q-10 0 -21 3t-22 5q-12 6 -19 12.5t-18 12.5q-14 16 -20 35q-6 12 -8 22t-2 23q0 6 1 13t3 15q4 17 12 25q4 8 7 13t7 11q9 5 14 9t11 8t12 6t15 6q6 0 13 1t15 1t15.5 -1t15.5 -1q6 -4 13 -6
t14 -6q6 -4 10 -8t12 -9q4 -6 8 -11t9 -13zM1104 127q2 6 3 12t1 15q0 12 -4 24q-4 10 -8 15.5t-11 9.5q-4 4 -9 8t-11 6q-12 6 -29 6q-16 0 -28 -6q-4 -2 -9.5 -6t-11.5 -8t-9 -9.5t-7 -15.5q-4 -4 -4 -11v-13v-15t4 -12q4 -8 7 -14.5t9 -10.5t11.5 -8t9.5 -8q8 -2 14 -4
t14 -2t14.5 2t14.5 4q6 4 11 8t9 8q7 4 11 10.5t8 14.5zM1329 262h39v-219h-37l-102 147q-2 0 -2 1.5t-2 3.5q-2 4 -2 6q-4 0 -4 4l-1 1t-4 3v-166h-38v219h34q4 0 8.5 -1t4.5 -3l6 -3t4 -3q10 -16 21.5 -31.5t21.5 -34.5q12 -14 23.5 -29.5t25.5 -29.5q0 -4 1 -6t1 -6
q0 -2 1 -4t1 -5v156zM1389 262h165v-39h-65v-180h-39v180h-61v39zM1690 150q2 -5 5 -9t5 -8q0 -4 2 -9t2 -13q0 -13 -6 -27l-8 -12t-9 -11q-8 -4 -12 -8t-12 -6t-15.5 -4t-13.5 -2q-8 0 -15 2t-18 4q-6 2 -11 6t-13 13q-4 2 -6 5t-4 7q-5 2 -5 12l1.5 1t3.5 3q2 0 2 1t2 1
t4 1l2 1h10h3t3 -2q6 0 10 -2q5 -4 9 -6t6 -4q2 0 6 -2t10 -2q2 0 5 1t7 3q7 2 13 6l8 8q2 4 4 6t2 7q0 8 -6 12q-4 6 -8 6q-4 4 -7.5 5t-5.5 1q-6 2 -16 8q-4 0 -9 1t-9 6q-9 2 -13 5t-8 7q-6 4 -9 8t-5 8q-6 12 -6 25q0 18 6 26q2 7 6 11t10 8q4 4 9.5 6t13.5 6q4 0 10 1
t14 1q4 0 8.5 -1t10.5 -1q4 -2 7 -4t9 -4q2 -2 6 -5t8 -7q3 -2 6 -5.5t5 -7.5l-8 -4l-6 -4t-3 -4h-8h-4h-4h-2q-6 0 -6 2l-8 4q-3 0 -4 1l-1 1h-6h-12q-4 0 -5 -1t-5 -3q-2 -2 -4 -8q-2 -2 -2 -8t2 -6q2 -2 3 -4.5t1 -6.5q4 0 7 -1t5 -1q6 -2 11 -4t7 -4l11 -2q4 -4 9 -5
t11 -7q10 -2 17 -12zM1755 80q6 0 6 -6q2 0 2 -3v-5q0 -7 -2 -11q0 -4 -6 -8q-4 0 -6 -4q-2 0 -4 -1t-6 -1q-2 0 -4 1t-4 1q-2 2 -4.5 3t-4.5 1q-2 2 -3 4t-3 4q-2 4 -2 11v5t2 3q2 4 3 5t3 1q7 6 9 6q2 2 4 3t4 1q4 0 6 -1t4 -3q2 0 6 -6zM1839 203q-8 -8 -16 -25
q-2 -4 -4 -11t-2 -13q0 -9 2 -15l4 -12q4 -8 7 -14.5t9 -10.5q4 -4 9 -8t14 -8q8 -2 14 -4t14 -2q6 0 10.5 2t10.5 2q4 2 9 5t9 7q4 0 8 2h7h6t6 -2q6 -2 10 -6l6 -10q-6 -8 -16 -14q-6 -5 -10 -8t-11 -5q-6 -4 -11 -5t-11 -3t-11.5 -3t-11.5 -1q-14 0 -24.5 3t-20.5 5
q-20 10 -35 25q-16 16 -24 35q-2 12 -5 22t-3 23q0 6 1 13t3 15q2 6 4 12.5t6 12.5q6 8 9 13t9 11q7 5 12 9t13 8q4 4 10 6t17 6q4 0 12 1t16 1h11.5t11.5 -2t11 -4t11 -4q7 -2 11 -5t10 -7q10 -9 16 -17l-6 -8l-5 -5t-5 -3h-7h-5h-8t-7 2q-4 4 -9 7t-9 5q-6 2 -10.5 2
h-10.5q-16 0 -28 -6q-9 -2 -14 -6t-9 -8zM2195 207q3 -6 6 -12.5t5 -12.5q2 -8 2 -15v-13v-17t-2 -14t-5 -13.5t-6 -13.5q-8 -10 -16 -22q-8 -4 -14 -9.5t-11 -7.5q-6 -6 -13 -8t-15 -4q-6 -2 -13.5 -3t-15.5 -1q-20 0 -43 8q-8 6 -17 12.5t-16 12.5q-8 8 -14 16t-10 19
q-4 12 -6 22t-2 23q0 6 1 13t1 15q2 6 6 12.5t6 12.5q4 8 8 13t10 11q4 5 10.5 9t12.5 8q4 4 11 6t13 6q9 0 16 1t13 1q8 0 15.5 -1t13.5 -1q8 -4 15 -6t13 -6q5 -4 11 -8t14 -9q2 -6 8 -11t8 -13zM2165 127q4 10 4 27q0 6 -1 13t-3 11q-4 10 -7.5 15.5t-7.5 9.5
q-10 10 -24 14q-6 4 -13.5 5t-15.5 1q-14 0 -26 -6q-7 -2 -12 -6t-11 -8q-4 -4 -8 -9.5t-8 -15.5q-2 -4 -3 -11t-1 -13q0 -9 1 -15t3 -12q8 -16 16 -25q6 -4 11 -8t12 -8q6 -2 14 -4t12 -2q8 0 15.5 2t13.5 4q6 4 13 8t11 8q9 9 15 25zM2433 260l1 1t5 1h39v-219h-39v160
q0 -2 -1 -4l-3 -6v-7t-2 -4q-6 -18 -14.5 -35.5t-14.5 -33.5q-6 -17 -13 -34.5t-13 -35.5h-39l-55 139q-3 2 -3 11q-2 4 -3 5t-1 3v-158h-41v219h39q4 0 6.5 -1l2.5 -1q4 -2 5 -2t3 -2l6 -4l4 -4t2 -4q4 -17 11 -32t14 -34q6 -16 13 -32.5t13 -32.5v-2v-5v-4q4 0 4 -4v4v4
q0 3 1 5l1 2l9 16l45 115q0 2 1 4t1 4q2 2 5 3l3 1q2 2 4 2t4 2z" />
    <glyph glyph-name="five" unicode="5" horiz-adv-x="2531" 
d="M1929 721q4 -4 8.5 -9t6.5 -10q0 -6 1 -11t1 -11q0 -12 -2 -23q-2 -6 -6.5 -10t-8.5 -6q-4 -4 -8 -7t-8 -7q-12 -4 -23 -4q-6 0 -12 1t-10 3l-10.5 7t-8.5 7q-4 2 -7 6t-3 10q-4 7 -5 12t-1 11q0 10 6 22q0 5 3 10t7 9t8.5 7t10.5 5q8 4 22 4q6 0 10.5 -1t12.5 -3
q4 -2 8 -5t8 -7zM518 702q0 -2 -4 -8q-2 0 -3 -2t-5 -2q-2 -2 -8 -2h-33v47h33q4 0 8 -2q4 0 5 -1l3 -3l4 -8q2 -2 2 -10q0 -6 -2 -9zM801 721q4 -4 8 -9t6 -10q2 -6 3 -11t1 -11t-1 -11t-3 -12q-2 -6 -6 -10t-8 -6q-2 -4 -6 -7t-11 -7q-4 -2 -10 -3t-12 -1q-12 0 -23 4
q-4 4 -9 7t-9 7l-6 6t-6 10q-2 7 -4.5 12t-2.5 11q0 10 7 22q2 5 6 10t6 9q4 4 9 7t9 5q6 2 12.5 3t10.5 1q12 0 22 -4q7 -2 11 -5t6 -7zM1090 733q0 -4 1 -6t1 -4l28 -64h-59l29 64v4v6zM270 729q2 -2 3 -5t3 -5q3 -4 3 -10v-5.5t-3 -5.5q-2 -2 -3 -5t-3 -3l-8 -8h-10h-37
v53h37q6 0 10 -2q2 0 5 -2zM2478 1092v-586h-2404v586h911q0 30 5 58t18 54q12 27 27.5 51.5t37.5 42.5q37 39 90 62q29 12 56.5 17t56.5 5q33 0 61.5 -6t53.5 -18q28 -12 51.5 -28.5t42.5 -35.5q37 -37 61 -94q21 -53 21 -108h911zM1030 1192q-22 -47 -22 -100
q0 -58 22 -105q10 -22 24.5 -44.5t30.5 -41.5q19 -18 40.5 -32.5t45.5 -24.5q48 -23 105 -23q29 0 54.5 4t49.5 15q25 12 45.5 25.5t38.5 33.5q19 19 33 40.5t27 43.5q22 51 22 109q0 22 -4 45.5t-14 44.5q-12 41 -41 75q-14 17 -30.5 31.5t-33.5 24.5q-18 10 -37.5 19
t-39.5 18q-15 4 -32.5 6t-37.5 2q-29 0 -55.5 -5t-51.5 -18q-49 -18 -86 -57q-16 -18 -29.5 -41t-23.5 -45zM295 690q6 10 6 19q0 4 -1 9t-5 11q0 2 -4 6l-6 6q-2 4 -5.5 7.5t-9.5 3.5q-4 2 -9 4t-9 2h-53v-154h16v58h37q4 0 9 1t9 3q11 4 15 8q2 4 6 8t4 8zM410 758h-95
v-154h95v19h-72v47h59v20h-59v45h72v23zM559 604l-47 66q2 2 5 2t5 4q8 4 10 10q3 2 5 5t4 7v13v10t-2 8q-4 8 -11 14q-4 9 -14 9q-2 2 -7 4t-9 2h-56v-154h23v64h22l41 -56q2 -4 7 -6q2 -2 4 -2h6h14zM664 631q0 4 1 8t1 8q0 12 -4.5 20.5t-12.5 14.5q-2 0 -3 2t-5 4h-1
t-5 2h-2t-2 4q-6 0 -8 2q-7 0 -9 1l-6 3q-8 2 -8 5q-6 4 -6 6v8v8q2 0 4 2t2 4l3 1t5 1q4 2 6 2h4l2.5 -1t4.5 -1q8 0 8 -4q2 -2 4 -2h4q8 0 14 4l4 2q0 2 -2 4l-4 4q-4 2 -6 4.5t-6 4.5q-2 0 -4 1t-6 5q-6 0 -7 1t-6 1q-4 0 -9 -1t-9 -1q-4 -4 -7 -6t-7 -2q-2 -5 -5 -8
t-6 -7q-2 -4 -3 -7t-1 -9v-9t4 -8q3 -4 6 -7t3 -5q4 -2 8 -5t8 -3q4 -2 7 -4t7 -4q2 -2 5.5 -2h5.5q6 -2 7 -2t3 -2q4 -2 4 -3t2 -6q2 -2 2 -5v-7v-3t-2 -5q-2 -4 -2 -5t-4 -3q-2 -4 -5 -5t-5 -3h-5.5h-5.5h-7h-5q-2 2 -5 3t-3 5l-2 2q-6 4 -12 4h-4.5t-4.5 -2l-6 -2
q0 -4 2 -4q0 -4 4 -6q0 -2 2 -5l2 -2h3q8 -8 17 -10t19 -2h9.5t9.5 2t9 4t7 6q6 2 9.5 5.5t5.5 9.5zM838 659q2 7 2 11v10q0 12 -2 20q0 7 -3.5 11t-5.5 10q-4 6 -12 14q-4 4 -8 6t-10 9q-2 0 -6.5 2t-10.5 6q-6 0 -10 1t-10 1q-4 0 -10.5 -1t-10.5 -1q-6 -4 -10 -6t-8 -2
q-4 -7 -8 -9t-8 -6q-5 -4 -8 -7t-5 -7q-4 -6 -5 -10t-3 -11q-2 -8 -2 -20q0 -8 2 -15.5t4 -15.5q2 -6 6 -12t11 -14q6 -5 12 -9t14 -4q12 -6 29 -6h10h10q11 4 17 8q14 6 18 11q6 8 12 18q2 4 5.5 9t3.5 9zM997 758h-20v-119q0 2 -1 5l-1 3l-74 105q-4 0 -8 6h-4h-4h-15
v-154h21v129v-4l2 -2v0v-4l88 -119h16v154zM1169 604l-67 154h-23l-65 -154h12q6 0 8 2l3 3t5 3l9 27h79l11 -27q2 -4 6 -6q0 -2 8 -2h14zM1270 623h-66v135h-22v-154h88v19zM1479 758h-21v-92v-11t-2 -8q-2 -8 -10 -12q-2 -2 -5 -4t-5 -6q-6 -2 -9.5 -2h-7.5q-10 0 -14 2
q-6 4 -10 6t-4 4q-2 2 -4.5 5t-6.5 7q0 4 -1 8t-1 11v92h-20v-92v-12t2 -7q0 -8 4 -14q4 -10 12 -15q2 -2 5 -4t8 -4q2 -2 6 -3t6 -3q6 0 9 -2t9 -2q4 0 7.5 2t9.5 2q4 2 7 3t7 3l12 8q4 5 5 8t3 7q3 2 6 6t3 8v19v92zM1597 631q7 8 7 16q0 12 -4.5 20.5t-12.5 14.5
q-6 4 -6 6h-5t-5 2h-3t-5 4h-2t-5 2q-2 0 -4 1l-6 3q-8 2 -8 5q-4 2 -5 4t-3 2q0 2 -1 3t-1 5t4 8l6 6q2 0 3 1t5 1q0 2 10 2l2.5 -1t4.5 -1q2 -2 8 -4q8 -2 10 -2q6 0 8 4l6 2l-4 4l-4 4q0 2 -3 4.5t-5 4.5q-4 0 -6 1t-6 5q-4 0 -7.5 1l-3.5 1q-6 0 -10 -1t-8 -1
q-4 -4 -8 -6t-6 -2q-4 -5 -6 -8t-7 -7q0 -4 -2 -7t-2 -9t2 -9t2 -8q5 -8 11 -12q4 -2 7 -5t5 -3q6 -2 9 -4t7 -4t6.5 -2h4.5q2 -2 5 -2t5 -2t5 -3t3 -6q2 -2 2 -5v-7v-3t-2 -5q-2 -6 -8 -8q-4 -4 -6 -5t-4 -3h-6h-5h-7h-5q-4 2 -10 8v2q-6 4 -12 4h-3.5t-5.5 -2l-6 -2
q2 -2 2 -3t2 -1q0 -2 1 -3t1 -3l1 -1t1 -4q4 -2 7 -2q6 -8 15 -10t19 -2h10.5t10.5 2l8 4t8 6q2 2 5 5.5t5 9.5zM1722 758h-94v-154h94v19h-73v47h61v20h-61v45h73v23zM1966 659v11v10v11v9q-4 11 -10 21q-4 6 -12 14q-2 4 -6.5 6t-8.5 9q-4 0 -9 2t-9 6q-6 0 -10.5 1
t-10.5 1t-11 -1t-9 -1q-12 -6 -21 -8q-4 -7 -7 -9t-7 -6l-7 -7l-7 -7q-2 -6 -4 -10t-2 -11q-5 -8 -5 -20q0 -8 2.5 -15.5t4.5 -15.5q6 -14 18 -26q4 -5 10 -9t15 -4q12 -6 30 -6h10.5h10.5q4 2 9 4t9 4q4 4 8.5 6.5t6.5 4.5q8 8 12 18q6 8 10 18zM2126 758h-23v-119
q0 2 -1 5t-3 3l-74 105l-1 1t-3 5h-5h-5h-16v-154h24v129v-4v-2v-2l2 -2l86 -119h19v154zM2251 623h-66v135h-22v-154h88v19zM2374 758h-19q-4 0 -8 -4q-8 -4 -8 -9l-35 -47l-2 -2h-2v-2v2l-2 2l-37 47q-2 5 -6 9t-10 4h-17l56 -76l2 -2q0 -2 2 -2v-2v-2q0 -2 2 -2v-2v-66
h22v66v2v4q2 0 2 4v2h2zM1188 864q-19 8 -38.5 19.5t-33.5 25.5h322q-17 -14 -35.5 -25.5t-38.5 -19.5q-21 -6 -43.5 -12t-44.5 -6q-25 0 -46.5 6t-41.5 12zM1141 936l315 317q29 -39 45.5 -79.5t16.5 -81.5q0 -23 -3.5 -44.5t-11.5 -41.5q-8 -19 -18 -36.5t-23 -33.5h-321z
M1094 928q-27 35 -45 73q-7 21 -11 43.5t-4 47.5q0 20 4 40.5t11 41.5q6 18 16 35.5t25 33.5h319zM1364 1315q20 -8 38.5 -20.5t33.5 -22.5h-324q37 28 76 43q39 18 88 18t88 -18zM78 350q-4 4 -5 8t-3 9q-2 6 -3 10t-1 10t4 16q2 5 3 10t5 7l3 9t7 7q0 2 5 5t7 5q6 5 9.5 6
t9.5 3q2 0 8 1t10 1q8 0 14.5 -1t14.5 -5q8 -2 13 -6.5t9 -8.5q-2 -2 -4 -2v-4h-2h-2h-4h-6q-4 2 -8 5t-8 3h-7.5h-9.5h-10h-8q-8 -4 -12.5 -7t-8.5 -5q-4 -6 -7 -10t-5 -8q-4 -7 -4 -13v-8q0 -8 2 -14t3 -9.5t1 -7.5q2 -2 5 -4t5 -6q4 -2 6 -5t7 -3q2 -2 6 -4t8 -2
q2 -2 6 -2h6h10.5t8.5 2q4 0 9 2t9 4v29h-12h-2l-2 2l-3 3l-3 3l-1 1t-1 3v1v3v0h38v-53l-5 -5t-5 -6q-6 -2 -12 -2q-6 -2 -14 -2h-15h-10h-8q-6 2 -9.5 4.5t-9.5 6.5q-2 0 -7 3t-5 7q-6 2 -7 6t-3 8zM240 438v-45h55v-14h-55v-47h67v-17h-84v140h84v-17h-67zM369 315v123
h-45v17h106v-17h-47v-123h-14zM532 438v-49h60v-12h-60v-62h-16v140h84v-17h-68zM641 455v-86q0 -4 2 -7.5t4 -5.5q2 -6 5 -9t5 -7q0 -2 3.5 -4t5.5 -4q6 -2 10 -2h8h7t5 2q6 2 9.5 4t7.5 4q0 4 3 7t5 9q4 4 4 13v86h14v-86q0 -7 -1 -11t-3 -10t-5 -10t-7 -8t-8 -7.5
t-8 -5.5q-13 -2 -23 -2q-12 0 -25 2q-2 2 -7 5.5t-9 7.5q-6 6 -10 18q-2 6 -4 10t-2 11v86h14zM784 455v-123h62v-17h-78v140h16zM877 455v-123h65v-17h-80v140h15zM1069 315l-61 140h8q4 0 8 -2q2 -2 3 -2t3 -5l43 -104v-4q2 -2 2 -6v6l1 2l1 2q6 14 12.5 26.5t12.5 24.5
q4 17 10 29l12 24q0 5 2 5t2 2q2 2 3.5 2h5.5h8q-8 -17 -15.5 -34.5t-17.5 -33.5q-6 -20 -13 -36.5t-16 -35.5h-14zM1171 438v-45h58v-14h-58v-47h68v-17h-84v140h84v-17h-68zM1341 381q-2 -2 -10 -4l47 -62h-10q-2 0 -5 1l-3 1q-2 2 -4 3.5t-4 5.5l-39 51h-25v-62h-14v140
h51h5t7 -2q9 -2 15 -9q2 -4 4 -7t4 -7q2 -2 2 -7v-5v-9t-2 -6q0 -4 -2 -8t-4 -6l-4 -4t-9 -4zM1325 389q4 0 6 4q2 0 4 1t4 1l3 6t4 5q0 2 1 4t1 8l-1 2t-1 6q-3 2 -4 3t-3 5q-2 0 -4 1t-4 3h-6h-37v-49h37zM1452 336q2 2 4 8q2 2 3 6t1 6q0 6 -2 11q-2 0 -3 3t-3 5t-8 4
q-4 0 -6 1l-6 3q-5 0 -9 2t-4 4q-10 0 -14 6q-4 0 -5 4t-3 7v14v9t2 7q0 6 8 10q4 5 6 6t8 3q4 0 6.5 1t8.5 1q2 0 5 -1t5 -1t4 -1l6 -3q2 0 4 -2.5t2 -4.5q4 -2 5 -4t3 -2l-4 -2q-2 -2 -8 -2h-6q-4 2 -4 4h-2h-2h-2h-3h-1h-2h-9q-8 0 -8 -2q-6 -6 -6 -8q-4 0 -4 -8
q0 -6 4 -6q0 -4 2 -6t5 -3.5l3 -1.5q4 -4 6.5 -4t8.5 -4h3t3 -2h4t4 -4h2h1h1q2 0 4 -1l2 -1q4 -4 6 -7t7 -5q2 -10 2 -19v-10t-7 -8q0 -6 -8 -12q-2 -2 -6 -4.5t-8 -4.5t-8 -2h-10q-11 0 -18 2t-13 9q-2 0 -4 2l-4 4q0 2 -1 4l-1 2l2 2l1 1t5 1h2q2 0 4 -1t4 -3q4 -2 6 -4
t6 -2q0 -2 4 -2h7q8 0 10 2q8 0 12 4zM1524 455v-140h-17v140h17zM1579 336q-12 8 -18 20q-5 15 -5 31v7v9q7 11 9 17q6 8 14 16q6 6 12 10q4 5 9.5 6t9.5 3q4 0 8 1t10 1q4 0 9 -1t12 -1q4 -2 8 -3t8 -6l5 -5t7 -5q4 -4 6.5 -7t6.5 -9q2 -6 6 -17q2 -4 3 -9t1 -7
q0 -8 -2 -15t-6 -16q-2 -6 -5.5 -11t-9.5 -9q-6 -6 -11 -9t-11 -8q-10 -4 -27 -4q-8 0 -15 1t-11 3q-17 5 -23 17zM1579 408q-4 -7 -6 -13t-2 -8q0 -4 1 -8t1 -6q2 -8 8 -17q0 -2 2 -4t4 -6l5 -5t10 -3q2 -2 5 -4t5 -2q4 -2 8 -2h8h7t7 2q3 0 7 2l8 4q2 0 5 3l5 5q2 4 4 6
l4 4q2 4 3 7.5t3 9.5q0 2 1 6t1 8q0 2 -1 8t-5 13q0 4 -4 8t-6 10q-4 2 -8 5t-10 7h-9.5h-11.5h-12h-10q-4 -4 -9.5 -7t-9.5 -5q-2 -6 -5 -10t-3 -8zM1741 315h-17v140h13h5t5 -4l72 -103q2 0 2 -4l2 -2v-2v115h16v-140h-14l-82 115v4h-2v4v-123zM1956 438v-49h57v-12h-57
v-62h-14v140h83v-17h-69zM2114 381q-9 -2 -13 -4l45 -62h-12q-4 0 -8 2q0 2 -1 3.5t-3 5.5l-39 51h-25v-62h-16v140h51h6t8 -2t7.5 -4.5t5.5 -4.5q2 -4 4 -7t6 -7q0 -2 1 -7l1 -5q0 -6 -1 -9t-1 -6l-4 -8t-2 -6zM2101 393q2 0 3 1t3 1q7 8 7 11q2 4 2 12q0 2 -2 8q0 2 -7 8
q-2 0 -3 1l-3 3h-8h-35v-49h35q4 0 8 4zM2281 336q-4 -6 -10 -9t-12 -8q-6 -2 -12 -3t-15 -1q-8 0 -15 1t-13 3q-13 5 -23 17q-4 4 -8 9t-6 11q-2 9 -5 16t-3 15q0 2 1 7t3 9q2 5 3 10t3 7q4 6 7 9t5 7q4 2 8 5t9 5q4 5 8 6t8 3q6 0 9 1t9 1q4 0 9.5 -1t9.5 -1l9 -3t7 -6
q4 -2 8 -5t6 -5q3 -4 6 -7t5 -9q6 -6 8 -17q2 -4 3 -9t1 -7q0 -8 -1 -15t-5 -16q-2 -6 -6 -11t-11 -9zM2232 330h7.5t9.5 2q2 0 5 2t5 4q2 0 6 3t8 5l3 6t3 4q2 4 3.5 7.5t1.5 9.5q2 2 2 6v8q0 2 -1 8t-1 13l-6 8t-5 10q-6 2 -11 5t-9 7h-10.5h-10.5h-11h-11q-6 -4 -9 -7
t-8 -5q-6 -6 -8 -10l-4 -8q-2 -7 -2 -13v-8v-14q0 -6 1 -9.5t5 -7.5q0 -2 3 -4t5 -6q2 -2 5.5 -5t5.5 -3q2 -2 5 -4t9 -2q2 -2 6 -2h8zM2460 453q2 2 3 2h3h12v-140h-14v115l-2 -2v0v-2q-4 -8 -6 -17.5t-7 -15.5q-4 -6 -7 -12l-7 -14q-2 -9 -4 -15l-4 -12q-4 -6 -7 -11
t-5 -14h-15q-10 13 -15 27t-11 27q-4 14 -11.5 28.5t-11.5 28.5v2l-4 2v-115h-16v140h14q6 0 8 -2l2 -2v-5l49 -108q0 -2 2 -2v-4q0 2 1 4t1 4q0 4 5 8l43 98q0 5 1 5t3 2zM74 262h157v-20v-4v-5q0 -4 -2 -6l-4 -4l-106 -145h2v2h4h2h104v-37h-165v12q0 11 2 13q0 2 4 8
q2 2 2 4t2 4t3 4l3 6l94 129h-102v39zM260 262h139v-39h-100v-49h80v-41h-80v-53h100v-37h-139v219zM571 223h-59v-180h-43v180h-63v39h165v-39zM672 262l94 -219h-25q-8 0 -16 4q-4 2 -5 6t-5 8l-13 29h-100l-10 -29q-2 -4 -3 -5t-3 -1q0 -4 -1 -5t-5 -3q-2 0 -4.5 -1
t-4.5 -1q0 -2 -2 -2h-4h-24l94 219h37zM684 129l-27 68q0 2 -1 3t-1 3q0 4 -2 6v-6q0 -2 -2 -3t-2 -3l-26 -68h61zM774 262h139v-39h-100v-55h82v-39h-82v-86h-39v219zM1133 207q4 -6 6 -12.5t6 -12.5q2 -8 2 -15v-13v-17t-2 -14q-4 -6 -6 -13.5t-6 -13.5q-5 -4 -9 -10
l-8 -12q-8 -4 -12 -9.5t-10 -7.5q-7 -6 -14 -8t-13 -4q-8 -2 -15.5 -3t-15.5 -1q-10 0 -21 3t-22 5q-12 6 -19 12.5t-18 12.5q-14 16 -20 35q-6 12 -8 22t-2 23q0 6 1 13t3 15q4 17 12 25q4 8 7 13t7 11q9 5 14 9t11 8t12 6t15 6q6 0 13 1t15 1t15.5 -1t15.5 -1q6 -4 13 -6
t14 -6q6 -4 10 -8t12 -9q4 -6 8 -11t9 -13zM1104 127q2 6 3 12t1 15q0 12 -4 24q-4 10 -8 15.5t-11 9.5q-4 4 -9 8t-11 6q-12 6 -29 6q-16 0 -28 -6q-4 -2 -9.5 -6t-11.5 -8t-9 -9.5t-7 -15.5q-4 -4 -4 -11v-13v-15t4 -12q4 -8 7 -14.5t9 -10.5t11.5 -8t9.5 -8q8 -2 14 -4
t14 -2t14.5 2t14.5 4q6 4 11 8t9 8q7 4 11 10.5t8 14.5zM1329 262h39v-219h-37l-102 147q-2 0 -2 1.5t-2 3.5q-2 4 -2 6q-4 0 -4 4l-1 1t-4 3v-166h-38v219h34q4 0 8.5 -1t4.5 -3l6 -3t4 -3q10 -16 21.5 -31.5t21.5 -34.5q12 -14 23.5 -29.5t25.5 -29.5q0 -4 1 -6t1 -6
q0 -2 1 -4t1 -5v156zM1389 262h165v-39h-65v-180h-39v180h-61v39zM1690 150q2 -5 5 -9t5 -8q0 -4 2 -9t2 -13q0 -13 -6 -27l-8 -12t-9 -11q-8 -4 -12 -8t-12 -6t-15.5 -4t-13.5 -2q-8 0 -15 2t-18 4q-6 2 -11 6t-13 13q-4 2 -6 5t-4 7q-5 2 -5 12l1.5 1t3.5 3q2 0 2 1t2 1
t4 1l2 1h10h3t3 -2q6 0 10 -2q5 -4 9 -6t6 -4q2 0 6 -2t10 -2q2 0 5 1t7 3q7 2 13 6l8 8q2 4 4 6t2 7q0 8 -6 12q-4 6 -8 6q-4 4 -7.5 5t-5.5 1q-6 2 -16 8q-4 0 -9 1t-9 6q-9 2 -13 5t-8 7q-6 4 -9 8t-5 8q-6 12 -6 25q0 18 6 26q2 7 6 11t10 8q4 4 9.5 6t13.5 6q4 0 10 1
t14 1q4 0 8.5 -1t10.5 -1q4 -2 7 -4t9 -4q2 -2 6 -5t8 -7q3 -2 6 -5.5t5 -7.5l-8 -4l-6 -4t-3 -4h-8h-4h-4h-2q-6 0 -6 2l-8 4q-3 0 -4 1l-1 1h-6h-12q-4 0 -5 -1t-5 -3q-2 -2 -4 -8q-2 -2 -2 -8t2 -6q2 -2 3 -4.5t1 -6.5q4 0 7 -1t5 -1q6 -2 11 -4t7 -4l11 -2q4 -4 9 -5
t11 -7q10 -2 17 -12zM1755 80q6 0 6 -6q2 0 2 -3v-5q0 -7 -2 -11q0 -4 -6 -8q-4 0 -6 -4q-2 0 -4 -1t-6 -1q-2 0 -4 1t-4 1q-2 2 -4.5 3t-4.5 1q-2 2 -3 4t-3 4q-2 4 -2 11v5t2 3q2 4 3 5t3 1q7 6 9 6q2 2 4 3t4 1q4 0 6 -1t4 -3q2 0 6 -6zM1839 203q-8 -8 -16 -25
q-2 -4 -4 -11t-2 -13q0 -9 2 -15l4 -12q4 -8 7 -14.5t9 -10.5q4 -4 9 -8t14 -8q8 -2 14 -4t14 -2q6 0 10.5 2t10.5 2q4 2 9 5t9 7q4 0 8 2h7h6t6 -2q6 -2 10 -6l6 -10q-6 -8 -16 -14q-6 -5 -10 -8t-11 -5q-6 -4 -11 -5t-11 -3t-11.5 -3t-11.5 -1q-14 0 -24.5 3t-20.5 5
q-20 10 -35 25q-16 16 -24 35q-2 12 -5 22t-3 23q0 6 1 13t3 15q2 6 4 12.5t6 12.5q6 8 9 13t9 11q7 5 12 9t13 8q4 4 10 6t17 6q4 0 12 1t16 1h11.5t11.5 -2t11 -4t11 -4q7 -2 11 -5t10 -7q10 -9 16 -17l-6 -8l-5 -5t-5 -3h-7h-5h-8t-7 2q-4 4 -9 7t-9 5q-6 2 -10.5 2
h-10.5q-16 0 -28 -6q-9 -2 -14 -6t-9 -8zM2195 207q3 -6 6 -12.5t5 -12.5q2 -8 2 -15v-13v-17t-2 -14t-5 -13.5t-6 -13.5q-8 -10 -16 -22q-8 -4 -14 -9.5t-11 -7.5q-6 -6 -13 -8t-15 -4q-6 -2 -13.5 -3t-15.5 -1q-20 0 -43 8q-8 6 -17 12.5t-16 12.5q-8 8 -14 16t-10 19
q-4 12 -6 22t-2 23q0 6 1 13t1 15q2 6 6 12.5t6 12.5q4 8 8 13t10 11q4 5 10.5 9t12.5 8q4 4 11 6t13 6q9 0 16 1t13 1q8 0 15.5 -1t13.5 -1q8 -4 15 -6t13 -6q5 -4 11 -8t14 -9q2 -6 8 -11t8 -13zM2165 127q4 10 4 27q0 6 -1 13t-3 11q-4 10 -7.5 15.5t-7.5 9.5
q-10 10 -24 14q-6 4 -13.5 5t-15.5 1q-14 0 -26 -6q-7 -2 -12 -6t-11 -8q-4 -4 -8 -9.5t-8 -15.5q-2 -4 -3 -11t-1 -13q0 -9 1 -15t3 -12q8 -16 16 -25q6 -4 11 -8t12 -8q6 -2 14 -4t12 -2q8 0 15.5 2t13.5 4q6 4 13 8t11 8q9 9 15 25zM2433 260l1 1t5 1h39v-219h-39v160
q0 -2 -1 -4l-3 -6v-7t-2 -4q-6 -18 -14.5 -35.5t-14.5 -33.5q-6 -17 -13 -34.5t-13 -35.5h-39l-55 139q-3 2 -3 11q-2 4 -3 5t-1 3v-158h-41v219h39q4 0 6.5 -1l2.5 -1q4 -2 5 -2t3 -2l6 -4l4 -4t2 -4q4 -17 11 -32t14 -34q6 -16 13 -32.5t13 -32.5v-2v-5v-4q4 0 4 -4v4v4
q0 3 1 5l1 2l9 16l45 115q0 2 1 4t1 4q2 2 5 3l3 1q2 2 4 2t4 2z" />
    <glyph glyph-name="six" unicode="6" horiz-adv-x="2531" 
d="M1929 721q4 -4 8.5 -9t6.5 -10q0 -6 1 -11t1 -11q0 -12 -2 -23q-2 -6 -6.5 -10t-8.5 -6q-4 -4 -8 -7t-8 -7q-12 -4 -23 -4q-6 0 -12 1t-10 3l-10.5 7t-8.5 7q-4 2 -7 6t-3 10q-4 7 -5 12t-1 11q0 10 6 22q0 5 3 10t7 9t8.5 7t10.5 5q8 4 22 4q6 0 10.5 -1t12.5 -3
q4 -2 8 -5t8 -7zM518 702q0 -2 -4 -8q-2 0 -3 -2t-5 -2q-2 -2 -8 -2h-33v47h33q4 0 8 -2q4 0 5 -1l3 -3l4 -8q2 -2 2 -10q0 -6 -2 -9zM801 721q4 -4 8 -9t6 -10q2 -6 3 -11t1 -11t-1 -11t-3 -12q-2 -6 -6 -10t-8 -6q-2 -4 -6 -7t-11 -7q-4 -2 -10 -3t-12 -1q-12 0 -23 4
q-4 4 -9 7t-9 7l-6 6t-6 10q-2 7 -4.5 12t-2.5 11q0 10 7 22q2 5 6 10t6 9q4 4 9 7t9 5q6 2 12.5 3t10.5 1q12 0 22 -4q7 -2 11 -5t6 -7zM1090 733q0 -4 1 -6t1 -4l28 -64h-59l29 64v4v6zM270 729q2 -2 3 -5t3 -5q3 -4 3 -10v-5.5t-3 -5.5q-2 -2 -3 -5t-3 -3l-8 -8h-10h-37
v53h37q6 0 10 -2q2 0 5 -2zM2478 1092v-586h-2404v586h911q0 30 5 58t18 54q12 27 27.5 51.5t37.5 42.5q37 39 90 62q29 12 56.5 17t56.5 5q33 0 61.5 -6t53.5 -18q28 -12 51.5 -28.5t42.5 -35.5q37 -37 61 -94q21 -53 21 -108h911zM1030 1192q-22 -47 -22 -100
q0 -58 22 -105q10 -22 24.5 -44.5t30.5 -41.5q19 -18 40.5 -32.5t45.5 -24.5q48 -23 105 -23q29 0 54.5 4t49.5 15q25 12 45.5 25.5t38.5 33.5q19 19 33 40.5t27 43.5q22 51 22 109q0 22 -4 45.5t-14 44.5q-12 41 -41 75q-14 17 -30.5 31.5t-33.5 24.5q-18 10 -37.5 19
t-39.5 18q-15 4 -32.5 6t-37.5 2q-29 0 -55.5 -5t-51.5 -18q-49 -18 -86 -57q-16 -18 -29.5 -41t-23.5 -45zM295 690q6 10 6 19q0 4 -1 9t-5 11q0 2 -4 6l-6 6q-2 4 -5.5 7.5t-9.5 3.5q-4 2 -9 4t-9 2h-53v-154h16v58h37q4 0 9 1t9 3q11 4 15 8q2 4 6 8t4 8zM410 758h-95
v-154h95v19h-72v47h59v20h-59v45h72v23zM559 604l-47 66q2 2 5 2t5 4q8 4 10 10q3 2 5 5t4 7v13v10t-2 8q-4 8 -11 14q-4 9 -14 9q-2 2 -7 4t-9 2h-56v-154h23v64h22l41 -56q2 -4 7 -6q2 -2 4 -2h6h14zM664 631q0 4 1 8t1 8q0 12 -4.5 20.5t-12.5 14.5q-2 0 -3 2t-5 4h-1
t-5 2h-2t-2 4q-6 0 -8 2q-7 0 -9 1l-6 3q-8 2 -8 5q-6 4 -6 6v8v8q2 0 4 2t2 4l3 1t5 1q4 2 6 2h4l2.5 -1t4.5 -1q8 0 8 -4q2 -2 4 -2h4q8 0 14 4l4 2q0 2 -2 4l-4 4q-4 2 -6 4.5t-6 4.5q-2 0 -4 1t-6 5q-6 0 -7 1t-6 1q-4 0 -9 -1t-9 -1q-4 -4 -7 -6t-7 -2q-2 -5 -5 -8
t-6 -7q-2 -4 -3 -7t-1 -9v-9t4 -8q3 -4 6 -7t3 -5q4 -2 8 -5t8 -3q4 -2 7 -4t7 -4q2 -2 5.5 -2h5.5q6 -2 7 -2t3 -2q4 -2 4 -3t2 -6q2 -2 2 -5v-7v-3t-2 -5q-2 -4 -2 -5t-4 -3q-2 -4 -5 -5t-5 -3h-5.5h-5.5h-7h-5q-2 2 -5 3t-3 5l-2 2q-6 4 -12 4h-4.5t-4.5 -2l-6 -2
q0 -4 2 -4q0 -4 4 -6q0 -2 2 -5l2 -2h3q8 -8 17 -10t19 -2h9.5t9.5 2t9 4t7 6q6 2 9.5 5.5t5.5 9.5zM838 659q2 7 2 11v10q0 12 -2 20q0 7 -3.5 11t-5.5 10q-4 6 -12 14q-4 4 -8 6t-10 9q-2 0 -6.5 2t-10.5 6q-6 0 -10 1t-10 1q-4 0 -10.5 -1t-10.5 -1q-6 -4 -10 -6t-8 -2
q-4 -7 -8 -9t-8 -6q-5 -4 -8 -7t-5 -7q-4 -6 -5 -10t-3 -11q-2 -8 -2 -20q0 -8 2 -15.5t4 -15.5q2 -6 6 -12t11 -14q6 -5 12 -9t14 -4q12 -6 29 -6h10h10q11 4 17 8q14 6 18 11q6 8 12 18q2 4 5.5 9t3.5 9zM997 758h-20v-119q0 2 -1 5l-1 3l-74 105q-4 0 -8 6h-4h-4h-15
v-154h21v129v-4l2 -2v0v-4l88 -119h16v154zM1169 604l-67 154h-23l-65 -154h12q6 0 8 2l3 3t5 3l9 27h79l11 -27q2 -4 6 -6q0 -2 8 -2h14zM1270 623h-66v135h-22v-154h88v19zM1479 758h-21v-92v-11t-2 -8q-2 -8 -10 -12q-2 -2 -5 -4t-5 -6q-6 -2 -9.5 -2h-7.5q-10 0 -14 2
q-6 4 -10 6t-4 4q-2 2 -4.5 5t-6.5 7q0 4 -1 8t-1 11v92h-20v-92v-12t2 -7q0 -8 4 -14q4 -10 12 -15q2 -2 5 -4t8 -4q2 -2 6 -3t6 -3q6 0 9 -2t9 -2q4 0 7.5 2t9.5 2q4 2 7 3t7 3l12 8q4 5 5 8t3 7q3 2 6 6t3 8v19v92zM1597 631q7 8 7 16q0 12 -4.5 20.5t-12.5 14.5
q-6 4 -6 6h-5t-5 2h-3t-5 4h-2t-5 2q-2 0 -4 1l-6 3q-8 2 -8 5q-4 2 -5 4t-3 2q0 2 -1 3t-1 5t4 8l6 6q2 0 3 1t5 1q0 2 10 2l2.5 -1t4.5 -1q2 -2 8 -4q8 -2 10 -2q6 0 8 4l6 2l-4 4l-4 4q0 2 -3 4.5t-5 4.5q-4 0 -6 1t-6 5q-4 0 -7.5 1l-3.5 1q-6 0 -10 -1t-8 -1
q-4 -4 -8 -6t-6 -2q-4 -5 -6 -8t-7 -7q0 -4 -2 -7t-2 -9t2 -9t2 -8q5 -8 11 -12q4 -2 7 -5t5 -3q6 -2 9 -4t7 -4t6.5 -2h4.5q2 -2 5 -2t5 -2t5 -3t3 -6q2 -2 2 -5v-7v-3t-2 -5q-2 -6 -8 -8q-4 -4 -6 -5t-4 -3h-6h-5h-7h-5q-4 2 -10 8v2q-6 4 -12 4h-3.5t-5.5 -2l-6 -2
q2 -2 2 -3t2 -1q0 -2 1 -3t1 -3l1 -1t1 -4q4 -2 7 -2q6 -8 15 -10t19 -2h10.5t10.5 2l8 4t8 6q2 2 5 5.5t5 9.5zM1722 758h-94v-154h94v19h-73v47h61v20h-61v45h73v23zM1966 659v11v10v11v9q-4 11 -10 21q-4 6 -12 14q-2 4 -6.5 6t-8.5 9q-4 0 -9 2t-9 6q-6 0 -10.5 1
t-10.5 1t-11 -1t-9 -1q-12 -6 -21 -8q-4 -7 -7 -9t-7 -6l-7 -7l-7 -7q-2 -6 -4 -10t-2 -11q-5 -8 -5 -20q0 -8 2.5 -15.5t4.5 -15.5q6 -14 18 -26q4 -5 10 -9t15 -4q12 -6 30 -6h10.5h10.5q4 2 9 4t9 4q4 4 8.5 6.5t6.5 4.5q8 8 12 18q6 8 10 18zM2126 758h-23v-119
q0 2 -1 5t-3 3l-74 105l-1 1t-3 5h-5h-5h-16v-154h24v129v-4v-2v-2l2 -2l86 -119h19v154zM2251 623h-66v135h-22v-154h88v19zM2374 758h-19q-4 0 -8 -4q-8 -4 -8 -9l-35 -47l-2 -2h-2v-2v2l-2 2l-37 47q-2 5 -6 9t-10 4h-17l56 -76l2 -2q0 -2 2 -2v-2v-2q0 -2 2 -2v-2v-66
h22v66v2v4q2 0 2 4v2h2zM1188 864q-19 8 -38.5 19.5t-33.5 25.5h322q-17 -14 -35.5 -25.5t-38.5 -19.5q-21 -6 -43.5 -12t-44.5 -6q-25 0 -46.5 6t-41.5 12zM1141 936l315 317q29 -39 45.5 -79.5t16.5 -81.5q0 -23 -3.5 -44.5t-11.5 -41.5q-8 -19 -18 -36.5t-23 -33.5h-321z
M1094 928q-27 35 -45 73q-7 21 -11 43.5t-4 47.5q0 20 4 40.5t11 41.5q6 18 16 35.5t25 33.5h319zM1364 1315q20 -8 38.5 -20.5t33.5 -22.5h-324q37 28 76 43q39 18 88 18t88 -18zM78 350q-4 4 -5 8t-3 9q-2 6 -3 10t-1 10t4 16q2 5 3 10t5 7l3 9t7 7q0 2 5 5t7 5q6 5 9.5 6
t9.5 3q2 0 8 1t10 1q8 0 14.5 -1t14.5 -5q8 -2 13 -6.5t9 -8.5q-2 -2 -4 -2v-4h-2h-2h-4h-6q-4 2 -8 5t-8 3h-7.5h-9.5h-10h-8q-8 -4 -12.5 -7t-8.5 -5q-4 -6 -7 -10t-5 -8q-4 -7 -4 -13v-8q0 -8 2 -14t3 -9.5t1 -7.5q2 -2 5 -4t5 -6q4 -2 6 -5t7 -3q2 -2 6 -4t8 -2
q2 -2 6 -2h6h10.5t8.5 2q4 0 9 2t9 4v29h-12h-2l-2 2l-3 3l-3 3l-1 1t-1 3v1v3v0h38v-53l-5 -5t-5 -6q-6 -2 -12 -2q-6 -2 -14 -2h-15h-10h-8q-6 2 -9.5 4.5t-9.5 6.5q-2 0 -7 3t-5 7q-6 2 -7 6t-3 8zM240 438v-45h55v-14h-55v-47h67v-17h-84v140h84v-17h-67zM369 315v123
h-45v17h106v-17h-47v-123h-14zM532 438v-49h60v-12h-60v-62h-16v140h84v-17h-68zM641 455v-86q0 -4 2 -7.5t4 -5.5q2 -6 5 -9t5 -7q0 -2 3.5 -4t5.5 -4q6 -2 10 -2h8h7t5 2q6 2 9.5 4t7.5 4q0 4 3 7t5 9q4 4 4 13v86h14v-86q0 -7 -1 -11t-3 -10t-5 -10t-7 -8t-8 -7.5
t-8 -5.5q-13 -2 -23 -2q-12 0 -25 2q-2 2 -7 5.5t-9 7.5q-6 6 -10 18q-2 6 -4 10t-2 11v86h14zM784 455v-123h62v-17h-78v140h16zM877 455v-123h65v-17h-80v140h15zM1069 315l-61 140h8q4 0 8 -2q2 -2 3 -2t3 -5l43 -104v-4q2 -2 2 -6v6l1 2l1 2q6 14 12.5 26.5t12.5 24.5
q4 17 10 29l12 24q0 5 2 5t2 2q2 2 3.5 2h5.5h8q-8 -17 -15.5 -34.5t-17.5 -33.5q-6 -20 -13 -36.5t-16 -35.5h-14zM1171 438v-45h58v-14h-58v-47h68v-17h-84v140h84v-17h-68zM1341 381q-2 -2 -10 -4l47 -62h-10q-2 0 -5 1l-3 1q-2 2 -4 3.5t-4 5.5l-39 51h-25v-62h-14v140
h51h5t7 -2q9 -2 15 -9q2 -4 4 -7t4 -7q2 -2 2 -7v-5v-9t-2 -6q0 -4 -2 -8t-4 -6l-4 -4t-9 -4zM1325 389q4 0 6 4q2 0 4 1t4 1l3 6t4 5q0 2 1 4t1 8l-1 2t-1 6q-3 2 -4 3t-3 5q-2 0 -4 1t-4 3h-6h-37v-49h37zM1452 336q2 2 4 8q2 2 3 6t1 6q0 6 -2 11q-2 0 -3 3t-3 5t-8 4
q-4 0 -6 1l-6 3q-5 0 -9 2t-4 4q-10 0 -14 6q-4 0 -5 4t-3 7v14v9t2 7q0 6 8 10q4 5 6 6t8 3q4 0 6.5 1t8.5 1q2 0 5 -1t5 -1t4 -1l6 -3q2 0 4 -2.5t2 -4.5q4 -2 5 -4t3 -2l-4 -2q-2 -2 -8 -2h-6q-4 2 -4 4h-2h-2h-2h-3h-1h-2h-9q-8 0 -8 -2q-6 -6 -6 -8q-4 0 -4 -8
q0 -6 4 -6q0 -4 2 -6t5 -3.5l3 -1.5q4 -4 6.5 -4t8.5 -4h3t3 -2h4t4 -4h2h1h1q2 0 4 -1l2 -1q4 -4 6 -7t7 -5q2 -10 2 -19v-10t-7 -8q0 -6 -8 -12q-2 -2 -6 -4.5t-8 -4.5t-8 -2h-10q-11 0 -18 2t-13 9q-2 0 -4 2l-4 4q0 2 -1 4l-1 2l2 2l1 1t5 1h2q2 0 4 -1t4 -3q4 -2 6 -4
t6 -2q0 -2 4 -2h7q8 0 10 2q8 0 12 4zM1524 455v-140h-17v140h17zM1579 336q-12 8 -18 20q-5 15 -5 31v7v9q7 11 9 17q6 8 14 16q6 6 12 10q4 5 9.5 6t9.5 3q4 0 8 1t10 1q4 0 9 -1t12 -1q4 -2 8 -3t8 -6l5 -5t7 -5q4 -4 6.5 -7t6.5 -9q2 -6 6 -17q2 -4 3 -9t1 -7
q0 -8 -2 -15t-6 -16q-2 -6 -5.5 -11t-9.5 -9q-6 -6 -11 -9t-11 -8q-10 -4 -27 -4q-8 0 -15 1t-11 3q-17 5 -23 17zM1579 408q-4 -7 -6 -13t-2 -8q0 -4 1 -8t1 -6q2 -8 8 -17q0 -2 2 -4t4 -6l5 -5t10 -3q2 -2 5 -4t5 -2q4 -2 8 -2h8h7t7 2q3 0 7 2l8 4q2 0 5 3l5 5q2 4 4 6
l4 4q2 4 3 7.5t3 9.5q0 2 1 6t1 8q0 2 -1 8t-5 13q0 4 -4 8t-6 10q-4 2 -8 5t-10 7h-9.5h-11.5h-12h-10q-4 -4 -9.5 -7t-9.5 -5q-2 -6 -5 -10t-3 -8zM1741 315h-17v140h13h5t5 -4l72 -103q2 0 2 -4l2 -2v-2v115h16v-140h-14l-82 115v4h-2v4v-123zM1956 438v-49h57v-12h-57
v-62h-14v140h83v-17h-69zM2114 381q-9 -2 -13 -4l45 -62h-12q-4 0 -8 2q0 2 -1 3.5t-3 5.5l-39 51h-25v-62h-16v140h51h6t8 -2t7.5 -4.5t5.5 -4.5q2 -4 4 -7t6 -7q0 -2 1 -7l1 -5q0 -6 -1 -9t-1 -6l-4 -8t-2 -6zM2101 393q2 0 3 1t3 1q7 8 7 11q2 4 2 12q0 2 -2 8q0 2 -7 8
q-2 0 -3 1l-3 3h-8h-35v-49h35q4 0 8 4zM2281 336q-4 -6 -10 -9t-12 -8q-6 -2 -12 -3t-15 -1q-8 0 -15 1t-13 3q-13 5 -23 17q-4 4 -8 9t-6 11q-2 9 -5 16t-3 15q0 2 1 7t3 9q2 5 3 10t3 7q4 6 7 9t5 7q4 2 8 5t9 5q4 5 8 6t8 3q6 0 9 1t9 1q4 0 9.5 -1t9.5 -1l9 -3t7 -6
q4 -2 8 -5t6 -5q3 -4 6 -7t5 -9q6 -6 8 -17q2 -4 3 -9t1 -7q0 -8 -1 -15t-5 -16q-2 -6 -6 -11t-11 -9zM2232 330h7.5t9.5 2q2 0 5 2t5 4q2 0 6 3t8 5l3 6t3 4q2 4 3.5 7.5t1.5 9.5q2 2 2 6v8q0 2 -1 8t-1 13l-6 8t-5 10q-6 2 -11 5t-9 7h-10.5h-10.5h-11h-11q-6 -4 -9 -7
t-8 -5q-6 -6 -8 -10l-4 -8q-2 -7 -2 -13v-8v-14q0 -6 1 -9.5t5 -7.5q0 -2 3 -4t5 -6q2 -2 5.5 -5t5.5 -3q2 -2 5 -4t9 -2q2 -2 6 -2h8zM2460 453q2 2 3 2h3h12v-140h-14v115l-2 -2v0v-2q-4 -8 -6 -17.5t-7 -15.5q-4 -6 -7 -12l-7 -14q-2 -9 -4 -15l-4 -12q-4 -6 -7 -11
t-5 -14h-15q-10 13 -15 27t-11 27q-4 14 -11.5 28.5t-11.5 28.5v2l-4 2v-115h-16v140h14q6 0 8 -2l2 -2v-5l49 -108q0 -2 2 -2v-4q0 2 1 4t1 4q0 4 5 8l43 98q0 5 1 5t3 2zM74 262h157v-20v-4v-5q0 -4 -2 -6l-4 -4l-106 -145h2v2h4h2h104v-37h-165v12q0 11 2 13q0 2 4 8
q2 2 2 4t2 4t3 4l3 6l94 129h-102v39zM260 262h139v-39h-100v-49h80v-41h-80v-53h100v-37h-139v219zM571 223h-59v-180h-43v180h-63v39h165v-39zM672 262l94 -219h-25q-8 0 -16 4q-4 2 -5 6t-5 8l-13 29h-100l-10 -29q-2 -4 -3 -5t-3 -1q0 -4 -1 -5t-5 -3q-2 0 -4.5 -1
t-4.5 -1q0 -2 -2 -2h-4h-24l94 219h37zM684 129l-27 68q0 2 -1 3t-1 3q0 4 -2 6v-6q0 -2 -2 -3t-2 -3l-26 -68h61zM774 262h139v-39h-100v-55h82v-39h-82v-86h-39v219zM1133 207q4 -6 6 -12.5t6 -12.5q2 -8 2 -15v-13v-17t-2 -14q-4 -6 -6 -13.5t-6 -13.5q-5 -4 -9 -10
l-8 -12q-8 -4 -12 -9.5t-10 -7.5q-7 -6 -14 -8t-13 -4q-8 -2 -15.5 -3t-15.5 -1q-10 0 -21 3t-22 5q-12 6 -19 12.5t-18 12.5q-14 16 -20 35q-6 12 -8 22t-2 23q0 6 1 13t3 15q4 17 12 25q4 8 7 13t7 11q9 5 14 9t11 8t12 6t15 6q6 0 13 1t15 1t15.5 -1t15.5 -1q6 -4 13 -6
t14 -6q6 -4 10 -8t12 -9q4 -6 8 -11t9 -13zM1104 127q2 6 3 12t1 15q0 12 -4 24q-4 10 -8 15.5t-11 9.5q-4 4 -9 8t-11 6q-12 6 -29 6q-16 0 -28 -6q-4 -2 -9.5 -6t-11.5 -8t-9 -9.5t-7 -15.5q-4 -4 -4 -11v-13v-15t4 -12q4 -8 7 -14.5t9 -10.5t11.5 -8t9.5 -8q8 -2 14 -4
t14 -2t14.5 2t14.5 4q6 4 11 8t9 8q7 4 11 10.5t8 14.5zM1329 262h39v-219h-37l-102 147q-2 0 -2 1.5t-2 3.5q-2 4 -2 6q-4 0 -4 4l-1 1t-4 3v-166h-38v219h34q4 0 8.5 -1t4.5 -3l6 -3t4 -3q10 -16 21.5 -31.5t21.5 -34.5q12 -14 23.5 -29.5t25.5 -29.5q0 -4 1 -6t1 -6
q0 -2 1 -4t1 -5v156zM1389 262h165v-39h-65v-180h-39v180h-61v39zM1690 150q2 -5 5 -9t5 -8q0 -4 2 -9t2 -13q0 -13 -6 -27l-8 -12t-9 -11q-8 -4 -12 -8t-12 -6t-15.5 -4t-13.5 -2q-8 0 -15 2t-18 4q-6 2 -11 6t-13 13q-4 2 -6 5t-4 7q-5 2 -5 12l1.5 1t3.5 3q2 0 2 1t2 1
t4 1l2 1h10h3t3 -2q6 0 10 -2q5 -4 9 -6t6 -4q2 0 6 -2t10 -2q2 0 5 1t7 3q7 2 13 6l8 8q2 4 4 6t2 7q0 8 -6 12q-4 6 -8 6q-4 4 -7.5 5t-5.5 1q-6 2 -16 8q-4 0 -9 1t-9 6q-9 2 -13 5t-8 7q-6 4 -9 8t-5 8q-6 12 -6 25q0 18 6 26q2 7 6 11t10 8q4 4 9.5 6t13.5 6q4 0 10 1
t14 1q4 0 8.5 -1t10.5 -1q4 -2 7 -4t9 -4q2 -2 6 -5t8 -7q3 -2 6 -5.5t5 -7.5l-8 -4l-6 -4t-3 -4h-8h-4h-4h-2q-6 0 -6 2l-8 4q-3 0 -4 1l-1 1h-6h-12q-4 0 -5 -1t-5 -3q-2 -2 -4 -8q-2 -2 -2 -8t2 -6q2 -2 3 -4.5t1 -6.5q4 0 7 -1t5 -1q6 -2 11 -4t7 -4l11 -2q4 -4 9 -5
t11 -7q10 -2 17 -12zM1755 80q6 0 6 -6q2 0 2 -3v-5q0 -7 -2 -11q0 -4 -6 -8q-4 0 -6 -4q-2 0 -4 -1t-6 -1q-2 0 -4 1t-4 1q-2 2 -4.5 3t-4.5 1q-2 2 -3 4t-3 4q-2 4 -2 11v5t2 3q2 4 3 5t3 1q7 6 9 6q2 2 4 3t4 1q4 0 6 -1t4 -3q2 0 6 -6zM1839 203q-8 -8 -16 -25
q-2 -4 -4 -11t-2 -13q0 -9 2 -15l4 -12q4 -8 7 -14.5t9 -10.5q4 -4 9 -8t14 -8q8 -2 14 -4t14 -2q6 0 10.5 2t10.5 2q4 2 9 5t9 7q4 0 8 2h7h6t6 -2q6 -2 10 -6l6 -10q-6 -8 -16 -14q-6 -5 -10 -8t-11 -5q-6 -4 -11 -5t-11 -3t-11.5 -3t-11.5 -1q-14 0 -24.5 3t-20.5 5
q-20 10 -35 25q-16 16 -24 35q-2 12 -5 22t-3 23q0 6 1 13t3 15q2 6 4 12.5t6 12.5q6 8 9 13t9 11q7 5 12 9t13 8q4 4 10 6t17 6q4 0 12 1t16 1h11.5t11.5 -2t11 -4t11 -4q7 -2 11 -5t10 -7q10 -9 16 -17l-6 -8l-5 -5t-5 -3h-7h-5h-8t-7 2q-4 4 -9 7t-9 5q-6 2 -10.5 2
h-10.5q-16 0 -28 -6q-9 -2 -14 -6t-9 -8zM2195 207q3 -6 6 -12.5t5 -12.5q2 -8 2 -15v-13v-17t-2 -14t-5 -13.5t-6 -13.5q-8 -10 -16 -22q-8 -4 -14 -9.5t-11 -7.5q-6 -6 -13 -8t-15 -4q-6 -2 -13.5 -3t-15.5 -1q-20 0 -43 8q-8 6 -17 12.5t-16 12.5q-8 8 -14 16t-10 19
q-4 12 -6 22t-2 23q0 6 1 13t1 15q2 6 6 12.5t6 12.5q4 8 8 13t10 11q4 5 10.5 9t12.5 8q4 4 11 6t13 6q9 0 16 1t13 1q8 0 15.5 -1t13.5 -1q8 -4 15 -6t13 -6q5 -4 11 -8t14 -9q2 -6 8 -11t8 -13zM2165 127q4 10 4 27q0 6 -1 13t-3 11q-4 10 -7.5 15.5t-7.5 9.5
q-10 10 -24 14q-6 4 -13.5 5t-15.5 1q-14 0 -26 -6q-7 -2 -12 -6t-11 -8q-4 -4 -8 -9.5t-8 -15.5q-2 -4 -3 -11t-1 -13q0 -9 1 -15t3 -12q8 -16 16 -25q6 -4 11 -8t12 -8q6 -2 14 -4t12 -2q8 0 15.5 2t13.5 4q6 4 13 8t11 8q9 9 15 25zM2433 260l1 1t5 1h39v-219h-39v160
q0 -2 -1 -4l-3 -6v-7t-2 -4q-6 -18 -14.5 -35.5t-14.5 -33.5q-6 -17 -13 -34.5t-13 -35.5h-39l-55 139q-3 2 -3 11q-2 4 -3 5t-1 3v-158h-41v219h39q4 0 6.5 -1l2.5 -1q4 -2 5 -2t3 -2l6 -4l4 -4t2 -4q4 -17 11 -32t14 -34q6 -16 13 -32.5t13 -32.5v-2v-5v-4q4 0 4 -4v4v4
q0 3 1 5l1 2l9 16l45 115q0 2 1 4t1 4q2 2 5 3l3 1q2 2 4 2t4 2z" />
    <glyph glyph-name="seven" unicode="7" horiz-adv-x="2531" 
d="M1929 721q4 -4 8.5 -9t6.5 -10q0 -6 1 -11t1 -11q0 -12 -2 -23q-2 -6 -6.5 -10t-8.5 -6q-4 -4 -8 -7t-8 -7q-12 -4 -23 -4q-6 0 -12 1t-10 3l-10.5 7t-8.5 7q-4 2 -7 6t-3 10q-4 7 -5 12t-1 11q0 10 6 22q0 5 3 10t7 9t8.5 7t10.5 5q8 4 22 4q6 0 10.5 -1t12.5 -3
q4 -2 8 -5t8 -7zM518 702q0 -2 -4 -8q-2 0 -3 -2t-5 -2q-2 -2 -8 -2h-33v47h33q4 0 8 -2q4 0 5 -1l3 -3l4 -8q2 -2 2 -10q0 -6 -2 -9zM801 721q4 -4 8 -9t6 -10q2 -6 3 -11t1 -11t-1 -11t-3 -12q-2 -6 -6 -10t-8 -6q-2 -4 -6 -7t-11 -7q-4 -2 -10 -3t-12 -1q-12 0 -23 4
q-4 4 -9 7t-9 7l-6 6t-6 10q-2 7 -4.5 12t-2.5 11q0 10 7 22q2 5 6 10t6 9q4 4 9 7t9 5q6 2 12.5 3t10.5 1q12 0 22 -4q7 -2 11 -5t6 -7zM1090 733q0 -4 1 -6t1 -4l28 -64h-59l29 64v4v6zM270 729q2 -2 3 -5t3 -5q3 -4 3 -10v-5.5t-3 -5.5q-2 -2 -3 -5t-3 -3l-8 -8h-10h-37
v53h37q6 0 10 -2q2 0 5 -2zM2478 1092v-586h-2404v586h911q0 30 5 58t18 54q12 27 27.5 51.5t37.5 42.5q37 39 90 62q29 12 56.5 17t56.5 5q33 0 61.5 -6t53.5 -18q28 -12 51.5 -28.5t42.5 -35.5q37 -37 61 -94q21 -53 21 -108h911zM1030 1192q-22 -47 -22 -100
q0 -58 22 -105q10 -22 24.5 -44.5t30.5 -41.5q19 -18 40.5 -32.5t45.5 -24.5q48 -23 105 -23q29 0 54.5 4t49.5 15q25 12 45.5 25.5t38.5 33.5q19 19 33 40.5t27 43.5q22 51 22 109q0 22 -4 45.5t-14 44.5q-12 41 -41 75q-14 17 -30.5 31.5t-33.5 24.5q-18 10 -37.5 19
t-39.5 18q-15 4 -32.5 6t-37.5 2q-29 0 -55.5 -5t-51.5 -18q-49 -18 -86 -57q-16 -18 -29.5 -41t-23.5 -45zM295 690q6 10 6 19q0 4 -1 9t-5 11q0 2 -4 6l-6 6q-2 4 -5.5 7.5t-9.5 3.5q-4 2 -9 4t-9 2h-53v-154h16v58h37q4 0 9 1t9 3q11 4 15 8q2 4 6 8t4 8zM410 758h-95
v-154h95v19h-72v47h59v20h-59v45h72v23zM559 604l-47 66q2 2 5 2t5 4q8 4 10 10q3 2 5 5t4 7v13v10t-2 8q-4 8 -11 14q-4 9 -14 9q-2 2 -7 4t-9 2h-56v-154h23v64h22l41 -56q2 -4 7 -6q2 -2 4 -2h6h14zM664 631q0 4 1 8t1 8q0 12 -4.5 20.5t-12.5 14.5q-2 0 -3 2t-5 4h-1
t-5 2h-2t-2 4q-6 0 -8 2q-7 0 -9 1l-6 3q-8 2 -8 5q-6 4 -6 6v8v8q2 0 4 2t2 4l3 1t5 1q4 2 6 2h4l2.5 -1t4.5 -1q8 0 8 -4q2 -2 4 -2h4q8 0 14 4l4 2q0 2 -2 4l-4 4q-4 2 -6 4.5t-6 4.5q-2 0 -4 1t-6 5q-6 0 -7 1t-6 1q-4 0 -9 -1t-9 -1q-4 -4 -7 -6t-7 -2q-2 -5 -5 -8
t-6 -7q-2 -4 -3 -7t-1 -9v-9t4 -8q3 -4 6 -7t3 -5q4 -2 8 -5t8 -3q4 -2 7 -4t7 -4q2 -2 5.5 -2h5.5q6 -2 7 -2t3 -2q4 -2 4 -3t2 -6q2 -2 2 -5v-7v-3t-2 -5q-2 -4 -2 -5t-4 -3q-2 -4 -5 -5t-5 -3h-5.5h-5.5h-7h-5q-2 2 -5 3t-3 5l-2 2q-6 4 -12 4h-4.5t-4.5 -2l-6 -2
q0 -4 2 -4q0 -4 4 -6q0 -2 2 -5l2 -2h3q8 -8 17 -10t19 -2h9.5t9.5 2t9 4t7 6q6 2 9.5 5.5t5.5 9.5zM838 659q2 7 2 11v10q0 12 -2 20q0 7 -3.5 11t-5.5 10q-4 6 -12 14q-4 4 -8 6t-10 9q-2 0 -6.5 2t-10.5 6q-6 0 -10 1t-10 1q-4 0 -10.5 -1t-10.5 -1q-6 -4 -10 -6t-8 -2
q-4 -7 -8 -9t-8 -6q-5 -4 -8 -7t-5 -7q-4 -6 -5 -10t-3 -11q-2 -8 -2 -20q0 -8 2 -15.5t4 -15.5q2 -6 6 -12t11 -14q6 -5 12 -9t14 -4q12 -6 29 -6h10h10q11 4 17 8q14 6 18 11q6 8 12 18q2 4 5.5 9t3.5 9zM997 758h-20v-119q0 2 -1 5l-1 3l-74 105q-4 0 -8 6h-4h-4h-15
v-154h21v129v-4l2 -2v0v-4l88 -119h16v154zM1169 604l-67 154h-23l-65 -154h12q6 0 8 2l3 3t5 3l9 27h79l11 -27q2 -4 6 -6q0 -2 8 -2h14zM1270 623h-66v135h-22v-154h88v19zM1479 758h-21v-92v-11t-2 -8q-2 -8 -10 -12q-2 -2 -5 -4t-5 -6q-6 -2 -9.5 -2h-7.5q-10 0 -14 2
q-6 4 -10 6t-4 4q-2 2 -4.5 5t-6.5 7q0 4 -1 8t-1 11v92h-20v-92v-12t2 -7q0 -8 4 -14q4 -10 12 -15q2 -2 5 -4t8 -4q2 -2 6 -3t6 -3q6 0 9 -2t9 -2q4 0 7.5 2t9.5 2q4 2 7 3t7 3l12 8q4 5 5 8t3 7q3 2 6 6t3 8v19v92zM1597 631q7 8 7 16q0 12 -4.5 20.5t-12.5 14.5
q-6 4 -6 6h-5t-5 2h-3t-5 4h-2t-5 2q-2 0 -4 1l-6 3q-8 2 -8 5q-4 2 -5 4t-3 2q0 2 -1 3t-1 5t4 8l6 6q2 0 3 1t5 1q0 2 10 2l2.5 -1t4.5 -1q2 -2 8 -4q8 -2 10 -2q6 0 8 4l6 2l-4 4l-4 4q0 2 -3 4.5t-5 4.5q-4 0 -6 1t-6 5q-4 0 -7.5 1l-3.5 1q-6 0 -10 -1t-8 -1
q-4 -4 -8 -6t-6 -2q-4 -5 -6 -8t-7 -7q0 -4 -2 -7t-2 -9t2 -9t2 -8q5 -8 11 -12q4 -2 7 -5t5 -3q6 -2 9 -4t7 -4t6.5 -2h4.5q2 -2 5 -2t5 -2t5 -3t3 -6q2 -2 2 -5v-7v-3t-2 -5q-2 -6 -8 -8q-4 -4 -6 -5t-4 -3h-6h-5h-7h-5q-4 2 -10 8v2q-6 4 -12 4h-3.5t-5.5 -2l-6 -2
q2 -2 2 -3t2 -1q0 -2 1 -3t1 -3l1 -1t1 -4q4 -2 7 -2q6 -8 15 -10t19 -2h10.5t10.5 2l8 4t8 6q2 2 5 5.5t5 9.5zM1722 758h-94v-154h94v19h-73v47h61v20h-61v45h73v23zM1966 659v11v10v11v9q-4 11 -10 21q-4 6 -12 14q-2 4 -6.5 6t-8.5 9q-4 0 -9 2t-9 6q-6 0 -10.5 1
t-10.5 1t-11 -1t-9 -1q-12 -6 -21 -8q-4 -7 -7 -9t-7 -6l-7 -7l-7 -7q-2 -6 -4 -10t-2 -11q-5 -8 -5 -20q0 -8 2.5 -15.5t4.5 -15.5q6 -14 18 -26q4 -5 10 -9t15 -4q12 -6 30 -6h10.5h10.5q4 2 9 4t9 4q4 4 8.5 6.5t6.5 4.5q8 8 12 18q6 8 10 18zM2126 758h-23v-119
q0 2 -1 5t-3 3l-74 105l-1 1t-3 5h-5h-5h-16v-154h24v129v-4v-2v-2l2 -2l86 -119h19v154zM2251 623h-66v135h-22v-154h88v19zM2374 758h-19q-4 0 -8 -4q-8 -4 -8 -9l-35 -47l-2 -2h-2v-2v2l-2 2l-37 47q-2 5 -6 9t-10 4h-17l56 -76l2 -2q0 -2 2 -2v-2v-2q0 -2 2 -2v-2v-66
h22v66v2v4q2 0 2 4v2h2zM1188 864q-19 8 -38.5 19.5t-33.5 25.5h322q-17 -14 -35.5 -25.5t-38.5 -19.5q-21 -6 -43.5 -12t-44.5 -6q-25 0 -46.5 6t-41.5 12zM1141 936l315 317q29 -39 45.5 -79.5t16.5 -81.5q0 -23 -3.5 -44.5t-11.5 -41.5q-8 -19 -18 -36.5t-23 -33.5h-321z
M1094 928q-27 35 -45 73q-7 21 -11 43.5t-4 47.5q0 20 4 40.5t11 41.5q6 18 16 35.5t25 33.5h319zM1364 1315q20 -8 38.5 -20.5t33.5 -22.5h-324q37 28 76 43q39 18 88 18t88 -18zM78 350q-4 4 -5 8t-3 9q-2 6 -3 10t-1 10t4 16q2 5 3 10t5 7l3 9t7 7q0 2 5 5t7 5q6 5 9.5 6
t9.5 3q2 0 8 1t10 1q8 0 14.5 -1t14.5 -5q8 -2 13 -6.5t9 -8.5q-2 -2 -4 -2v-4h-2h-2h-4h-6q-4 2 -8 5t-8 3h-7.5h-9.5h-10h-8q-8 -4 -12.5 -7t-8.5 -5q-4 -6 -7 -10t-5 -8q-4 -7 -4 -13v-8q0 -8 2 -14t3 -9.5t1 -7.5q2 -2 5 -4t5 -6q4 -2 6 -5t7 -3q2 -2 6 -4t8 -2
q2 -2 6 -2h6h10.5t8.5 2q4 0 9 2t9 4v29h-12h-2l-2 2l-3 3l-3 3l-1 1t-1 3v1v3v0h38v-53l-5 -5t-5 -6q-6 -2 -12 -2q-6 -2 -14 -2h-15h-10h-8q-6 2 -9.5 4.5t-9.5 6.5q-2 0 -7 3t-5 7q-6 2 -7 6t-3 8zM240 438v-45h55v-14h-55v-47h67v-17h-84v140h84v-17h-67zM369 315v123
h-45v17h106v-17h-47v-123h-14zM532 438v-49h60v-12h-60v-62h-16v140h84v-17h-68zM641 455v-86q0 -4 2 -7.5t4 -5.5q2 -6 5 -9t5 -7q0 -2 3.5 -4t5.5 -4q6 -2 10 -2h8h7t5 2q6 2 9.5 4t7.5 4q0 4 3 7t5 9q4 4 4 13v86h14v-86q0 -7 -1 -11t-3 -10t-5 -10t-7 -8t-8 -7.5
t-8 -5.5q-13 -2 -23 -2q-12 0 -25 2q-2 2 -7 5.5t-9 7.5q-6 6 -10 18q-2 6 -4 10t-2 11v86h14zM784 455v-123h62v-17h-78v140h16zM877 455v-123h65v-17h-80v140h15zM1069 315l-61 140h8q4 0 8 -2q2 -2 3 -2t3 -5l43 -104v-4q2 -2 2 -6v6l1 2l1 2q6 14 12.5 26.5t12.5 24.5
q4 17 10 29l12 24q0 5 2 5t2 2q2 2 3.5 2h5.5h8q-8 -17 -15.5 -34.5t-17.5 -33.5q-6 -20 -13 -36.5t-16 -35.5h-14zM1171 438v-45h58v-14h-58v-47h68v-17h-84v140h84v-17h-68zM1341 381q-2 -2 -10 -4l47 -62h-10q-2 0 -5 1l-3 1q-2 2 -4 3.5t-4 5.5l-39 51h-25v-62h-14v140
h51h5t7 -2q9 -2 15 -9q2 -4 4 -7t4 -7q2 -2 2 -7v-5v-9t-2 -6q0 -4 -2 -8t-4 -6l-4 -4t-9 -4zM1325 389q4 0 6 4q2 0 4 1t4 1l3 6t4 5q0 2 1 4t1 8l-1 2t-1 6q-3 2 -4 3t-3 5q-2 0 -4 1t-4 3h-6h-37v-49h37zM1452 336q2 2 4 8q2 2 3 6t1 6q0 6 -2 11q-2 0 -3 3t-3 5t-8 4
q-4 0 -6 1l-6 3q-5 0 -9 2t-4 4q-10 0 -14 6q-4 0 -5 4t-3 7v14v9t2 7q0 6 8 10q4 5 6 6t8 3q4 0 6.5 1t8.5 1q2 0 5 -1t5 -1t4 -1l6 -3q2 0 4 -2.5t2 -4.5q4 -2 5 -4t3 -2l-4 -2q-2 -2 -8 -2h-6q-4 2 -4 4h-2h-2h-2h-3h-1h-2h-9q-8 0 -8 -2q-6 -6 -6 -8q-4 0 -4 -8
q0 -6 4 -6q0 -4 2 -6t5 -3.5l3 -1.5q4 -4 6.5 -4t8.5 -4h3t3 -2h4t4 -4h2h1h1q2 0 4 -1l2 -1q4 -4 6 -7t7 -5q2 -10 2 -19v-10t-7 -8q0 -6 -8 -12q-2 -2 -6 -4.5t-8 -4.5t-8 -2h-10q-11 0 -18 2t-13 9q-2 0 -4 2l-4 4q0 2 -1 4l-1 2l2 2l1 1t5 1h2q2 0 4 -1t4 -3q4 -2 6 -4
t6 -2q0 -2 4 -2h7q8 0 10 2q8 0 12 4zM1524 455v-140h-17v140h17zM1579 336q-12 8 -18 20q-5 15 -5 31v7v9q7 11 9 17q6 8 14 16q6 6 12 10q4 5 9.5 6t9.5 3q4 0 8 1t10 1q4 0 9 -1t12 -1q4 -2 8 -3t8 -6l5 -5t7 -5q4 -4 6.5 -7t6.5 -9q2 -6 6 -17q2 -4 3 -9t1 -7
q0 -8 -2 -15t-6 -16q-2 -6 -5.5 -11t-9.5 -9q-6 -6 -11 -9t-11 -8q-10 -4 -27 -4q-8 0 -15 1t-11 3q-17 5 -23 17zM1579 408q-4 -7 -6 -13t-2 -8q0 -4 1 -8t1 -6q2 -8 8 -17q0 -2 2 -4t4 -6l5 -5t10 -3q2 -2 5 -4t5 -2q4 -2 8 -2h8h7t7 2q3 0 7 2l8 4q2 0 5 3l5 5q2 4 4 6
l4 4q2 4 3 7.5t3 9.5q0 2 1 6t1 8q0 2 -1 8t-5 13q0 4 -4 8t-6 10q-4 2 -8 5t-10 7h-9.5h-11.5h-12h-10q-4 -4 -9.5 -7t-9.5 -5q-2 -6 -5 -10t-3 -8zM1741 315h-17v140h13h5t5 -4l72 -103q2 0 2 -4l2 -2v-2v115h16v-140h-14l-82 115v4h-2v4v-123zM1956 438v-49h57v-12h-57
v-62h-14v140h83v-17h-69zM2114 381q-9 -2 -13 -4l45 -62h-12q-4 0 -8 2q0 2 -1 3.5t-3 5.5l-39 51h-25v-62h-16v140h51h6t8 -2t7.5 -4.5t5.5 -4.5q2 -4 4 -7t6 -7q0 -2 1 -7l1 -5q0 -6 -1 -9t-1 -6l-4 -8t-2 -6zM2101 393q2 0 3 1t3 1q7 8 7 11q2 4 2 12q0 2 -2 8q0 2 -7 8
q-2 0 -3 1l-3 3h-8h-35v-49h35q4 0 8 4zM2281 336q-4 -6 -10 -9t-12 -8q-6 -2 -12 -3t-15 -1q-8 0 -15 1t-13 3q-13 5 -23 17q-4 4 -8 9t-6 11q-2 9 -5 16t-3 15q0 2 1 7t3 9q2 5 3 10t3 7q4 6 7 9t5 7q4 2 8 5t9 5q4 5 8 6t8 3q6 0 9 1t9 1q4 0 9.5 -1t9.5 -1l9 -3t7 -6
q4 -2 8 -5t6 -5q3 -4 6 -7t5 -9q6 -6 8 -17q2 -4 3 -9t1 -7q0 -8 -1 -15t-5 -16q-2 -6 -6 -11t-11 -9zM2232 330h7.5t9.5 2q2 0 5 2t5 4q2 0 6 3t8 5l3 6t3 4q2 4 3.5 7.5t1.5 9.5q2 2 2 6v8q0 2 -1 8t-1 13l-6 8t-5 10q-6 2 -11 5t-9 7h-10.5h-10.5h-11h-11q-6 -4 -9 -7
t-8 -5q-6 -6 -8 -10l-4 -8q-2 -7 -2 -13v-8v-14q0 -6 1 -9.5t5 -7.5q0 -2 3 -4t5 -6q2 -2 5.5 -5t5.5 -3q2 -2 5 -4t9 -2q2 -2 6 -2h8zM2460 453q2 2 3 2h3h12v-140h-14v115l-2 -2v0v-2q-4 -8 -6 -17.5t-7 -15.5q-4 -6 -7 -12l-7 -14q-2 -9 -4 -15l-4 -12q-4 -6 -7 -11
t-5 -14h-15q-10 13 -15 27t-11 27q-4 14 -11.5 28.5t-11.5 28.5v2l-4 2v-115h-16v140h14q6 0 8 -2l2 -2v-5l49 -108q0 -2 2 -2v-4q0 2 1 4t1 4q0 4 5 8l43 98q0 5 1 5t3 2zM74 262h157v-20v-4v-5q0 -4 -2 -6l-4 -4l-106 -145h2v2h4h2h104v-37h-165v12q0 11 2 13q0 2 4 8
q2 2 2 4t2 4t3 4l3 6l94 129h-102v39zM260 262h139v-39h-100v-49h80v-41h-80v-53h100v-37h-139v219zM571 223h-59v-180h-43v180h-63v39h165v-39zM672 262l94 -219h-25q-8 0 -16 4q-4 2 -5 6t-5 8l-13 29h-100l-10 -29q-2 -4 -3 -5t-3 -1q0 -4 -1 -5t-5 -3q-2 0 -4.5 -1
t-4.5 -1q0 -2 -2 -2h-4h-24l94 219h37zM684 129l-27 68q0 2 -1 3t-1 3q0 4 -2 6v-6q0 -2 -2 -3t-2 -3l-26 -68h61zM774 262h139v-39h-100v-55h82v-39h-82v-86h-39v219zM1133 207q4 -6 6 -12.5t6 -12.5q2 -8 2 -15v-13v-17t-2 -14q-4 -6 -6 -13.5t-6 -13.5q-5 -4 -9 -10
l-8 -12q-8 -4 -12 -9.5t-10 -7.5q-7 -6 -14 -8t-13 -4q-8 -2 -15.5 -3t-15.5 -1q-10 0 -21 3t-22 5q-12 6 -19 12.5t-18 12.5q-14 16 -20 35q-6 12 -8 22t-2 23q0 6 1 13t3 15q4 17 12 25q4 8 7 13t7 11q9 5 14 9t11 8t12 6t15 6q6 0 13 1t15 1t15.5 -1t15.5 -1q6 -4 13 -6
t14 -6q6 -4 10 -8t12 -9q4 -6 8 -11t9 -13zM1104 127q2 6 3 12t1 15q0 12 -4 24q-4 10 -8 15.5t-11 9.5q-4 4 -9 8t-11 6q-12 6 -29 6q-16 0 -28 -6q-4 -2 -9.5 -6t-11.5 -8t-9 -9.5t-7 -15.5q-4 -4 -4 -11v-13v-15t4 -12q4 -8 7 -14.5t9 -10.5t11.5 -8t9.5 -8q8 -2 14 -4
t14 -2t14.5 2t14.5 4q6 4 11 8t9 8q7 4 11 10.5t8 14.5zM1329 262h39v-219h-37l-102 147q-2 0 -2 1.5t-2 3.5q-2 4 -2 6q-4 0 -4 4l-1 1t-4 3v-166h-38v219h34q4 0 8.5 -1t4.5 -3l6 -3t4 -3q10 -16 21.5 -31.5t21.5 -34.5q12 -14 23.5 -29.5t25.5 -29.5q0 -4 1 -6t1 -6
q0 -2 1 -4t1 -5v156zM1389 262h165v-39h-65v-180h-39v180h-61v39zM1690 150q2 -5 5 -9t5 -8q0 -4 2 -9t2 -13q0 -13 -6 -27l-8 -12t-9 -11q-8 -4 -12 -8t-12 -6t-15.5 -4t-13.5 -2q-8 0 -15 2t-18 4q-6 2 -11 6t-13 13q-4 2 -6 5t-4 7q-5 2 -5 12l1.5 1t3.5 3q2 0 2 1t2 1
t4 1l2 1h10h3t3 -2q6 0 10 -2q5 -4 9 -6t6 -4q2 0 6 -2t10 -2q2 0 5 1t7 3q7 2 13 6l8 8q2 4 4 6t2 7q0 8 -6 12q-4 6 -8 6q-4 4 -7.5 5t-5.5 1q-6 2 -16 8q-4 0 -9 1t-9 6q-9 2 -13 5t-8 7q-6 4 -9 8t-5 8q-6 12 -6 25q0 18 6 26q2 7 6 11t10 8q4 4 9.5 6t13.5 6q4 0 10 1
t14 1q4 0 8.5 -1t10.5 -1q4 -2 7 -4t9 -4q2 -2 6 -5t8 -7q3 -2 6 -5.5t5 -7.5l-8 -4l-6 -4t-3 -4h-8h-4h-4h-2q-6 0 -6 2l-8 4q-3 0 -4 1l-1 1h-6h-12q-4 0 -5 -1t-5 -3q-2 -2 -4 -8q-2 -2 -2 -8t2 -6q2 -2 3 -4.5t1 -6.5q4 0 7 -1t5 -1q6 -2 11 -4t7 -4l11 -2q4 -4 9 -5
t11 -7q10 -2 17 -12zM1755 80q6 0 6 -6q2 0 2 -3v-5q0 -7 -2 -11q0 -4 -6 -8q-4 0 -6 -4q-2 0 -4 -1t-6 -1q-2 0 -4 1t-4 1q-2 2 -4.5 3t-4.5 1q-2 2 -3 4t-3 4q-2 4 -2 11v5t2 3q2 4 3 5t3 1q7 6 9 6q2 2 4 3t4 1q4 0 6 -1t4 -3q2 0 6 -6zM1839 203q-8 -8 -16 -25
q-2 -4 -4 -11t-2 -13q0 -9 2 -15l4 -12q4 -8 7 -14.5t9 -10.5q4 -4 9 -8t14 -8q8 -2 14 -4t14 -2q6 0 10.5 2t10.5 2q4 2 9 5t9 7q4 0 8 2h7h6t6 -2q6 -2 10 -6l6 -10q-6 -8 -16 -14q-6 -5 -10 -8t-11 -5q-6 -4 -11 -5t-11 -3t-11.5 -3t-11.5 -1q-14 0 -24.5 3t-20.5 5
q-20 10 -35 25q-16 16 -24 35q-2 12 -5 22t-3 23q0 6 1 13t3 15q2 6 4 12.5t6 12.5q6 8 9 13t9 11q7 5 12 9t13 8q4 4 10 6t17 6q4 0 12 1t16 1h11.5t11.5 -2t11 -4t11 -4q7 -2 11 -5t10 -7q10 -9 16 -17l-6 -8l-5 -5t-5 -3h-7h-5h-8t-7 2q-4 4 -9 7t-9 5q-6 2 -10.5 2
h-10.5q-16 0 -28 -6q-9 -2 -14 -6t-9 -8zM2195 207q3 -6 6 -12.5t5 -12.5q2 -8 2 -15v-13v-17t-2 -14t-5 -13.5t-6 -13.5q-8 -10 -16 -22q-8 -4 -14 -9.5t-11 -7.5q-6 -6 -13 -8t-15 -4q-6 -2 -13.5 -3t-15.5 -1q-20 0 -43 8q-8 6 -17 12.5t-16 12.5q-8 8 -14 16t-10 19
q-4 12 -6 22t-2 23q0 6 1 13t1 15q2 6 6 12.5t6 12.5q4 8 8 13t10 11q4 5 10.5 9t12.5 8q4 4 11 6t13 6q9 0 16 1t13 1q8 0 15.5 -1t13.5 -1q8 -4 15 -6t13 -6q5 -4 11 -8t14 -9q2 -6 8 -11t8 -13zM2165 127q4 10 4 27q0 6 -1 13t-3 11q-4 10 -7.5 15.5t-7.5 9.5
q-10 10 -24 14q-6 4 -13.5 5t-15.5 1q-14 0 -26 -6q-7 -2 -12 -6t-11 -8q-4 -4 -8 -9.5t-8 -15.5q-2 -4 -3 -11t-1 -13q0 -9 1 -15t3 -12q8 -16 16 -25q6 -4 11 -8t12 -8q6 -2 14 -4t12 -2q8 0 15.5 2t13.5 4q6 4 13 8t11 8q9 9 15 25zM2433 260l1 1t5 1h39v-219h-39v160
q0 -2 -1 -4l-3 -6v-7t-2 -4q-6 -18 -14.5 -35.5t-14.5 -33.5q-6 -17 -13 -34.5t-13 -35.5h-39l-55 139q-3 2 -3 11q-2 4 -3 5t-1 3v-158h-41v219h39q4 0 6.5 -1l2.5 -1q4 -2 5 -2t3 -2l6 -4l4 -4t2 -4q4 -17 11 -32t14 -34q6 -16 13 -32.5t13 -32.5v-2v-5v-4q4 0 4 -4v4v4
q0 3 1 5l1 2l9 16l45 115q0 2 1 4t1 4q2 2 5 3l3 1q2 2 4 2t4 2z" />
    <glyph glyph-name="eight" unicode="8" horiz-adv-x="2531" 
d="M1929 721q4 -4 8.5 -9t6.5 -10q0 -6 1 -11t1 -11q0 -12 -2 -23q-2 -6 -6.5 -10t-8.5 -6q-4 -4 -8 -7t-8 -7q-12 -4 -23 -4q-6 0 -12 1t-10 3l-10.5 7t-8.5 7q-4 2 -7 6t-3 10q-4 7 -5 12t-1 11q0 10 6 22q0 5 3 10t7 9t8.5 7t10.5 5q8 4 22 4q6 0 10.5 -1t12.5 -3
q4 -2 8 -5t8 -7zM518 702q0 -2 -4 -8q-2 0 -3 -2t-5 -2q-2 -2 -8 -2h-33v47h33q4 0 8 -2q4 0 5 -1l3 -3l4 -8q2 -2 2 -10q0 -6 -2 -9zM801 721q4 -4 8 -9t6 -10q2 -6 3 -11t1 -11t-1 -11t-3 -12q-2 -6 -6 -10t-8 -6q-2 -4 -6 -7t-11 -7q-4 -2 -10 -3t-12 -1q-12 0 -23 4
q-4 4 -9 7t-9 7l-6 6t-6 10q-2 7 -4.5 12t-2.5 11q0 10 7 22q2 5 6 10t6 9q4 4 9 7t9 5q6 2 12.5 3t10.5 1q12 0 22 -4q7 -2 11 -5t6 -7zM1090 733q0 -4 1 -6t1 -4l28 -64h-59l29 64v4v6zM270 729q2 -2 3 -5t3 -5q3 -4 3 -10v-5.5t-3 -5.5q-2 -2 -3 -5t-3 -3l-8 -8h-10h-37
v53h37q6 0 10 -2q2 0 5 -2zM2478 1092v-586h-2404v586h911q0 30 5 58t18 54q12 27 27.5 51.5t37.5 42.5q37 39 90 62q29 12 56.5 17t56.5 5q33 0 61.5 -6t53.5 -18q28 -12 51.5 -28.5t42.5 -35.5q37 -37 61 -94q21 -53 21 -108h911zM1030 1192q-22 -47 -22 -100
q0 -58 22 -105q10 -22 24.5 -44.5t30.5 -41.5q19 -18 40.5 -32.5t45.5 -24.5q48 -23 105 -23q29 0 54.5 4t49.5 15q25 12 45.5 25.5t38.5 33.5q19 19 33 40.5t27 43.5q22 51 22 109q0 22 -4 45.5t-14 44.5q-12 41 -41 75q-14 17 -30.5 31.5t-33.5 24.5q-18 10 -37.5 19
t-39.5 18q-15 4 -32.5 6t-37.5 2q-29 0 -55.5 -5t-51.5 -18q-49 -18 -86 -57q-16 -18 -29.5 -41t-23.5 -45zM295 690q6 10 6 19q0 4 -1 9t-5 11q0 2 -4 6l-6 6q-2 4 -5.5 7.5t-9.5 3.5q-4 2 -9 4t-9 2h-53v-154h16v58h37q4 0 9 1t9 3q11 4 15 8q2 4 6 8t4 8zM410 758h-95
v-154h95v19h-72v47h59v20h-59v45h72v23zM559 604l-47 66q2 2 5 2t5 4q8 4 10 10q3 2 5 5t4 7v13v10t-2 8q-4 8 -11 14q-4 9 -14 9q-2 2 -7 4t-9 2h-56v-154h23v64h22l41 -56q2 -4 7 -6q2 -2 4 -2h6h14zM664 631q0 4 1 8t1 8q0 12 -4.5 20.5t-12.5 14.5q-2 0 -3 2t-5 4h-1
t-5 2h-2t-2 4q-6 0 -8 2q-7 0 -9 1l-6 3q-8 2 -8 5q-6 4 -6 6v8v8q2 0 4 2t2 4l3 1t5 1q4 2 6 2h4l2.5 -1t4.5 -1q8 0 8 -4q2 -2 4 -2h4q8 0 14 4l4 2q0 2 -2 4l-4 4q-4 2 -6 4.5t-6 4.5q-2 0 -4 1t-6 5q-6 0 -7 1t-6 1q-4 0 -9 -1t-9 -1q-4 -4 -7 -6t-7 -2q-2 -5 -5 -8
t-6 -7q-2 -4 -3 -7t-1 -9v-9t4 -8q3 -4 6 -7t3 -5q4 -2 8 -5t8 -3q4 -2 7 -4t7 -4q2 -2 5.5 -2h5.5q6 -2 7 -2t3 -2q4 -2 4 -3t2 -6q2 -2 2 -5v-7v-3t-2 -5q-2 -4 -2 -5t-4 -3q-2 -4 -5 -5t-5 -3h-5.5h-5.5h-7h-5q-2 2 -5 3t-3 5l-2 2q-6 4 -12 4h-4.5t-4.5 -2l-6 -2
q0 -4 2 -4q0 -4 4 -6q0 -2 2 -5l2 -2h3q8 -8 17 -10t19 -2h9.5t9.5 2t9 4t7 6q6 2 9.5 5.5t5.5 9.5zM838 659q2 7 2 11v10q0 12 -2 20q0 7 -3.5 11t-5.5 10q-4 6 -12 14q-4 4 -8 6t-10 9q-2 0 -6.5 2t-10.5 6q-6 0 -10 1t-10 1q-4 0 -10.5 -1t-10.5 -1q-6 -4 -10 -6t-8 -2
q-4 -7 -8 -9t-8 -6q-5 -4 -8 -7t-5 -7q-4 -6 -5 -10t-3 -11q-2 -8 -2 -20q0 -8 2 -15.5t4 -15.5q2 -6 6 -12t11 -14q6 -5 12 -9t14 -4q12 -6 29 -6h10h10q11 4 17 8q14 6 18 11q6 8 12 18q2 4 5.5 9t3.5 9zM997 758h-20v-119q0 2 -1 5l-1 3l-74 105q-4 0 -8 6h-4h-4h-15
v-154h21v129v-4l2 -2v0v-4l88 -119h16v154zM1169 604l-67 154h-23l-65 -154h12q6 0 8 2l3 3t5 3l9 27h79l11 -27q2 -4 6 -6q0 -2 8 -2h14zM1270 623h-66v135h-22v-154h88v19zM1479 758h-21v-92v-11t-2 -8q-2 -8 -10 -12q-2 -2 -5 -4t-5 -6q-6 -2 -9.5 -2h-7.5q-10 0 -14 2
q-6 4 -10 6t-4 4q-2 2 -4.5 5t-6.5 7q0 4 -1 8t-1 11v92h-20v-92v-12t2 -7q0 -8 4 -14q4 -10 12 -15q2 -2 5 -4t8 -4q2 -2 6 -3t6 -3q6 0 9 -2t9 -2q4 0 7.5 2t9.5 2q4 2 7 3t7 3l12 8q4 5 5 8t3 7q3 2 6 6t3 8v19v92zM1597 631q7 8 7 16q0 12 -4.5 20.5t-12.5 14.5
q-6 4 -6 6h-5t-5 2h-3t-5 4h-2t-5 2q-2 0 -4 1l-6 3q-8 2 -8 5q-4 2 -5 4t-3 2q0 2 -1 3t-1 5t4 8l6 6q2 0 3 1t5 1q0 2 10 2l2.5 -1t4.5 -1q2 -2 8 -4q8 -2 10 -2q6 0 8 4l6 2l-4 4l-4 4q0 2 -3 4.5t-5 4.5q-4 0 -6 1t-6 5q-4 0 -7.5 1l-3.5 1q-6 0 -10 -1t-8 -1
q-4 -4 -8 -6t-6 -2q-4 -5 -6 -8t-7 -7q0 -4 -2 -7t-2 -9t2 -9t2 -8q5 -8 11 -12q4 -2 7 -5t5 -3q6 -2 9 -4t7 -4t6.5 -2h4.5q2 -2 5 -2t5 -2t5 -3t3 -6q2 -2 2 -5v-7v-3t-2 -5q-2 -6 -8 -8q-4 -4 -6 -5t-4 -3h-6h-5h-7h-5q-4 2 -10 8v2q-6 4 -12 4h-3.5t-5.5 -2l-6 -2
q2 -2 2 -3t2 -1q0 -2 1 -3t1 -3l1 -1t1 -4q4 -2 7 -2q6 -8 15 -10t19 -2h10.5t10.5 2l8 4t8 6q2 2 5 5.5t5 9.5zM1722 758h-94v-154h94v19h-73v47h61v20h-61v45h73v23zM1966 659v11v10v11v9q-4 11 -10 21q-4 6 -12 14q-2 4 -6.5 6t-8.5 9q-4 0 -9 2t-9 6q-6 0 -10.5 1
t-10.5 1t-11 -1t-9 -1q-12 -6 -21 -8q-4 -7 -7 -9t-7 -6l-7 -7l-7 -7q-2 -6 -4 -10t-2 -11q-5 -8 -5 -20q0 -8 2.5 -15.5t4.5 -15.5q6 -14 18 -26q4 -5 10 -9t15 -4q12 -6 30 -6h10.5h10.5q4 2 9 4t9 4q4 4 8.5 6.5t6.5 4.5q8 8 12 18q6 8 10 18zM2126 758h-23v-119
q0 2 -1 5t-3 3l-74 105l-1 1t-3 5h-5h-5h-16v-154h24v129v-4v-2v-2l2 -2l86 -119h19v154zM2251 623h-66v135h-22v-154h88v19zM2374 758h-19q-4 0 -8 -4q-8 -4 -8 -9l-35 -47l-2 -2h-2v-2v2l-2 2l-37 47q-2 5 -6 9t-10 4h-17l56 -76l2 -2q0 -2 2 -2v-2v-2q0 -2 2 -2v-2v-66
h22v66v2v4q2 0 2 4v2h2zM1188 864q-19 8 -38.5 19.5t-33.5 25.5h322q-17 -14 -35.5 -25.5t-38.5 -19.5q-21 -6 -43.5 -12t-44.5 -6q-25 0 -46.5 6t-41.5 12zM1141 936l315 317q29 -39 45.5 -79.5t16.5 -81.5q0 -23 -3.5 -44.5t-11.5 -41.5q-8 -19 -18 -36.5t-23 -33.5h-321z
M1094 928q-27 35 -45 73q-7 21 -11 43.5t-4 47.5q0 20 4 40.5t11 41.5q6 18 16 35.5t25 33.5h319zM1364 1315q20 -8 38.5 -20.5t33.5 -22.5h-324q37 28 76 43q39 18 88 18t88 -18zM78 350q-4 4 -5 8t-3 9q-2 6 -3 10t-1 10t4 16q2 5 3 10t5 7l3 9t7 7q0 2 5 5t7 5q6 5 9.5 6
t9.5 3q2 0 8 1t10 1q8 0 14.5 -1t14.5 -5q8 -2 13 -6.5t9 -8.5q-2 -2 -4 -2v-4h-2h-2h-4h-6q-4 2 -8 5t-8 3h-7.5h-9.5h-10h-8q-8 -4 -12.5 -7t-8.5 -5q-4 -6 -7 -10t-5 -8q-4 -7 -4 -13v-8q0 -8 2 -14t3 -9.5t1 -7.5q2 -2 5 -4t5 -6q4 -2 6 -5t7 -3q2 -2 6 -4t8 -2
q2 -2 6 -2h6h10.5t8.5 2q4 0 9 2t9 4v29h-12h-2l-2 2l-3 3l-3 3l-1 1t-1 3v1v3v0h38v-53l-5 -5t-5 -6q-6 -2 -12 -2q-6 -2 -14 -2h-15h-10h-8q-6 2 -9.5 4.5t-9.5 6.5q-2 0 -7 3t-5 7q-6 2 -7 6t-3 8zM240 438v-45h55v-14h-55v-47h67v-17h-84v140h84v-17h-67zM369 315v123
h-45v17h106v-17h-47v-123h-14zM532 438v-49h60v-12h-60v-62h-16v140h84v-17h-68zM641 455v-86q0 -4 2 -7.5t4 -5.5q2 -6 5 -9t5 -7q0 -2 3.5 -4t5.5 -4q6 -2 10 -2h8h7t5 2q6 2 9.5 4t7.5 4q0 4 3 7t5 9q4 4 4 13v86h14v-86q0 -7 -1 -11t-3 -10t-5 -10t-7 -8t-8 -7.5
t-8 -5.5q-13 -2 -23 -2q-12 0 -25 2q-2 2 -7 5.5t-9 7.5q-6 6 -10 18q-2 6 -4 10t-2 11v86h14zM784 455v-123h62v-17h-78v140h16zM877 455v-123h65v-17h-80v140h15zM1069 315l-61 140h8q4 0 8 -2q2 -2 3 -2t3 -5l43 -104v-4q2 -2 2 -6v6l1 2l1 2q6 14 12.5 26.5t12.5 24.5
q4 17 10 29l12 24q0 5 2 5t2 2q2 2 3.5 2h5.5h8q-8 -17 -15.5 -34.5t-17.5 -33.5q-6 -20 -13 -36.5t-16 -35.5h-14zM1171 438v-45h58v-14h-58v-47h68v-17h-84v140h84v-17h-68zM1341 381q-2 -2 -10 -4l47 -62h-10q-2 0 -5 1l-3 1q-2 2 -4 3.5t-4 5.5l-39 51h-25v-62h-14v140
h51h5t7 -2q9 -2 15 -9q2 -4 4 -7t4 -7q2 -2 2 -7v-5v-9t-2 -6q0 -4 -2 -8t-4 -6l-4 -4t-9 -4zM1325 389q4 0 6 4q2 0 4 1t4 1l3 6t4 5q0 2 1 4t1 8l-1 2t-1 6q-3 2 -4 3t-3 5q-2 0 -4 1t-4 3h-6h-37v-49h37zM1452 336q2 2 4 8q2 2 3 6t1 6q0 6 -2 11q-2 0 -3 3t-3 5t-8 4
q-4 0 -6 1l-6 3q-5 0 -9 2t-4 4q-10 0 -14 6q-4 0 -5 4t-3 7v14v9t2 7q0 6 8 10q4 5 6 6t8 3q4 0 6.5 1t8.5 1q2 0 5 -1t5 -1t4 -1l6 -3q2 0 4 -2.5t2 -4.5q4 -2 5 -4t3 -2l-4 -2q-2 -2 -8 -2h-6q-4 2 -4 4h-2h-2h-2h-3h-1h-2h-9q-8 0 -8 -2q-6 -6 -6 -8q-4 0 -4 -8
q0 -6 4 -6q0 -4 2 -6t5 -3.5l3 -1.5q4 -4 6.5 -4t8.5 -4h3t3 -2h4t4 -4h2h1h1q2 0 4 -1l2 -1q4 -4 6 -7t7 -5q2 -10 2 -19v-10t-7 -8q0 -6 -8 -12q-2 -2 -6 -4.5t-8 -4.5t-8 -2h-10q-11 0 -18 2t-13 9q-2 0 -4 2l-4 4q0 2 -1 4l-1 2l2 2l1 1t5 1h2q2 0 4 -1t4 -3q4 -2 6 -4
t6 -2q0 -2 4 -2h7q8 0 10 2q8 0 12 4zM1524 455v-140h-17v140h17zM1579 336q-12 8 -18 20q-5 15 -5 31v7v9q7 11 9 17q6 8 14 16q6 6 12 10q4 5 9.5 6t9.5 3q4 0 8 1t10 1q4 0 9 -1t12 -1q4 -2 8 -3t8 -6l5 -5t7 -5q4 -4 6.5 -7t6.5 -9q2 -6 6 -17q2 -4 3 -9t1 -7
q0 -8 -2 -15t-6 -16q-2 -6 -5.5 -11t-9.5 -9q-6 -6 -11 -9t-11 -8q-10 -4 -27 -4q-8 0 -15 1t-11 3q-17 5 -23 17zM1579 408q-4 -7 -6 -13t-2 -8q0 -4 1 -8t1 -6q2 -8 8 -17q0 -2 2 -4t4 -6l5 -5t10 -3q2 -2 5 -4t5 -2q4 -2 8 -2h8h7t7 2q3 0 7 2l8 4q2 0 5 3l5 5q2 4 4 6
l4 4q2 4 3 7.5t3 9.5q0 2 1 6t1 8q0 2 -1 8t-5 13q0 4 -4 8t-6 10q-4 2 -8 5t-10 7h-9.5h-11.5h-12h-10q-4 -4 -9.5 -7t-9.5 -5q-2 -6 -5 -10t-3 -8zM1741 315h-17v140h13h5t5 -4l72 -103q2 0 2 -4l2 -2v-2v115h16v-140h-14l-82 115v4h-2v4v-123zM1956 438v-49h57v-12h-57
v-62h-14v140h83v-17h-69zM2114 381q-9 -2 -13 -4l45 -62h-12q-4 0 -8 2q0 2 -1 3.5t-3 5.5l-39 51h-25v-62h-16v140h51h6t8 -2t7.5 -4.5t5.5 -4.5q2 -4 4 -7t6 -7q0 -2 1 -7l1 -5q0 -6 -1 -9t-1 -6l-4 -8t-2 -6zM2101 393q2 0 3 1t3 1q7 8 7 11q2 4 2 12q0 2 -2 8q0 2 -7 8
q-2 0 -3 1l-3 3h-8h-35v-49h35q4 0 8 4zM2281 336q-4 -6 -10 -9t-12 -8q-6 -2 -12 -3t-15 -1q-8 0 -15 1t-13 3q-13 5 -23 17q-4 4 -8 9t-6 11q-2 9 -5 16t-3 15q0 2 1 7t3 9q2 5 3 10t3 7q4 6 7 9t5 7q4 2 8 5t9 5q4 5 8 6t8 3q6 0 9 1t9 1q4 0 9.5 -1t9.5 -1l9 -3t7 -6
q4 -2 8 -5t6 -5q3 -4 6 -7t5 -9q6 -6 8 -17q2 -4 3 -9t1 -7q0 -8 -1 -15t-5 -16q-2 -6 -6 -11t-11 -9zM2232 330h7.5t9.5 2q2 0 5 2t5 4q2 0 6 3t8 5l3 6t3 4q2 4 3.5 7.5t1.5 9.5q2 2 2 6v8q0 2 -1 8t-1 13l-6 8t-5 10q-6 2 -11 5t-9 7h-10.5h-10.5h-11h-11q-6 -4 -9 -7
t-8 -5q-6 -6 -8 -10l-4 -8q-2 -7 -2 -13v-8v-14q0 -6 1 -9.5t5 -7.5q0 -2 3 -4t5 -6q2 -2 5.5 -5t5.5 -3q2 -2 5 -4t9 -2q2 -2 6 -2h8zM2460 453q2 2 3 2h3h12v-140h-14v115l-2 -2v0v-2q-4 -8 -6 -17.5t-7 -15.5q-4 -6 -7 -12l-7 -14q-2 -9 -4 -15l-4 -12q-4 -6 -7 -11
t-5 -14h-15q-10 13 -15 27t-11 27q-4 14 -11.5 28.5t-11.5 28.5v2l-4 2v-115h-16v140h14q6 0 8 -2l2 -2v-5l49 -108q0 -2 2 -2v-4q0 2 1 4t1 4q0 4 5 8l43 98q0 5 1 5t3 2zM74 262h157v-20v-4v-5q0 -4 -2 -6l-4 -4l-106 -145h2v2h4h2h104v-37h-165v12q0 11 2 13q0 2 4 8
q2 2 2 4t2 4t3 4l3 6l94 129h-102v39zM260 262h139v-39h-100v-49h80v-41h-80v-53h100v-37h-139v219zM571 223h-59v-180h-43v180h-63v39h165v-39zM672 262l94 -219h-25q-8 0 -16 4q-4 2 -5 6t-5 8l-13 29h-100l-10 -29q-2 -4 -3 -5t-3 -1q0 -4 -1 -5t-5 -3q-2 0 -4.5 -1
t-4.5 -1q0 -2 -2 -2h-4h-24l94 219h37zM684 129l-27 68q0 2 -1 3t-1 3q0 4 -2 6v-6q0 -2 -2 -3t-2 -3l-26 -68h61zM774 262h139v-39h-100v-55h82v-39h-82v-86h-39v219zM1133 207q4 -6 6 -12.5t6 -12.5q2 -8 2 -15v-13v-17t-2 -14q-4 -6 -6 -13.5t-6 -13.5q-5 -4 -9 -10
l-8 -12q-8 -4 -12 -9.5t-10 -7.5q-7 -6 -14 -8t-13 -4q-8 -2 -15.5 -3t-15.5 -1q-10 0 -21 3t-22 5q-12 6 -19 12.5t-18 12.5q-14 16 -20 35q-6 12 -8 22t-2 23q0 6 1 13t3 15q4 17 12 25q4 8 7 13t7 11q9 5 14 9t11 8t12 6t15 6q6 0 13 1t15 1t15.5 -1t15.5 -1q6 -4 13 -6
t14 -6q6 -4 10 -8t12 -9q4 -6 8 -11t9 -13zM1104 127q2 6 3 12t1 15q0 12 -4 24q-4 10 -8 15.5t-11 9.5q-4 4 -9 8t-11 6q-12 6 -29 6q-16 0 -28 -6q-4 -2 -9.5 -6t-11.5 -8t-9 -9.5t-7 -15.5q-4 -4 -4 -11v-13v-15t4 -12q4 -8 7 -14.5t9 -10.5t11.5 -8t9.5 -8q8 -2 14 -4
t14 -2t14.5 2t14.5 4q6 4 11 8t9 8q7 4 11 10.5t8 14.5zM1329 262h39v-219h-37l-102 147q-2 0 -2 1.5t-2 3.5q-2 4 -2 6q-4 0 -4 4l-1 1t-4 3v-166h-38v219h34q4 0 8.5 -1t4.5 -3l6 -3t4 -3q10 -16 21.5 -31.5t21.5 -34.5q12 -14 23.5 -29.5t25.5 -29.5q0 -4 1 -6t1 -6
q0 -2 1 -4t1 -5v156zM1389 262h165v-39h-65v-180h-39v180h-61v39zM1690 150q2 -5 5 -9t5 -8q0 -4 2 -9t2 -13q0 -13 -6 -27l-8 -12t-9 -11q-8 -4 -12 -8t-12 -6t-15.5 -4t-13.5 -2q-8 0 -15 2t-18 4q-6 2 -11 6t-13 13q-4 2 -6 5t-4 7q-5 2 -5 12l1.5 1t3.5 3q2 0 2 1t2 1
t4 1l2 1h10h3t3 -2q6 0 10 -2q5 -4 9 -6t6 -4q2 0 6 -2t10 -2q2 0 5 1t7 3q7 2 13 6l8 8q2 4 4 6t2 7q0 8 -6 12q-4 6 -8 6q-4 4 -7.5 5t-5.5 1q-6 2 -16 8q-4 0 -9 1t-9 6q-9 2 -13 5t-8 7q-6 4 -9 8t-5 8q-6 12 -6 25q0 18 6 26q2 7 6 11t10 8q4 4 9.5 6t13.5 6q4 0 10 1
t14 1q4 0 8.5 -1t10.5 -1q4 -2 7 -4t9 -4q2 -2 6 -5t8 -7q3 -2 6 -5.5t5 -7.5l-8 -4l-6 -4t-3 -4h-8h-4h-4h-2q-6 0 -6 2l-8 4q-3 0 -4 1l-1 1h-6h-12q-4 0 -5 -1t-5 -3q-2 -2 -4 -8q-2 -2 -2 -8t2 -6q2 -2 3 -4.5t1 -6.5q4 0 7 -1t5 -1q6 -2 11 -4t7 -4l11 -2q4 -4 9 -5
t11 -7q10 -2 17 -12zM1755 80q6 0 6 -6q2 0 2 -3v-5q0 -7 -2 -11q0 -4 -6 -8q-4 0 -6 -4q-2 0 -4 -1t-6 -1q-2 0 -4 1t-4 1q-2 2 -4.5 3t-4.5 1q-2 2 -3 4t-3 4q-2 4 -2 11v5t2 3q2 4 3 5t3 1q7 6 9 6q2 2 4 3t4 1q4 0 6 -1t4 -3q2 0 6 -6zM1839 203q-8 -8 -16 -25
q-2 -4 -4 -11t-2 -13q0 -9 2 -15l4 -12q4 -8 7 -14.5t9 -10.5q4 -4 9 -8t14 -8q8 -2 14 -4t14 -2q6 0 10.5 2t10.5 2q4 2 9 5t9 7q4 0 8 2h7h6t6 -2q6 -2 10 -6l6 -10q-6 -8 -16 -14q-6 -5 -10 -8t-11 -5q-6 -4 -11 -5t-11 -3t-11.5 -3t-11.5 -1q-14 0 -24.5 3t-20.5 5
q-20 10 -35 25q-16 16 -24 35q-2 12 -5 22t-3 23q0 6 1 13t3 15q2 6 4 12.5t6 12.5q6 8 9 13t9 11q7 5 12 9t13 8q4 4 10 6t17 6q4 0 12 1t16 1h11.5t11.5 -2t11 -4t11 -4q7 -2 11 -5t10 -7q10 -9 16 -17l-6 -8l-5 -5t-5 -3h-7h-5h-8t-7 2q-4 4 -9 7t-9 5q-6 2 -10.5 2
h-10.5q-16 0 -28 -6q-9 -2 -14 -6t-9 -8zM2195 207q3 -6 6 -12.5t5 -12.5q2 -8 2 -15v-13v-17t-2 -14t-5 -13.5t-6 -13.5q-8 -10 -16 -22q-8 -4 -14 -9.5t-11 -7.5q-6 -6 -13 -8t-15 -4q-6 -2 -13.5 -3t-15.5 -1q-20 0 -43 8q-8 6 -17 12.5t-16 12.5q-8 8 -14 16t-10 19
q-4 12 -6 22t-2 23q0 6 1 13t1 15q2 6 6 12.5t6 12.5q4 8 8 13t10 11q4 5 10.5 9t12.5 8q4 4 11 6t13 6q9 0 16 1t13 1q8 0 15.5 -1t13.5 -1q8 -4 15 -6t13 -6q5 -4 11 -8t14 -9q2 -6 8 -11t8 -13zM2165 127q4 10 4 27q0 6 -1 13t-3 11q-4 10 -7.5 15.5t-7.5 9.5
q-10 10 -24 14q-6 4 -13.5 5t-15.5 1q-14 0 -26 -6q-7 -2 -12 -6t-11 -8q-4 -4 -8 -9.5t-8 -15.5q-2 -4 -3 -11t-1 -13q0 -9 1 -15t3 -12q8 -16 16 -25q6 -4 11 -8t12 -8q6 -2 14 -4t12 -2q8 0 15.5 2t13.5 4q6 4 13 8t11 8q9 9 15 25zM2433 260l1 1t5 1h39v-219h-39v160
q0 -2 -1 -4l-3 -6v-7t-2 -4q-6 -18 -14.5 -35.5t-14.5 -33.5q-6 -17 -13 -34.5t-13 -35.5h-39l-55 139q-3 2 -3 11q-2 4 -3 5t-1 3v-158h-41v219h39q4 0 6.5 -1l2.5 -1q4 -2 5 -2t3 -2l6 -4l4 -4t2 -4q4 -17 11 -32t14 -34q6 -16 13 -32.5t13 -32.5v-2v-5v-4q4 0 4 -4v4v4
q0 3 1 5l1 2l9 16l45 115q0 2 1 4t1 4q2 2 5 3l3 1q2 2 4 2t4 2z" />
    <glyph glyph-name="nine" unicode="9" horiz-adv-x="2531" 
d="M1929 721q4 -4 8.5 -9t6.5 -10q0 -6 1 -11t1 -11q0 -12 -2 -23q-2 -6 -6.5 -10t-8.5 -6q-4 -4 -8 -7t-8 -7q-12 -4 -23 -4q-6 0 -12 1t-10 3l-10.5 7t-8.5 7q-4 2 -7 6t-3 10q-4 7 -5 12t-1 11q0 10 6 22q0 5 3 10t7 9t8.5 7t10.5 5q8 4 22 4q6 0 10.5 -1t12.5 -3
q4 -2 8 -5t8 -7zM518 702q0 -2 -4 -8q-2 0 -3 -2t-5 -2q-2 -2 -8 -2h-33v47h33q4 0 8 -2q4 0 5 -1l3 -3l4 -8q2 -2 2 -10q0 -6 -2 -9zM801 721q4 -4 8 -9t6 -10q2 -6 3 -11t1 -11t-1 -11t-3 -12q-2 -6 -6 -10t-8 -6q-2 -4 -6 -7t-11 -7q-4 -2 -10 -3t-12 -1q-12 0 -23 4
q-4 4 -9 7t-9 7l-6 6t-6 10q-2 7 -4.5 12t-2.5 11q0 10 7 22q2 5 6 10t6 9q4 4 9 7t9 5q6 2 12.5 3t10.5 1q12 0 22 -4q7 -2 11 -5t6 -7zM1090 733q0 -4 1 -6t1 -4l28 -64h-59l29 64v4v6zM270 729q2 -2 3 -5t3 -5q3 -4 3 -10v-5.5t-3 -5.5q-2 -2 -3 -5t-3 -3l-8 -8h-10h-37
v53h37q6 0 10 -2q2 0 5 -2zM2478 1092v-586h-2404v586h911q0 30 5 58t18 54q12 27 27.5 51.5t37.5 42.5q37 39 90 62q29 12 56.5 17t56.5 5q33 0 61.5 -6t53.5 -18q28 -12 51.5 -28.5t42.5 -35.5q37 -37 61 -94q21 -53 21 -108h911zM1030 1192q-22 -47 -22 -100
q0 -58 22 -105q10 -22 24.5 -44.5t30.5 -41.5q19 -18 40.5 -32.5t45.5 -24.5q48 -23 105 -23q29 0 54.5 4t49.5 15q25 12 45.5 25.5t38.5 33.5q19 19 33 40.5t27 43.5q22 51 22 109q0 22 -4 45.5t-14 44.5q-12 41 -41 75q-14 17 -30.5 31.5t-33.5 24.5q-18 10 -37.5 19
t-39.5 18q-15 4 -32.5 6t-37.5 2q-29 0 -55.5 -5t-51.5 -18q-49 -18 -86 -57q-16 -18 -29.5 -41t-23.5 -45zM295 690q6 10 6 19q0 4 -1 9t-5 11q0 2 -4 6l-6 6q-2 4 -5.5 7.5t-9.5 3.5q-4 2 -9 4t-9 2h-53v-154h16v58h37q4 0 9 1t9 3q11 4 15 8q2 4 6 8t4 8zM410 758h-95
v-154h95v19h-72v47h59v20h-59v45h72v23zM559 604l-47 66q2 2 5 2t5 4q8 4 10 10q3 2 5 5t4 7v13v10t-2 8q-4 8 -11 14q-4 9 -14 9q-2 2 -7 4t-9 2h-56v-154h23v64h22l41 -56q2 -4 7 -6q2 -2 4 -2h6h14zM664 631q0 4 1 8t1 8q0 12 -4.5 20.5t-12.5 14.5q-2 0 -3 2t-5 4h-1
t-5 2h-2t-2 4q-6 0 -8 2q-7 0 -9 1l-6 3q-8 2 -8 5q-6 4 -6 6v8v8q2 0 4 2t2 4l3 1t5 1q4 2 6 2h4l2.5 -1t4.5 -1q8 0 8 -4q2 -2 4 -2h4q8 0 14 4l4 2q0 2 -2 4l-4 4q-4 2 -6 4.5t-6 4.5q-2 0 -4 1t-6 5q-6 0 -7 1t-6 1q-4 0 -9 -1t-9 -1q-4 -4 -7 -6t-7 -2q-2 -5 -5 -8
t-6 -7q-2 -4 -3 -7t-1 -9v-9t4 -8q3 -4 6 -7t3 -5q4 -2 8 -5t8 -3q4 -2 7 -4t7 -4q2 -2 5.5 -2h5.5q6 -2 7 -2t3 -2q4 -2 4 -3t2 -6q2 -2 2 -5v-7v-3t-2 -5q-2 -4 -2 -5t-4 -3q-2 -4 -5 -5t-5 -3h-5.5h-5.5h-7h-5q-2 2 -5 3t-3 5l-2 2q-6 4 -12 4h-4.5t-4.5 -2l-6 -2
q0 -4 2 -4q0 -4 4 -6q0 -2 2 -5l2 -2h3q8 -8 17 -10t19 -2h9.5t9.5 2t9 4t7 6q6 2 9.5 5.5t5.5 9.5zM838 659q2 7 2 11v10q0 12 -2 20q0 7 -3.5 11t-5.5 10q-4 6 -12 14q-4 4 -8 6t-10 9q-2 0 -6.5 2t-10.5 6q-6 0 -10 1t-10 1q-4 0 -10.5 -1t-10.5 -1q-6 -4 -10 -6t-8 -2
q-4 -7 -8 -9t-8 -6q-5 -4 -8 -7t-5 -7q-4 -6 -5 -10t-3 -11q-2 -8 -2 -20q0 -8 2 -15.5t4 -15.5q2 -6 6 -12t11 -14q6 -5 12 -9t14 -4q12 -6 29 -6h10h10q11 4 17 8q14 6 18 11q6 8 12 18q2 4 5.5 9t3.5 9zM997 758h-20v-119q0 2 -1 5l-1 3l-74 105q-4 0 -8 6h-4h-4h-15
v-154h21v129v-4l2 -2v0v-4l88 -119h16v154zM1169 604l-67 154h-23l-65 -154h12q6 0 8 2l3 3t5 3l9 27h79l11 -27q2 -4 6 -6q0 -2 8 -2h14zM1270 623h-66v135h-22v-154h88v19zM1479 758h-21v-92v-11t-2 -8q-2 -8 -10 -12q-2 -2 -5 -4t-5 -6q-6 -2 -9.5 -2h-7.5q-10 0 -14 2
q-6 4 -10 6t-4 4q-2 2 -4.5 5t-6.5 7q0 4 -1 8t-1 11v92h-20v-92v-12t2 -7q0 -8 4 -14q4 -10 12 -15q2 -2 5 -4t8 -4q2 -2 6 -3t6 -3q6 0 9 -2t9 -2q4 0 7.5 2t9.5 2q4 2 7 3t7 3l12 8q4 5 5 8t3 7q3 2 6 6t3 8v19v92zM1597 631q7 8 7 16q0 12 -4.5 20.5t-12.5 14.5
q-6 4 -6 6h-5t-5 2h-3t-5 4h-2t-5 2q-2 0 -4 1l-6 3q-8 2 -8 5q-4 2 -5 4t-3 2q0 2 -1 3t-1 5t4 8l6 6q2 0 3 1t5 1q0 2 10 2l2.5 -1t4.5 -1q2 -2 8 -4q8 -2 10 -2q6 0 8 4l6 2l-4 4l-4 4q0 2 -3 4.5t-5 4.5q-4 0 -6 1t-6 5q-4 0 -7.5 1l-3.5 1q-6 0 -10 -1t-8 -1
q-4 -4 -8 -6t-6 -2q-4 -5 -6 -8t-7 -7q0 -4 -2 -7t-2 -9t2 -9t2 -8q5 -8 11 -12q4 -2 7 -5t5 -3q6 -2 9 -4t7 -4t6.5 -2h4.5q2 -2 5 -2t5 -2t5 -3t3 -6q2 -2 2 -5v-7v-3t-2 -5q-2 -6 -8 -8q-4 -4 -6 -5t-4 -3h-6h-5h-7h-5q-4 2 -10 8v2q-6 4 -12 4h-3.5t-5.5 -2l-6 -2
q2 -2 2 -3t2 -1q0 -2 1 -3t1 -3l1 -1t1 -4q4 -2 7 -2q6 -8 15 -10t19 -2h10.5t10.5 2l8 4t8 6q2 2 5 5.5t5 9.5zM1722 758h-94v-154h94v19h-73v47h61v20h-61v45h73v23zM1966 659v11v10v11v9q-4 11 -10 21q-4 6 -12 14q-2 4 -6.5 6t-8.5 9q-4 0 -9 2t-9 6q-6 0 -10.5 1
t-10.5 1t-11 -1t-9 -1q-12 -6 -21 -8q-4 -7 -7 -9t-7 -6l-7 -7l-7 -7q-2 -6 -4 -10t-2 -11q-5 -8 -5 -20q0 -8 2.5 -15.5t4.5 -15.5q6 -14 18 -26q4 -5 10 -9t15 -4q12 -6 30 -6h10.5h10.5q4 2 9 4t9 4q4 4 8.5 6.5t6.5 4.5q8 8 12 18q6 8 10 18zM2126 758h-23v-119
q0 2 -1 5t-3 3l-74 105l-1 1t-3 5h-5h-5h-16v-154h24v129v-4v-2v-2l2 -2l86 -119h19v154zM2251 623h-66v135h-22v-154h88v19zM2374 758h-19q-4 0 -8 -4q-8 -4 -8 -9l-35 -47l-2 -2h-2v-2v2l-2 2l-37 47q-2 5 -6 9t-10 4h-17l56 -76l2 -2q0 -2 2 -2v-2v-2q0 -2 2 -2v-2v-66
h22v66v2v4q2 0 2 4v2h2zM1188 864q-19 8 -38.5 19.5t-33.5 25.5h322q-17 -14 -35.5 -25.5t-38.5 -19.5q-21 -6 -43.5 -12t-44.5 -6q-25 0 -46.5 6t-41.5 12zM1141 936l315 317q29 -39 45.5 -79.5t16.5 -81.5q0 -23 -3.5 -44.5t-11.5 -41.5q-8 -19 -18 -36.5t-23 -33.5h-321z
M1094 928q-27 35 -45 73q-7 21 -11 43.5t-4 47.5q0 20 4 40.5t11 41.5q6 18 16 35.5t25 33.5h319zM1364 1315q20 -8 38.5 -20.5t33.5 -22.5h-324q37 28 76 43q39 18 88 18t88 -18zM78 350q-4 4 -5 8t-3 9q-2 6 -3 10t-1 10t4 16q2 5 3 10t5 7l3 9t7 7q0 2 5 5t7 5q6 5 9.5 6
t9.5 3q2 0 8 1t10 1q8 0 14.5 -1t14.5 -5q8 -2 13 -6.5t9 -8.5q-2 -2 -4 -2v-4h-2h-2h-4h-6q-4 2 -8 5t-8 3h-7.5h-9.5h-10h-8q-8 -4 -12.5 -7t-8.5 -5q-4 -6 -7 -10t-5 -8q-4 -7 -4 -13v-8q0 -8 2 -14t3 -9.5t1 -7.5q2 -2 5 -4t5 -6q4 -2 6 -5t7 -3q2 -2 6 -4t8 -2
q2 -2 6 -2h6h10.5t8.5 2q4 0 9 2t9 4v29h-12h-2l-2 2l-3 3l-3 3l-1 1t-1 3v1v3v0h38v-53l-5 -5t-5 -6q-6 -2 -12 -2q-6 -2 -14 -2h-15h-10h-8q-6 2 -9.5 4.5t-9.5 6.5q-2 0 -7 3t-5 7q-6 2 -7 6t-3 8zM240 438v-45h55v-14h-55v-47h67v-17h-84v140h84v-17h-67zM369 315v123
h-45v17h106v-17h-47v-123h-14zM532 438v-49h60v-12h-60v-62h-16v140h84v-17h-68zM641 455v-86q0 -4 2 -7.5t4 -5.5q2 -6 5 -9t5 -7q0 -2 3.5 -4t5.5 -4q6 -2 10 -2h8h7t5 2q6 2 9.5 4t7.5 4q0 4 3 7t5 9q4 4 4 13v86h14v-86q0 -7 -1 -11t-3 -10t-5 -10t-7 -8t-8 -7.5
t-8 -5.5q-13 -2 -23 -2q-12 0 -25 2q-2 2 -7 5.5t-9 7.5q-6 6 -10 18q-2 6 -4 10t-2 11v86h14zM784 455v-123h62v-17h-78v140h16zM877 455v-123h65v-17h-80v140h15zM1069 315l-61 140h8q4 0 8 -2q2 -2 3 -2t3 -5l43 -104v-4q2 -2 2 -6v6l1 2l1 2q6 14 12.5 26.5t12.5 24.5
q4 17 10 29l12 24q0 5 2 5t2 2q2 2 3.5 2h5.5h8q-8 -17 -15.5 -34.5t-17.5 -33.5q-6 -20 -13 -36.5t-16 -35.5h-14zM1171 438v-45h58v-14h-58v-47h68v-17h-84v140h84v-17h-68zM1341 381q-2 -2 -10 -4l47 -62h-10q-2 0 -5 1l-3 1q-2 2 -4 3.5t-4 5.5l-39 51h-25v-62h-14v140
h51h5t7 -2q9 -2 15 -9q2 -4 4 -7t4 -7q2 -2 2 -7v-5v-9t-2 -6q0 -4 -2 -8t-4 -6l-4 -4t-9 -4zM1325 389q4 0 6 4q2 0 4 1t4 1l3 6t4 5q0 2 1 4t1 8l-1 2t-1 6q-3 2 -4 3t-3 5q-2 0 -4 1t-4 3h-6h-37v-49h37zM1452 336q2 2 4 8q2 2 3 6t1 6q0 6 -2 11q-2 0 -3 3t-3 5t-8 4
q-4 0 -6 1l-6 3q-5 0 -9 2t-4 4q-10 0 -14 6q-4 0 -5 4t-3 7v14v9t2 7q0 6 8 10q4 5 6 6t8 3q4 0 6.5 1t8.5 1q2 0 5 -1t5 -1t4 -1l6 -3q2 0 4 -2.5t2 -4.5q4 -2 5 -4t3 -2l-4 -2q-2 -2 -8 -2h-6q-4 2 -4 4h-2h-2h-2h-3h-1h-2h-9q-8 0 -8 -2q-6 -6 -6 -8q-4 0 -4 -8
q0 -6 4 -6q0 -4 2 -6t5 -3.5l3 -1.5q4 -4 6.5 -4t8.5 -4h3t3 -2h4t4 -4h2h1h1q2 0 4 -1l2 -1q4 -4 6 -7t7 -5q2 -10 2 -19v-10t-7 -8q0 -6 -8 -12q-2 -2 -6 -4.5t-8 -4.5t-8 -2h-10q-11 0 -18 2t-13 9q-2 0 -4 2l-4 4q0 2 -1 4l-1 2l2 2l1 1t5 1h2q2 0 4 -1t4 -3q4 -2 6 -4
t6 -2q0 -2 4 -2h7q8 0 10 2q8 0 12 4zM1524 455v-140h-17v140h17zM1579 336q-12 8 -18 20q-5 15 -5 31v7v9q7 11 9 17q6 8 14 16q6 6 12 10q4 5 9.5 6t9.5 3q4 0 8 1t10 1q4 0 9 -1t12 -1q4 -2 8 -3t8 -6l5 -5t7 -5q4 -4 6.5 -7t6.5 -9q2 -6 6 -17q2 -4 3 -9t1 -7
q0 -8 -2 -15t-6 -16q-2 -6 -5.5 -11t-9.5 -9q-6 -6 -11 -9t-11 -8q-10 -4 -27 -4q-8 0 -15 1t-11 3q-17 5 -23 17zM1579 408q-4 -7 -6 -13t-2 -8q0 -4 1 -8t1 -6q2 -8 8 -17q0 -2 2 -4t4 -6l5 -5t10 -3q2 -2 5 -4t5 -2q4 -2 8 -2h8h7t7 2q3 0 7 2l8 4q2 0 5 3l5 5q2 4 4 6
l4 4q2 4 3 7.5t3 9.5q0 2 1 6t1 8q0 2 -1 8t-5 13q0 4 -4 8t-6 10q-4 2 -8 5t-10 7h-9.5h-11.5h-12h-10q-4 -4 -9.5 -7t-9.5 -5q-2 -6 -5 -10t-3 -8zM1741 315h-17v140h13h5t5 -4l72 -103q2 0 2 -4l2 -2v-2v115h16v-140h-14l-82 115v4h-2v4v-123zM1956 438v-49h57v-12h-57
v-62h-14v140h83v-17h-69zM2114 381q-9 -2 -13 -4l45 -62h-12q-4 0 -8 2q0 2 -1 3.5t-3 5.5l-39 51h-25v-62h-16v140h51h6t8 -2t7.5 -4.5t5.5 -4.5q2 -4 4 -7t6 -7q0 -2 1 -7l1 -5q0 -6 -1 -9t-1 -6l-4 -8t-2 -6zM2101 393q2 0 3 1t3 1q7 8 7 11q2 4 2 12q0 2 -2 8q0 2 -7 8
q-2 0 -3 1l-3 3h-8h-35v-49h35q4 0 8 4zM2281 336q-4 -6 -10 -9t-12 -8q-6 -2 -12 -3t-15 -1q-8 0 -15 1t-13 3q-13 5 -23 17q-4 4 -8 9t-6 11q-2 9 -5 16t-3 15q0 2 1 7t3 9q2 5 3 10t3 7q4 6 7 9t5 7q4 2 8 5t9 5q4 5 8 6t8 3q6 0 9 1t9 1q4 0 9.5 -1t9.5 -1l9 -3t7 -6
q4 -2 8 -5t6 -5q3 -4 6 -7t5 -9q6 -6 8 -17q2 -4 3 -9t1 -7q0 -8 -1 -15t-5 -16q-2 -6 -6 -11t-11 -9zM2232 330h7.5t9.5 2q2 0 5 2t5 4q2 0 6 3t8 5l3 6t3 4q2 4 3.5 7.5t1.5 9.5q2 2 2 6v8q0 2 -1 8t-1 13l-6 8t-5 10q-6 2 -11 5t-9 7h-10.5h-10.5h-11h-11q-6 -4 -9 -7
t-8 -5q-6 -6 -8 -10l-4 -8q-2 -7 -2 -13v-8v-14q0 -6 1 -9.5t5 -7.5q0 -2 3 -4t5 -6q2 -2 5.5 -5t5.5 -3q2 -2 5 -4t9 -2q2 -2 6 -2h8zM2460 453q2 2 3 2h3h12v-140h-14v115l-2 -2v0v-2q-4 -8 -6 -17.5t-7 -15.5q-4 -6 -7 -12l-7 -14q-2 -9 -4 -15l-4 -12q-4 -6 -7 -11
t-5 -14h-15q-10 13 -15 27t-11 27q-4 14 -11.5 28.5t-11.5 28.5v2l-4 2v-115h-16v140h14q6 0 8 -2l2 -2v-5l49 -108q0 -2 2 -2v-4q0 2 1 4t1 4q0 4 5 8l43 98q0 5 1 5t3 2zM74 262h157v-20v-4v-5q0 -4 -2 -6l-4 -4l-106 -145h2v2h4h2h104v-37h-165v12q0 11 2 13q0 2 4 8
q2 2 2 4t2 4t3 4l3 6l94 129h-102v39zM260 262h139v-39h-100v-49h80v-41h-80v-53h100v-37h-139v219zM571 223h-59v-180h-43v180h-63v39h165v-39zM672 262l94 -219h-25q-8 0 -16 4q-4 2 -5 6t-5 8l-13 29h-100l-10 -29q-2 -4 -3 -5t-3 -1q0 -4 -1 -5t-5 -3q-2 0 -4.5 -1
t-4.5 -1q0 -2 -2 -2h-4h-24l94 219h37zM684 129l-27 68q0 2 -1 3t-1 3q0 4 -2 6v-6q0 -2 -2 -3t-2 -3l-26 -68h61zM774 262h139v-39h-100v-55h82v-39h-82v-86h-39v219zM1133 207q4 -6 6 -12.5t6 -12.5q2 -8 2 -15v-13v-17t-2 -14q-4 -6 -6 -13.5t-6 -13.5q-5 -4 -9 -10
l-8 -12q-8 -4 -12 -9.5t-10 -7.5q-7 -6 -14 -8t-13 -4q-8 -2 -15.5 -3t-15.5 -1q-10 0 -21 3t-22 5q-12 6 -19 12.5t-18 12.5q-14 16 -20 35q-6 12 -8 22t-2 23q0 6 1 13t3 15q4 17 12 25q4 8 7 13t7 11q9 5 14 9t11 8t12 6t15 6q6 0 13 1t15 1t15.5 -1t15.5 -1q6 -4 13 -6
t14 -6q6 -4 10 -8t12 -9q4 -6 8 -11t9 -13zM1104 127q2 6 3 12t1 15q0 12 -4 24q-4 10 -8 15.5t-11 9.5q-4 4 -9 8t-11 6q-12 6 -29 6q-16 0 -28 -6q-4 -2 -9.5 -6t-11.5 -8t-9 -9.5t-7 -15.5q-4 -4 -4 -11v-13v-15t4 -12q4 -8 7 -14.5t9 -10.5t11.5 -8t9.5 -8q8 -2 14 -4
t14 -2t14.5 2t14.5 4q6 4 11 8t9 8q7 4 11 10.5t8 14.5zM1329 262h39v-219h-37l-102 147q-2 0 -2 1.5t-2 3.5q-2 4 -2 6q-4 0 -4 4l-1 1t-4 3v-166h-38v219h34q4 0 8.5 -1t4.5 -3l6 -3t4 -3q10 -16 21.5 -31.5t21.5 -34.5q12 -14 23.5 -29.5t25.5 -29.5q0 -4 1 -6t1 -6
q0 -2 1 -4t1 -5v156zM1389 262h165v-39h-65v-180h-39v180h-61v39zM1690 150q2 -5 5 -9t5 -8q0 -4 2 -9t2 -13q0 -13 -6 -27l-8 -12t-9 -11q-8 -4 -12 -8t-12 -6t-15.5 -4t-13.5 -2q-8 0 -15 2t-18 4q-6 2 -11 6t-13 13q-4 2 -6 5t-4 7q-5 2 -5 12l1.5 1t3.5 3q2 0 2 1t2 1
t4 1l2 1h10h3t3 -2q6 0 10 -2q5 -4 9 -6t6 -4q2 0 6 -2t10 -2q2 0 5 1t7 3q7 2 13 6l8 8q2 4 4 6t2 7q0 8 -6 12q-4 6 -8 6q-4 4 -7.5 5t-5.5 1q-6 2 -16 8q-4 0 -9 1t-9 6q-9 2 -13 5t-8 7q-6 4 -9 8t-5 8q-6 12 -6 25q0 18 6 26q2 7 6 11t10 8q4 4 9.5 6t13.5 6q4 0 10 1
t14 1q4 0 8.5 -1t10.5 -1q4 -2 7 -4t9 -4q2 -2 6 -5t8 -7q3 -2 6 -5.5t5 -7.5l-8 -4l-6 -4t-3 -4h-8h-4h-4h-2q-6 0 -6 2l-8 4q-3 0 -4 1l-1 1h-6h-12q-4 0 -5 -1t-5 -3q-2 -2 -4 -8q-2 -2 -2 -8t2 -6q2 -2 3 -4.5t1 -6.5q4 0 7 -1t5 -1q6 -2 11 -4t7 -4l11 -2q4 -4 9 -5
t11 -7q10 -2 17 -12zM1755 80q6 0 6 -6q2 0 2 -3v-5q0 -7 -2 -11q0 -4 -6 -8q-4 0 -6 -4q-2 0 -4 -1t-6 -1q-2 0 -4 1t-4 1q-2 2 -4.5 3t-4.5 1q-2 2 -3 4t-3 4q-2 4 -2 11v5t2 3q2 4 3 5t3 1q7 6 9 6q2 2 4 3t4 1q4 0 6 -1t4 -3q2 0 6 -6zM1839 203q-8 -8 -16 -25
q-2 -4 -4 -11t-2 -13q0 -9 2 -15l4 -12q4 -8 7 -14.5t9 -10.5q4 -4 9 -8t14 -8q8 -2 14 -4t14 -2q6 0 10.5 2t10.5 2q4 2 9 5t9 7q4 0 8 2h7h6t6 -2q6 -2 10 -6l6 -10q-6 -8 -16 -14q-6 -5 -10 -8t-11 -5q-6 -4 -11 -5t-11 -3t-11.5 -3t-11.5 -1q-14 0 -24.5 3t-20.5 5
q-20 10 -35 25q-16 16 -24 35q-2 12 -5 22t-3 23q0 6 1 13t3 15q2 6 4 12.5t6 12.5q6 8 9 13t9 11q7 5 12 9t13 8q4 4 10 6t17 6q4 0 12 1t16 1h11.5t11.5 -2t11 -4t11 -4q7 -2 11 -5t10 -7q10 -9 16 -17l-6 -8l-5 -5t-5 -3h-7h-5h-8t-7 2q-4 4 -9 7t-9 5q-6 2 -10.5 2
h-10.5q-16 0 -28 -6q-9 -2 -14 -6t-9 -8zM2195 207q3 -6 6 -12.5t5 -12.5q2 -8 2 -15v-13v-17t-2 -14t-5 -13.5t-6 -13.5q-8 -10 -16 -22q-8 -4 -14 -9.5t-11 -7.5q-6 -6 -13 -8t-15 -4q-6 -2 -13.5 -3t-15.5 -1q-20 0 -43 8q-8 6 -17 12.5t-16 12.5q-8 8 -14 16t-10 19
q-4 12 -6 22t-2 23q0 6 1 13t1 15q2 6 6 12.5t6 12.5q4 8 8 13t10 11q4 5 10.5 9t12.5 8q4 4 11 6t13 6q9 0 16 1t13 1q8 0 15.5 -1t13.5 -1q8 -4 15 -6t13 -6q5 -4 11 -8t14 -9q2 -6 8 -11t8 -13zM2165 127q4 10 4 27q0 6 -1 13t-3 11q-4 10 -7.5 15.5t-7.5 9.5
q-10 10 -24 14q-6 4 -13.5 5t-15.5 1q-14 0 -26 -6q-7 -2 -12 -6t-11 -8q-4 -4 -8 -9.5t-8 -15.5q-2 -4 -3 -11t-1 -13q0 -9 1 -15t3 -12q8 -16 16 -25q6 -4 11 -8t12 -8q6 -2 14 -4t12 -2q8 0 15.5 2t13.5 4q6 4 13 8t11 8q9 9 15 25zM2433 260l1 1t5 1h39v-219h-39v160
q0 -2 -1 -4l-3 -6v-7t-2 -4q-6 -18 -14.5 -35.5t-14.5 -33.5q-6 -17 -13 -34.5t-13 -35.5h-39l-55 139q-3 2 -3 11q-2 4 -3 5t-1 3v-158h-41v219h39q4 0 6.5 -1l2.5 -1q4 -2 5 -2t3 -2l6 -4l4 -4t2 -4q4 -17 11 -32t14 -34q6 -16 13 -32.5t13 -32.5v-2v-5v-4q4 0 4 -4v4v4
q0 3 1 5l1 2l9 16l45 115q0 2 1 4t1 4q2 2 5 3l3 1q2 2 4 2t4 2z" />
    <glyph glyph-name="colon" unicode=":" horiz-adv-x="419" 
d="M112 878q0 36 25.5 61.5t61.5 25.5t61 -25.5t25 -61.5t-25 -61.5t-61 -25.5t-61.5 25.5t-25.5 61.5zM112 74q0 37 25.5 62.5t61.5 25.5t61 -25.5t25 -62.5q0 -35 -25 -60t-61 -25t-61.5 24.5t-25.5 60.5z" />
    <glyph glyph-name="semicolon" unicode=";" horiz-adv-x="419" 
d="M117 127q0 29 19.5 49.5t48.5 20.5t47.5 -20.5t18.5 -49.5v-326q0 -29 -18.5 -48.5t-47.5 -19.5t-48.5 19.5t-19.5 48.5v326zM112 878q0 36 25.5 61.5t61.5 25.5t61 -25.5t25 -61.5t-25 -61.5t-61 -25.5t-61.5 25.5t-25.5 61.5z" />
    <glyph glyph-name="less" unicode="&#x3c;" horiz-adv-x="754" 
d="M601 942q14 8 29 8q20 0 37 -16t17 -40q-1 -14 -7 -27.5t-20 -20.5l-426 -224l423 -233q14 -8 21 -21t7 -27q0 -25 -17 -40t-37 -15q-14 0 -27 7l-511 282q-14 7 -22 20.5t-8 29.5q0 13 7 26.5t22 21.5z" />
    <glyph glyph-name="equal" unicode="=" horiz-adv-x="862" 
d="M720 408q29 0 49 -19.5t20 -47.5t-20 -48t-49 -20h-573q-29 0 -48.5 20t-19.5 49q0 28 19.5 47t48.5 19h573zM720 813q29 0 49 -19.5t20 -47.5t-20 -48.5t-49 -20.5h-573q-29 0 -48.5 20.5t-19.5 49.5q0 28 19.5 47t48.5 19h573z" />
    <glyph glyph-name="greater" unicode="&#x3e;" horiz-adv-x="770" 
d="M122 293q-13 -7 -27 -7q-20 0 -37 15t-17 40q0 14 7 27t21 21l422 233l-425 224q-14 7 -20.5 20.5t-6.5 27.5q0 24 17 40t37 16q14 0 28 -8l514 -269q10 -8 18 -18l3 -4l4 -11q3 -9 3 -18q0 -13 -8 -26l-5 -7q-8 -9 -16 -14z" />
    <glyph glyph-name="question" unicode="?" horiz-adv-x="964" 
d="M160 851q-29 0 -49 20t-20 49v7q1 82 32.5 153.5t85.5 124.5t126 84t153 31q83 0 156 -31.5t127 -85.5t85.5 -127t31.5 -156t-31.5 -154t-86.5 -124t-128 -83t-155 -30h-31v-146q0 -29 -18.5 -48.5t-47.5 -19.5t-48 19.5t-19 48.5v211q0 29 19.5 49t47.5 20h99
q55 0 103.5 20t84.5 54.5t56.5 81.5t20.5 101q0 56 -20 105t-55.5 85t-84 56.5t-104.5 20.5q-54 0 -102 -20t-84 -55.5t-57.5 -84.5t-21.5 -107q0 -29 -18.5 -49t-46.5 -20zM312 66q0 34 22.5 57t54.5 23q33 0 56 -23t23 -57q0 -31 -23 -54t-56 -23q-16 0 -30 6.5t-24.5 17
t-16.5 24.5t-6 29z" />
    <glyph glyph-name="at" unicode="@" horiz-adv-x="2531" 
d="M1929 721q4 -4 8.5 -9t6.5 -10q0 -6 1 -11t1 -11q0 -12 -2 -23q-2 -6 -6.5 -10t-8.5 -6q-4 -4 -8 -7t-8 -7q-12 -4 -23 -4q-6 0 -12 1t-10 3l-10.5 7t-8.5 7q-4 2 -7 6t-3 10q-4 7 -5 12t-1 11q0 10 6 22q0 5 3 10t7 9t8.5 7t10.5 5q8 4 22 4q6 0 10.5 -1t12.5 -3
q4 -2 8 -5t8 -7zM518 702q0 -2 -4 -8q-2 0 -3 -2t-5 -2q-2 -2 -8 -2h-33v47h33q4 0 8 -2q4 0 5 -1l3 -3l4 -8q2 -2 2 -10q0 -6 -2 -9zM801 721q4 -4 8 -9t6 -10q2 -6 3 -11t1 -11t-1 -11t-3 -12q-2 -6 -6 -10t-8 -6q-2 -4 -6 -7t-11 -7q-4 -2 -10 -3t-12 -1q-12 0 -23 4
q-4 4 -9 7t-9 7l-6 6t-6 10q-2 7 -4.5 12t-2.5 11q0 10 7 22q2 5 6 10t6 9q4 4 9 7t9 5q6 2 12.5 3t10.5 1q12 0 22 -4q7 -2 11 -5t6 -7zM1090 733q0 -4 1 -6t1 -4l28 -64h-59l29 64v4v6zM270 729q2 -2 3 -5t3 -5q3 -4 3 -10v-5.5t-3 -5.5q-2 -2 -3 -5t-3 -3l-8 -8h-10h-37
v53h37q6 0 10 -2q2 0 5 -2zM2478 1092v-586h-2404v586h911q0 30 5 58t18 54q12 27 27.5 51.5t37.5 42.5q37 39 90 62q29 12 56.5 17t56.5 5q33 0 61.5 -6t53.5 -18q28 -12 51.5 -28.5t42.5 -35.5q37 -37 61 -94q21 -53 21 -108h911zM1030 1192q-22 -47 -22 -100
q0 -58 22 -105q10 -22 24.5 -44.5t30.5 -41.5q19 -18 40.5 -32.5t45.5 -24.5q48 -23 105 -23q29 0 54.5 4t49.5 15q25 12 45.5 25.5t38.5 33.5q19 19 33 40.5t27 43.5q22 51 22 109q0 22 -4 45.5t-14 44.5q-12 41 -41 75q-14 17 -30.5 31.5t-33.5 24.5q-18 10 -37.5 19
t-39.5 18q-15 4 -32.5 6t-37.5 2q-29 0 -55.5 -5t-51.5 -18q-49 -18 -86 -57q-16 -18 -29.5 -41t-23.5 -45zM295 690q6 10 6 19q0 4 -1 9t-5 11q0 2 -4 6l-6 6q-2 4 -5.5 7.5t-9.5 3.5q-4 2 -9 4t-9 2h-53v-154h16v58h37q4 0 9 1t9 3q11 4 15 8q2 4 6 8t4 8zM410 758h-95
v-154h95v19h-72v47h59v20h-59v45h72v23zM559 604l-47 66q2 2 5 2t5 4q8 4 10 10q3 2 5 5t4 7v13v10t-2 8q-4 8 -11 14q-4 9 -14 9q-2 2 -7 4t-9 2h-56v-154h23v64h22l41 -56q2 -4 7 -6q2 -2 4 -2h6h14zM664 631q0 4 1 8t1 8q0 12 -4.5 20.5t-12.5 14.5q-2 0 -3 2t-5 4h-1
t-5 2h-2t-2 4q-6 0 -8 2q-7 0 -9 1l-6 3q-8 2 -8 5q-6 4 -6 6v8v8q2 0 4 2t2 4l3 1t5 1q4 2 6 2h4l2.5 -1t4.5 -1q8 0 8 -4q2 -2 4 -2h4q8 0 14 4l4 2q0 2 -2 4l-4 4q-4 2 -6 4.5t-6 4.5q-2 0 -4 1t-6 5q-6 0 -7 1t-6 1q-4 0 -9 -1t-9 -1q-4 -4 -7 -6t-7 -2q-2 -5 -5 -8
t-6 -7q-2 -4 -3 -7t-1 -9v-9t4 -8q3 -4 6 -7t3 -5q4 -2 8 -5t8 -3q4 -2 7 -4t7 -4q2 -2 5.5 -2h5.5q6 -2 7 -2t3 -2q4 -2 4 -3t2 -6q2 -2 2 -5v-7v-3t-2 -5q-2 -4 -2 -5t-4 -3q-2 -4 -5 -5t-5 -3h-5.5h-5.5h-7h-5q-2 2 -5 3t-3 5l-2 2q-6 4 -12 4h-4.5t-4.5 -2l-6 -2
q0 -4 2 -4q0 -4 4 -6q0 -2 2 -5l2 -2h3q8 -8 17 -10t19 -2h9.5t9.5 2t9 4t7 6q6 2 9.5 5.5t5.5 9.5zM838 659q2 7 2 11v10q0 12 -2 20q0 7 -3.5 11t-5.5 10q-4 6 -12 14q-4 4 -8 6t-10 9q-2 0 -6.5 2t-10.5 6q-6 0 -10 1t-10 1q-4 0 -10.5 -1t-10.5 -1q-6 -4 -10 -6t-8 -2
q-4 -7 -8 -9t-8 -6q-5 -4 -8 -7t-5 -7q-4 -6 -5 -10t-3 -11q-2 -8 -2 -20q0 -8 2 -15.5t4 -15.5q2 -6 6 -12t11 -14q6 -5 12 -9t14 -4q12 -6 29 -6h10h10q11 4 17 8q14 6 18 11q6 8 12 18q2 4 5.5 9t3.5 9zM997 758h-20v-119q0 2 -1 5l-1 3l-74 105q-4 0 -8 6h-4h-4h-15
v-154h21v129v-4l2 -2v0v-4l88 -119h16v154zM1169 604l-67 154h-23l-65 -154h12q6 0 8 2l3 3t5 3l9 27h79l11 -27q2 -4 6 -6q0 -2 8 -2h14zM1270 623h-66v135h-22v-154h88v19zM1479 758h-21v-92v-11t-2 -8q-2 -8 -10 -12q-2 -2 -5 -4t-5 -6q-6 -2 -9.5 -2h-7.5q-10 0 -14 2
q-6 4 -10 6t-4 4q-2 2 -4.5 5t-6.5 7q0 4 -1 8t-1 11v92h-20v-92v-12t2 -7q0 -8 4 -14q4 -10 12 -15q2 -2 5 -4t8 -4q2 -2 6 -3t6 -3q6 0 9 -2t9 -2q4 0 7.5 2t9.5 2q4 2 7 3t7 3l12 8q4 5 5 8t3 7q3 2 6 6t3 8v19v92zM1597 631q7 8 7 16q0 12 -4.5 20.5t-12.5 14.5
q-6 4 -6 6h-5t-5 2h-3t-5 4h-2t-5 2q-2 0 -4 1l-6 3q-8 2 -8 5q-4 2 -5 4t-3 2q0 2 -1 3t-1 5t4 8l6 6q2 0 3 1t5 1q0 2 10 2l2.5 -1t4.5 -1q2 -2 8 -4q8 -2 10 -2q6 0 8 4l6 2l-4 4l-4 4q0 2 -3 4.5t-5 4.5q-4 0 -6 1t-6 5q-4 0 -7.5 1l-3.5 1q-6 0 -10 -1t-8 -1
q-4 -4 -8 -6t-6 -2q-4 -5 -6 -8t-7 -7q0 -4 -2 -7t-2 -9t2 -9t2 -8q5 -8 11 -12q4 -2 7 -5t5 -3q6 -2 9 -4t7 -4t6.5 -2h4.5q2 -2 5 -2t5 -2t5 -3t3 -6q2 -2 2 -5v-7v-3t-2 -5q-2 -6 -8 -8q-4 -4 -6 -5t-4 -3h-6h-5h-7h-5q-4 2 -10 8v2q-6 4 -12 4h-3.5t-5.5 -2l-6 -2
q2 -2 2 -3t2 -1q0 -2 1 -3t1 -3l1 -1t1 -4q4 -2 7 -2q6 -8 15 -10t19 -2h10.5t10.5 2l8 4t8 6q2 2 5 5.5t5 9.5zM1722 758h-94v-154h94v19h-73v47h61v20h-61v45h73v23zM1966 659v11v10v11v9q-4 11 -10 21q-4 6 -12 14q-2 4 -6.5 6t-8.5 9q-4 0 -9 2t-9 6q-6 0 -10.5 1
t-10.5 1t-11 -1t-9 -1q-12 -6 -21 -8q-4 -7 -7 -9t-7 -6l-7 -7l-7 -7q-2 -6 -4 -10t-2 -11q-5 -8 -5 -20q0 -8 2.5 -15.5t4.5 -15.5q6 -14 18 -26q4 -5 10 -9t15 -4q12 -6 30 -6h10.5h10.5q4 2 9 4t9 4q4 4 8.5 6.5t6.5 4.5q8 8 12 18q6 8 10 18zM2126 758h-23v-119
q0 2 -1 5t-3 3l-74 105l-1 1t-3 5h-5h-5h-16v-154h24v129v-4v-2v-2l2 -2l86 -119h19v154zM2251 623h-66v135h-22v-154h88v19zM2374 758h-19q-4 0 -8 -4q-8 -4 -8 -9l-35 -47l-2 -2h-2v-2v2l-2 2l-37 47q-2 5 -6 9t-10 4h-17l56 -76l2 -2q0 -2 2 -2v-2v-2q0 -2 2 -2v-2v-66
h22v66v2v4q2 0 2 4v2h2zM1188 864q-19 8 -38.5 19.5t-33.5 25.5h322q-17 -14 -35.5 -25.5t-38.5 -19.5q-21 -6 -43.5 -12t-44.5 -6q-25 0 -46.5 6t-41.5 12zM1141 936l315 317q29 -39 45.5 -79.5t16.5 -81.5q0 -23 -3.5 -44.5t-11.5 -41.5q-8 -19 -18 -36.5t-23 -33.5h-321z
M1094 928q-27 35 -45 73q-7 21 -11 43.5t-4 47.5q0 20 4 40.5t11 41.5q6 18 16 35.5t25 33.5h319zM1364 1315q20 -8 38.5 -20.5t33.5 -22.5h-324q37 28 76 43q39 18 88 18t88 -18zM78 350q-4 4 -5 8t-3 9q-2 6 -3 10t-1 10t4 16q2 5 3 10t5 7l3 9t7 7q0 2 5 5t7 5q6 5 9.5 6
t9.5 3q2 0 8 1t10 1q8 0 14.5 -1t14.5 -5q8 -2 13 -6.5t9 -8.5q-2 -2 -4 -2v-4h-2h-2h-4h-6q-4 2 -8 5t-8 3h-7.5h-9.5h-10h-8q-8 -4 -12.5 -7t-8.5 -5q-4 -6 -7 -10t-5 -8q-4 -7 -4 -13v-8q0 -8 2 -14t3 -9.5t1 -7.5q2 -2 5 -4t5 -6q4 -2 6 -5t7 -3q2 -2 6 -4t8 -2
q2 -2 6 -2h6h10.5t8.5 2q4 0 9 2t9 4v29h-12h-2l-2 2l-3 3l-3 3l-1 1t-1 3v1v3v0h38v-53l-5 -5t-5 -6q-6 -2 -12 -2q-6 -2 -14 -2h-15h-10h-8q-6 2 -9.5 4.5t-9.5 6.5q-2 0 -7 3t-5 7q-6 2 -7 6t-3 8zM240 438v-45h55v-14h-55v-47h67v-17h-84v140h84v-17h-67zM369 315v123
h-45v17h106v-17h-47v-123h-14zM532 438v-49h60v-12h-60v-62h-16v140h84v-17h-68zM641 455v-86q0 -4 2 -7.5t4 -5.5q2 -6 5 -9t5 -7q0 -2 3.5 -4t5.5 -4q6 -2 10 -2h8h7t5 2q6 2 9.5 4t7.5 4q0 4 3 7t5 9q4 4 4 13v86h14v-86q0 -7 -1 -11t-3 -10t-5 -10t-7 -8t-8 -7.5
t-8 -5.5q-13 -2 -23 -2q-12 0 -25 2q-2 2 -7 5.5t-9 7.5q-6 6 -10 18q-2 6 -4 10t-2 11v86h14zM784 455v-123h62v-17h-78v140h16zM877 455v-123h65v-17h-80v140h15zM1069 315l-61 140h8q4 0 8 -2q2 -2 3 -2t3 -5l43 -104v-4q2 -2 2 -6v6l1 2l1 2q6 14 12.5 26.5t12.5 24.5
q4 17 10 29l12 24q0 5 2 5t2 2q2 2 3.5 2h5.5h8q-8 -17 -15.5 -34.5t-17.5 -33.5q-6 -20 -13 -36.5t-16 -35.5h-14zM1171 438v-45h58v-14h-58v-47h68v-17h-84v140h84v-17h-68zM1341 381q-2 -2 -10 -4l47 -62h-10q-2 0 -5 1l-3 1q-2 2 -4 3.5t-4 5.5l-39 51h-25v-62h-14v140
h51h5t7 -2q9 -2 15 -9q2 -4 4 -7t4 -7q2 -2 2 -7v-5v-9t-2 -6q0 -4 -2 -8t-4 -6l-4 -4t-9 -4zM1325 389q4 0 6 4q2 0 4 1t4 1l3 6t4 5q0 2 1 4t1 8l-1 2t-1 6q-3 2 -4 3t-3 5q-2 0 -4 1t-4 3h-6h-37v-49h37zM1452 336q2 2 4 8q2 2 3 6t1 6q0 6 -2 11q-2 0 -3 3t-3 5t-8 4
q-4 0 -6 1l-6 3q-5 0 -9 2t-4 4q-10 0 -14 6q-4 0 -5 4t-3 7v14v9t2 7q0 6 8 10q4 5 6 6t8 3q4 0 6.5 1t8.5 1q2 0 5 -1t5 -1t4 -1l6 -3q2 0 4 -2.5t2 -4.5q4 -2 5 -4t3 -2l-4 -2q-2 -2 -8 -2h-6q-4 2 -4 4h-2h-2h-2h-3h-1h-2h-9q-8 0 -8 -2q-6 -6 -6 -8q-4 0 -4 -8
q0 -6 4 -6q0 -4 2 -6t5 -3.5l3 -1.5q4 -4 6.5 -4t8.5 -4h3t3 -2h4t4 -4h2h1h1q2 0 4 -1l2 -1q4 -4 6 -7t7 -5q2 -10 2 -19v-10t-7 -8q0 -6 -8 -12q-2 -2 -6 -4.5t-8 -4.5t-8 -2h-10q-11 0 -18 2t-13 9q-2 0 -4 2l-4 4q0 2 -1 4l-1 2l2 2l1 1t5 1h2q2 0 4 -1t4 -3q4 -2 6 -4
t6 -2q0 -2 4 -2h7q8 0 10 2q8 0 12 4zM1524 455v-140h-17v140h17zM1579 336q-12 8 -18 20q-5 15 -5 31v7v9q7 11 9 17q6 8 14 16q6 6 12 10q4 5 9.5 6t9.5 3q4 0 8 1t10 1q4 0 9 -1t12 -1q4 -2 8 -3t8 -6l5 -5t7 -5q4 -4 6.5 -7t6.5 -9q2 -6 6 -17q2 -4 3 -9t1 -7
q0 -8 -2 -15t-6 -16q-2 -6 -5.5 -11t-9.5 -9q-6 -6 -11 -9t-11 -8q-10 -4 -27 -4q-8 0 -15 1t-11 3q-17 5 -23 17zM1579 408q-4 -7 -6 -13t-2 -8q0 -4 1 -8t1 -6q2 -8 8 -17q0 -2 2 -4t4 -6l5 -5t10 -3q2 -2 5 -4t5 -2q4 -2 8 -2h8h7t7 2q3 0 7 2l8 4q2 0 5 3l5 5q2 4 4 6
l4 4q2 4 3 7.5t3 9.5q0 2 1 6t1 8q0 2 -1 8t-5 13q0 4 -4 8t-6 10q-4 2 -8 5t-10 7h-9.5h-11.5h-12h-10q-4 -4 -9.5 -7t-9.5 -5q-2 -6 -5 -10t-3 -8zM1741 315h-17v140h13h5t5 -4l72 -103q2 0 2 -4l2 -2v-2v115h16v-140h-14l-82 115v4h-2v4v-123zM1956 438v-49h57v-12h-57
v-62h-14v140h83v-17h-69zM2114 381q-9 -2 -13 -4l45 -62h-12q-4 0 -8 2q0 2 -1 3.5t-3 5.5l-39 51h-25v-62h-16v140h51h6t8 -2t7.5 -4.5t5.5 -4.5q2 -4 4 -7t6 -7q0 -2 1 -7l1 -5q0 -6 -1 -9t-1 -6l-4 -8t-2 -6zM2101 393q2 0 3 1t3 1q7 8 7 11q2 4 2 12q0 2 -2 8q0 2 -7 8
q-2 0 -3 1l-3 3h-8h-35v-49h35q4 0 8 4zM2281 336q-4 -6 -10 -9t-12 -8q-6 -2 -12 -3t-15 -1q-8 0 -15 1t-13 3q-13 5 -23 17q-4 4 -8 9t-6 11q-2 9 -5 16t-3 15q0 2 1 7t3 9q2 5 3 10t3 7q4 6 7 9t5 7q4 2 8 5t9 5q4 5 8 6t8 3q6 0 9 1t9 1q4 0 9.5 -1t9.5 -1l9 -3t7 -6
q4 -2 8 -5t6 -5q3 -4 6 -7t5 -9q6 -6 8 -17q2 -4 3 -9t1 -7q0 -8 -1 -15t-5 -16q-2 -6 -6 -11t-11 -9zM2232 330h7.5t9.5 2q2 0 5 2t5 4q2 0 6 3t8 5l3 6t3 4q2 4 3.5 7.5t1.5 9.5q2 2 2 6v8q0 2 -1 8t-1 13l-6 8t-5 10q-6 2 -11 5t-9 7h-10.5h-10.5h-11h-11q-6 -4 -9 -7
t-8 -5q-6 -6 -8 -10l-4 -8q-2 -7 -2 -13v-8v-14q0 -6 1 -9.5t5 -7.5q0 -2 3 -4t5 -6q2 -2 5.5 -5t5.5 -3q2 -2 5 -4t9 -2q2 -2 6 -2h8zM2460 453q2 2 3 2h3h12v-140h-14v115l-2 -2v0v-2q-4 -8 -6 -17.5t-7 -15.5q-4 -6 -7 -12l-7 -14q-2 -9 -4 -15l-4 -12q-4 -6 -7 -11
t-5 -14h-15q-10 13 -15 27t-11 27q-4 14 -11.5 28.5t-11.5 28.5v2l-4 2v-115h-16v140h14q6 0 8 -2l2 -2v-5l49 -108q0 -2 2 -2v-4q0 2 1 4t1 4q0 4 5 8l43 98q0 5 1 5t3 2zM74 262h157v-20v-4v-5q0 -4 -2 -6l-4 -4l-106 -145h2v2h4h2h104v-37h-165v12q0 11 2 13q0 2 4 8
q2 2 2 4t2 4t3 4l3 6l94 129h-102v39zM260 262h139v-39h-100v-49h80v-41h-80v-53h100v-37h-139v219zM571 223h-59v-180h-43v180h-63v39h165v-39zM672 262l94 -219h-25q-8 0 -16 4q-4 2 -5 6t-5 8l-13 29h-100l-10 -29q-2 -4 -3 -5t-3 -1q0 -4 -1 -5t-5 -3q-2 0 -4.5 -1
t-4.5 -1q0 -2 -2 -2h-4h-24l94 219h37zM684 129l-27 68q0 2 -1 3t-1 3q0 4 -2 6v-6q0 -2 -2 -3t-2 -3l-26 -68h61zM774 262h139v-39h-100v-55h82v-39h-82v-86h-39v219zM1133 207q4 -6 6 -12.5t6 -12.5q2 -8 2 -15v-13v-17t-2 -14q-4 -6 -6 -13.5t-6 -13.5q-5 -4 -9 -10
l-8 -12q-8 -4 -12 -9.5t-10 -7.5q-7 -6 -14 -8t-13 -4q-8 -2 -15.5 -3t-15.5 -1q-10 0 -21 3t-22 5q-12 6 -19 12.5t-18 12.5q-14 16 -20 35q-6 12 -8 22t-2 23q0 6 1 13t3 15q4 17 12 25q4 8 7 13t7 11q9 5 14 9t11 8t12 6t15 6q6 0 13 1t15 1t15.5 -1t15.5 -1q6 -4 13 -6
t14 -6q6 -4 10 -8t12 -9q4 -6 8 -11t9 -13zM1104 127q2 6 3 12t1 15q0 12 -4 24q-4 10 -8 15.5t-11 9.5q-4 4 -9 8t-11 6q-12 6 -29 6q-16 0 -28 -6q-4 -2 -9.5 -6t-11.5 -8t-9 -9.5t-7 -15.5q-4 -4 -4 -11v-13v-15t4 -12q4 -8 7 -14.5t9 -10.5t11.5 -8t9.5 -8q8 -2 14 -4
t14 -2t14.5 2t14.5 4q6 4 11 8t9 8q7 4 11 10.5t8 14.5zM1329 262h39v-219h-37l-102 147q-2 0 -2 1.5t-2 3.5q-2 4 -2 6q-4 0 -4 4l-1 1t-4 3v-166h-38v219h34q4 0 8.5 -1t4.5 -3l6 -3t4 -3q10 -16 21.5 -31.5t21.5 -34.5q12 -14 23.5 -29.5t25.5 -29.5q0 -4 1 -6t1 -6
q0 -2 1 -4t1 -5v156zM1389 262h165v-39h-65v-180h-39v180h-61v39zM1690 150q2 -5 5 -9t5 -8q0 -4 2 -9t2 -13q0 -13 -6 -27l-8 -12t-9 -11q-8 -4 -12 -8t-12 -6t-15.5 -4t-13.5 -2q-8 0 -15 2t-18 4q-6 2 -11 6t-13 13q-4 2 -6 5t-4 7q-5 2 -5 12l1.5 1t3.5 3q2 0 2 1t2 1
t4 1l2 1h10h3t3 -2q6 0 10 -2q5 -4 9 -6t6 -4q2 0 6 -2t10 -2q2 0 5 1t7 3q7 2 13 6l8 8q2 4 4 6t2 7q0 8 -6 12q-4 6 -8 6q-4 4 -7.5 5t-5.5 1q-6 2 -16 8q-4 0 -9 1t-9 6q-9 2 -13 5t-8 7q-6 4 -9 8t-5 8q-6 12 -6 25q0 18 6 26q2 7 6 11t10 8q4 4 9.5 6t13.5 6q4 0 10 1
t14 1q4 0 8.5 -1t10.5 -1q4 -2 7 -4t9 -4q2 -2 6 -5t8 -7q3 -2 6 -5.5t5 -7.5l-8 -4l-6 -4t-3 -4h-8h-4h-4h-2q-6 0 -6 2l-8 4q-3 0 -4 1l-1 1h-6h-12q-4 0 -5 -1t-5 -3q-2 -2 -4 -8q-2 -2 -2 -8t2 -6q2 -2 3 -4.5t1 -6.5q4 0 7 -1t5 -1q6 -2 11 -4t7 -4l11 -2q4 -4 9 -5
t11 -7q10 -2 17 -12zM1755 80q6 0 6 -6q2 0 2 -3v-5q0 -7 -2 -11q0 -4 -6 -8q-4 0 -6 -4q-2 0 -4 -1t-6 -1q-2 0 -4 1t-4 1q-2 2 -4.5 3t-4.5 1q-2 2 -3 4t-3 4q-2 4 -2 11v5t2 3q2 4 3 5t3 1q7 6 9 6q2 2 4 3t4 1q4 0 6 -1t4 -3q2 0 6 -6zM1839 203q-8 -8 -16 -25
q-2 -4 -4 -11t-2 -13q0 -9 2 -15l4 -12q4 -8 7 -14.5t9 -10.5q4 -4 9 -8t14 -8q8 -2 14 -4t14 -2q6 0 10.5 2t10.5 2q4 2 9 5t9 7q4 0 8 2h7h6t6 -2q6 -2 10 -6l6 -10q-6 -8 -16 -14q-6 -5 -10 -8t-11 -5q-6 -4 -11 -5t-11 -3t-11.5 -3t-11.5 -1q-14 0 -24.5 3t-20.5 5
q-20 10 -35 25q-16 16 -24 35q-2 12 -5 22t-3 23q0 6 1 13t3 15q2 6 4 12.5t6 12.5q6 8 9 13t9 11q7 5 12 9t13 8q4 4 10 6t17 6q4 0 12 1t16 1h11.5t11.5 -2t11 -4t11 -4q7 -2 11 -5t10 -7q10 -9 16 -17l-6 -8l-5 -5t-5 -3h-7h-5h-8t-7 2q-4 4 -9 7t-9 5q-6 2 -10.5 2
h-10.5q-16 0 -28 -6q-9 -2 -14 -6t-9 -8zM2195 207q3 -6 6 -12.5t5 -12.5q2 -8 2 -15v-13v-17t-2 -14t-5 -13.5t-6 -13.5q-8 -10 -16 -22q-8 -4 -14 -9.5t-11 -7.5q-6 -6 -13 -8t-15 -4q-6 -2 -13.5 -3t-15.5 -1q-20 0 -43 8q-8 6 -17 12.5t-16 12.5q-8 8 -14 16t-10 19
q-4 12 -6 22t-2 23q0 6 1 13t1 15q2 6 6 12.5t6 12.5q4 8 8 13t10 11q4 5 10.5 9t12.5 8q4 4 11 6t13 6q9 0 16 1t13 1q8 0 15.5 -1t13.5 -1q8 -4 15 -6t13 -6q5 -4 11 -8t14 -9q2 -6 8 -11t8 -13zM2165 127q4 10 4 27q0 6 -1 13t-3 11q-4 10 -7.5 15.5t-7.5 9.5
q-10 10 -24 14q-6 4 -13.5 5t-15.5 1q-14 0 -26 -6q-7 -2 -12 -6t-11 -8q-4 -4 -8 -9.5t-8 -15.5q-2 -4 -3 -11t-1 -13q0 -9 1 -15t3 -12q8 -16 16 -25q6 -4 11 -8t12 -8q6 -2 14 -4t12 -2q8 0 15.5 2t13.5 4q6 4 13 8t11 8q9 9 15 25zM2433 260l1 1t5 1h39v-219h-39v160
q0 -2 -1 -4l-3 -6v-7t-2 -4q-6 -18 -14.5 -35.5t-14.5 -33.5q-6 -17 -13 -34.5t-13 -35.5h-39l-55 139q-3 2 -3 11q-2 4 -3 5t-1 3v-158h-41v219h39q4 0 6.5 -1l2.5 -1q4 -2 5 -2t3 -2l6 -4l4 -4t2 -4q4 -17 11 -32t14 -34q6 -16 13 -32.5t13 -32.5v-2v-5v-4q4 0 4 -4v4v4
q0 3 1 5l1 2l9 16l45 115q0 2 1 4t1 4q2 2 5 3l3 1q2 2 4 2t4 2z" />
    <glyph glyph-name="A" unicode="A" horiz-adv-x="1165" 
d="M902 197h-668l-61 -158q-8 -20 -25.5 -31.5t-37.5 -11.5q-31 0 -50 20.5t-19 47.5q0 11 5 26l459 1186q10 22 33 33l4 2q5 3 15 4t18 1q19 0 35 -13t23 -27l459 -1186q5 -15 5 -26q0 -26 -19 -47t-50 -21q-20 0 -37.5 11.5t-26.5 31.5zM289 336h559l-279 723z" />
    <glyph glyph-name="B" unicode="B" horiz-adv-x="1127" 
d="M177 0q-19 0 -34 9.5t-24 24.5q-2 2 -2 4l-3 7q-4 9 -4 23v1180q0 17 6.5 29t18.5 24l6 5q14 9 31 11h504q73 0 137 -28.5t112 -77t75.5 -118t27.5 -142.5q0 -85 -36 -155.5t-99 -118.5q75 -51 119 -131t44 -177q0 -76 -29 -143t-79 -117.5t-116.5 -79.5t-142.5 -29h-512
zM591 673q0 28 20 48t48 20h17q45 0 84.5 16t69 44.5t46.5 67t17 82.5q0 47 -17.5 91t-47.5 73t-70.5 45.5t-85.5 18.5h-425v-1042h442q46 0 87 19t72 50.5t48.5 73.5t17.5 89t-17.5 89.5t-48.5 75t-72 51.5t-87 19h-16v1h-3q-3 -1 -11 -1q-28 0 -48 20t-20 49z" />
    <glyph glyph-name="C" unicode="C" horiz-adv-x="1274" 
d="M1073 1029q-81 79 -178 118.5t-202 39.5q-110 0 -206.5 -41.5t-168.5 -114t-113.5 -170t-41.5 -208.5q0 -108 40.5 -204.5t111.5 -169.5t168.5 -115.5t211.5 -42.5q105 0 199.5 36.5t175.5 117.5q10 10 23 14.5t26 4.5q29 0 47 -20t18 -46q0 -27 -19 -46
q-101 -100 -222 -147.5t-252 -47.5q-92 0 -176.5 24t-158 67.5t-134 104t-103.5 134.5t-66.5 159t-23.5 177q0 132 49.5 252.5t138 213t210.5 147.5t267 55q130 0 251.5 -50t220.5 -149q21 -21 21 -48q0 -13 -5.5 -24.5t-15 -20.5t-22 -14.5t-25.5 -5.5t-25 4.5t-21 15.5z
" />
    <glyph glyph-name="D" unicode="D" horiz-adv-x="1274" 
d="M110 1248q0 29 19.5 48.5t48.5 19.5h370q136 0 255.5 -51.5t209 -145t141 -212.5t51.5 -255q0 -90 -23.5 -173.5t-66 -155.5t-102.5 -132t-133 -102t-157 -65.5t-175 -23.5h-370q-29 0 -48.5 19.5t-19.5 47.5v1181zM247 1177v-1038h303q114 0 208.5 43t163 114
t106.5 163.5t38 191.5t-38 192.5t-106.5 170t-163 120t-207.5 43.5h-304z" />
    <glyph glyph-name="E" unicode="E" horiz-adv-x="982" 
d="M841 1317q28 0 47.5 -20t19.5 -49t-19.5 -49t-47.5 -20h-594v-443h395q29 0 49 -20t20 -49q0 -28 -20 -48t-49 -20h-395v-462l594 -1q28 0 47.5 -19.5t19.5 -48.5q0 -30 -19.5 -49t-47.5 -19h-663q-28 0 -48 19t-20 48v1181q0 24 14.5 42.5t37.5 24.5q4 0 6 1t4 1h669z
" />
    <glyph glyph-name="F" unicode="F" horiz-adv-x="976" 
d="M895 1315q29 0 48.5 -20.5t19.5 -49.5t-19.5 -49t-48.5 -20h-648v-533h446q29 0 49 -20.5t20 -49.5q0 -28 -20 -48.5t-49 -20.5l-446 1v-438q0 -29 -20 -48.5t-49 -19.5q-28 0 -48 19.5t-20 48.5v1179q0 24 14.5 42.5t37.5 24.5q4 0 6 1t4 1h723z" />
    <glyph glyph-name="G" unicode="G" horiz-adv-x="1302" 
d="M1126 617q29 0 50 -18t21 -47v-322q0 -18 -6.5 -29.5t-17.5 -22.5q-107 -100 -230 -145.5t-253 -45.5q-89 0 -172.5 24t-156.5 67.5t-133 104.5t-103 135t-67 158.5t-24 176.5q0 91 23 175.5t65.5 159t102.5 136t134 105t159 68t179 24.5q135 0 255.5 -49.5t220.5 -149.5
q20 -22 20 -47q0 -13 -6 -25t-15.5 -21t-21.5 -14.5t-25 -5.5q-26 0 -46 20q-81 78 -179.5 118t-201.5 40q-108 0 -204 -41t-169 -112.5t-115.5 -169t-42.5 -210.5q0 -107 40.5 -203.5t111.5 -170t167 -117t207 -43.5q100 0 194 32.5t175 104.5v228h-249q-28 0 -46.5 19.5
t-18.5 47.5q0 27 18.5 47t46.5 20z" />
    <glyph glyph-name="H" unicode="H" horiz-adv-x="1180" 
d="M110 1246q0 29 20 48.5t48 19.5q29 0 49 -19.5t20 -48.5v-565h685v565q0 29 19.5 48.5t48.5 19.5t49.5 -19.5t20.5 -48.5v-1179q0 -28 -20.5 -47.5t-49.5 -19.5t-48.5 19.5t-19.5 47.5v477h-685v-477q0 -28 -20 -47.5t-49 -19.5q-28 0 -48 19.5t-20 47.5v1179z" />
    <glyph glyph-name="I" unicode="I" horiz-adv-x="353" 
d="M110 1249q0 29 19.5 47.5t46.5 18.5q28 0 47.5 -18.5t19.5 -47.5v-1183q0 -28 -19.5 -47t-47.5 -19q-27 0 -46.5 19t-19.5 47v1183z" />
    <glyph glyph-name="J" unicode="J" horiz-adv-x="420" 
d="M142 1246q0 29 20.5 49t49.5 20t48.5 -20t19.5 -49v-1106q-1 -89 -34.5 -166t-90.5 -134t-133 -90.5t-163 -34.5h-7q-28 0 -48 20t-20 48q0 29 20 49t48 20h6q61 1 113.5 24t90 63t59 93t21.5 115v1099z" />
    <glyph glyph-name="K" unicode="K" horiz-adv-x="1015" 
d="M110 1250q0 28 19.5 47t46.5 19q28 0 48 -19t20 -47v-469l579 516q22 19 45 19q13 0 25.5 -5.5t22 -15t15.5 -22t6 -26.5q-1 -12 -6 -25t-16 -23l-578 -511l627 -574q11 -10 15.5 -22.5t4.5 -25.5q0 -26 -20 -46t-47 -20q-24 -1 -47 20l-626 572v-526q0 -28 -20 -47
t-48 -19q-27 0 -46.5 19t-19.5 47v1184z" />
    <glyph glyph-name="L" unicode="L" horiz-adv-x="987" 
d="M110 1249q0 29 19.5 48.5t46.5 19.5q28 0 48 -19.5t20 -48.5v-1116l605 -1q28 0 47 -19t19 -46q0 -30 -19 -48.5t-47 -18.5h-679q-26 0 -43 20.5t-17 45.5v1183z" />
    <glyph glyph-name="M" unicode="M" horiz-adv-x="1543" 
d="M110 953q0 75 28.5 141.5t78 116t116 78.5t142.5 29q93 0 169 -42.5t127 -112.5q51 70 127 112.5t169 42.5q76 0 143 -29t116.5 -78.5t78 -116t28.5 -141.5v-886q0 -28 -20 -47.5t-48 -19.5q-29 0 -49.5 19.5t-20.5 47.5v881q0 48 -18 89.5t-49 72.5t-72.5 48.5
t-89.5 17.5t-89 -18.5t-71 -49.5t-47.5 -72.5t-17.5 -87.5v-193q0 -28 -20.5 -48t-49.5 -20t-48.5 20t-19.5 48v194q0 46 -18 87t-49 72t-72.5 49.5t-88.5 18.5t-88.5 -17.5t-72.5 -48t-49 -72t-18 -89.5v-882q0 -28 -20 -47.5t-48 -19.5q-29 0 -49 19.5t-20 47.5v886z" />
    <glyph glyph-name="N" unicode="N" horiz-adv-x="1180" 
d="M110 839q0 94 30.5 181t89.5 153.5t145 106.5t196 40q114 0 203.5 -40.5t151 -108.5t94 -159t32.5 -191v-758q0 -29 -20 -48.5t-49 -19.5q-28 0 -48 19.5t-20 48.5v754q0 79 -25.5 146.5t-70.5 116.5t-107.5 77t-137.5 28q-74 0 -134 -26t-103 -73t-66.5 -112.5
t-23.5 -144.5v-766q0 -29 -20 -48.5t-49 -19.5t-48.5 19.5t-19.5 48.5v776z" />
    <glyph glyph-name="O" unicode="O" horiz-adv-x="1415" 
d="M706 -13q-92 0 -177.5 24t-159 67t-133.5 104t-103 135t-66.5 159t-23.5 177t23.5 177t66.5 158.5t103 134t133.5 104t159 67t177.5 23.5q138 0 259 -52t211.5 -142.5t143 -211t52.5 -258.5q0 -92 -24 -177t-67 -159t-104 -135t-135 -104t-159 -67t-177 -24zM707 121
q110 0 206.5 41.5t168.5 113.5t114 169t42 208q0 110 -42 206t-114 168t-168.5 113.5t-206.5 41.5t-207 -41.5t-168.5 -113.5t-113 -168t-41.5 -206q0 -111 41.5 -208t113 -169t168.5 -113.5t207 -41.5z" />
    <glyph glyph-name="P" unicode="P" horiz-adv-x="1125" 
d="M110 829q0 99 36 189t99 155.5t149 103t185 37.5t186 -37.5t152.5 -103t103 -155.5t37.5 -189t-37.5 -186.5t-103 -153t-152.5 -103t-186 -37.5q-52 0 -99 12.5t-88.5 34.5t-77.5 52t-66 65l-3 -443q0 -30 -18.5 -50.5t-48.5 -20.5q-28 0 -48 20.5t-20 50.5v759zM583 486
q71 0 134 27t110 74t74.5 109.5t27.5 134.5q0 71 -27.5 135.5t-74.5 109.5t-110 71t-134 26q-70 0 -132 -26.5t-108 -73t-73 -111.5t-27 -135q0 -71 27 -133t73 -108t108 -73t132 -27z" />
    <glyph glyph-name="Q" unicode="Q" horiz-adv-x="1415" 
d="M708 -13q-139 0 -260 52.5t-211 143t-142 212t-52 259.5q0 92 23.5 177t66.5 159t103.5 135t134.5 104t159 67t178 24q138 0 259.5 -52.5t212.5 -142.5t143.5 -211.5t52.5 -259.5q0 -79 -17.5 -153t-50.5 -140t-79.5 -123.5t-103.5 -103.5q14 -29 41 -51t60 -22
q51 0 81 29t37 71q2 2 10 4.5t18 2.5q26 0 45 -18.5t19 -47.5q0 -45 -21 -78.5t-52 -56t-67 -33.5t-66 -11q-73 0 -129 38.5t-89 98.5q-69 -35 -145.5 -54t-158.5 -19zM1070 280l5 -14q78 73 122 172t44 216q0 111 -41.5 208t-113.5 169t-169 113.5t-208 41.5t-208 -41.5
t-169 -113.5t-113.5 -169t-41.5 -208q0 -93 29.5 -176.5t81.5 -151t124 -116t158 -71.5q-2 11 -3 23t-1 23q0 54 20.5 101.5t55.5 83t82 56t101 20.5q41 0 79 -12.5t69.5 -34.5t56 -52.5t39.5 -66.5h1zM709 121q69 0 133 16.5t121 47.5l-14 37q-15 38 -53 63t-83 25
q-30 0 -56.5 -10t-45.5 -28t-30 -42.5t-11 -52.5t13 -55q6 -1 12.5 -1h13.5z" />
    <glyph glyph-name="R" unicode="R" horiz-adv-x="1050" 
d="M110 842q0 96 35 185t96.5 152.5t145 100t180.5 36.5q96 0 181 -36.5t148.5 -100t100 -152.5t36.5 -185q0 -98 -37 -179t-99.5 -139.5t-145.5 -92.5t-175 -38l291 -280q19 -18 19 -45t-20 -48t-48 -21q-29 0 -51 22l-491 471q-8 7 -14.5 17.5t-13.5 18.5l-3 -458
q0 -30 -18 -50.5t-47 -20.5t-49.5 20.5t-20.5 50.5v772zM575 519q67 0 126 26t103 70t69.5 103.5t25.5 127.5q0 67 -25.5 129.5t-69.5 105.5t-103 68t-126 25q-68 0 -126.5 -25.5t-102 -69.5t-68.5 -106.5t-25 -129.5t25 -126t68.5 -103t102 -69.5t126.5 -25.5z" />
    <glyph glyph-name="S" unicode="S" horiz-adv-x="1012" 
d="M77 236q-5 10 -6.5 18.5t-1.5 16.5q0 29 20 47t43 18q33 0 63 -41q21 -40 53.5 -72.5t74 -55t89.5 -35t101 -12.5q54 0 107.5 16.5t96 48.5t69 80t26.5 111q0 57 -26.5 96t-70 66.5t-98 47t-110.5 37.5q-75 17 -147 44t-128.5 69t-91 100.5t-34.5 137.5q0 81 35 145
t92 109t128.5 69t145.5 24q60 0 116.5 -12.5t105.5 -36.5t89 -59.5t67 -82.5q7 -11 7 -26q0 -26 -18.5 -43.5t-43.5 -17.5q-10 0 -20.5 3.5t-21.5 11.5q-59 72 -126 101t-153 29q-48 0 -96 -14t-86.5 -41t-62.5 -67.5t-24 -94.5t29.5 -90t74.5 -61t99 -40.5t103 -28.5
q76 -24 147.5 -53.5t127 -72t89.5 -102t34 -142.5q0 -89 -35.5 -161.5t-95.5 -124t-139 -80t-166 -28.5q-73 0 -141 19t-125 53t-99.5 79t-65.5 98z" />
    <glyph glyph-name="T" unicode="T" horiz-adv-x="1037" 
d="M454 1183h-342q-27 0 -46.5 19.5t-19.5 47.5q0 27 19.5 46.5t46.5 19.5h822q28 0 47 -20t19 -47q0 -29 -19 -47.5t-47 -18.5h-350v-1123q0 -27 -19 -46.5t-48 -19.5q-28 0 -45.5 19.5t-17.5 46.5v1123z" />
    <glyph glyph-name="U" unicode="U" horiz-adv-x="1113" 
d="M90 1245q0 29 20 48.5t49 19.5q28 0 48.5 -19.5t20.5 -48.5v-767q0 -78 23.5 -143.5t66.5 -112t103 -72.5t133 -26q75 0 137.5 27.5t108 76.5t70.5 116t25 147v754q0 29 20 48.5t49 19.5q28 0 48.5 -19.5t20.5 -48.5v-758q0 -100 -32.5 -190.5t-94 -159t-151.5 -109
t-204 -40.5q-110 0 -195.5 40t-144.5 106.5t-90 153.5t-31 181v776z" />
    <glyph glyph-name="V" unicode="V" horiz-adv-x="1190" 
d="M56 1225q-6 12 -6 26q0 24 19 45t49 21q19 -1 36 -11t25 -30l417 -1046l417 1046q8 20 24.5 30.5t35.5 10.5q31 0 49 -20.5t18 -44.5q0 -14 -6 -27l-474 -1186q-10 -24 -23 -36t-34 -15h-17q-35 5 -52 41z" />
    <glyph glyph-name="W" unicode="W" horiz-adv-x="1503" 
d="M90 1251q0 28 20 47.5t49 19.5q28 0 48 -19.5t20 -47.5v-892q0 -48 18 -89.5t49 -72t72.5 -48t88.5 -17.5t88.5 18.5t72.5 49.5t49 72t18 87v194q0 28 19.5 48t48.5 20t49.5 -20t20.5 -48v-193q0 -46 17.5 -87.5t47.5 -72.5t71 -49.5t89 -18.5t89.5 17.5t72.5 48.5
t49 72.5t18 89.5v891q0 28 20.5 47.5t49.5 19.5q28 0 48 -19.5t20 -47.5v-896q0 -75 -28.5 -141.5t-78 -116t-116.5 -78.5t-143 -29q-93 0 -169 42.5t-127 112.5q-51 -70 -127 -112.5t-169 -42.5q-76 0 -142.5 29t-116 78.5t-78 116t-28.5 141.5v896z" />
    <glyph glyph-name="X" unicode="X" horiz-adv-x="1039" 
d="M519 536l-357 -514q-8 -11 -20.5 -17t-26.5 -6q-27 0 -47.5 19.5t-20.5 46.5q0 22 16 46l376 541l-376 549q-16 24 -16 47q0 27 19.5 46.5t46.5 19.5q14 0 27 -6t22 -17l357 -523l359 523q8 11 20.5 17t26.5 6q28 0 47.5 -20t19.5 -47q0 -24 -16 -46l-376 -549l375 -541
q16 -24 16 -47q0 -27 -20.5 -46t-46.5 -19q-14 0 -26.5 5.5t-20.5 17.5z" />
    <glyph glyph-name="Y" unicode="Y" horiz-adv-x="1186" 
d="M529 589l-490 611q-8 11 -13 21.5t-5 23.5q0 26 20 46.5t49 20.5q14 0 26.5 -5.5t22.5 -17.5l456 -569l453 571q9 11 22 16.5t26 5.5q26 0 47 -19.5t21 -46.5q0 -25 -17 -46l-485 -612v-523q0 -28 -19.5 -47t-47.5 -19t-47 19t-19 47v523z" />
    <glyph glyph-name="Z" unicode="Z" horiz-adv-x="1070" 
d="M919 1316q29 -1 47.5 -20.5t18.5 -46.5q0 -15 -5 -23t-10 -22l-734 -1071h725q28 0 47 -19.5t19 -47.5q0 -27 -19 -46.5t-47 -19.5h-854q-27 0 -46.5 19.5t-19.5 46.5q0 15 8 33l7 12l727 1071h-646q-27 0 -46.5 19.5t-19.5 47.5t20 47.5t48 19.5h780z" />
    <glyph glyph-name="bracketleft" unicode="[" horiz-adv-x="542" 
d="M452 1311q29 0 48 -20.5t19 -49.5t-19 -46.5t-48 -17.5h-185v-1381h186q28 0 47.5 -18t19.5 -46q0 -29 -19.5 -49t-47.5 -20h-253q-28 0 -47.5 20t-19.5 49v1511q0 28 19.5 48t47.5 20h252z" />
    <glyph glyph-name="backslash" unicode="\" horiz-adv-x="559" 
d="M491 91q3 -11 3 -20q0 -13 -5 -25.5t-14 -22t-21 -15.5t-27 -6q-21 0 -39.5 12.5t-25.5 34.5l-379 1165q-5 13 -5 24q0 29 19 50.5t49 21.5q21 0 39.5 -12.5t26.5 -35.5z" />
    <glyph glyph-name="bracketright" unicode="]" horiz-adv-x="542" 
d="M46 -338q-28 0 -48 20t-20 49q0 28 20 46.5t48 18.5h186v1380h-185q-28 0 -48 18t-20 47q0 28 20 48.5t48 20.5h251q27 0 46 -19t21 -46v-1514q0 -29 -19.5 -49t-47.5 -20h-252z" />
    <glyph glyph-name="asciicircum" unicode="^" horiz-adv-x="1178" 
d="M526 1240q20 24 44 24q28 0 47 -24l475 -672q5 -8 9 -16.5t3 -17.5q0 -20 -16 -37.5t-41 -17.5q-11 0 -23 5t-20 17l-433 610l-430 -611q-8 -11 -19.5 -17t-25.5 -6q-24 0 -39.5 18t-15.5 38q0 18 11 32z" />
    <glyph glyph-name="underscore" unicode="_" horiz-adv-x="1056" 
d="M924 -6q30 0 52 -18t22 -47q0 -31 -22 -49.5t-52 -18.5h-797q-30 0 -50.5 18.5t-20.5 49.5q0 29 20.5 47t50.5 18h797z" />
    <glyph glyph-name="grave" unicode="`" horiz-adv-x="510" 
d="M337 1623q22 -7 35.5 -25t13.5 -39q0 -29 -20 -48.5t-46 -19.5q-10 0 -20 3l-214 102q-22 7 -35 23.5t-13 38.5q0 29 20.5 49t47.5 20q8 0 19 -3z" />
    <glyph glyph-name="a" unicode="a" horiz-adv-x="1109" 
d="M532 -12q-101 0 -189 38.5t-153 104.5t-103 154.5t-38 189.5q0 102 38 191t103 155.5t153 105t189 38.5q102 0 190 -38.5t153 -104.5t102.5 -155.5t37.5 -191.5v-411q0 -29 -20 -49t-49 -20q-30 0 -47.5 20t-17.5 49l-1 72q-66 -69 -154.5 -108.5t-193.5 -39.5zM532 121
q75 0 139 28t110.5 76.5t73 113t26.5 136.5q0 73 -26.5 138t-73 113t-110.5 76t-139 28q-74 0 -137.5 -28t-110.5 -76t-74 -113t-27 -138q0 -72 27 -136.5t74 -113t110.5 -76.5t137.5 -28z" />
    <glyph glyph-name="b" unicode="b" horiz-adv-x="1109" 
d="M89 1247q0 29 19.5 49t47.5 20q29 0 47.5 -20t18.5 -49v-517q19 51 54.5 93.5t83 74t103.5 49t115 17.5q101 0 190 -38t155 -104t104 -155t38 -191q0 -101 -38 -190t-104 -155t-155 -104.5t-190 -38.5t-190 38.5t-155.5 104.5t-105 154.5t-38.5 189.5v772zM222 476
q0 -72 28 -136.5t76 -113t113 -76.5t139 -28q75 0 139.5 28t112.5 76.5t75.5 113t27.5 136.5q0 74 -27.5 138.5t-75.5 112.5t-112.5 75.5t-139.5 27.5q-74 0 -139 -27.5t-113 -75.5t-76 -112.5t-28 -138.5z" />
    <glyph glyph-name="c" unicode="c" horiz-adv-x="929" 
d="M531 -11q-101 0 -189.5 37.5t-154.5 102.5t-104.5 152.5t-38.5 188.5q0 102 37.5 192t102.5 157t154 106t193 39q94 0 181 -33t148 -96q24 -26 24 -56q0 -16 -7 -28t-17.5 -20.5t-22 -12.5t-20.5 -4q-12 0 -25.5 6.5t-27.5 16.5t-28 21t-27 19q-46 29 -92 41t-98 11
q-71 -1 -133 -30t-108 -77.5t-72 -111.5t-26 -132q0 -70 25.5 -134t71.5 -113t109.5 -78t139.5 -29q36 0 68 6t62.5 19t62 33t66.5 47q8 4 16.5 6.5t16.5 2.5q10 0 21.5 -4.5t21.5 -13t16.5 -20.5t6.5 -27q0 -31 -24 -55q-61 -63 -148 -96t-181 -33z" />
    <glyph glyph-name="d" unicode="d" horiz-adv-x="1109" 
d="M44 475q0 102 38.5 191.5t105 155.5t155 104.5t189.5 38.5q135 0 220.5 -60.5t134.5 -165.5v507q0 29 18.5 49t47.5 20q28 0 47.5 -20t19.5 -49v-777q-1 -99 -39.5 -187t-104.5 -153t-154.5 -103t-189.5 -38t-189.5 38.5t-155 104.5t-105 154.5t-38.5 189.5zM177 475
q0 -72 28 -136.5t76 -113t112.5 -76.5t138.5 -28q75 0 140 28t112.5 76.5t75 113t27.5 136.5q0 73 -27.5 138t-75 113t-112.5 76t-140 28q-74 0 -138.5 -28t-112.5 -76t-76 -113t-28 -138z" />
    <glyph glyph-name="e" unicode="e" horiz-adv-x="1066" 
d="M192 415q8 -63 37.5 -117.5t75.5 -95t104.5 -63.5t123.5 -23q30 0 53.5 2.5t44 8t40 14.5t40.5 21q11 7 21.5 9.5t19.5 2.5q28 0 46.5 -22t18.5 -48q0 -15 -7.5 -29.5t-24.5 -24.5q-26 -15 -52.5 -27t-56.5 -19.5t-65 -11.5t-78 -4q-101 0 -190 38.5t-155.5 104.5
t-105 155t-38.5 190t38.5 190t105 155.5t155.5 105t190 38.5q100 0 189 -38.5t155.5 -104.5t105.5 -154.5t40 -188.5q0 -27 -18 -45.5t-47 -18.5h-766zM887 527q-8 66 -38 122.5t-77 98t-107.5 65.5t-129.5 24t-129.5 -24.5t-106.5 -66.5t-75 -98.5t-36 -120.5h699z" />
    <glyph glyph-name="f" unicode="f" horiz-adv-x="677" 
d="M88 -285q-27 0 -46.5 19t-19.5 48q0 27 19.5 46.5t46.5 19.5q37 0 69 14t54.5 38t35.5 56t13 67v521h-93q-28 0 -47.5 19t-19.5 48q0 27 19.5 46.5t47.5 19.5h93v341q1 62 25.5 116.5t66 95.5t96.5 65t117 24q29 0 48.5 -19.5t19.5 -48.5q0 -27 -19.5 -46.5t-48.5 -19.5
q-36 0 -67 -13.5t-54 -36.5t-36.5 -54t-14.5 -65v-339h150q29 0 48.5 -19.5t19.5 -46.5q0 -29 -19.5 -48t-48.5 -19h-150v-521q0 -63 -23.5 -119t-65 -98t-97 -66.5t-119.5 -24.5z" />
    <glyph glyph-name="g" unicode="g" horiz-adv-x="1066" 
d="M44 475q0 102 38.5 191.5t105 155.5t155 104.5t189.5 38.5q102 0 191 -38.5t155 -105t104 -155.5t38 -191q0 -78 -23 -148t-65 -130q42 -45 60 -101t18 -125q0 -85 -28.5 -150t-76.5 -110t-110 -68.5t-128 -24.5q-45 0 -96.5 8.5t-100.5 8.5q-14 0 -32 -2t-37.5 -6.5
t-38.5 -12.5t-35 -20q-20 -15 -40 -15q-27 0 -49 19.5t-22 46.5q0 34 29.5 55.5t69.5 34.5t81 18t65 5q41 0 81 -3t81 -3q120 0 187.5 56.5t67.5 162.5q0 26 -3.5 45t-9 33.5t-12 25.5t-13.5 21q-63 -51 -141.5 -79.5t-166.5 -28.5q-101 0 -189.5 38.5t-155 104.5
t-105 154.5t-38.5 189.5zM177 475q0 -72 28 -136.5t76 -113t112.5 -76.5t138.5 -28q75 0 140 28t113 76.5t75.5 113t27.5 136.5q0 73 -27.5 138t-75.5 113t-113 76t-140 28q-74 0 -138.5 -28t-112.5 -76t-76 -113t-28 -138z" />
    <glyph glyph-name="h" unicode="h" horiz-adv-x="1123" 
d="M885 496q0 69 -21.5 130.5t-61 107t-95.5 72t-125 26.5t-131.5 -25.5t-109.5 -70.5t-75 -106t-28 -131v-432q0 -28 -19.5 -47.5t-47.5 -19.5t-47.5 19.5t-19.5 47.5v1180q0 29 20 49t47 20q29 0 48 -20t19 -49v-470q30 42 67.5 76.5t81 59t93 38t102.5 13.5
q96 0 176 -36.5t138 -100t90 -149t32 -182.5v-431q0 -29 -19 -47.5t-48 -18.5q-27 0 -46.5 18.5t-19.5 47.5v431z" />
    <glyph glyph-name="i" unicode="i" horiz-adv-x="339" 
d="M90 1181q0 34 23 57t57 23t57.5 -23t23.5 -57q0 -33 -23.5 -56.5t-57.5 -23.5t-57 23.5t-23 56.5zM102 897q0 29 20 48.5t48 19.5q29 0 47.5 -19.5t18.5 -48.5v-835q0 -28 -19.5 -47.5t-46.5 -19.5q-28 0 -48 19.5t-20 47.5v835z" />
    <glyph glyph-name="j" unicode="j" horiz-adv-x="400" 
d="M-118 -225q0 29 20 49t48 20h10q35 0 66.5 13.5t55 37t37.5 54.5t14 67v879q0 29 20 49.5t46 20.5q29 0 48.5 -20.5t19.5 -49.5v-879q0 -63 -24.5 -119t-66.5 -98t-97.5 -66t-118.5 -24l-1 1q-2 -1 -9 -1q-28 0 -48 19t-20 47zM121 1179q0 35 23.5 57.5t56.5 22.5
q34 0 56.5 -22.5t22.5 -57.5q0 -16 -6.5 -30.5t-17.5 -25.5t-26 -17.5t-32 -6.5q-32 0 -54.5 24t-22.5 56z" />
    <glyph glyph-name="k" unicode="k" horiz-adv-x="826" 
d="M238 427v-361q0 -28 -19.5 -47t-46.5 -19q-28 0 -48 19t-20 47v1178q0 29 20.5 48t47.5 19q28 0 47 -19t19 -48v-661l375 350q10 9 21.5 13t23.5 4q27 0 47 -20t20 -47q2 -26 -21 -47l-355 -331l412 -392q18 -18 18 -43q0 -27 -19.5 -47.5t-46.5 -20.5q-13 0 -25.5 4.5
t-23.5 15.5z" />
    <glyph glyph-name="l" unicode="l" horiz-adv-x="531" 
d="M444 130q29 0 47.5 -19t18.5 -47q0 -29 -18 -47t-47 -18q-71 0 -131 24t-104 68.5t-68.5 107t-24.5 139.5v905q0 29 18.5 48.5t46.5 19.5q27 0 47.5 -19.5t20.5 -48.5v-903q0 -100 51.5 -155t142.5 -55z" />
    <glyph glyph-name="m" unicode="m" horiz-adv-x="1304" 
d="M96 651q0 65 24.5 122t67.5 100t99.5 67.5t121.5 24.5q75 0 139 -33t109 -88q43 55 107 88t139 33q65 0 123 -24.5t101.5 -67.5t69 -100t25.5 -122v-584q0 -29 -20.5 -48t-46.5 -19q-28 0 -47.5 19t-19.5 48v574q0 37 -14 71t-39 59.5t-58.5 40.5t-72.5 15
q-36 0 -67.5 -13.5t-55.5 -37t-39 -54.5t-17 -66q0 -2 0.5 -5t0.5 -5v-228q0 -29 -20 -48t-47 -19q-28 0 -47 19t-19 48v222q0 38 -14 72t-38.5 60t-57.5 41t-71 15q-36 0 -67.5 -13.5t-55.5 -36t-39.5 -53t-18.5 -64.5q0 -2 0.5 -5t0.5 -6l-2 -583q-1 -29 -20.5 -48
t-46.5 -19t-47 19t-20 48v584z" />
    <glyph glyph-name="n" unicode="n" 
d="M74 496q0 97 34.5 182.5t95.5 149t144 100.5t180 37t179.5 -36.5t143 -100t94.5 -149t34 -182.5v-431q0 -29 -18.5 -47.5t-47.5 -18.5q-28 0 -47.5 18.5t-19.5 47.5v426q0 70 -23.5 131.5t-66 107.5t-101 72.5t-127.5 26.5t-127.5 -26t-101.5 -71t-67 -106.5t-24 -131.5
v-429q0 -29 -18 -47.5t-47 -18.5q-27 0 -48 18.5t-21 47.5v430z" />
    <glyph glyph-name="o" unicode="o" horiz-adv-x="1065" 
d="M177 475q0 -72 28 -136.5t76 -113t112.5 -76.5t138.5 -28q75 0 140 28t112.5 76.5t75 113t27.5 136.5q0 73 -27.5 138t-75 113t-112.5 76t-140 28q-74 0 -138.5 -28t-112.5 -76t-76 -113t-28 -138zM44 475q0 102 38.5 191.5t105 155.5t155 104.5t189.5 38.5
q102 0 191 -38.5t155 -105t104 -155.5t38 -191q0 -101 -38 -189.5t-104 -154.5t-155 -104.5t-191 -38.5q-101 0 -189.5 38.5t-155 104.5t-105 154.5t-38.5 189.5z" />
    <glyph glyph-name="p" unicode="p" horiz-adv-x="1109" 
d="M89 475q0 102 38.5 191.5t105 155.5t155.5 104.5t190 38.5t190 -38.5t155 -104.5t104 -155.5t38 -191.5q0 -101 -38 -189.5t-104 -154.5t-155 -104.5t-190 -38.5q-106 0 -197.5 41t-158.5 113v-420q0 -29 -18 -49t-47 -20q-28 0 -48 20t-20 49v753zM222 475
q0 -72 28 -136.5t76 -113t113 -76.5t139 -28q75 0 139.5 28t112.5 76.5t75.5 113t27.5 136.5q0 73 -27.5 138t-75.5 113t-112.5 76t-139.5 28q-74 0 -139 -28t-113 -76t-76 -113t-28 -138z" />
    <glyph glyph-name="q" unicode="q" horiz-adv-x="1109" 
d="M44 475q0 102 38.5 191.5t105 155.5t155 104.5t189.5 38.5t189 -37.5t154 -103t104.5 -153.5t40.5 -189v-760q0 -29 -20 -49t-48 -20q-29 0 -47 20t-18 49v419q-67 -72 -158 -112.5t-197 -40.5q-101 0 -189.5 38.5t-155 104.5t-105 154.5t-38.5 189.5zM177 475
q0 -72 28 -136.5t76 -113t112.5 -76.5t138.5 -28q75 0 140 28t112.5 76.5t75 113t27.5 136.5q0 73 -27.5 138t-75 113t-112.5 76t-140 28q-74 0 -138.5 -28t-112.5 -76t-76 -113t-28 -138z" />
    <glyph glyph-name="r" unicode="r" horiz-adv-x="694" 
d="M89 455q0 105 40 197.5t109 162t161 110t196 40.5h8q32 0 50.5 -19t18.5 -48t-20 -47.5t-49 -18.5h-8q-76 0 -143.5 -29.5t-118.5 -80.5t-81 -120t-30 -147v-388q0 -29 -18.5 -48t-45.5 -19q-28 0 -48.5 19t-20.5 48v388z" />
    <glyph glyph-name="s" unicode="s" horiz-adv-x="880" 
d="M541 133q28 0 55.5 10.5t49.5 30.5t35.5 47.5t13.5 62.5q0 34 -13 60t-34.5 44t-49.5 27.5t-58 10.5h-197q-57 0 -106.5 22t-85.5 59.5t-56.5 87t-20.5 105.5q0 55 21 103t57.5 84t85.5 57t105 21h365q28 0 47.5 -17t19.5 -48q0 -32 -19.5 -50.5t-47.5 -18.5h-366
q-29 0 -53.5 -11.5t-42.5 -30t-28.5 -43t-10.5 -50.5q0 -28 10.5 -52.5t29 -43t43 -29.5t52.5 -11h209q59 0 109.5 -22t88 -60.5t58.5 -89t21 -107.5t-21 -108t-57.5 -89.5t-87 -61t-109.5 -22.5h-435q-27 0 -44.5 19t-17.5 49q0 29 17.5 47t44.5 18h423z" />
    <glyph glyph-name="t" unicode="t" horiz-adv-x="944" 
d="M89 1185q0 28 20 48t47 20q28 0 48.5 -19.5t20.5 -48.5v-229h441q28 0 48 -20t20 -48q0 -26 -19.5 -45t-48.5 -19h-441v-359q0 -73 27.5 -136t75.5 -109.5t112.5 -73t139.5 -26.5q66 0 123 20t108 65q11 9 23 15.5t29 6.5q23 0 41 -18.5t18 -44.5q0 -15 -6.5 -30
t-18.5 -26q-63 -60 -143.5 -90.5t-173.5 -30.5q-102 0 -191.5 36.5t-156 101t-105 152t-38.5 189.5v719z" />
    <glyph glyph-name="u" unicode="u" 
d="M89 898q0 29 19.5 48t46.5 19q28 0 47.5 -19t19.5 -48v-442q0 -69 25 -130t68.5 -106.5t103 -72t128.5 -26.5t126 26.5t97.5 72.5t63 107t22.5 130v441q0 29 20 48.5t48 19.5t47 -19.5t19 -48.5v-444q0 -96 -33 -181t-92.5 -148.5t-140.5 -100t-177 -36.5
q-98 0 -181.5 37t-145 100.5t-96.5 148.5t-35 182v442z" />
    <glyph glyph-name="v" unicode="v" horiz-adv-x="914" 
d="M49 868q-7 14 -7 29q0 25 18.5 45.5t49.5 20.5q19 0 35 -10.5t25 -30.5l287 -702l286 702q8 20 24.5 30.5t35.5 10.5q30 0 49 -20.5t19 -45.5q0 -14 -6 -29l-347 -834q-11 -18 -24 -29.5t-38 -11.5q-20 0 -36.5 11.5t-24.5 29.5z" />
    <glyph glyph-name="w" unicode="w" horiz-adv-x="1304" 
d="M96 896q0 29 20 48t47 19t46.5 -19t20.5 -48l2 -593q0 -3 -0.5 -6t-0.5 -5q3 -34 18.5 -64.5t39.5 -53t55.5 -36t67.5 -13.5q38 0 71 15t57.5 41t38.5 60t14 72v232q0 29 19 48t47 19q27 0 47 -19t20 -48v-238q0 -2 -0.5 -5t-0.5 -5q2 -35 17 -66t39 -54.5t55.5 -37
t67.5 -13.5q39 0 72.5 15t58.5 40.5t39 59.5t14 71v584q0 29 19.5 48t47.5 19q26 0 46.5 -19t20.5 -48v-594q0 -65 -25.5 -122t-69 -100t-101.5 -67.5t-123 -24.5q-75 0 -139 33t-107 88q-45 -55 -109 -88t-139 -33q-65 0 -121.5 24.5t-99.5 67.5t-67.5 100t-24.5 122v594z
" />
    <glyph glyph-name="x" unicode="x" horiz-adv-x="1016" 
d="M508 393l-365 -373q-20 -21 -50 -21q-13 0 -25 5t-21.5 14t-15 20.5t-5.5 24.5q0 14 6 26t16 23l367 376l-357 364q-20 20 -20 46q0 13 5.5 25.5t15 22t21.5 15t25 5.5q28 0 49 -21l354 -362l353 361q21 21 50 21q26 0 46 -20t20 -46t-21 -49l-355 -362l366 -374
q20 -20 20 -49q0 -28 -20.5 -46.5t-45.5 -18.5q-28 0 -46 19z" />
    <glyph glyph-name="y" unicode="y" horiz-adv-x="1114" 
d="M96 900q0 29 19.5 48t47.5 19q27 0 46.5 -19t19.5 -48v-434q0 -70 26.5 -131.5t72.5 -106.5t106.5 -71t130.5 -26q69 0 130 26t106.5 71.5t71.5 107.5t26 134v430q0 29 20.5 48t46.5 19q30 0 48 -19t18 -48v-436q0 -88 -31 -167t-85.5 -140.5t-128 -102t-157.5 -51.5
v-272q0 -28 -19.5 -47.5t-46.5 -19.5q-30 0 -49 19.5t-19 47.5v272q-85 12 -158 53t-126.5 102.5t-84.5 140.5t-31 168v433z" />
    <glyph glyph-name="z" unicode="z" horiz-adv-x="1014" 
d="M877 965q24 0 43.5 -17.5t21.5 -44.5v-9q-1 -23 -18 -41l-675 -723h653q29 0 48.5 -18t19.5 -46t-19.5 -47t-48.5 -19h-790q-28 0 -48 19.5t-20 45.5q0 25 20 47l671 721h-606q-28 0 -47.5 19.5t-19.5 46.5q0 28 19.5 47t47.5 19h748z" />
    <glyph glyph-name="braceleft" unicode="{" horiz-adv-x="680" 
d="M117 427q-30 0 -51 21.5t-21 52.5t21 51t51 20h58v351q3 81 35 152t86 123.5t125.5 82.5t153.5 30q38 0 64 -14.5t26 -52.5q0 -28 -18.5 -47.5t-47.5 -19.5h-40q-51 0 -96.5 -20t-79.5 -54.5t-54 -81.5t-21 -101v-858q1 -51 21 -97t54 -81.5t79.5 -56.5t96.5 -21h40
q29 0 47 -19.5t18 -48.5q0 -38 -25 -52t-64 -14q-82 0 -154 30t-126.5 82.5t-86.5 123.5t-33 153v366h-58z" />
    <glyph glyph-name="bar" unicode="|" horiz-adv-x="400" 
d="M133 1242q0 29 19 49t47 20q29 0 48.5 -20t19.5 -49v-1437q0 -29 -20 -48.5t-48 -19.5t-47 19.5t-19 48.5v1437z" />
    <glyph glyph-name="braceright" unicode="}" horiz-adv-x="681" 
d="M465 572h59q30 0 51 -20t21 -51t-21 -52.5t-51 -21.5h-59v-359q0 -83 -31.5 -155t-86 -125.5t-127 -84.5t-154.5 -31q-39 0 -64 14t-25 52q0 29 18 48.5t47 19.5h40q53 0 99 22t79.5 58.5t53 84.5t19.5 100v844q0 55 -20 102.5t-54 83t-79.5 56t-97.5 20.5h-40
q-29 0 -47.5 19.5t-18.5 47.5q0 38 25.5 52.5t64.5 14.5q82 0 154.5 -31t127 -85t86 -126t31.5 -154v-343z" />
    <glyph glyph-name="asciitilde" unicode="~" horiz-adv-x="980" 
d="M491 675q12 -10 28.5 -21.5t35 -22t37.5 -17.5t36 -7q51 0 88.5 32t63.5 80l6 -3l2 2q16 15 39 15q26 0 41.5 -20t15.5 -41q0 -16 -9 -31q2 -3 2 -7q0 -3 -1 -4q-9 -19 -29.5 -46t-51.5 -51.5t-71.5 -42t-89.5 -17.5q-51 0 -98 23t-85 54q-12 10 -27.5 21t-33 20.5
t-36 15.5t-37.5 6q-45 0 -78.5 -25.5t-57.5 -63.5q-8 -23 -26.5 -34.5t-37.5 -11.5q-27 0 -46.5 19t-19.5 46q0 26 18 46q9 19 30 46t52 52t71.5 42.5t89.5 17.5q52 0 96 -21t83 -51z" />
    <glyph glyph-name="exclamdown" unicode="&#xa1;" horiz-adv-x="422" 
d="M133 927q0 33 22.5 56t55.5 23q31 0 54.5 -23t23.5 -56q0 -16 -6.5 -30.5t-17 -25t-25 -16.5t-29.5 -6q-33 0 -55.5 23t-22.5 55zM276 -238q0 -28 -19 -47.5t-47 -19.5t-47.5 19.5t-19.5 47.5v891q0 29 19 49t47 20q29 0 48 -20t19 -49v-891z" />
    <glyph glyph-name="cent" unicode="&#xa2;" horiz-adv-x="929" 
d="M467 67l135 -18v-250q0 -29 -20.5 -48.5t-47.5 -19.5q-29 0 -48 19.5t-19 48.5v268zM468 1168q0 29 19 49t47 20t48 -19.5t20 -49.5v-225l-134 -9v234zM531 -11q-101 0 -189.5 37.5t-154.5 102.5t-104.5 152.5t-38.5 188.5q0 102 37.5 192t102.5 157t154 106t193 39
q94 0 181 -33t148 -96q24 -26 24 -56q0 -16 -7 -28t-17.5 -20.5t-22 -12.5t-20.5 -4q-12 0 -25.5 6.5t-27.5 16.5t-28 21t-27 19q-46 29 -92 41t-98 11q-71 -1 -133 -30t-108 -77.5t-72 -111.5t-26 -132q0 -70 25.5 -134t71.5 -113t109.5 -78t139.5 -29q36 0 68 6t62.5 19
t62 33t66.5 47q8 4 16.5 6.5t16.5 2.5q10 0 21.5 -4.5t21.5 -13t16.5 -20.5t6.5 -27q0 -31 -24 -55q-61 -63 -148 -96t-181 -33z" />
    <glyph glyph-name="sterling" unicode="&#xa3;" horiz-adv-x="958" 
d="M287 973v-368h124q25 0 42.5 -17.5t17.5 -42.5t-17.5 -43t-42.5 -18h-124v-351h558q28 0 46.5 -19t18.5 -47t-19.5 -47.5t-46.5 -19.5h-623q-28 0 -46.5 17.5t-20.5 43.5v423h-50q-26 0 -43 18t-17 44t17 42.5t43 16.5h50v377q2 68 28.5 128t71.5 104.5t104.5 70.5
t127.5 26h25q27 0 46.5 -20t19.5 -46q0 -29 -19.5 -48t-47.5 -19h-8q-45 0 -84 -14.5t-68 -41.5t-45.5 -65t-16.5 -84h-1z" />
    <glyph glyph-name="currency" unicode="&#xa4;" horiz-adv-x="1012" 
d="M123 665q0 75 26 139.5t74 115.5l-132 183q0 1 -0.5 1t-0.5 2q-11 17 -11 35q0 26 19.5 47t47.5 21q33 0 54 -30l129 -178q77 41 172 41q43 0 83.5 -9.5t77.5 -26.5l127 184q21 30 55 30q29 0 48 -20t19 -45q0 -22 -12 -40l-129 -186q51 -51 79.5 -118.5t28.5 -145.5
q0 -81 -30 -149.5t-82 -119.5l137 -187q0 -1 0.5 -1t0.5 -1q12 -18 12 -38q0 -26 -20 -46t-48 -20q-17 -1 -30.5 7t-23.5 22l-139 188q-71 -33 -154 -33q-81 0 -154 32l-135 -195q-22 -31 -56 -31q-27 0 -46 20.5t-19 45.5q0 22 12 40l134 195q-54 52 -84 121t-30 150z
M250 666q0 -53 19.5 -98.5t53.5 -80t79.5 -54t98.5 -19.5q52 0 97.5 19.5t79.5 54t53.5 80t19.5 98.5q0 52 -19.5 97.5t-53.5 79.5t-79.5 53.5t-97.5 19.5q-53 0 -98.5 -19.5t-79.5 -53.5t-53.5 -79.5t-19.5 -97.5z" />
    <glyph glyph-name="yen" unicode="&#xa5;" horiz-adv-x="1195" 
d="M530 283h-204q-18 0 -31 13t-13 30q0 18 13 30.5t31 12.5h204v134h-204q-18 0 -31 13t-13 31t13 30t31 12h204l-490 607q-8 11 -13 21.5t-5 23.5q0 26 20 46.5t49 20.5q14 0 26.5 -5.5t22.5 -17.5l456 -565l453 567q9 11 22 16.5t26 5.5q26 0 47 -19.5t21 -46.5
q0 -25 -17 -46l-485 -608h213q17 0 30 -12.5t13 -29.5q0 -18 -13 -31t-30 -13h-213v-134h213q17 0 30 -13t13 -30t-13 -30t-30 -13h-213v-217q0 -28 -19.5 -47t-47.5 -19t-47 19t-19 47v217z" />
    <glyph glyph-name="brokenbar" unicode="&#xa6;" horiz-adv-x="401" 
d="M133 1243q0 29 19.5 49t46.5 20q29 0 48.5 -20t19.5 -49v-605q0 -29 -19.5 -49t-48.5 -20q-27 0 -46.5 20t-19.5 49v605zM133 351q0 28 19.5 48t46.5 20q29 0 48.5 -20t19.5 -48v-600q0 -28 -19.5 -47.5t-48.5 -19.5q-27 0 -46.5 19.5t-19.5 47.5v600z" />
    <glyph glyph-name="section" unicode="&#xa7;" horiz-adv-x="1001" 
d="M948 381q0 -70 -22.5 -130t-62.5 -108q39 -62 39 -142q0 -81 -35.5 -145t-92.5 -109t-129.5 -69t-145.5 -24q-60 0 -116 12t-105 36t-89 59.5t-67 82.5q-7 13 -7 27q0 26 17.5 43t42.5 17q11 0 21.5 -3.5t21.5 -11.5q59 -71 126.5 -100t153.5 -29q47 0 95 13.5t87 40.5
t63.5 66.5t24.5 92.5q0 55 -29.5 90.5t-74.5 58.5t-99.5 37.5t-103.5 27.5q-76 23 -147.5 54t-127 76t-89.5 106t-34 144q0 70 22 129.5t61 107.5q-38 62 -38 143t35 145t92 109t129 69t146 24q60 0 116.5 -12.5t105.5 -36.5t88.5 -60t66.5 -82q8 -14 8 -27q0 -26 -19 -43
t-44 -17q-10 0 -20.5 3.5t-20.5 11.5q-59 72 -126 101t-153 29q-47 0 -95 -13.5t-87 -40.5t-63.5 -67t-24.5 -92q0 -55 29.5 -90.5t74.5 -58.5t99 -37.5t104 -27.5q76 -24 147.5 -55t127.5 -75.5t90 -105.5t34 -144zM509 632q-75 17 -147.5 42.5t-129.5 67.5
q-22 -29 -34 -64.5t-12 -77.5q0 -57 28 -98t73 -70.5t101.5 -50.5t112.5 -39q75 -17 147 -42t129 -67q22 29 34.5 64.5t12.5 78.5q0 57 -28 97.5t-73 70t-101.5 50t-112.5 38.5z" />
    <glyph glyph-name="dieresis" unicode="&#xa8;" horiz-adv-x="799" 
d="M498 1244q0 17 6.5 32t17.5 26t25.5 17t30.5 6q35 0 58 -23t23 -58q0 -34 -23 -57t-58 -23q-16 0 -30.5 6t-25.5 17t-17.5 25.5t-6.5 31.5zM156 1244q0 35 23 58t57 23q35 0 58.5 -23t23.5 -58q0 -34 -23.5 -57t-58.5 -23q-34 0 -57 23t-23 57z" />
    <glyph glyph-name="copyright" unicode="&#xa9;" horiz-adv-x="1455" 
d="M733 -84q-96 0 -184 24.5t-164.5 69.5t-139 108t-107 139.5t-69 164.5t-24.5 183t24.5 183.5t69 165t107 139.5t139 108t164.5 69.5t184 24.5q95 0 183.5 -24.5t165 -69.5t139.5 -108t108.5 -139.5t70 -165t24.5 -183.5t-24.5 -183t-70 -164.5t-108.5 -139.5t-139.5 -108
t-165 -69.5t-183.5 -24.5zM733 53q115 0 215.5 43t175.5 118t118.5 175.5t43.5 215.5t-43.5 215.5t-118.5 175.5t-175.5 118t-215.5 43t-215.5 -43t-175 -118t-117.5 -175.5t-43 -215.5t43 -215.5t117.5 -175.5t175 -118t215.5 -43zM424 590q0 -2 -2 -4q0 -63 24 -121
t66 -102t99.5 -70t124.5 -26q59 0 111.5 18.5t97.5 60.5q8 8 19.5 14t22.5 6q14 0 30 -13.5t16 -33.5t-17 -37q-52 -52 -125.5 -80t-152.5 -28q-84 0 -158.5 31.5t-130 86.5t-87.5 129t-32 159q2 2 1 2.5t1 2.5q-2 6 -2 5q0 84 32 159t87.5 130.5t130 88t158.5 32.5
q80 0 152.5 -28t125.5 -82q17 -17 17 -36q0 -20 -16.5 -33.5t-30.5 -13.5q-12 0 -22 6t-19 13q-46 42 -100 61t-114 19q-65 0 -121 -26t-97 -69.5t-65 -100.5t-24 -120z" />
    <glyph glyph-name="ordfeminine" unicode="&#xaa;" horiz-adv-x="887" 
d="M693 641q-49 -49 -112.5 -81t-141.5 -32q-82 0 -154 31t-125.5 85t-84.5 126t-31 154t31 154t84.5 126t125.5 85t154 31q81 0 151.5 -30.5t122 -83.5t82 -123.5t32.5 -151.5v-337q0 -30 -20 -50.5t-49 -20.5q-30 0 -47.5 20.5t-17.5 50.5v47zM175 924q0 -55 21 -103
t57 -84t84 -57t103 -21q54 0 102.5 21t84.5 57t57 84t21 103t-21 103.5t-57 84.5t-84.5 57t-102.5 21q-55 0 -103 -21t-84 -57t-57 -84.5t-21 -103.5z" />
    <glyph glyph-name="guillemotleft" unicode="&#xab;" horiz-adv-x="1188" 
d="M54 434l-1 1q-1 0 -1 1q-11 10 -16 22t-5 24q0 29 20 49l417 413q21 21 48 21t47.5 -20.5t20.5 -47.5t-20 -47l-372 -367l370 -370q21 -21 21 -48q0 -14 -6 -26t-15.5 -21t-22 -14t-25.5 -5q-28 0 -47 20zM594 435q-4 0 -8 6t-7.5 14t-5.5 16t-2 13q0 25 18 45l5 6
l414 410q21 21 48 21t47 -21t20 -47q0 -27 -20 -47l-371 -367l370 -370q21 -21 21 -48q0 -26 -20.5 -46t-47.5 -20q-28 0 -47 20z" />
    <glyph glyph-name="logicalnot" unicode="&#xac;" horiz-adv-x="994" 
d="M770 568l-658 1q-29 0 -48.5 20t-19.5 48t19.5 47.5t48.5 19.5h728q28 -1 47 -20.5t19 -47.5v-213q0 -29 -20 -48.5t-48 -19.5q-29 0 -48.5 19.5t-19.5 48.5v145z" />
    <glyph glyph-name="uni00AD" unicode="&#xad;" horiz-adv-x="932" 
d="M783 646q20 0 34 -13t14 -32q0 -20 -14 -34.5t-34 -14.5h-629q-21 0 -34.5 14t-13.5 34t13.5 33t34.5 13h629z" />
    <glyph glyph-name="registered" unicode="&#xae;" horiz-adv-x="1433" 
d="M705 -46q-94 0 -181 24t-162 68.5t-136.5 106.5t-105 137t-67.5 162t-24 180q0 94 24 180.5t67.5 162t105 137t136.5 106t162 68.5t181 24q93 0 180 -24t162.5 -68.5t137.5 -106t106 -137t68.5 -162t24.5 -180.5t-24.5 -180.5t-68.5 -161.5t-106 -137t-137.5 -106
t-162.5 -68.5t-180 -24.5zM705 88q113 0 212.5 42.5t173.5 116t116.5 173t42.5 212.5t-42.5 212t-116.5 172.5t-173.5 116t-212.5 42.5t-211.5 -42.5t-172 -116t-116 -172.5t-42.5 -212t42.5 -212.5t116 -173t172 -116t211.5 -42.5zM504 596q1 87 35 163.5t91 133.5
t133.5 90t163.5 33h8q22 0 34.5 -12.5t12.5 -31.5q0 -20 -13.5 -32.5t-33.5 -12.5h-8q-68 0 -128.5 -26.5t-106 -72t-72 -107t-26.5 -131.5v-336q0 -20 -12.5 -32.5t-30.5 -12.5q-19 0 -33 12.5t-14 32.5v342z" />
    <glyph glyph-name="macron" unicode="&#xaf;" horiz-adv-x="860" 
d="M673 1257q26 0 42.5 -16.5t16.5 -39.5q0 -25 -16.5 -42.5t-42.5 -17.5h-427q-25 0 -41 17t-16 43q0 23 16 39.5t41 16.5h427z" />
    <glyph glyph-name="degree" unicode="&#xb0;" horiz-adv-x="683" 
d="M194 912q0 -36 13.5 -67.5t37 -55t55 -37t67.5 -13.5t68 13.5t55.5 37t37 55t13.5 67.5t-13.5 67.5t-37 55.5t-55.5 37.5t-68 13.5t-67.5 -13.5t-55 -37.5t-37 -55.5t-13.5 -67.5zM366 624q-59 0 -111 23t-90.5 62.5t-61 92t-22.5 111.5q0 60 22.5 112t61 90.5t90.5 61
t111 22.5q60 0 112.5 -22.5t91.5 -61t61.5 -90.5t22.5 -112q0 -59 -22.5 -111.5t-61.5 -92t-91.5 -62.5t-112.5 -23z" />
    <glyph glyph-name="plusminus" unicode="&#xb1;" horiz-adv-x="822" 
d="M343 732h-253q-29 0 -48.5 19t-19.5 47q0 29 19.5 49t48.5 20h253v253q0 29 19.5 48.5t47.5 19.5q29 0 48.5 -19.5t19.5 -48.5v-253h254q28 0 48 -20.5t20 -49.5q0 -28 -20 -46.5t-48 -18.5h-254v-255q0 -28 -20 -47.5t-48 -19.5t-47.5 19.5t-19.5 47.5v255zM730 281
q29 0 49 -19.5t20 -47.5q0 -29 -20 -48.5t-49 -19.5h-631q-29 0 -48.5 20t-19.5 48q0 29 19.5 48t48.5 19h631z" />
    <glyph glyph-name="twosuperior" unicode="&#xb2;" horiz-adv-x="688" 
d="M73 1069q0 17 7 32q6 39 26.5 74.5t53.5 63t77.5 44t98.5 16.5q56 0 103.5 -18.5t82.5 -51t54.5 -77t19.5 -96.5q0 -34 -8 -66.5t-29 -58.5l-12 -11q-2 -3 -3.5 -5.5t-3.5 -4.5l-274 -276h276q29 0 47 -18t18 -46t-18 -45t-47 -17h-423q-20 0 -33.5 7.5t-21.5 19t-11 26
t-3 28.5q0 22 16 37l366 350q13 15 22 34t9 42q0 57 -32.5 95t-92.5 38q-25 0 -48 -8t-41 -22.5t-30 -35.5t-15 -46v-4q0 -28 -19 -47t-48 -19q-27 0 -45.5 18.5t-18.5 47.5z" />
    <glyph glyph-name="threesuperior" unicode="&#xb3;" horiz-adv-x="596" 
d="M480 1311q20 0 38 -16.5t18 -40.5q0 -11 -6.5 -25t-12.5 -20l-176 -184q45 -9 83 -30t65.5 -52.5t43.5 -72t16 -88.5q0 -55 -21 -103t-57 -84t-84 -57t-103 -21q-37 0 -72 11t-65.5 30t-55 45.5t-41.5 57.5q0 6 -3.5 12.5t-3.5 12.5q0 17 14 31.5t35 14.5q24 0 37 -22
l3 -7q22 -42 64 -63.5t94 -21.5q34 0 63 13t50 34.5t32.5 50.5t11.5 61q0 33 -12.5 60t-34 46.5t-50.5 30.5t-61 11h-62v2h-4q-17 0 -34.5 13t-17.5 32q-1 16 14 33l188 196h-284q-20 0 -38 13t-18 40t18 42t38 15h391z" />
    <glyph glyph-name="acute" unicode="&#xb4;" horiz-adv-x="510" 
d="M301 1738q9 3 19 3q26 0 46.5 -20t20.5 -49q0 -22 -13 -39t-35 -24l-213 -101q-11 -3 -20 -3q-27 0 -46.5 19t-19.5 48q0 22 13 39.5t36 24.5z" />
    <glyph glyph-name="mu" unicode="&#xb5;" horiz-adv-x="1174" 
d="M133 896q0 29 20 49t47 20q28 0 47.5 -20t19.5 -49v-478q0 -69 28 -130.5t75 -107.5t109.5 -73t131.5 -27q70 0 132 27t108.5 73t73 107.5t26.5 130.5v478q0 29 19.5 49t46.5 20q28 0 48 -20t20 -49v-472q0 -100 -37 -187t-101 -152t-150.5 -102.5t-185.5 -37.5
q-103 0 -190.5 38.5t-153.5 107.5v-369q0 -29 -18.5 -48.5t-47.5 -19.5q-28 0 -48 19.5t-20 48.5v1174z" />
    <glyph glyph-name="paragraph" unicode="&#xb6;" horiz-adv-x="1369" 
d="M549 458h-81q-88 0 -165 33.5t-134.5 91t-91 135t-33.5 165.5t33.5 166t91 136t134.5 92t165 34h790q28 0 48 -17.5t20 -46.5t-20 -49t-48 -20h-118v-1111q0 -28 -20 -47.5t-49 -19.5q-28 0 -46.5 21.5t-18.5 50.5v1106h-324v-1107q0 -29 -17.5 -50t-46.5 -21t-49 19.5
t-20 47.5v391zM549 594v579h-87q-60 0 -112.5 -23t-91.5 -62.5t-61.5 -92t-22.5 -112.5t22.5 -113t61.5 -92t91.5 -61.5t112.5 -22.5h87z" />
    <glyph glyph-name="glyph120" unicode="&#xb7;" horiz-adv-x="328" 
d="M152 396q-20 0 -38 8t-31.5 22t-21.5 32.5t-8 39.5q0 20 8 38t21.5 32t31.5 22t38 8q21 0 40 -8t32.5 -22t21.5 -32t8 -38q0 -21 -8 -39.5t-21.5 -32.5t-32.5 -22t-40 -8z" />
    <glyph glyph-name="cedilla" unicode="&#xb8;" horiz-adv-x="481" 
d="M215 46q0 17 14 27.5t30 10.5t30 -10.5t14 -27.5v-128q37 -4 69 -21t55 -43.5t36.5 -61t13.5 -73.5q0 -41 -16 -77.5t-43 -63.5t-63.5 -43t-78.5 -16q-41 0 -77.5 16t-64 43t-43.5 63.5t-16 77.5q0 20 13 33t33 13q17 0 29.5 -12.5t12.5 -32.5q0 -23 9 -44t24.5 -36.5
t36 -24.5t44.5 -9t45 9t36.5 24.5t24.5 36.5t9 44q0 51 -35.5 82.5t-92.5 31.5q-26 0 -37.5 10.5t-11.5 26.5v175z" />
    <glyph glyph-name="onesuperior" unicode="&#xb9;" horiz-adv-x="464" 
d="M229 1121l-118 -71q-17 -9 -33 -9q-13 0 -25.5 5t-22.5 14.5t-16.5 22t-6.5 27.5q1 17 9 33.5t24 26.5l221 132q15 9 33 9q27 0 49.5 -18.5t22.5 -49.5v-609q0 -29 -20 -48.5t-49 -19.5q-28 0 -48 19.5t-20 48.5v487z" />
    <glyph glyph-name="ordmasculine" unicode="&#xba;" horiz-adv-x="898" 
d="M177 922q0 -56 21 -105.5t58 -86.5t86.5 -58t105.5 -21t105 21t85.5 58t57.5 86.5t21 105.5t-21 105t-57.5 85t-85.5 57t-105 21t-105.5 -21t-86.5 -57t-58 -85t-21 -105zM448 521q-83 0 -156 31.5t-127 86t-85.5 127.5t-31.5 156q0 82 31.5 155t85.5 127t127 85.5
t156 31.5t156 -31.5t127 -85.5t85.5 -127t31.5 -155q0 -83 -31.5 -156t-85.5 -127.5t-127 -86t-156 -31.5z" />
    <glyph glyph-name="guillemotright" unicode="&#xbb;" horiz-adv-x="1188" 
d="M552 435l-413 -415q-11 -11 -23.5 -15.5t-25.5 -4.5q-26 0 -46.5 20.5t-20.5 46.5q0 27 20 47l370 370l-371 367q-20 19 -20 47q0 27 20 47.5t47 20.5q28 0 49 -21l415 -411q13 -14 17 -28t4 -22q0 -27 -20 -47zM679 19q-20 -20 -48 -20q-26 0 -47 20t-21 46q0 27 21 48
l369 370l-371 367q-20 19 -20 47q0 27 20.5 47.5t46.5 20.5q28 0 49 -21l409 -407l7 -5q20 -22 20 -49q0 -26 -18 -45l-4 -4z" />
    <glyph glyph-name="onequarter" unicode="&#xbc;" horiz-adv-x="1706" 
 />
    <glyph glyph-name="onehalf" unicode="&#xbd;" horiz-adv-x="1651" 
 />
    <glyph glyph-name="threequarters" unicode="&#xbe;" horiz-adv-x="1679" 
 />
    <glyph glyph-name="questiondown" unicode="&#xbf;" horiz-adv-x="970" 
d="M471 464v146q0 29 19 49t47 20q29 0 48 -20t19 -49v-211q0 -29 -19.5 -48.5t-47.5 -19.5h-99q-56 0 -104 -20t-84 -55t-56.5 -82t-20.5 -101q0 -56 20 -104.5t55.5 -84.5t84 -56.5t105.5 -20.5q53 0 101 20t84.5 55.5t58 84t21.5 106.5q0 29 18 49t46 20q29 0 49 -20
t20 -49v-6q-1 -82 -32.5 -154t-85.5 -125t-125.5 -84t-153.5 -31q-83 0 -155.5 31.5t-126.5 85.5t-85.5 127t-31.5 156q0 82 31.5 153.5t86 124.5t127.5 83t156 30h30zM459 927q0 31 23 54.5t56 23.5q16 0 30.5 -6.5t25 -17t16.5 -25t6 -29.5q0 -33 -23 -56.5t-55 -23.5
q-33 0 -56 23.5t-23 56.5z" />
    <glyph glyph-name="Agrave" unicode="&#xc0;" horiz-adv-x="1165" 
d="M902 197h-668l-61 -158q-8 -20 -25.5 -31.5t-37.5 -11.5q-31 0 -50 20.5t-19 47.5q0 11 5 26l459 1186q10 22 33 33l4 2q5 3 15 4t18 1q19 0 35 -13t23 -27l459 -1186q5 -15 5 -26q0 -26 -19 -47t-50 -21q-20 0 -37.5 11.5t-26.5 31.5zM289 336h559l-279 723z
M382.037 1696q-8.99902 3 -18.998 3q-25.9971 0 -46.4941 -20q-20.498 -20 -20.498 -49q0 -22 12.999 -39q12.998 -17 34.9951 -24l212.975 -101q10.998 -3 19.9971 -3q26.9971 0 46.4941 19q19.498 19 19.498 48q0 22 -12.998 39.5q-12.999 17.5 -35.9961 24.5z" />
    <glyph glyph-name="Aacute" unicode="&#xc1;" horiz-adv-x="1165" 
d="M902 197h-668l-61 -158q-8 -20 -25.5 -31.5t-37.5 -11.5q-31 0 -50 20.5t-19 47.5q0 11 5 26l459 1186q10 22 33 33l4 2q5 3 15 4t18 1q19 0 35 -13t23 -27l459 -1186q5 -15 5 -26q0 -26 -19 -47t-50 -21q-20 0 -37.5 11.5t-26.5 31.5zM289 336h559l-279 723zM774 1685
q9 3 19 3q26 0 46.5 -20t20.5 -49q0 -22 -13 -39t-35 -24l-213 -101q-11 -3 -20 -3q-27 0 -46.5 19t-19.5 48q0 22 13 39.5t36 24.5z" />
    <glyph glyph-name="Acircumflex" unicode="&#xc2;" horiz-adv-x="1165" 
d="M902 197h-668l-61 -158q-8 -20 -25.5 -31.5t-37.5 -11.5q-31 0 -50 20.5t-19 47.5q0 11 5 26l459 1186q10 22 33 33l4 2q5 3 15 4t18 1q19 0 35 -13t23 -27l459 -1186q5 -15 5 -26q0 -26 -19 -47t-50 -21q-20 0 -37.5 11.5t-26.5 31.5zM289 336h559l-279 723z
M314 1506.17q-18 -17.998 -18 -37.9951q0 -22.9971 17 -38.9951t39 -15.998q21 0 38 15.998l195 196.976l195 -196.976q17 -16.998 38 -16.998q22 0 39 16.998q17 16.9971 17 38.9951q0 20.9971 -17 37.9951l-232 232.972l-12 9.99902q-7 4.99902 -14.5 6.49902t-15.5 1.5
q-11 -2 -21 -5.5q-10 -3.49902 -17 -12.498z" />
    <glyph glyph-name="Atilde" unicode="&#xc3;" horiz-adv-x="1165" 
d="M902 197h-668l-61 -158q-8 -20 -25.5 -31.5t-37.5 -11.5q-31 0 -50 20.5t-19 47.5q0 11 5 26l459 1186q10 22 33 33l4 2q5 3 15 4t18 1q19 0 35 -13t23 -27l459 -1186q5 -15 5 -26q0 -26 -19 -47t-50 -21q-20 0 -37.5 11.5t-26.5 31.5zM289 336h559l-279 723zM617 1656
q12 -10 28 -21.5t33.5 -21t35.5 -16t35 -6.5q44 0 72.5 25t49.5 62q5 17 20 29t33 12q22 0 39 -16t17 -38q0 -23 -15 -39q-8 -18 -25.5 -43.5t-43.5 -48t-62 -38.5t-81 -16q-48 0 -91.5 22.5t-78.5 50.5l-26 19.5t-29.5 19.5t-32 14.5t-34.5 5.5q-45 0 -76 -25.5t-54 -62.5
q-5 -19 -20 -29.5t-32 -10.5q-24 0 -39.5 16.5t-15.5 38.5q0 20 14 37q9 18 27 43.5t45.5 49t64 39.5t81.5 16q48 0 86 -20t75 -48z" />
    <glyph glyph-name="Adieresis" unicode="&#xc4;" horiz-adv-x="1165" 
d="M902 197h-668l-61 -158q-8 -20 -25.5 -31.5t-37.5 -11.5q-31 0 -50 20.5t-19 47.5q0 11 5 26l459 1186q10 22 33 33l4 2q5 3 15 4t18 1q19 0 35 -13t23 -27l459 -1186q5 -15 5 -26q0 -26 -19 -47t-50 -21q-20 0 -37.5 11.5t-26.5 31.5zM289 336h559l-279 723zM681 1520
q0 17 6.5 32t17.5 26t25.5 17t30.5 6q35 0 58 -23t23 -58q0 -34 -23 -57t-58 -23q-16 0 -30.5 6t-25.5 17t-17.5 25.5t-6.5 31.5zM339 1520q0 35 23 58t57 23q35 0 58.5 -23t23.5 -58q0 -34 -23.5 -57t-58.5 -23q-34 0 -57 23t-23 57z" />
    <glyph glyph-name="Aring" unicode="&#xc5;" horiz-adv-x="1165" 
d="M902 197h-668l-61 -158q-8 -20 -25.5 -31.5t-37.5 -11.5q-31 0 -50 20.5t-19 47.5q0 11 5 26l459 1186q10 22 33 33l4 2q5 3 15 4t18 1q19 0 35 -13t23 -27l459 -1186q5 -15 5 -26q0 -26 -19 -47t-50 -21q-20 0 -37.5 11.5t-26.5 31.5zM289 336h559l-279 723zM504 1606
q0 -18 7 -34.5t19 -28.5t28.5 -19t35.5 -7q37 0 63 26t26 63q0 19 -7 35.5t-19 28.5t-28.5 19t-34.5 7q-38 0 -64 -26t-26 -64zM593 1423q-38 0 -71 14.5t-57.5 40t-39 58.5t-14.5 71t14.5 71t39 58t57.5 39t71 14t71.5 -14t58 -39t39 -58t14.5 -71t-14.5 -71t-39 -58.5
t-58 -40t-71.5 -14.5z" />
    <glyph glyph-name="AE" unicode="&#xc6;" horiz-adv-x="1747" 
d="M885 1246q14 24 43 32h2q4 1 7 1.5t7 0.5h692q29 0 48.5 -19.5t19.5 -48.5q0 -27 -19.5 -47t-48.5 -20h-624v-469h444q29 0 48 -19t19 -47q0 -29 -18.5 -48.5t-47.5 -19.5l-445 -1v-407l619 -1q28 0 47.5 -19.5t19.5 -47.5q0 -29 -19.5 -47.5t-47.5 -18.5h-693
q-26 2 -43.5 20.5t-17.5 45.5v227h-535l-200 -268q-11 -14 -26 -20.5t-29 -6.5q-29 0 -47.5 20.5t-18.5 45.5q0 11 4 21t11 20zM877 427v583l-435 -583h435z" />
    <glyph glyph-name="Ccedilla" unicode="&#xc7;" horiz-adv-x="1274" 
d="M1073 1029q-81 79 -178 118.5t-202 39.5q-110 0 -206.5 -41.5t-168.5 -114t-113.5 -170t-41.5 -208.5q0 -108 40.5 -204.5t111.5 -169.5t168.5 -115.5t211.5 -42.5q105 0 199.5 36.5t175.5 117.5q10 10 23 14.5t26 4.5q29 0 47 -20t18 -46q0 -27 -19 -46
q-101 -100 -222 -147.5t-252 -47.5q-92 0 -176.5 24t-158 67.5t-134 104t-103.5 134.5t-66.5 159t-23.5 177q0 132 49.5 252.5t138 213t210.5 147.5t267 55q130 0 251.5 -50t220.5 -149q21 -21 21 -48q0 -13 -5.5 -24.5t-15 -20.5t-22 -14.5t-25.5 -5.5t-25 4.5t-21 15.5z
M591 10q0 17 14 27.5t30 10.5t30 -10.5t14 -27.5v-128q37 -4 69 -21t55 -43.5t36.5 -61t13.5 -73.5q0 -41 -16 -77.5t-43 -63.5t-63.5 -43t-78.5 -16q-41 0 -77.5 16t-64 43t-43.5 63.5t-16 77.5q0 20 13 33t33 13q17 0 29.5 -12.5t12.5 -32.5q0 -23 9 -44t24.5 -36.5
t36 -24.5t44.5 -9t45 9t36.5 24.5t24.5 36.5t9 44q0 51 -35.5 82.5t-92.5 31.5q-26 0 -37.5 10.5t-11.5 26.5v175z" />
    <glyph glyph-name="Egrave" unicode="&#xc8;" horiz-adv-x="982" 
d="M841 1317q28 0 47.5 -20t19.5 -49t-19.5 -49t-47.5 -20h-594v-443h395q29 0 49 -20t20 -49q0 -28 -20 -48t-49 -20h-395v-462l594 -1q28 0 47.5 -19.5t19.5 -48.5q0 -30 -19.5 -49t-47.5 -19h-663q-28 0 -48 19t-20 48v1181q0 24 14.5 42.5t37.5 24.5q4 0 6 1t4 1h669z
M354.037 1711q-8.99902 3 -18.998 3q-25.9971 0 -46.4941 -20q-20.498 -20 -20.498 -49q0 -22 12.999 -39q12.998 -17 34.9951 -24l212.975 -101q10.998 -3 19.9971 -3q26.9971 0 46.4941 19q19.498 19 19.498 48q0 22 -12.998 39.5q-12.999 17.5 -35.9961 24.5z" />
    </font>
</defs>
</svg>
